<svg width="395" height="595" viewBox="0 0 395 595" fill="none" xmlns="http://www.w3.org/2000/svg">
<rect width="135.69" height="287.639" transform="translate(140.246 49.2051) rotate(13.5849)" fill="white"/>
<line x1="105.768" y1="191.884" x2="237.662" y2="223.756" stroke="#E6EFFF" stroke-width="0.424031"/>
<path d="M253.318 85.9072L256.389 84.0318L258.264 87.1024" stroke="#333333" stroke-width="0.848063" stroke-linecap="round"/>
<rect x="250.089" y="75.748" width="16.1132" height="16.1132" rx="3.39225" transform="rotate(13.5849 250.089 75.748)" stroke="#DAE7F1" stroke-width="0.424031"/>
<path d="M146.699 59.2712L147.598 59.3863C147.576 59.5696 147.6 59.7152 147.67 59.8228C147.739 59.9305 147.848 60.0022 147.996 60.038C148.183 60.0831 148.362 60.0356 148.535 59.8955C148.707 59.7555 148.877 59.4193 149.044 58.8872C148.753 59.0962 148.437 59.1595 148.095 59.077C147.724 58.9873 147.437 58.767 147.236 58.4161C147.037 58.0636 146.993 57.6577 147.104 57.1983C147.22 56.7196 147.455 56.3685 147.809 56.145C148.165 55.9199 148.564 55.8605 149.004 55.9668C149.482 56.0825 149.83 56.3631 150.048 56.8087C150.265 57.2521 150.272 57.8978 150.067 58.7457C149.858 59.6087 149.548 60.1926 149.136 60.4974C148.724 60.8023 148.261 60.8927 147.748 60.7687C147.379 60.6795 147.104 60.5097 146.923 60.2594C146.744 60.0069 146.669 59.6775 146.699 59.2712ZM149.224 57.789C149.295 57.497 149.282 57.2542 149.186 57.0605C149.092 56.8674 148.956 56.7495 148.78 56.707C148.613 56.6665 148.457 56.6994 148.314 56.8055C148.172 56.91 148.066 57.1125 147.993 57.413C147.919 57.7179 147.925 57.9567 148.011 58.1296C148.097 58.3003 148.23 58.4075 148.41 58.4511C148.584 58.4931 148.747 58.4597 148.898 58.3508C149.051 58.2425 149.16 58.0552 149.224 57.789ZM150.28 61.2919L150.498 60.3871L151.403 60.6057L151.185 61.5106L150.28 61.2919Z" fill="#333333"/>
<path d="M154.092 60.4664C154.223 59.9254 154.414 59.4909 154.664 59.1629C154.85 58.9216 155.073 58.7186 155.333 58.5538C155.595 58.3897 155.863 58.2857 156.137 58.242C156.502 58.1819 156.9 58.204 157.332 58.3085C158.115 58.4976 158.682 58.8914 159.033 59.4901C159.386 60.0893 159.459 60.8212 159.25 61.6858C159.043 62.5431 158.647 63.1582 158.064 63.531C157.481 63.9014 156.8 63.9923 156.02 63.8038C155.23 63.613 154.66 63.2209 154.31 62.6277C153.961 62.0321 153.888 61.3116 154.092 60.4664ZM155.206 60.6971C155.061 61.2985 155.089 61.7885 155.292 62.1671C155.495 62.5434 155.81 62.7831 156.238 62.8864C156.665 62.9897 157.052 62.921 157.399 62.6802C157.749 62.4376 157.999 62.0084 158.148 61.3926C158.295 60.784 158.27 60.2976 158.075 59.9333C157.881 59.5697 157.564 59.3344 157.122 59.2276C156.68 59.1208 156.287 59.1869 155.943 59.4258C155.599 59.6624 155.354 60.0861 155.206 60.6971ZM160.337 60.6793L161.355 60.9253L160.624 63.9501L162.076 64.3012L162.807 61.2763L163.825 61.5223L163.094 64.5472L163.496 64.6443L163.053 66.481L162.23 66.2823L162.475 65.2679L159.407 64.5265L160.337 60.6793ZM166.531 64.9521L167.505 65.3675C167.284 65.7079 167.009 65.9418 166.679 66.0691C166.353 66.1946 165.978 66.2063 165.555 66.1042C164.886 65.9425 164.444 65.6043 164.228 65.0896C164.059 64.6781 164.039 64.2056 164.168 63.6718C164.322 63.0343 164.61 62.5758 165.03 62.2965C165.451 62.0148 165.916 61.9355 166.425 62.0586C166.998 62.1969 167.404 62.4957 167.643 62.9548C167.883 63.4115 167.901 64.0281 167.698 64.8047L165.148 64.1884C165.082 64.492 165.107 64.7473 165.223 64.9543C165.34 65.1589 165.516 65.2895 165.75 65.3461C165.909 65.3846 166.054 65.3735 166.184 65.3128C166.313 65.2522 166.429 65.1319 166.531 64.9521ZM166.838 63.9373C166.902 63.641 166.88 63.3992 166.772 63.212C166.664 63.0224 166.507 62.9026 166.299 62.8524C166.077 62.7987 165.874 62.8352 165.69 62.962C165.506 63.0888 165.381 63.2914 165.317 63.5697L166.838 63.9373ZM169.027 62.7794L170.045 63.0253L169.705 64.4345L171.161 64.7864L171.501 63.3772L172.523 63.6241L171.593 67.4713L170.572 67.2244L170.962 65.6087L169.506 65.2568L169.115 66.8725L168.098 66.6265L169.027 62.7794ZM173.526 63.8666L174.505 64.1029L173.921 66.5192L176.069 64.4811L177.069 64.7227L176.14 68.5699L175.162 68.3335L175.756 65.8738L173.575 67.9501L172.597 67.7138L173.526 63.8666ZM177.66 64.8654L181.141 65.7066L180.942 66.529L179.711 66.2313L178.98 69.2562L177.962 69.0102L178.693 65.9853L177.461 65.6877L177.66 64.8654ZM183.347 69.0157L184.321 69.4311C184.1 69.7715 183.825 70.0053 183.495 70.1327C183.169 70.2582 182.794 70.2699 182.371 70.1677C181.702 70.0061 181.26 69.6679 181.044 69.1531C180.875 68.7417 180.855 68.2691 180.984 67.7354C181.138 67.0978 181.426 66.6394 181.846 66.36C182.267 66.0783 182.732 65.999 183.241 66.1222C183.814 66.2605 184.22 66.5592 184.459 67.0183C184.699 67.475 184.717 68.0916 184.514 68.8682L181.964 68.2519C181.898 68.5556 181.923 68.8109 182.039 69.0178C182.156 69.2224 182.332 69.353 182.566 69.4096C182.725 69.4481 182.87 69.4371 183 69.3764C183.129 69.3157 183.245 69.1955 183.347 69.0157ZM183.654 68.0009C183.718 67.7045 183.696 67.4627 183.588 67.2756C183.48 67.086 183.323 66.9661 183.115 66.9159C182.893 66.8622 182.69 66.8988 182.506 67.0256C182.322 67.1523 182.197 67.3549 182.132 67.6332L183.654 68.0009ZM187.261 69.1638C187.342 68.8257 187.505 68.5186 187.748 68.2425C187.991 67.9664 188.285 67.7818 188.629 67.6887C188.976 67.5962 189.338 67.5954 189.715 67.6865C190.297 67.8271 190.728 68.132 191.008 68.601C191.289 69.0676 191.36 69.5895 191.221 70.1667C191.08 70.7488 190.775 71.1862 190.305 71.4792C189.839 71.7703 189.321 71.847 188.751 71.7093C188.398 71.6241 188.08 71.463 187.798 71.226C187.517 70.9895 187.331 70.6978 187.238 70.3509C187.147 70.0015 187.154 69.6058 187.261 69.1638ZM188.291 69.4703C188.199 69.8519 188.219 70.166 188.351 70.4126C188.483 70.6592 188.682 70.8146 188.947 70.8788C189.213 70.943 189.46 70.8953 189.687 70.7356C189.918 70.5765 190.079 70.3038 190.173 69.9174C190.264 69.5406 190.243 69.2289 190.111 68.9823C189.981 68.7362 189.784 68.5811 189.518 68.5169C189.252 68.4527 189.005 68.5002 188.774 68.6593C188.544 68.8184 188.383 69.0887 188.291 69.4703ZM192.444 68.4378L195.86 69.2633L194.93 73.1105L193.912 72.8645L194.643 69.8397L193.263 69.5061L192.532 72.531L191.514 72.285L192.444 68.4378ZM196.939 69.5242L197.888 69.7535L197.752 70.3187C197.922 70.1552 198.126 70.0385 198.365 69.9685C198.605 69.8985 198.852 69.8945 199.108 69.9563C199.555 70.0643 199.892 70.331 200.119 70.7565C200.346 71.182 200.384 71.7074 200.233 72.3329C200.077 72.9753 199.8 73.4373 199.399 73.7189C198.999 73.998 198.576 74.0836 198.129 73.9757C197.917 73.9243 197.734 73.8353 197.58 73.7088C197.429 73.5828 197.283 73.3942 197.142 73.1428L196.674 75.0809L195.656 74.8349L196.939 69.5242ZM197.497 71.6259C197.393 72.0582 197.401 72.3989 197.522 72.6481C197.644 72.8948 197.828 73.0479 198.075 73.1074C198.311 73.1646 198.531 73.118 198.733 72.9675C198.936 72.8147 199.09 72.5221 199.195 72.0898C199.292 71.6865 199.284 71.3675 199.169 71.1328C199.055 70.8981 198.878 70.7518 198.639 70.694C198.39 70.6339 198.16 70.6806 197.949 70.8341C197.739 70.9853 197.588 71.2492 197.497 71.6259ZM200.816 72.4395C200.898 72.1014 201.06 71.7943 201.304 71.5182C201.547 71.2421 201.841 71.0575 202.185 70.9644C202.532 70.8719 202.894 70.8711 203.271 70.9622C203.853 71.1028 204.284 71.4077 204.564 71.8767C204.845 72.3433 204.916 72.8652 204.776 73.4424C204.636 74.0244 204.33 74.4619 203.861 74.7549C203.394 75.046 202.876 75.1227 202.306 74.985C201.954 74.8998 201.636 74.7387 201.353 74.5016C201.073 74.2652 200.887 73.9735 200.794 73.6265C200.702 73.2771 200.71 72.8815 200.816 72.4395ZM201.847 72.746C201.754 73.1275 201.774 73.4417 201.906 73.6883C202.039 73.9349 202.237 74.0903 202.503 74.1545C202.769 74.2187 203.015 74.171 203.243 74.0113C203.473 73.8522 203.635 73.5795 203.728 73.193C203.819 72.8163 203.799 72.5046 203.667 72.258C203.537 72.0119 203.339 71.8568 203.074 71.7926C202.808 71.7284 202.56 71.7759 202.33 71.935C202.1 72.0941 201.939 72.3644 201.847 72.746ZM209.017 73.6467L207.97 73.5854C207.985 73.3768 207.944 73.2071 207.848 73.0765C207.754 72.9465 207.611 72.8584 207.421 72.8123C207.167 72.7511 206.943 72.7902 206.748 72.9297C206.556 73.0674 206.411 73.3416 206.312 73.7521C206.201 74.2086 206.2 74.5493 206.306 74.7745C206.415 75.0002 206.599 75.1443 206.857 75.2067C207.051 75.2534 207.222 75.2373 207.371 75.1584C207.521 75.0771 207.654 74.9085 207.77 74.6527L208.728 75.0645C208.514 75.4983 208.231 75.7967 207.879 75.9598C207.528 76.1229 207.105 76.1446 206.61 76.0249C206.047 75.889 205.641 75.6029 205.391 75.1668C205.143 74.7312 205.096 74.1995 205.247 73.5716C205.401 72.9364 205.688 72.4831 206.109 72.2116C206.53 71.9377 207.027 71.8699 207.6 72.0082C208.068 72.1215 208.416 72.3128 208.642 72.5822C208.871 72.8497 208.996 73.2046 209.017 73.6467Z" fill="#333333"/>
<rect x="137.319" y="90.2041" width="22.5293" height="69.9599" rx="2.96822" transform="rotate(13.5849 137.319 90.2041)" fill="#EFF4F9"/>
<rect x="124.987" y="141.238" width="22.5293" height="17.4569" rx="2.96822" transform="rotate(13.5849 124.987 141.238)" fill="#A6CDF1"/>
<path d="M130.743 152.848L130.566 153.584L127.79 152.913C127.888 152.642 128.041 152.401 128.251 152.19C128.462 151.976 128.839 151.717 129.381 151.413C129.819 151.167 130.092 150.994 130.201 150.895C130.35 150.758 130.443 150.61 130.482 150.45C130.525 150.274 130.509 150.127 130.436 150.01C130.365 149.891 130.246 149.812 130.079 149.772C129.914 149.732 129.77 149.75 129.649 149.826C129.527 149.902 129.431 150.053 129.36 150.281L128.59 150.011C128.742 149.587 128.965 149.31 129.259 149.18C129.553 149.05 129.886 149.03 130.258 149.12C130.665 149.218 130.959 149.406 131.139 149.682C131.319 149.958 131.369 150.259 131.29 150.586C131.245 150.772 131.168 150.941 131.06 151.094C130.954 151.245 130.806 151.395 130.617 151.545C130.492 151.644 130.276 151.777 129.971 151.946C129.666 152.115 129.471 152.229 129.385 152.288C129.301 152.347 129.23 152.407 129.171 152.469L130.743 152.848ZM131.372 152.654L132.18 152.763C132.16 152.947 132.192 153.105 132.278 153.237C132.363 153.367 132.479 153.45 132.623 153.485C132.789 153.525 132.945 153.492 133.092 153.386C133.239 153.279 133.345 153.09 133.41 152.819C133.472 152.565 133.46 152.362 133.376 152.208C133.294 152.053 133.162 151.954 132.98 151.91C132.753 151.855 132.525 151.906 132.296 152.064L131.676 151.815L132.601 149.764L134.695 150.27L134.515 151.011L133.022 150.65L132.729 151.321C132.927 151.276 133.118 151.275 133.302 151.32C133.653 151.404 133.92 151.604 134.102 151.919C134.285 152.233 134.327 152.594 134.228 153.002C134.146 153.342 133.974 153.621 133.712 153.84C133.356 154.14 132.939 154.232 132.462 154.117C132.08 154.024 131.794 153.847 131.603 153.584C131.412 153.321 131.335 153.011 131.372 152.654ZM135.073 151.381C135.162 151.011 135.31 150.756 135.514 150.617C135.721 150.478 135.963 150.442 136.241 150.509C136.528 150.578 136.731 150.722 136.85 150.939C136.97 151.155 136.986 151.449 136.896 151.821C136.807 152.191 136.659 152.446 136.452 152.585C136.247 152.724 136.006 152.76 135.728 152.693C135.441 152.624 135.237 152.481 135.116 152.265C134.997 152.047 134.983 151.753 135.073 151.381ZM135.691 151.524C135.627 151.793 135.614 151.981 135.654 152.088C135.684 152.167 135.741 152.216 135.824 152.236C135.908 152.257 135.982 152.239 136.045 152.182C136.128 152.105 136.201 151.932 136.266 151.663C136.331 151.395 136.344 151.208 136.306 151.103C136.276 151.022 136.219 150.972 136.134 150.951C136.051 150.931 135.978 150.95 135.915 151.006C135.831 151.083 135.756 151.256 135.691 151.524ZM135.791 155.013L135.205 154.872L138.458 151.045L139.028 151.182L135.791 155.013ZM137.332 154.238C137.421 153.868 137.568 153.613 137.773 153.474C137.98 153.335 138.224 153.299 138.506 153.367C138.789 153.436 138.99 153.579 139.109 153.796C139.229 154.014 139.244 154.308 139.155 154.678C139.065 155.05 138.917 155.306 138.71 155.445C138.506 155.584 138.264 155.62 137.986 155.553C137.699 155.484 137.495 155.34 137.375 155.122C137.256 154.904 137.242 154.61 137.332 154.238ZM137.95 154.384C137.885 154.653 137.872 154.84 137.913 154.945C137.943 155.026 137.999 155.076 138.082 155.096C138.166 155.116 138.239 155.098 138.301 155.042C138.385 154.964 138.46 154.792 138.524 154.523C138.589 154.254 138.603 154.067 138.565 153.96C138.534 153.881 138.477 153.832 138.392 153.811C138.308 153.791 138.235 153.809 138.173 153.866C138.089 153.943 138.015 154.116 137.95 154.384Z" fill="#333333"/>
<path d="M147.339 102.447L147.161 103.183L144.386 102.512C144.483 102.241 144.637 102 144.847 101.789C145.058 101.575 145.434 101.316 145.977 101.012C146.414 100.766 146.688 100.593 146.797 100.494C146.945 100.357 147.039 100.209 147.077 100.049C147.12 99.8728 147.105 99.7259 147.032 99.6089C146.961 99.4904 146.842 99.4109 146.675 99.3705C146.51 99.3306 146.366 99.3486 146.244 99.4245C146.123 99.5005 146.026 99.6522 145.955 99.8796L145.186 99.6101C145.338 99.1856 145.561 98.9085 145.855 98.7787C146.148 98.6489 146.481 98.6289 146.853 98.7188C147.261 98.8173 147.555 99.0046 147.734 99.2806C147.914 99.5567 147.965 99.8581 147.886 100.185C147.841 100.371 147.764 100.54 147.656 100.693C147.549 100.844 147.402 100.994 147.213 101.144C147.087 101.243 146.872 101.376 146.567 101.545C146.262 101.714 146.066 101.828 145.98 101.887C145.897 101.946 145.825 102.006 145.767 102.068L147.339 102.447Z" fill="#333333" fill-opacity="0.8"/>
<rect x="161.573" y="96.0635" width="22.5293" height="69.9599" rx="2.96822" transform="rotate(13.5849 161.573 96.0635)" fill="#EFF4F9"/>
<rect x="149.24" y="147.098" width="22.5293" height="17.4569" rx="2.96822" transform="rotate(13.5849 149.24 147.098)" fill="#A6CDF1"/>
<path d="M154.996 158.709L154.819 159.444L152.043 158.774C152.14 158.503 152.294 158.262 152.504 158.05C152.715 157.837 153.092 157.578 153.634 157.273C154.072 157.027 154.345 156.855 154.454 156.756C154.603 156.619 154.696 156.47 154.735 156.311C154.777 156.134 154.762 155.987 154.689 155.87C154.618 155.752 154.499 155.672 154.332 155.632C154.167 155.592 154.023 155.61 153.902 155.686C153.78 155.762 153.684 155.914 153.613 156.141L152.843 155.871C152.995 155.447 153.218 155.17 153.512 155.04C153.806 154.91 154.139 154.89 154.511 154.98C154.918 155.079 155.212 155.266 155.392 155.542C155.572 155.818 155.622 156.119 155.543 156.446C155.498 156.632 155.421 156.802 155.313 156.954C155.207 157.106 155.059 157.256 154.87 157.405C154.745 157.504 154.529 157.638 154.224 157.807C153.919 157.975 153.724 158.089 153.638 158.148C153.554 158.207 153.483 158.268 153.424 158.329L154.996 158.709ZM155.625 158.515L156.433 158.624C156.413 158.808 156.445 158.966 156.531 159.097C156.616 159.228 156.732 159.31 156.876 159.345C157.042 159.385 157.198 159.352 157.344 159.246C157.492 159.139 157.598 158.95 157.663 158.679C157.725 158.426 157.713 158.222 157.629 158.069C157.547 157.914 157.415 157.814 157.233 157.77C157.006 157.715 156.778 157.767 156.549 157.924L155.929 157.676L156.854 155.624L158.947 156.13L158.768 156.871L157.275 156.51L156.982 157.182C157.179 157.136 157.37 157.135 157.555 157.18C157.906 157.265 158.173 157.464 158.355 157.779C158.538 158.093 158.58 158.454 158.481 158.862C158.399 159.202 158.227 159.482 157.965 159.701C157.609 160 157.192 160.092 156.715 159.977C156.333 159.885 156.047 159.707 155.856 159.444C155.665 159.182 155.588 158.872 155.625 158.515ZM159.326 157.241C159.415 156.871 159.562 156.616 159.767 156.477C159.974 156.338 160.216 156.302 160.494 156.369C160.781 156.439 160.984 156.582 161.103 156.8C161.223 157.016 161.239 157.31 161.149 157.682C161.06 158.052 160.912 158.306 160.705 158.445C160.5 158.585 160.259 158.621 159.981 158.554C159.694 158.484 159.49 158.341 159.369 158.125C159.25 157.908 159.236 157.613 159.326 157.241ZM159.944 157.385C159.879 157.653 159.867 157.841 159.907 157.948C159.937 158.027 159.994 158.077 160.077 158.097C160.161 158.117 160.235 158.099 160.298 158.043C160.381 157.965 160.454 157.792 160.519 157.524C160.584 157.255 160.597 157.068 160.559 156.964C160.529 156.883 160.472 156.832 160.387 156.812C160.304 156.792 160.231 156.81 160.168 156.866C160.084 156.943 160.009 157.116 159.944 157.385ZM160.044 160.874L159.458 160.732L162.711 156.905L163.28 157.043L160.044 160.874ZM161.585 160.098C161.674 159.728 161.821 159.473 162.026 159.334C162.233 159.195 162.477 159.16 162.758 159.228C163.042 159.296 163.243 159.439 163.362 159.657C163.482 159.875 163.497 160.169 163.408 160.539C163.318 160.911 163.17 161.166 162.963 161.305C162.759 161.444 162.517 161.481 162.239 161.413C161.952 161.344 161.748 161.2 161.628 160.982C161.509 160.765 161.495 160.47 161.585 160.098ZM162.203 160.244C162.138 160.513 162.125 160.7 162.166 160.805C162.196 160.886 162.252 160.936 162.335 160.956C162.419 160.977 162.492 160.959 162.554 160.902C162.638 160.825 162.712 160.652 162.777 160.383C162.842 160.115 162.856 159.927 162.818 159.821C162.787 159.742 162.73 159.692 162.645 159.672C162.561 159.651 162.488 159.669 162.426 159.726C162.342 159.803 162.268 159.976 162.203 160.244Z" fill="#333333"/>
<path d="M171.591 108.308L171.414 109.043L168.638 108.373C168.736 108.102 168.889 107.861 169.099 107.649C169.31 107.435 169.687 107.177 170.229 106.872C170.667 106.626 170.94 106.454 171.049 106.355C171.198 106.218 171.291 106.069 171.33 105.91C171.373 105.733 171.357 105.586 171.284 105.469C171.213 105.351 171.094 105.271 170.927 105.231C170.762 105.191 170.619 105.209 170.497 105.285C170.375 105.361 170.279 105.513 170.208 105.74L169.438 105.47C169.59 105.046 169.813 104.769 170.107 104.639C170.401 104.509 170.734 104.489 171.106 104.579C171.513 104.678 171.807 104.865 171.987 105.141C172.167 105.417 172.217 105.718 172.138 106.045C172.093 106.231 172.016 106.401 171.908 106.553C171.802 106.705 171.654 106.855 171.465 107.004C171.34 107.103 171.125 107.237 170.819 107.406C170.514 107.574 170.319 107.688 170.233 107.747C170.149 107.806 170.078 107.867 170.019 107.928L171.591 108.308Z" fill="#333333" fill-opacity="0.8"/>
<rect x="185.825" y="101.926" width="22.5293" height="69.9599" rx="2.96822" transform="rotate(13.5849 185.825 101.926)" fill="#EFF4F9"/>
<path d="M180.344 161.223C180.744 161.32 181.023 161.538 181.179 161.878C181.366 162.281 181.365 162.875 181.175 163.658C180.987 164.439 180.716 164.968 180.362 165.245C180.071 165.472 179.725 165.538 179.325 165.441C178.923 165.344 178.636 165.112 178.465 164.744C178.293 164.375 178.304 163.794 178.495 163.001C178.683 162.224 178.954 161.697 179.307 161.42C179.598 161.192 179.944 161.127 180.344 161.223ZM180.186 161.88C180.09 161.857 179.997 161.867 179.907 161.911C179.817 161.953 179.732 162.048 179.653 162.196C179.549 162.387 179.439 162.725 179.321 163.21C179.204 163.695 179.148 164.034 179.153 164.228C179.158 164.42 179.19 164.555 179.249 164.633C179.31 164.711 179.388 164.762 179.484 164.785C179.579 164.808 179.672 164.799 179.762 164.757C179.852 164.713 179.937 164.617 180.016 164.469C180.12 164.279 180.23 163.942 180.347 163.458C180.464 162.973 180.52 162.635 180.515 162.443C180.51 162.249 180.477 162.112 180.417 162.034C180.358 161.955 180.281 161.903 180.186 161.88ZM181.973 162.714C182.062 162.344 182.209 162.09 182.414 161.95C182.621 161.811 182.863 161.775 183.141 161.843C183.428 161.912 183.631 162.056 183.75 162.273C183.87 162.489 183.886 162.783 183.796 163.155C183.706 163.525 183.558 163.779 183.352 163.918C183.147 164.058 182.906 164.094 182.628 164.027C182.341 163.957 182.136 163.815 182.016 163.599C181.897 163.381 181.883 163.086 181.973 162.714ZM182.591 162.858C182.526 163.127 182.514 163.314 182.554 163.421C182.584 163.5 182.641 163.55 182.723 163.57C182.808 163.59 182.882 163.572 182.945 163.516C183.028 163.438 183.101 163.265 183.166 162.997C183.231 162.728 183.244 162.542 183.206 162.437C183.176 162.356 183.118 162.305 183.034 162.285C182.951 162.265 182.878 162.283 182.815 162.339C182.731 162.416 182.656 162.589 182.591 162.858ZM182.691 166.347L182.104 166.205L185.358 162.378L185.927 162.516L182.691 166.347ZM184.232 165.571C184.321 165.201 184.468 164.947 184.673 164.807C184.879 164.668 185.124 164.633 185.405 164.701C185.689 164.769 185.89 164.912 186.008 165.13C186.129 165.348 186.144 165.642 186.055 166.012C185.965 166.384 185.817 166.639 185.61 166.778C185.406 166.918 185.164 166.954 184.886 166.887C184.599 166.817 184.395 166.673 184.275 166.456C184.156 166.238 184.142 165.943 184.232 165.571ZM184.85 165.718C184.785 165.986 184.772 166.173 184.812 166.278C184.843 166.359 184.899 166.41 184.982 166.43C185.066 166.45 185.139 166.432 185.201 166.375C185.285 166.298 185.359 166.125 185.424 165.857C185.489 165.588 185.503 165.4 185.465 165.294C185.434 165.215 185.377 165.165 185.292 165.145C185.208 165.124 185.135 165.142 185.073 165.199C184.989 165.276 184.914 165.449 184.85 165.718Z" fill="#333333"/>
<path d="M195.334 110.434C195.734 110.531 196.012 110.749 196.169 111.089C196.355 111.492 196.354 112.086 196.165 112.869C195.976 113.65 195.705 114.179 195.352 114.456C195.06 114.683 194.715 114.749 194.315 114.652C193.913 114.555 193.626 114.323 193.454 113.955C193.283 113.586 193.293 113.005 193.485 112.212C193.673 111.435 193.943 110.907 194.296 110.631C194.588 110.403 194.934 110.338 195.334 110.434ZM195.175 111.091C195.079 111.068 194.986 111.078 194.896 111.122C194.807 111.164 194.722 111.259 194.643 111.406C194.539 111.598 194.428 111.936 194.311 112.421C194.194 112.905 194.138 113.245 194.143 113.439C194.148 113.631 194.18 113.766 194.239 113.844C194.299 113.922 194.377 113.973 194.473 113.996C194.569 114.019 194.662 114.009 194.751 113.968C194.841 113.924 194.926 113.828 195.006 113.68C195.109 113.49 195.219 113.153 195.337 112.669C195.454 112.184 195.51 111.846 195.504 111.654C195.5 111.46 195.467 111.323 195.406 111.245C195.348 111.165 195.271 111.114 195.175 111.091Z" fill="#333333" fill-opacity="0.8"/>
<rect x="210.077" y="107.786" width="22.5293" height="69.9599" rx="2.96822" transform="rotate(13.5849 210.077 107.786)" fill="#EFF4F9"/>
<path d="M204.597 167.083C204.997 167.18 205.275 167.398 205.432 167.738C205.619 168.141 205.618 168.734 205.428 169.517C205.239 170.299 204.969 170.828 204.615 171.104C204.324 171.332 203.978 171.397 203.578 171.301C203.176 171.204 202.889 170.971 202.717 170.604C202.546 170.234 202.556 169.653 202.748 168.861C202.936 168.083 203.206 167.556 203.56 167.279C203.851 167.052 204.197 166.986 204.597 167.083ZM204.438 167.739C204.343 167.716 204.25 167.727 204.16 167.77C204.07 167.812 203.985 167.907 203.906 168.055C203.802 168.247 203.691 168.585 203.574 169.069C203.457 169.554 203.401 169.893 203.406 170.087C203.411 170.279 203.443 170.414 203.502 170.492C203.562 170.57 203.641 170.621 203.736 170.644C203.832 170.667 203.925 170.658 204.015 170.616C204.105 170.572 204.19 170.476 204.269 170.329C204.373 170.139 204.483 169.802 204.6 169.317C204.717 168.832 204.773 168.494 204.768 168.302C204.763 168.108 204.73 167.972 204.67 167.894C204.611 167.814 204.534 167.762 204.438 167.739ZM206.226 168.574C206.315 168.204 206.462 167.949 206.667 167.81C206.874 167.671 207.116 167.635 207.394 167.702C207.681 167.771 207.884 167.915 208.002 168.132C208.123 168.348 208.139 168.642 208.049 169.014C207.959 169.384 207.811 169.639 207.605 169.778C207.4 169.917 207.159 169.953 206.881 169.886C206.593 169.817 206.389 169.674 206.269 169.458C206.15 169.24 206.136 168.946 206.226 168.574ZM206.844 168.717C206.779 168.986 206.767 169.174 206.807 169.281C206.837 169.36 206.894 169.409 206.976 169.429C207.061 169.45 207.135 169.432 207.198 169.375C207.281 169.298 207.354 169.125 207.419 168.856C207.484 168.588 207.497 168.401 207.459 168.296C207.429 168.215 207.371 168.165 207.287 168.144C207.204 168.124 207.131 168.143 207.068 168.199C206.984 168.276 206.909 168.449 206.844 168.717ZM206.943 172.206L206.357 172.065L209.611 168.238L210.18 168.375L206.943 172.206ZM208.485 171.431C208.574 171.061 208.721 170.806 208.926 170.667C209.132 170.528 209.377 170.492 209.658 170.56C209.942 170.629 210.143 170.772 210.261 170.989C210.382 171.207 210.397 171.501 210.308 171.871C210.218 172.243 210.07 172.499 209.863 172.638C209.658 172.777 209.417 172.813 209.139 172.746C208.852 172.677 208.648 172.533 208.528 172.315C208.409 172.097 208.395 171.803 208.485 171.431ZM209.102 171.577C209.038 171.846 209.025 172.033 209.065 172.138C209.096 172.219 209.152 172.269 209.235 172.289C209.319 172.309 209.392 172.291 209.454 172.234C209.538 172.157 209.612 171.985 209.677 171.716C209.742 171.447 209.756 171.26 209.718 171.153C209.687 171.074 209.63 171.025 209.545 171.004C209.461 170.984 209.388 171.002 209.326 171.059C209.242 171.136 209.167 171.308 209.102 171.577Z" fill="#333333"/>
<path d="M220.589 116.537C220.989 116.634 221.267 116.852 221.424 117.192C221.611 117.595 221.61 118.188 221.42 118.971C221.231 119.753 220.961 120.282 220.607 120.558C220.316 120.786 219.97 120.851 219.57 120.755C219.168 120.658 218.881 120.425 218.709 120.058C218.538 119.688 218.548 119.107 218.74 118.315C218.928 117.537 219.198 117.01 219.552 116.733C219.843 116.506 220.189 116.44 220.589 116.537ZM220.43 117.193C220.335 117.17 220.242 117.181 220.152 117.224C220.062 117.266 219.977 117.361 219.898 117.509C219.794 117.701 219.683 118.039 219.566 118.523C219.449 119.008 219.393 119.347 219.398 119.541C219.403 119.733 219.435 119.868 219.494 119.946C219.555 120.024 219.633 120.075 219.729 120.098C219.824 120.121 219.917 120.112 220.007 120.07C220.097 120.026 220.182 119.93 220.261 119.783C220.365 119.593 220.475 119.256 220.592 118.771C220.709 118.287 220.765 117.948 220.76 117.756C220.755 117.562 220.722 117.426 220.662 117.348C220.603 117.268 220.526 117.217 220.43 117.193Z" fill="#333333" fill-opacity="0.8"/>
<rect x="234.436" y="113.673" width="22.5293" height="69.9599" rx="2.96822" transform="rotate(13.5849 234.436 113.673)" fill="#EFF4F9"/>
<rect x="226.204" y="147.737" width="22.5293" height="34.9156" rx="2.96822" transform="rotate(13.5849 226.204 147.737)" fill="#A6CDF1"/>
<path d="M225.277 175.347L226.086 175.456C226.065 175.64 226.097 175.798 226.183 175.93C226.269 176.06 226.384 176.142 226.529 176.177C226.694 176.217 226.85 176.184 226.997 176.079C227.144 175.971 227.25 175.782 227.316 175.512C227.377 175.258 227.365 175.054 227.281 174.901C227.199 174.746 227.067 174.646 226.885 174.602C226.658 174.548 226.43 174.599 226.201 174.756L225.581 174.508L226.506 172.456L228.6 172.962L228.421 173.703L226.927 173.342L226.634 174.014C226.832 173.968 227.023 173.968 227.207 174.012C227.558 174.097 227.825 174.297 228.007 174.611C228.19 174.926 228.232 175.287 228.133 175.694C228.051 176.034 227.879 176.314 227.618 176.533C227.261 176.832 226.844 176.924 226.367 176.809C225.986 176.717 225.699 176.54 225.508 176.277C225.318 176.014 225.24 175.704 225.277 175.347ZM230.561 173.359C230.962 173.455 231.24 173.674 231.396 174.014C231.583 174.417 231.582 175.01 231.393 175.793C231.204 176.574 230.933 177.103 230.58 177.38C230.288 177.608 229.942 177.673 229.542 177.576C229.14 177.479 228.853 177.247 228.682 176.88C228.511 176.51 228.521 175.929 228.712 175.136C228.9 174.359 229.171 173.832 229.524 173.555C229.816 173.327 230.161 173.262 230.561 173.359ZM230.403 174.015C230.307 173.992 230.214 174.002 230.124 174.046C230.034 174.088 229.95 174.183 229.87 174.331C229.766 174.522 229.656 174.86 229.539 175.345C229.422 175.83 229.365 176.169 229.37 176.363C229.376 176.555 229.408 176.69 229.466 176.768C229.527 176.846 229.605 176.897 229.701 176.92C229.797 176.943 229.889 176.934 229.979 176.892C230.069 176.848 230.154 176.752 230.233 176.604C230.337 176.415 230.447 176.077 230.564 175.593C230.681 175.108 230.737 174.77 230.732 174.578C230.727 174.384 230.695 174.248 230.634 174.169C230.576 174.09 230.499 174.038 230.403 174.015ZM232.19 174.85C232.28 174.48 232.427 174.225 232.631 174.085C232.838 173.946 233.08 173.911 233.358 173.978C233.646 174.047 233.848 174.191 233.967 174.408C234.088 174.624 234.103 174.918 234.013 175.29C233.924 175.66 233.776 175.915 233.569 176.054C233.365 176.193 233.123 176.229 232.845 176.162C232.558 176.093 232.354 175.95 232.233 175.734C232.115 175.516 232.1 175.222 232.19 174.85ZM232.809 174.993C232.744 175.262 232.731 175.449 232.771 175.557C232.802 175.635 232.858 175.685 232.941 175.705C233.025 175.725 233.099 175.707 233.163 175.651C233.245 175.574 233.319 175.401 233.383 175.132C233.448 174.863 233.462 174.677 233.423 174.572C233.393 174.491 233.336 174.441 233.251 174.42C233.169 174.4 233.096 174.418 233.032 174.475C232.948 174.552 232.874 174.724 232.809 174.993ZM232.908 178.482L232.322 178.341L235.576 174.514L236.145 174.651L232.908 178.482ZM234.449 177.707C234.539 177.337 234.686 177.082 234.89 176.942C235.097 176.803 235.341 176.768 235.623 176.836C235.906 176.905 236.107 177.048 236.226 177.265C236.346 177.483 236.362 177.777 236.272 178.147C236.182 178.519 236.034 178.774 235.827 178.913C235.623 179.053 235.382 179.089 235.104 179.022C234.816 178.952 234.612 178.809 234.492 178.591C234.374 178.373 234.359 178.078 234.449 177.707ZM235.067 177.853C235.002 178.121 234.99 178.308 235.03 178.413C235.06 178.494 235.116 178.545 235.199 178.565C235.284 178.585 235.357 178.567 235.418 178.51C235.502 178.433 235.577 178.26 235.642 177.992C235.707 177.723 235.72 177.536 235.682 177.429C235.652 177.35 235.594 177.3 235.51 177.28C235.425 177.259 235.352 177.278 235.291 177.334C235.206 177.411 235.132 177.584 235.067 177.853Z" fill="#333333"/>
<path d="M243.357 126.429L243.558 125.598L241.867 125.19L242.035 124.497L244.461 122.307L245.126 122.467L244.492 125.088L245.005 125.211L244.837 125.907L244.324 125.783L244.123 126.615L243.357 126.429ZM243.726 124.902L244.067 123.491L242.776 124.673L243.726 124.902Z" fill="#333333" fill-opacity="0.8"/>
<path d="M129.559 166.968C130.007 166.383 130.937 166.608 131.068 167.333L131.79 171.341C131.845 171.641 132.056 171.889 132.343 171.99L136.185 173.342C136.88 173.587 136.954 174.541 136.304 174.89L132.716 176.815C132.447 176.959 132.277 177.237 132.269 177.542L132.17 181.613C132.152 182.35 131.268 182.715 130.736 182.205L127.795 179.387C127.575 179.176 127.259 179.1 126.966 179.187L123.064 180.351C122.357 180.562 121.737 179.833 122.058 179.169L123.829 175.502C123.961 175.228 123.936 174.903 123.763 174.652L121.45 171.3C121.031 170.693 121.533 169.878 122.263 169.978L126.298 170.529C126.6 170.571 126.901 170.446 127.086 170.204L129.559 166.968Z" fill="#A6CDF1"/>
<path d="M153.813 172.829C154.261 172.243 155.191 172.468 155.321 173.193L156.044 177.201C156.098 177.501 156.309 177.749 156.597 177.851L160.439 179.203C161.134 179.447 161.207 180.401 160.558 180.75L156.97 182.676C156.701 182.82 156.53 183.097 156.523 183.402L156.424 187.473C156.406 188.21 155.522 188.575 154.989 188.065L152.049 185.248C151.829 185.037 151.512 184.96 151.22 185.047L147.317 186.211C146.611 186.422 145.991 185.693 146.311 185.03L148.082 181.363C148.215 181.088 148.19 180.763 148.017 180.512L145.704 177.16C145.285 176.554 145.786 175.739 146.517 175.838L150.551 176.39C150.854 176.431 151.155 176.307 151.34 176.064L153.813 172.829Z" fill="#A6CDF1"/>
<path d="M178.234 178.818C178.57 178.379 179.267 178.547 179.365 179.091L180.088 183.099C180.156 183.474 180.42 183.784 180.779 183.911L184.621 185.263C185.142 185.447 185.197 186.162 184.71 186.423L181.122 188.349C180.786 188.529 180.573 188.876 180.564 189.257L180.465 193.329C180.451 193.881 179.788 194.155 179.389 193.772L176.448 190.955C176.173 190.691 175.777 190.595 175.412 190.704L171.51 191.868C170.98 192.026 170.515 191.48 170.755 190.982L172.526 187.315C172.692 186.972 172.661 186.566 172.444 186.252L170.131 182.9C169.817 182.445 170.193 181.834 170.741 181.909L174.775 182.46C175.153 182.512 175.53 182.356 175.761 182.053L178.234 178.818Z" fill="#EFF4F9" stroke="#DDE4FE" stroke-width="0.424031"/>
<path d="M202.487 184.678C202.823 184.239 203.52 184.408 203.618 184.952L204.341 188.959C204.408 189.335 204.672 189.645 205.032 189.771L208.873 191.123C209.395 191.307 209.45 192.022 208.963 192.284L205.375 194.209C205.039 194.39 204.826 194.737 204.816 195.118L204.717 199.189C204.704 199.742 204.041 200.015 203.642 199.633L200.701 196.815C200.426 196.551 200.03 196.456 199.665 196.565L195.762 197.729C195.232 197.887 194.767 197.34 195.008 196.843L196.779 193.176C196.945 192.832 196.913 192.426 196.697 192.112L194.384 188.761C194.07 188.306 194.446 187.694 194.993 187.769L199.028 188.32C199.406 188.372 199.782 188.217 200.014 187.914L202.487 184.678Z" fill="#EFF4F9" stroke="#DDE4FE" stroke-width="0.424031"/>
<path d="M226.677 190.435C227.125 189.85 228.055 190.074 228.186 190.8L228.908 194.808C228.962 195.108 229.174 195.356 229.461 195.457L233.303 196.809C233.998 197.054 234.072 198.008 233.422 198.356L229.834 200.282C229.565 200.426 229.395 200.704 229.387 201.009L229.288 205.08C229.27 205.817 228.386 206.182 227.854 205.672L224.913 202.854C224.693 202.643 224.376 202.566 224.084 202.654L220.182 203.818C219.475 204.028 218.855 203.3 219.176 202.636L220.947 198.969C221.079 198.694 221.054 198.37 220.881 198.119L218.568 194.767C218.149 194.16 218.651 193.345 219.381 193.445L223.416 193.996C223.718 194.037 224.019 193.913 224.204 193.671L226.677 190.435Z" fill="#A6CDF1"/>
<path d="M128.702 176.733L127.91 176.542L128.631 173.558C128.277 173.759 127.887 173.876 127.463 173.911L127.637 173.193C127.86 173.175 128.115 173.102 128.403 172.972C128.691 172.841 128.911 172.661 129.062 172.431L129.704 172.586L128.702 176.733Z" fill="#333333" fill-opacity="0.7"/>
<path d="M153.781 182.015L153.603 182.75L150.828 182.08C150.925 181.809 151.079 181.568 151.289 181.356C151.5 181.143 151.876 180.884 152.419 180.579C152.856 180.333 153.129 180.161 153.239 180.062C153.387 179.925 153.481 179.776 153.519 179.617C153.562 179.44 153.547 179.293 153.474 179.176C153.403 179.058 153.284 178.978 153.117 178.938C152.951 178.898 152.808 178.916 152.686 178.992C152.565 179.068 152.468 179.22 152.397 179.447L151.628 179.178C151.78 178.753 152.003 178.476 152.297 178.346C152.59 178.216 152.923 178.196 153.295 178.286C153.703 178.385 153.996 178.572 154.176 178.848C154.356 179.124 154.407 179.426 154.328 179.752C154.283 179.938 154.206 180.108 154.097 180.26C153.991 180.412 153.844 180.562 153.655 180.711C153.529 180.81 153.314 180.944 153.009 181.113C152.704 181.281 152.508 181.395 152.422 181.454C152.338 181.513 152.267 181.574 152.209 181.635L153.781 182.015Z" fill="#333333" fill-opacity="0.7"/>
<path d="M175.419 186.863L176.207 186.955C176.185 187.156 176.214 187.321 176.296 187.451C176.379 187.58 176.496 187.663 176.648 187.699C176.811 187.739 176.963 187.71 177.104 187.613C177.247 187.516 177.343 187.363 177.394 187.152C177.442 186.953 177.427 186.782 177.348 186.64C177.269 186.498 177.153 186.408 176.999 186.371C176.897 186.346 176.771 186.337 176.621 186.342L176.864 185.718C177.077 185.775 177.251 185.769 177.388 185.698C177.525 185.626 177.613 185.508 177.652 185.345C177.686 185.206 177.671 185.085 177.609 184.982C177.546 184.88 177.446 184.812 177.309 184.779C177.174 184.746 177.047 184.765 176.928 184.836C176.81 184.907 176.718 185.03 176.654 185.205L175.954 184.905C176.065 184.667 176.19 184.486 176.327 184.362C176.467 184.237 176.638 184.154 176.84 184.114C177.045 184.072 177.261 184.078 177.489 184.133C177.877 184.227 178.159 184.427 178.334 184.731C178.479 184.981 178.52 185.233 178.458 185.489C178.371 185.851 178.103 186.093 177.654 186.213C177.879 186.321 178.04 186.48 178.138 186.691C178.238 186.902 178.258 187.132 178.198 187.382C178.11 187.745 177.903 188.022 177.576 188.213C177.25 188.405 176.889 188.453 176.495 188.357C176.121 188.267 175.837 188.085 175.643 187.811C175.449 187.536 175.374 187.22 175.419 186.863Z" fill="#333333" fill-opacity="0.7"/>
<path d="M200.987 194.201L201.188 193.37L199.497 192.961L199.665 192.268L202.091 190.078L202.756 190.239L202.122 192.859L202.635 192.983L202.467 193.679L201.954 193.555L201.753 194.386L200.987 194.201ZM201.356 192.674L201.697 191.262L200.407 192.444L201.356 192.674Z" fill="#333333" fill-opacity="0.7"/>
<path d="M223.955 198.628L224.764 198.737C224.743 198.921 224.776 199.078 224.861 199.21C224.947 199.34 225.062 199.423 225.207 199.458C225.372 199.498 225.528 199.465 225.675 199.359C225.822 199.252 225.929 199.063 225.994 198.792C226.055 198.539 226.044 198.335 225.96 198.182C225.878 198.027 225.746 197.927 225.564 197.883C225.336 197.828 225.108 197.879 224.879 198.037L224.259 197.789L225.185 195.737L227.278 196.243L227.099 196.984L225.606 196.623L225.312 197.295C225.51 197.249 225.701 197.248 225.885 197.293C226.236 197.378 226.503 197.577 226.686 197.892C226.868 198.206 226.91 198.567 226.812 198.975C226.729 199.315 226.558 199.595 226.296 199.814C225.939 200.113 225.522 200.205 225.045 200.09C224.664 199.998 224.378 199.82 224.187 199.557C223.996 199.295 223.919 198.985 223.955 198.628Z" fill="#333333" fill-opacity="0.7"/>
<path d="M216.771 237.146L219.842 235.27L221.718 238.341" stroke="#333333" stroke-width="0.848063" stroke-linecap="round"/>
<rect x="213.543" y="226.986" width="16.1132" height="16.1132" rx="3.39225" transform="rotate(13.5849 213.543 226.986)" stroke="#DAE7F1" stroke-width="0.424031"/>
<path d="M108.513 211.269L107.609 211.05L108.433 207.64C108.027 207.869 107.582 208.004 107.098 208.043L107.296 207.222C107.551 207.202 107.843 207.118 108.172 206.97C108.501 206.821 108.752 206.614 108.925 206.351L109.659 206.529L108.513 211.269ZM112.544 207.226C113.001 207.337 113.319 207.586 113.498 207.975C113.712 208.435 113.71 209.113 113.494 210.008C113.278 210.901 112.968 211.506 112.565 211.822C112.232 212.082 111.836 212.157 111.379 212.046C110.92 211.935 110.592 211.67 110.396 211.25C110.2 210.828 110.212 210.164 110.431 209.258C110.646 208.369 110.955 207.767 111.358 207.451C111.691 207.19 112.087 207.116 112.544 207.226ZM112.363 207.976C112.253 207.95 112.147 207.962 112.044 208.012C111.941 208.06 111.845 208.168 111.754 208.337C111.635 208.556 111.509 208.942 111.375 209.496C111.241 210.05 111.177 210.438 111.183 210.66C111.189 210.879 111.225 211.033 111.292 211.122C111.362 211.212 111.451 211.27 111.56 211.296C111.67 211.323 111.776 211.312 111.878 211.264C111.981 211.214 112.078 211.104 112.169 210.935C112.287 210.719 112.413 210.333 112.547 209.779C112.681 209.226 112.745 208.839 112.739 208.619C112.733 208.398 112.696 208.242 112.627 208.153C112.56 208.062 112.472 208.003 112.363 207.976ZM113.733 212.53L113.952 211.625L114.857 211.844L114.638 212.749L113.733 212.53Z" fill="#333333"/>
<path d="M117.547 211.706C117.677 211.165 117.868 210.73 118.118 210.402C118.305 210.161 118.527 209.958 118.787 209.793C119.049 209.629 119.317 209.525 119.591 209.481C119.956 209.421 120.354 209.443 120.786 209.548C121.569 209.737 122.136 210.131 122.487 210.729C122.841 211.329 122.913 212.06 122.704 212.925C122.497 213.782 122.102 214.397 121.518 214.77C120.935 215.141 120.254 215.232 119.474 215.043C118.684 214.852 118.114 214.46 117.764 213.867C117.415 213.271 117.342 212.551 117.547 211.706ZM118.66 211.936C118.515 212.538 118.543 213.028 118.746 213.406C118.949 213.783 119.264 214.022 119.692 214.126C120.119 214.229 120.506 214.16 120.853 213.919C121.203 213.677 121.453 213.248 121.602 212.632C121.749 212.023 121.724 211.537 121.529 211.173C121.335 210.809 121.018 210.574 120.576 210.467C120.134 210.36 119.741 210.426 119.397 210.665C119.053 210.902 118.808 211.325 118.66 211.936ZM123.791 211.919L124.809 212.165L124.078 215.189L125.53 215.54L126.261 212.516L127.279 212.762L126.548 215.786L126.95 215.884L126.507 217.72L125.684 217.522L125.929 216.507L122.861 215.766L123.791 211.919ZM129.986 216.191L130.959 216.607C130.738 216.947 130.463 217.181 130.134 217.308C129.807 217.434 129.432 217.446 129.009 217.343C128.34 217.182 127.898 216.844 127.683 216.329C127.514 215.917 127.494 215.445 127.623 214.911C127.777 214.274 128.064 213.815 128.484 213.536C128.905 213.254 129.37 213.175 129.88 213.298C130.452 213.436 130.858 213.735 131.097 214.194C131.337 214.651 131.355 215.267 131.152 216.044L128.602 215.428C128.536 215.731 128.561 215.987 128.678 216.194C128.794 216.398 128.97 216.529 129.204 216.585C129.363 216.624 129.508 216.613 129.638 216.552C129.767 216.491 129.883 216.371 129.986 216.191ZM130.292 215.177C130.356 214.88 130.334 214.638 130.226 214.451C130.118 214.262 129.961 214.142 129.753 214.092C129.531 214.038 129.328 214.074 129.144 214.201C128.96 214.328 128.835 214.531 128.771 214.809L130.292 215.177ZM132.481 214.019L133.499 214.265L133.159 215.674L134.615 216.026L134.956 214.616L135.977 214.863L135.047 218.711L134.026 218.464L134.416 216.848L132.96 216.496L132.57 218.112L131.552 217.866L132.481 214.019ZM136.981 215.106L137.959 215.342L137.375 217.758L139.524 215.72L140.523 215.962L139.594 219.809L138.616 219.573L139.21 217.113L137.029 219.189L136.051 218.953L136.981 215.106ZM141.114 216.105L144.595 216.946L144.396 217.768L143.165 217.471L142.434 220.495L141.416 220.249L142.147 217.225L140.915 216.927L141.114 216.105ZM146.802 220.255L147.775 220.67C147.554 221.011 147.279 221.245 146.95 221.372C146.623 221.497 146.248 221.509 145.825 221.407C145.156 221.245 144.714 220.907 144.498 220.392C144.33 219.981 144.31 219.508 144.439 218.975C144.593 218.337 144.88 217.879 145.3 217.599C145.721 217.318 146.186 217.238 146.696 217.361C147.268 217.5 147.674 217.798 147.913 218.258C148.153 218.714 148.171 219.331 147.968 220.107L145.418 219.491C145.352 219.795 145.377 220.05 145.494 220.257C145.61 220.462 145.786 220.592 146.02 220.649C146.179 220.687 146.324 220.676 146.454 220.616C146.583 220.555 146.699 220.435 146.802 220.255ZM147.108 219.24C147.172 218.944 147.15 218.702 147.042 218.515C146.934 218.325 146.777 218.205 146.569 218.155C146.347 218.101 146.144 218.138 145.96 218.265C145.776 218.392 145.651 218.594 145.587 218.872L147.108 219.24ZM150.715 220.403C150.797 220.065 150.959 219.758 151.202 219.482C151.445 219.206 151.739 219.021 152.083 218.928C152.43 218.835 152.792 218.835 153.169 218.926C153.751 219.066 154.182 219.371 154.463 219.84C154.743 220.307 154.814 220.829 154.675 221.406C154.534 221.988 154.229 222.425 153.759 222.718C153.293 223.01 152.775 223.086 152.205 222.949C151.852 222.863 151.534 222.702 151.252 222.465C150.971 222.229 150.785 221.937 150.693 221.59C150.601 221.241 150.608 220.845 150.715 220.403ZM151.745 220.71C151.653 221.091 151.673 221.405 151.805 221.652C151.937 221.898 152.136 222.054 152.401 222.118C152.667 222.182 152.914 222.135 153.142 221.975C153.372 221.816 153.533 221.543 153.627 221.157C153.718 220.78 153.697 220.468 153.565 220.222C153.436 219.975 153.238 219.82 152.972 219.756C152.707 219.692 152.459 219.739 152.229 219.899C151.998 220.058 151.837 220.328 151.745 220.71ZM155.898 219.677L159.314 220.503L158.384 224.35L157.366 224.104L158.097 221.079L156.717 220.745L155.986 223.77L154.968 223.524L155.898 219.677ZM160.393 220.763L161.342 220.993L161.206 221.558C161.376 221.394 161.58 221.278 161.819 221.208C162.059 221.138 162.306 221.134 162.562 221.196C163.009 221.304 163.346 221.57 163.573 221.996C163.8 222.421 163.838 222.947 163.687 223.572C163.531 224.215 163.254 224.677 162.853 224.958C162.454 225.237 162.03 225.323 161.583 225.215C161.371 225.164 161.188 225.075 161.035 224.948C160.883 224.822 160.737 224.633 160.596 224.382L160.128 226.32L159.11 226.074L160.393 220.763ZM160.951 222.865C160.847 223.297 160.855 223.638 160.976 223.887C161.098 224.134 161.282 224.287 161.529 224.347C161.765 224.404 161.985 224.357 162.188 224.207C162.391 224.054 162.544 223.761 162.649 223.329C162.746 222.926 162.738 222.607 162.623 222.372C162.509 222.137 162.332 221.991 162.093 221.933C161.844 221.873 161.614 221.92 161.403 222.073C161.193 222.225 161.042 222.488 160.951 222.865ZM164.271 223.679C164.352 223.341 164.515 223.034 164.758 222.757C165.001 222.481 165.295 222.297 165.639 222.204C165.986 222.111 166.348 222.11 166.725 222.201C167.307 222.342 167.738 222.647 168.018 223.116C168.299 223.583 168.37 224.104 168.23 224.682C168.09 225.264 167.785 225.701 167.315 225.994C166.849 226.285 166.33 226.362 165.76 226.224C165.408 226.139 165.09 225.978 164.807 225.741C164.527 225.504 164.341 225.213 164.248 224.866C164.156 224.516 164.164 224.121 164.271 223.679ZM165.301 223.985C165.208 224.367 165.228 224.681 165.361 224.928C165.493 225.174 165.692 225.33 165.957 225.394C166.223 225.458 166.47 225.41 166.697 225.251C166.927 225.091 167.089 224.819 167.183 224.432C167.274 224.056 167.253 223.744 167.121 223.497C166.991 223.251 166.794 223.096 166.528 223.032C166.262 222.968 166.014 223.015 165.784 223.174C165.554 223.333 165.393 223.604 165.301 223.985ZM172.471 224.886L171.424 224.825C171.439 224.616 171.398 224.446 171.302 224.316C171.208 224.186 171.066 224.098 170.875 224.052C170.621 223.99 170.397 224.029 170.202 224.169C170.011 224.307 169.865 224.581 169.766 224.991C169.656 225.448 169.654 225.789 169.76 226.014C169.869 226.239 170.053 226.384 170.312 226.446C170.505 226.493 170.676 226.477 170.825 226.398C170.975 226.316 171.108 226.148 171.224 225.892L172.182 226.304C171.968 226.738 171.685 227.036 171.333 227.199C170.982 227.362 170.559 227.384 170.064 227.264C169.501 227.128 169.095 226.842 168.845 226.406C168.598 225.97 168.55 225.439 168.701 224.811C168.855 224.176 169.142 223.722 169.563 223.451C169.984 223.177 170.481 223.109 171.054 223.248C171.522 223.361 171.87 223.552 172.096 223.821C172.325 224.089 172.45 224.444 172.471 224.886Z" fill="#333333"/>
<rect x="100.701" y="241.745" width="22.5293" height="69.9599" rx="2.96822" transform="rotate(13.5849 100.701 241.745)" fill="#EFF4F9"/>
<rect x="88.3672" y="292.779" width="22.5293" height="17.4569" rx="2.96822" transform="rotate(13.5849 88.3672 292.779)" fill="#F8837C"/>
<path d="M94.1232 304.39L93.9455 305.126L91.1702 304.455C91.2674 304.184 91.4211 303.943 91.6313 303.732C91.842 303.518 92.2186 303.259 92.7613 302.955C93.1986 302.709 93.4719 302.536 93.5812 302.437C93.7297 302.3 93.8232 302.152 93.8617 301.992C93.9044 301.816 93.8892 301.669 93.8161 301.552C93.7453 301.433 93.6264 301.354 93.4592 301.314C93.2939 301.274 93.1504 301.292 93.0286 301.368C92.9069 301.443 92.8106 301.595 92.7397 301.823L91.9699 301.553C92.1222 301.129 92.3452 300.851 92.639 300.722C92.9328 300.592 93.2656 300.572 93.6375 300.662C94.0451 300.76 94.3389 300.948 94.5187 301.224C94.6985 301.5 94.7489 301.801 94.6699 302.128C94.625 302.314 94.5483 302.483 94.4398 302.636C94.3337 302.787 94.186 302.937 93.9969 303.087C93.8716 303.186 93.6564 303.319 93.3512 303.488C93.046 303.657 92.8505 303.771 92.7647 303.83C92.6808 303.889 92.6096 303.949 92.551 304.011L94.1232 304.39ZM94.7516 304.196L95.5603 304.305C95.5397 304.489 95.5721 304.647 95.6575 304.779C95.7433 304.909 95.8586 304.992 96.0032 305.027C96.1685 305.067 96.3246 305.034 96.4714 304.928C96.6186 304.821 96.725 304.632 96.7903 304.361C96.8516 304.107 96.8402 303.904 96.756 303.75C96.6741 303.595 96.5421 303.496 96.3599 303.452C96.1326 303.397 95.9046 303.448 95.6757 303.606L95.0557 303.357L95.9809 301.306L98.0744 301.811L97.8953 302.553L96.402 302.192L96.1085 302.863C96.3064 302.818 96.4974 302.817 96.6815 302.862C97.0327 302.946 97.2996 303.146 97.4821 303.461C97.6645 303.775 97.7065 304.136 97.608 304.544C97.5258 304.884 97.3539 305.163 97.0922 305.382C96.7356 305.682 96.3187 305.774 95.8416 305.659C95.4603 305.566 95.1741 305.389 94.9832 305.126C94.7922 304.863 94.715 304.553 94.7516 304.196ZM98.453 302.923C98.5424 302.553 98.6894 302.298 98.8941 302.159C99.1006 302.02 99.3429 301.984 99.6209 302.051C99.9083 302.12 100.111 302.264 100.23 302.481C100.35 302.697 100.366 302.991 100.276 303.363C100.186 303.733 100.039 303.988 99.832 304.127C99.6273 304.266 99.386 304.302 99.108 304.235C98.8206 304.166 98.6165 304.023 98.4958 303.807C98.3774 303.589 98.3631 303.295 98.453 302.923ZM99.0714 303.066C99.0064 303.335 98.9939 303.523 99.0336 303.63C99.0642 303.709 99.1209 303.758 99.2035 303.778C99.288 303.799 99.362 303.781 99.4253 303.724C99.5076 303.647 99.5812 303.474 99.6461 303.205C99.711 302.937 99.7243 302.75 99.686 302.645C99.6559 302.564 99.5985 302.514 99.514 302.493C99.4313 302.473 99.3584 302.492 99.2951 302.548C99.2108 302.625 99.1363 302.798 99.0714 303.066ZM99.1706 306.555L98.5845 306.414L101.838 302.587L102.407 302.724L99.1706 306.555ZM100.712 305.78C100.801 305.41 100.948 305.155 101.153 305.016C101.36 304.877 101.604 304.841 101.885 304.909C102.169 304.978 102.37 305.121 102.488 305.338C102.609 305.556 102.624 305.85 102.535 306.22C102.445 306.592 102.297 306.848 102.09 306.987C101.886 307.126 101.644 307.162 101.366 307.095C101.079 307.026 100.875 306.882 100.755 306.664C100.636 306.446 100.622 306.152 100.712 305.78ZM101.33 305.926C101.265 306.195 101.252 306.382 101.293 306.487C101.323 306.568 101.379 306.618 101.462 306.638C101.546 306.658 101.619 306.64 101.681 306.584C101.765 306.506 101.839 306.334 101.904 306.065C101.969 305.796 101.983 305.609 101.945 305.502C101.914 305.423 101.857 305.374 101.772 305.353C101.688 305.333 101.615 305.351 101.553 305.408C101.469 305.485 101.394 305.657 101.33 305.926Z" fill="#333333"/>
<path d="M110.719 253.99L110.541 254.726L107.766 254.055C107.863 253.784 108.017 253.543 108.227 253.332C108.438 253.118 108.814 252.859 109.357 252.555C109.794 252.309 110.067 252.136 110.177 252.037C110.325 251.9 110.419 251.752 110.457 251.592C110.5 251.416 110.485 251.269 110.412 251.152C110.341 251.033 110.222 250.954 110.055 250.913C109.889 250.874 109.746 250.892 109.624 250.968C109.502 251.043 109.406 251.195 109.335 251.423L108.565 251.153C108.718 250.729 108.941 250.451 109.235 250.322C109.528 250.192 109.861 250.172 110.233 250.262C110.641 250.36 110.934 250.548 111.114 250.824C111.294 251.1 111.344 251.401 111.266 251.728C111.221 251.914 111.144 252.083 111.035 252.236C110.929 252.387 110.782 252.537 110.593 252.687C110.467 252.786 110.252 252.919 109.947 253.088C109.642 253.257 109.446 253.371 109.36 253.43C109.276 253.489 109.205 253.549 109.147 253.611L110.719 253.99Z" fill="#333333" fill-opacity="0.8"/>
<rect x="124.952" y="247.606" width="22.5293" height="69.9599" rx="2.96822" transform="rotate(13.5849 124.952 247.606)" fill="#EFF4F9"/>
<rect x="112.62" y="298.64" width="22.5293" height="17.4569" rx="2.96822" transform="rotate(13.5849 112.62 298.64)" fill="#F4A070"/>
<path d="M118.376 310.252L118.199 310.987L115.423 310.317C115.521 310.046 115.674 309.805 115.884 309.593C116.095 309.379 116.472 309.121 117.014 308.816C117.452 308.57 117.725 308.398 117.834 308.299C117.983 308.162 118.076 308.013 118.115 307.854C118.158 307.677 118.142 307.53 118.069 307.413C117.998 307.295 117.88 307.215 117.712 307.175C117.547 307.135 117.404 307.153 117.282 307.229C117.16 307.305 117.064 307.457 116.993 307.684L116.223 307.414C116.375 306.99 116.598 306.713 116.892 306.583C117.186 306.453 117.519 306.433 117.891 306.523C118.298 306.622 118.592 306.809 118.772 307.085C118.952 307.361 119.002 307.662 118.923 307.989C118.878 308.175 118.801 308.345 118.693 308.497C118.587 308.649 118.439 308.799 118.25 308.948C118.125 309.047 117.91 309.181 117.604 309.35C117.299 309.518 117.104 309.632 117.018 309.691C116.934 309.75 116.863 309.81 116.804 309.872L118.376 310.252ZM119.005 310.058L119.813 310.167C119.793 310.351 119.825 310.508 119.911 310.64C119.997 310.771 120.112 310.853 120.256 310.888C120.422 310.928 120.578 310.895 120.725 310.789C120.872 310.682 120.978 310.493 121.043 310.222C121.105 309.969 121.093 309.765 121.009 309.612C120.927 309.457 120.795 309.357 120.613 309.313C120.386 309.258 120.158 309.31 119.929 309.467L119.309 309.219L120.234 307.167L122.328 307.673L122.149 308.414L120.655 308.053L120.362 308.725C120.56 308.679 120.751 308.678 120.935 308.723C121.286 308.808 121.553 309.007 121.735 309.322C121.918 309.636 121.96 309.997 121.861 310.405C121.779 310.745 121.607 311.025 121.345 311.244C120.989 311.543 120.572 311.635 120.095 311.52C119.713 311.428 119.427 311.25 119.236 310.987C119.045 310.725 118.968 310.415 119.005 310.058ZM122.706 308.784C122.796 308.414 122.943 308.159 123.147 308.02C123.354 307.881 123.596 307.845 123.874 307.912C124.161 307.982 124.364 308.125 124.483 308.343C124.604 308.559 124.619 308.853 124.529 309.225C124.44 309.595 124.292 309.849 124.085 309.988C123.88 310.128 123.639 310.164 123.361 310.097C123.074 310.027 122.87 309.884 122.749 309.668C122.631 309.451 122.616 309.156 122.706 308.784ZM123.325 308.928C123.26 309.196 123.247 309.384 123.287 309.491C123.317 309.57 123.374 309.62 123.457 309.639C123.541 309.66 123.615 309.642 123.678 309.586C123.761 309.508 123.834 309.335 123.899 309.067C123.964 308.798 123.978 308.611 123.939 308.507C123.909 308.426 123.852 308.375 123.767 308.355C123.685 308.335 123.612 308.353 123.548 308.409C123.464 308.486 123.389 308.659 123.325 308.928ZM123.424 312.417L122.838 312.275L126.091 308.448L126.661 308.586L123.424 312.417ZM124.965 311.641C125.054 311.271 125.201 311.016 125.406 310.877C125.613 310.738 125.857 310.703 126.139 310.771C126.422 310.839 126.623 310.982 126.742 311.2C126.862 311.418 126.877 311.712 126.788 312.082C126.698 312.454 126.55 312.709 126.343 312.848C126.139 312.987 125.897 313.023 125.619 312.956C125.332 312.887 125.128 312.743 125.008 312.525C124.889 312.308 124.875 312.013 124.965 311.641ZM125.583 311.787C125.518 312.056 125.505 312.243 125.546 312.348C125.576 312.429 125.632 312.479 125.715 312.499C125.799 312.52 125.872 312.502 125.934 312.445C126.018 312.368 126.093 312.195 126.158 311.926C126.222 311.658 126.236 311.47 126.198 311.364C126.167 311.285 126.11 311.235 126.025 311.214C125.941 311.194 125.868 311.212 125.806 311.269C125.722 311.346 125.648 311.519 125.583 311.787Z" fill="#333333"/>
<path d="M134.971 259.852L134.794 260.587L132.018 259.917C132.116 259.646 132.269 259.405 132.48 259.193C132.69 258.979 133.067 258.721 133.61 258.416C134.047 258.17 134.32 257.998 134.429 257.899C134.578 257.762 134.671 257.613 134.71 257.454C134.753 257.277 134.737 257.13 134.664 257.013C134.594 256.895 134.475 256.815 134.307 256.775C134.142 256.735 133.999 256.753 133.877 256.829C133.755 256.905 133.659 257.056 133.588 257.284L132.818 257.014C132.97 256.59 133.193 256.313 133.487 256.183C133.781 256.053 134.114 256.033 134.486 256.123C134.893 256.222 135.187 256.409 135.367 256.685C135.547 256.961 135.597 257.262 135.518 257.589C135.473 257.775 135.397 257.945 135.288 258.097C135.182 258.249 135.034 258.399 134.845 258.548C134.72 258.647 134.505 258.781 134.199 258.95C133.894 259.118 133.699 259.232 133.613 259.291C133.529 259.35 133.458 259.41 133.399 259.472L134.971 259.852Z" fill="#333333" fill-opacity="0.8"/>
<rect x="149.205" y="253.467" width="22.5293" height="69.9599" rx="2.96822" transform="rotate(13.5849 149.205 253.467)" fill="#EFF4F9"/>
<path d="M143.724 312.765C144.124 312.862 144.403 313.08 144.559 313.42C144.746 313.823 144.745 314.417 144.555 315.2C144.367 315.981 144.096 316.51 143.743 316.787C143.451 317.014 143.105 317.08 142.705 316.983C142.303 316.886 142.016 316.654 141.845 316.286C141.673 315.917 141.684 315.336 141.875 314.543C142.063 313.766 142.334 313.239 142.687 312.962C142.978 312.734 143.324 312.669 143.724 312.765ZM143.566 313.422C143.47 313.399 143.377 313.409 143.287 313.453C143.197 313.495 143.113 313.59 143.033 313.738C142.929 313.929 142.819 314.267 142.702 314.752C142.584 315.237 142.528 315.576 142.533 315.77C142.538 315.962 142.57 316.097 142.629 316.175C142.69 316.253 142.768 316.304 142.864 316.327C142.959 316.35 143.052 316.341 143.142 316.299C143.232 316.255 143.317 316.159 143.396 316.011C143.5 315.821 143.61 315.484 143.727 315C143.844 314.515 143.9 314.177 143.895 313.985C143.89 313.791 143.857 313.654 143.797 313.576C143.738 313.497 143.661 313.445 143.566 313.422ZM145.353 314.256C145.442 313.886 145.59 313.632 145.794 313.492C146.001 313.353 146.243 313.317 146.521 313.385C146.808 313.454 147.011 313.598 147.13 313.815C147.25 314.031 147.266 314.325 147.176 314.697C147.087 315.067 146.939 315.321 146.732 315.46C146.527 315.6 146.286 315.636 146.008 315.569C145.721 315.499 145.517 315.357 145.396 315.141C145.277 314.923 145.263 314.628 145.353 314.256ZM145.971 314.4C145.907 314.669 145.894 314.856 145.934 314.963C145.964 315.042 146.021 315.092 146.104 315.112C146.188 315.132 146.262 315.114 146.325 315.058C146.408 314.98 146.481 314.807 146.546 314.539C146.611 314.27 146.624 314.084 146.586 313.979C146.556 313.898 146.499 313.847 146.414 313.827C146.331 313.807 146.258 313.825 146.195 313.881C146.111 313.958 146.036 314.131 145.971 314.4ZM146.071 317.889L145.485 317.747L148.738 313.92L149.308 314.058L146.071 317.889ZM147.612 317.113C147.701 316.743 147.848 316.489 148.053 316.349C148.26 316.21 148.504 316.175 148.786 316.243C149.069 316.311 149.27 316.454 149.389 316.672C149.509 316.89 149.524 317.184 149.435 317.554C149.345 317.926 149.197 318.181 148.99 318.32C148.786 318.46 148.544 318.496 148.266 318.429C147.979 318.359 147.775 318.215 147.655 317.998C147.536 317.78 147.522 317.485 147.612 317.113ZM148.23 317.26C148.165 317.528 148.152 317.715 148.193 317.82C148.223 317.901 148.279 317.952 148.362 317.972C148.446 317.992 148.519 317.974 148.581 317.917C148.665 317.84 148.74 317.667 148.804 317.399C148.869 317.13 148.883 316.942 148.845 316.836C148.814 316.757 148.757 316.707 148.672 316.687C148.588 316.666 148.515 316.684 148.453 316.741C148.369 316.818 148.295 316.991 148.23 317.26Z" fill="#333333"/>
<path d="M158.714 261.976C159.114 262.073 159.392 262.291 159.548 262.631C159.735 263.034 159.734 263.628 159.545 264.411C159.356 265.192 159.085 265.721 158.732 265.998C158.44 266.225 158.094 266.291 157.694 266.194C157.292 266.097 157.006 265.865 156.834 265.497C156.663 265.128 156.673 264.547 156.865 263.754C157.052 262.977 157.323 262.449 157.676 262.173C157.968 261.945 158.314 261.88 158.714 261.976ZM158.555 262.633C158.459 262.61 158.366 262.62 158.276 262.664C158.186 262.706 158.102 262.801 158.022 262.948C157.919 263.14 157.808 263.478 157.691 263.963C157.574 264.447 157.518 264.787 157.522 264.981C157.528 265.173 157.56 265.308 157.618 265.386C157.679 265.464 157.757 265.515 157.853 265.538C157.949 265.561 158.042 265.551 158.131 265.51C158.221 265.466 158.306 265.37 158.386 265.222C158.489 265.032 158.599 264.695 158.716 264.211C158.834 263.726 158.889 263.388 158.884 263.195C158.879 263.001 158.847 262.865 158.786 262.787C158.728 262.707 158.651 262.656 158.555 262.633Z" fill="#333333" fill-opacity="0.8"/>
<rect x="173.458" y="259.327" width="22.5293" height="69.9599" rx="2.96822" transform="rotate(13.5849 173.458 259.327)" fill="#EFF4F9"/>
<path d="M167.976 318.626C168.377 318.722 168.655 318.941 168.811 319.281C168.998 319.684 168.997 320.277 168.808 321.06C168.619 321.842 168.348 322.371 167.995 322.647C167.703 322.875 167.357 322.94 166.957 322.844C166.555 322.747 166.268 322.514 166.097 322.147C165.926 321.777 165.936 321.196 166.127 320.404C166.315 319.626 166.586 319.099 166.939 318.822C167.231 318.595 167.576 318.529 167.976 318.626ZM167.818 319.282C167.722 319.259 167.629 319.269 167.539 319.313C167.449 319.355 167.365 319.45 167.285 319.598C167.181 319.79 167.071 320.128 166.954 320.612C166.837 321.097 166.78 321.436 166.785 321.63C166.791 321.822 166.823 321.957 166.881 322.035C166.942 322.113 167.02 322.164 167.116 322.187C167.212 322.21 167.304 322.201 167.394 322.159C167.484 322.115 167.569 322.019 167.648 321.872C167.752 321.682 167.862 321.345 167.979 320.86C168.096 320.375 168.152 320.037 168.147 319.845C168.142 319.651 168.11 319.515 168.049 319.437C167.991 319.357 167.914 319.305 167.818 319.282ZM169.605 320.117C169.695 319.747 169.842 319.492 170.046 319.353C170.253 319.214 170.495 319.178 170.773 319.245C171.061 319.314 171.263 319.458 171.382 319.675C171.503 319.891 171.518 320.185 171.428 320.557C171.339 320.927 171.191 321.182 170.984 321.321C170.78 321.46 170.538 321.496 170.26 321.429C169.973 321.36 169.769 321.217 169.648 321.001C169.53 320.783 169.515 320.489 169.605 320.117ZM170.224 320.26C170.159 320.529 170.146 320.717 170.186 320.824C170.217 320.903 170.273 320.952 170.356 320.972C170.44 320.993 170.514 320.975 170.578 320.918C170.66 320.841 170.734 320.668 170.798 320.399C170.863 320.131 170.877 319.944 170.838 319.839C170.808 319.758 170.751 319.708 170.666 319.687C170.584 319.667 170.511 319.685 170.447 319.742C170.363 319.819 170.289 319.992 170.224 320.26ZM170.323 323.749L169.737 323.608L172.991 319.781L173.56 319.918L170.323 323.749ZM171.864 322.974C171.954 322.604 172.101 322.349 172.305 322.21C172.512 322.071 172.756 322.035 173.038 322.103C173.321 322.172 173.522 322.315 173.641 322.532C173.761 322.75 173.777 323.044 173.687 323.414C173.597 323.786 173.449 324.042 173.242 324.181C173.038 324.32 172.796 324.356 172.518 324.289C172.231 324.219 172.027 324.076 171.907 323.858C171.789 323.64 171.774 323.346 171.864 322.974ZM172.482 323.12C172.417 323.389 172.405 323.576 172.445 323.681C172.475 323.762 172.531 323.812 172.614 323.832C172.699 323.852 172.772 323.834 172.833 323.777C172.917 323.7 172.992 323.528 173.057 323.259C173.122 322.99 173.135 322.803 173.097 322.696C173.067 322.617 173.009 322.568 172.924 322.547C172.84 322.527 172.767 322.545 172.706 322.602C172.621 322.679 172.547 322.851 172.482 323.12Z" fill="#333333"/>
<path d="M183.969 268.08C184.369 268.177 184.647 268.395 184.804 268.735C184.99 269.138 184.989 269.731 184.8 270.514C184.611 271.296 184.34 271.825 183.987 272.101C183.695 272.329 183.35 272.394 182.95 272.298C182.548 272.201 182.261 271.968 182.089 271.601C181.918 271.231 181.928 270.65 182.12 269.858C182.308 269.08 182.578 268.553 182.931 268.276C183.223 268.049 183.569 267.983 183.969 268.08ZM183.81 268.736C183.714 268.713 183.621 268.724 183.531 268.767C183.442 268.809 183.357 268.904 183.278 269.052C183.174 269.244 183.063 269.582 182.946 270.066C182.829 270.551 182.773 270.89 182.778 271.084C182.783 271.276 182.815 271.411 182.874 271.489C182.934 271.567 183.012 271.618 183.108 271.641C183.204 271.664 183.297 271.655 183.386 271.613C183.476 271.569 183.561 271.473 183.641 271.326C183.744 271.136 183.854 270.799 183.972 270.314C184.089 269.83 184.145 269.491 184.139 269.299C184.135 269.105 184.102 268.969 184.041 268.891C183.983 268.811 183.906 268.76 183.81 268.736Z" fill="#333333" fill-opacity="0.8"/>
<rect x="197.711" y="265.188" width="22.5293" height="69.9599" rx="2.96822" transform="rotate(13.5849 197.711 265.188)" fill="#EFF4F9"/>
<rect x="189.479" y="299.253" width="22.5293" height="34.9156" rx="2.96822" transform="rotate(13.5849 189.479 299.253)" fill="#BFDD26"/>
<path d="M188.551 326.864L189.36 326.973C189.339 327.156 189.372 327.314 189.457 327.446C189.543 327.576 189.658 327.659 189.803 327.694C189.968 327.734 190.124 327.701 190.271 327.595C190.418 327.488 190.525 327.299 190.59 327.028C190.651 326.775 190.64 326.571 190.556 326.418C190.474 326.263 190.342 326.163 190.16 326.119C189.932 326.064 189.704 326.115 189.475 326.273L188.855 326.025L189.781 323.973L191.874 324.479L191.695 325.22L190.202 324.859L189.908 325.53C190.106 325.485 190.297 325.484 190.481 325.529C190.832 325.614 191.099 325.813 191.282 326.128C191.464 326.442 191.506 326.803 191.408 327.211C191.326 327.551 191.154 327.83 190.892 328.049C190.535 328.349 190.118 328.441 189.641 328.326C189.26 328.234 188.974 328.056 188.783 327.793C188.592 327.53 188.515 327.221 188.551 326.864ZM193.836 324.875C194.236 324.972 194.514 325.19 194.671 325.53C194.858 325.933 194.856 326.526 194.667 327.31C194.478 328.091 194.207 328.62 193.854 328.897C193.563 329.124 193.217 329.19 192.817 329.093C192.415 328.996 192.128 328.764 191.956 328.396C191.785 328.027 191.795 327.446 191.987 326.653C192.175 325.875 192.445 325.348 192.798 325.072C193.09 324.844 193.436 324.779 193.836 324.875ZM193.677 325.532C193.581 325.509 193.489 325.519 193.398 325.563C193.309 325.605 193.224 325.7 193.145 325.847C193.041 326.039 192.93 326.377 192.813 326.862C192.696 327.346 192.64 327.686 192.645 327.88C192.65 328.072 192.682 328.207 192.741 328.284C192.801 328.363 192.88 328.413 192.975 328.437C193.071 328.46 193.164 328.45 193.253 328.408C193.344 328.365 193.428 328.269 193.508 328.121C193.611 327.931 193.722 327.594 193.839 327.109C193.956 326.625 194.012 326.286 194.007 326.094C194.002 325.9 193.969 325.764 193.908 325.686C193.85 325.606 193.773 325.555 193.677 325.532ZM195.465 326.366C195.554 325.996 195.701 325.741 195.906 325.602C196.112 325.463 196.355 325.427 196.633 325.494C196.92 325.564 197.123 325.707 197.241 325.925C197.362 326.141 197.378 326.435 197.288 326.807C197.198 327.177 197.05 327.431 196.844 327.57C196.639 327.71 196.398 327.746 196.12 327.679C195.832 327.609 195.628 327.466 195.507 327.25C195.389 327.033 195.375 326.738 195.465 326.366ZM196.083 326.51C196.018 326.778 196.006 326.966 196.045 327.073C196.076 327.152 196.133 327.202 196.215 327.222C196.3 327.242 196.374 327.224 196.437 327.168C196.519 327.09 196.593 326.917 196.658 326.649C196.723 326.38 196.736 326.193 196.698 326.089C196.668 326.008 196.61 325.957 196.526 325.937C196.443 325.917 196.37 325.935 196.307 325.991C196.223 326.068 196.148 326.241 196.083 326.51ZM196.182 329.999L195.596 329.857L198.85 326.03L199.419 326.168L196.182 329.999ZM197.724 329.223C197.813 328.853 197.96 328.598 198.165 328.459C198.371 328.32 198.615 328.285 198.897 328.353C199.181 328.421 199.382 328.564 199.5 328.782C199.621 329 199.636 329.294 199.547 329.664C199.457 330.036 199.308 330.291 199.102 330.43C198.897 330.569 198.656 330.606 198.378 330.538C198.091 330.469 197.887 330.325 197.766 330.107C197.648 329.89 197.634 329.595 197.724 329.223ZM198.341 329.369C198.276 329.638 198.264 329.825 198.304 329.93C198.334 330.011 198.391 330.061 198.473 330.081C198.558 330.102 198.631 330.084 198.692 330.027C198.777 329.95 198.851 329.777 198.916 329.508C198.981 329.24 198.995 329.052 198.957 328.946C198.926 328.867 198.868 328.817 198.784 328.797C198.699 328.776 198.626 328.794 198.565 328.851C198.481 328.928 198.406 329.101 198.341 329.369Z" fill="#333333"/>
<path d="M206.632 277.946L206.832 277.115L205.142 276.706L205.309 276.013L207.735 273.823L208.4 273.984L207.767 276.604L208.28 276.728L208.112 277.424L207.599 277.3L207.398 278.131L206.632 277.946ZM207.001 276.419L207.342 275.007L206.051 276.189L207.001 276.419Z" fill="#333333" fill-opacity="0.8"/>
<circle cx="115.549" cy="330.659" r="8.25847" transform="rotate(13.5849 115.549 330.659)" fill="#FFAB98"/>
<path d="M114.022 334.251C115.286 333.414 116.932 333.205 118.433 333.839" stroke="#822D1A" stroke-width="0.636047" stroke-miterlimit="10" stroke-linecap="round" stroke-linejoin="round"/>
<path d="M117.811 331.404C118.313 331.526 118.819 331.216 118.941 330.714C119.062 330.211 118.753 329.705 118.25 329.583C117.748 329.462 117.242 329.771 117.12 330.274C116.999 330.776 117.308 331.283 117.811 331.404Z" fill="#822D1A"/>
<path d="M118.19 330.46C118.329 330.494 118.47 330.408 118.503 330.269C118.537 330.13 118.451 329.989 118.312 329.956C118.172 329.922 118.032 330.008 117.998 330.147C117.965 330.286 118.05 330.427 118.19 330.46Z" fill="white"/>
<path d="M112.762 330.184C113.265 330.306 113.771 329.997 113.893 329.494C114.014 328.991 113.705 328.485 113.202 328.364C112.7 328.242 112.193 328.551 112.072 329.054C111.95 329.557 112.26 330.063 112.762 330.184Z" fill="#822D1A"/>
<path d="M113.141 329.24C113.28 329.273 113.421 329.188 113.454 329.048C113.488 328.909 113.402 328.769 113.263 328.735C113.124 328.701 112.983 328.787 112.949 328.926C112.916 329.066 113.002 329.206 113.141 329.24Z" fill="white"/>
<path d="M112.323 326.541C112.731 326.36 113.187 326.284 113.653 326.334" stroke="#822D1A" stroke-width="0.636047" stroke-miterlimit="10" stroke-linecap="round" stroke-linejoin="round"/>
<path d="M118.828 327.632C119.256 327.76 119.653 327.998 119.973 328.339" stroke="#822D1A" stroke-width="0.636047" stroke-miterlimit="10" stroke-linecap="round" stroke-linejoin="round"/>
<circle cx="140.259" cy="336.63" r="8.25847" transform="rotate(13.5849 140.259 336.63)" fill="#EEF4FA"/>
<path d="M142.684 336.702C143.186 336.823 143.692 336.514 143.814 336.012C143.935 335.509 143.626 335.003 143.124 334.881C142.621 334.76 142.115 335.069 141.993 335.572C141.872 336.074 142.181 336.58 142.684 336.702Z" fill="#6C849B"/>
<path d="M143.062 335.757C143.201 335.791 143.342 335.705 143.376 335.566C143.409 335.426 143.323 335.286 143.184 335.252C143.045 335.219 142.904 335.304 142.871 335.444C142.837 335.583 142.923 335.724 143.062 335.757Z" fill="white"/>
<path d="M137.636 335.483C138.139 335.605 138.645 335.296 138.767 334.793C138.888 334.29 138.579 333.784 138.076 333.662C137.573 333.541 137.067 333.85 136.946 334.353C136.824 334.856 137.133 335.362 137.636 335.483Z" fill="#6C849B"/>
<path d="M138.014 334.538C138.153 334.571 138.294 334.486 138.327 334.346C138.361 334.207 138.275 334.066 138.136 334.033C137.997 333.999 137.856 334.085 137.823 334.224C137.789 334.364 137.875 334.504 138.014 334.538Z" fill="white"/>
<path d="M135.782 339.163L142.85 340.871" stroke="#6C849B" stroke-width="0.636047" stroke-miterlimit="10" stroke-linecap="round" stroke-linejoin="round"/>
<circle cx="189.681" cy="348.573" r="8.25847" transform="rotate(13.5849 189.681 348.573)" fill="#9FCB29"/>
<path d="M193.097 350.876C192.631 352.802 190.469 354.159 188.332 353.643C186.194 353.126 184.89 350.932 185.356 349.005L193.097 350.876Z" stroke="#628408" stroke-width="0.636047" stroke-miterlimit="10" stroke-linecap="round" stroke-linejoin="round"/>
<path d="M192.524 348.39C193.026 348.512 193.533 348.203 193.654 347.7C193.776 347.197 193.466 346.691 192.964 346.57C192.461 346.448 191.955 346.757 191.833 347.26C191.712 347.763 192.021 348.269 192.524 348.39Z" fill="#628408"/>
<path d="M192.902 347.445C193.042 347.478 193.182 347.393 193.216 347.253C193.25 347.114 193.164 346.974 193.024 346.94C192.885 346.906 192.745 346.992 192.711 347.131C192.677 347.271 192.763 347.411 192.902 347.445Z" fill="white"/>
<path d="M187.475 347.171C187.977 347.292 188.483 346.983 188.605 346.48C188.726 345.977 188.417 345.471 187.915 345.35C187.412 345.228 186.906 345.537 186.784 346.04C186.663 346.543 186.972 347.049 187.475 347.171Z" fill="#628408"/>
<path d="M187.854 346.226C187.993 346.26 188.133 346.174 188.167 346.035C188.201 345.895 188.115 345.755 187.976 345.721C187.836 345.687 187.696 345.773 187.662 345.913C187.628 346.052 187.714 346.192 187.854 346.226Z" fill="white"/>
<path d="M187.166 343.477C187.523 343.209 187.951 343.032 188.416 342.977" stroke="#628408" stroke-width="0.636047" stroke-miterlimit="10" stroke-linecap="round" stroke-linejoin="round"/>
<path d="M193.332 344.205C193.719 344.428 194.05 344.751 194.284 345.157" stroke="#628408" stroke-width="0.636047" stroke-miterlimit="10" stroke-linecap="round" stroke-linejoin="round"/>
<circle cx="90.8388" cy="324.687" r="8.25847" transform="rotate(13.5849 90.8388 324.687)" fill="#FC6262"/>
<path d="M88.3884 324.295C88.8912 324.416 89.3973 324.107 89.5188 323.604C89.6403 323.102 89.3312 322.595 88.8284 322.474C88.3256 322.352 87.8195 322.662 87.698 323.164C87.5765 323.667 87.8856 324.173 88.3884 324.295Z" fill="#590E18"/>
<path d="M88.7667 323.349C88.9061 323.383 89.0464 323.297 89.0801 323.158C89.1138 323.018 89.0281 322.878 88.8887 322.844C88.7492 322.811 88.6089 322.896 88.5752 323.036C88.5415 323.175 88.6272 323.315 88.7667 323.349Z" fill="white"/>
<path d="M87.9491 320.652C88.3573 320.471 88.8136 320.394 89.2788 320.444" stroke="#590E18" stroke-width="0.636047" stroke-miterlimit="10" stroke-linecap="round" stroke-linejoin="round"/>
<path d="M93.4375 325.512C93.9403 325.634 94.4464 325.325 94.5679 324.822C94.6894 324.319 94.3803 323.813 93.8775 323.692C93.3746 323.57 92.8685 323.879 92.747 324.382C92.6255 324.885 92.9346 325.391 93.4375 325.512Z" fill="#590E18"/>
<path d="M93.816 324.566C93.9554 324.6 94.0957 324.514 94.1294 324.374C94.1631 324.235 94.0774 324.095 93.938 324.061C93.7986 324.027 93.6582 324.113 93.6245 324.252C93.5909 324.392 93.6766 324.532 93.816 324.566Z" fill="white"/>
<path d="M94.4546 321.74C94.8825 321.867 95.2792 322.106 95.6001 322.446" stroke="#590E18" stroke-width="0.636047" stroke-miterlimit="10" stroke-linecap="round" stroke-linejoin="round"/>
<path d="M86.3733 328.647C88.5172 326.258 92.3843 327.311 93.107 330.265" stroke="#590E18" stroke-width="0.636047" stroke-miterlimit="10" stroke-linecap="round" stroke-linejoin="round"/>
<circle cx="164.97" cy="342.601" r="8.25871" transform="rotate(13.5849 164.97 342.601)" fill="#EEF4FA"/>
<path d="M168.345 345.831C167.284 346.972 165.7 347.458 164.114 347.074C162.503 346.685 161.287 345.574 160.882 344.037" stroke="#6C849B" stroke-width="0.848063" stroke-miterlimit="10" stroke-linecap="round" stroke-linejoin="round"/>
<path d="M167.776 342.766C168.278 342.888 168.785 342.579 168.906 342.076C169.028 341.573 168.718 341.067 168.216 340.946C167.713 340.824 167.207 341.133 167.085 341.636C166.964 342.139 167.273 342.645 167.776 342.766Z" fill="#6C849B"/>
<path d="M168.154 341.821C168.294 341.854 168.434 341.769 168.468 341.629C168.501 341.49 168.416 341.35 168.276 341.316C168.137 341.282 167.996 341.368 167.963 341.507C167.929 341.647 168.015 341.787 168.154 341.821Z" fill="white"/>
<path d="M162.727 341.547C163.23 341.668 163.736 341.359 163.857 340.856C163.979 340.353 163.67 339.847 163.167 339.726C162.664 339.604 162.158 339.913 162.036 340.416C161.915 340.919 162.224 341.425 162.727 341.547Z" fill="#6C849B"/>
<path d="M163.106 340.601C163.245 340.635 163.385 340.549 163.419 340.41C163.453 340.27 163.367 340.13 163.228 340.096C163.088 340.062 162.948 340.148 162.914 340.288C162.88 340.427 162.966 340.567 163.106 340.601Z" fill="white"/>
<rect x="133.455" y="226.104" width="45.7563" height="10.1768" rx="1.27209" transform="rotate(13.5849 133.455 226.104)" fill="#EFF4F9"/>
<path d="M136.578 231.821C136.72 231.234 136.989 230.812 137.385 230.557C137.781 230.3 138.228 230.232 138.727 230.352C139.054 230.431 139.33 230.581 139.555 230.8C139.779 231.02 139.926 231.286 139.995 231.599C140.067 231.911 140.059 232.244 139.974 232.599C139.887 232.958 139.737 233.261 139.524 233.51C139.31 233.758 139.053 233.923 138.752 234.006C138.451 234.086 138.147 234.09 137.84 234.015C137.506 233.935 137.228 233.782 137.004 233.558C136.781 233.333 136.635 233.066 136.567 232.754C136.499 232.443 136.503 232.132 136.578 231.821ZM137.059 231.945C136.956 232.372 136.989 232.736 137.158 233.038C137.329 233.338 137.588 233.53 137.934 233.614C138.287 233.699 138.607 233.645 138.893 233.452C139.182 233.259 139.381 232.935 139.491 232.479C139.561 232.191 139.573 231.928 139.526 231.69C139.482 231.451 139.379 231.25 139.22 231.087C139.062 230.923 138.866 230.813 138.632 230.756C138.301 230.676 137.987 230.721 137.692 230.892C137.399 231.061 137.188 231.413 137.059 231.945ZM140.725 231.934L141.16 232.039L140.626 234.246L141.829 234.537L142.362 232.33L142.797 232.435L142.264 234.642L142.544 234.71L142.282 235.794L141.924 235.708L142.1 234.981L140.105 234.499L140.725 231.934ZM144.831 234.767L145.266 234.931C145.132 235.176 144.952 235.348 144.725 235.446C144.498 235.545 144.236 235.558 143.938 235.486C143.563 235.396 143.293 235.209 143.128 234.925C142.965 234.64 142.934 234.29 143.035 233.873C143.139 233.441 143.331 233.133 143.611 232.948C143.891 232.764 144.208 232.714 144.562 232.8C144.905 232.883 145.157 233.067 145.318 233.353C145.479 233.639 145.508 233.994 145.406 234.417C145.399 234.443 145.389 234.482 145.375 234.533L143.463 234.07C143.411 234.356 143.438 234.591 143.545 234.775C143.652 234.96 143.813 235.078 144.027 235.13C144.186 235.168 144.333 235.159 144.466 235.103C144.598 235.046 144.72 234.934 144.831 234.767ZM143.573 233.719L145.005 234.065C145.038 233.844 145.022 233.669 144.958 233.54C144.86 233.339 144.701 233.212 144.48 233.158C144.281 233.11 144.096 233.136 143.927 233.237C143.76 233.338 143.642 233.499 143.573 233.719ZM146.251 233.269L146.685 233.374L146.427 234.442L147.632 234.733L147.89 233.666L148.325 233.771L147.705 236.335L147.271 236.23L147.545 235.093L146.34 234.802L146.065 235.939L145.631 235.834L146.251 233.269ZM148.98 233.929L149.414 234.034L149.146 235.142C149.285 235.176 149.388 235.173 149.455 235.133C149.525 235.093 149.644 234.958 149.814 234.728C149.948 234.546 150.05 234.429 150.118 234.378C150.187 234.326 150.259 234.298 150.333 234.292C150.408 234.286 150.522 234.301 150.675 234.338L150.762 234.359L150.675 234.719L150.555 234.688C150.44 234.66 150.363 234.659 150.323 234.685C150.28 234.713 150.203 234.806 150.092 234.964C149.985 235.116 149.897 235.217 149.826 235.268C149.756 235.319 149.657 235.358 149.53 235.383C149.705 235.478 149.847 235.697 149.955 236.038L150.239 236.948L149.76 236.832L149.489 235.925C149.432 235.743 149.375 235.618 149.316 235.551C149.258 235.483 149.179 235.437 149.081 235.413L148.794 236.599L148.36 236.494L148.98 233.929ZM152.387 237.132C152.193 237.23 152.014 237.289 151.851 237.309C151.689 237.33 151.523 237.319 151.352 237.278C151.071 237.21 150.871 237.089 150.752 236.916C150.635 236.741 150.601 236.546 150.653 236.332C150.684 236.206 150.739 236.099 150.821 236.01C150.904 235.919 150.999 235.853 151.106 235.813C151.214 235.772 151.331 235.75 151.454 235.746C151.545 235.744 151.679 235.753 151.856 235.774C152.218 235.817 152.488 235.83 152.668 235.812C152.684 235.753 152.694 235.715 152.698 235.699C152.741 235.522 152.73 235.387 152.665 235.295C152.578 235.17 152.424 235.081 152.206 235.028C152.001 234.978 151.841 234.978 151.725 235.027C151.612 235.074 151.509 235.183 151.419 235.354L151.008 235.193C151.09 235.021 151.189 234.89 151.305 234.8C151.42 234.709 151.569 234.653 151.751 234.634C151.933 234.614 152.135 234.63 152.355 234.683C152.574 234.736 152.746 234.805 152.87 234.889C152.995 234.974 153.08 235.064 153.125 235.158C153.171 235.251 153.192 235.36 153.189 235.485C153.186 235.563 153.161 235.698 153.114 235.891L152.974 236.471C152.876 236.875 152.823 237.133 152.815 237.245C152.808 237.356 152.821 237.468 152.852 237.579L152.398 237.469C152.374 237.368 152.371 237.256 152.387 237.132ZM152.586 236.152C152.412 236.179 152.162 236.176 151.836 236.145C151.651 236.128 151.518 236.126 151.436 236.14C151.354 236.155 151.285 236.188 151.23 236.241C151.175 236.293 151.138 236.356 151.12 236.432C151.092 236.548 151.112 236.655 151.18 236.753C151.25 236.852 151.37 236.922 151.539 236.963C151.706 237.003 151.864 237.003 152.012 236.962C152.16 236.919 152.28 236.842 152.372 236.729C152.442 236.643 152.501 236.503 152.547 236.312L152.586 236.152ZM155.789 236.709L155.703 237.067L156.609 237.285C156.514 237.557 156.391 237.749 156.239 237.861C156.09 237.971 155.912 238.001 155.704 237.951C155.337 237.863 155.172 237.598 155.208 237.157L154.77 237.11C154.747 237.402 154.809 237.657 154.955 237.875C155.104 238.093 155.331 238.239 155.637 238.313C155.996 238.422 156.305 238.375 156.565 238.172C156.826 237.968 157.001 237.659 157.091 237.246C157.192 236.829 157.167 236.476 157.017 236.188C156.867 235.899 156.612 235.712 156.253 235.625C155.967 235.556 155.716 235.576 155.502 235.686C155.289 235.795 155.133 235.965 155.037 236.195L155.443 236.365C155.598 236.033 155.844 235.907 156.181 235.988C156.374 236.035 156.514 236.145 156.602 236.318C156.692 236.489 156.723 236.693 156.695 236.928L155.789 236.709ZM157.925 236.09L158.601 236.254L158.779 238.469L160.024 236.598L160.649 236.749L160.029 239.313L159.595 239.208L160.094 237.144L158.836 239.025L158.447 238.931L158.253 236.594L157.73 238.758L157.305 238.655L157.925 236.09ZM160.841 238.152C160.956 237.677 161.173 237.358 161.493 237.193C161.759 237.056 162.051 237.026 162.368 237.103C162.721 237.188 162.981 237.373 163.149 237.659C163.317 237.944 163.352 238.29 163.253 238.697C163.173 239.027 163.061 239.275 162.915 239.441C162.771 239.605 162.592 239.717 162.376 239.776C162.163 239.835 161.944 239.837 161.72 239.783C161.361 239.697 161.098 239.511 160.932 239.227C160.767 238.944 160.737 238.586 160.841 238.152ZM161.288 238.26C161.209 238.589 161.221 238.852 161.325 239.051C161.429 239.249 161.589 239.373 161.807 239.426C162.022 239.478 162.222 239.439 162.405 239.31C162.588 239.18 162.72 238.947 162.801 238.611C162.878 238.293 162.863 238.036 162.758 237.838C162.654 237.64 162.495 237.514 162.281 237.463C162.064 237.41 161.864 237.448 161.681 237.576C161.499 237.704 161.368 237.932 161.288 238.26ZM164.074 237.576L164.508 237.681L163.975 239.889L165.178 240.179L165.711 237.972L166.146 238.077L165.612 240.284L165.892 240.352L165.63 241.436L165.273 241.35L165.449 240.623L163.454 240.141L164.074 237.576ZM166.902 238.26L167.336 238.365L166.864 240.321L168.541 238.656L169.01 238.769L168.39 241.334L167.955 241.229L168.425 239.285L166.75 240.938L166.282 240.824L166.902 238.26ZM169.664 238.927L170.099 239.032L169.626 240.988L171.304 239.323L171.773 239.437L171.153 242.001L170.718 241.896L171.188 239.952L169.513 241.605L169.045 241.492L169.664 238.927Z" fill="#333333" fill-opacity="0.8"/>
<rect x="170.035" y="74.7256" width="43.2512" height="10.1768" rx="1.27209" transform="rotate(13.5849 170.035 74.7256)" fill="#EFF4F9"/>
<path d="M173.158 80.4435C173.3 79.8559 173.569 79.4343 173.965 79.1789C174.361 78.9219 174.809 78.8537 175.308 78.9743C175.635 79.0533 175.91 79.2026 176.135 79.4222C176.36 79.6418 176.507 79.9082 176.576 80.2214C176.647 80.5334 176.64 80.8665 176.554 81.2207C176.467 81.5797 176.317 81.8834 176.104 82.1318C175.891 82.3801 175.633 82.5454 175.332 82.6278C175.032 82.7085 174.728 82.7117 174.42 82.6374C174.087 82.5568 173.808 82.4043 173.585 82.1799C173.361 81.9555 173.216 81.6877 173.148 81.3765C173.08 81.0653 173.083 80.7543 173.158 80.4435ZM173.64 80.5675C173.537 80.9942 173.569 81.3583 173.739 81.6599C173.91 81.9602 174.168 82.1522 174.514 82.2359C174.867 82.3211 175.187 82.2671 175.474 82.0741C175.762 81.8814 175.962 81.5572 176.072 81.1015C176.141 80.8134 176.153 80.5503 176.106 80.3125C176.062 80.0734 175.96 79.8723 175.8 79.7092C175.642 79.545 175.446 79.4346 175.213 79.3782C174.881 79.2981 174.568 79.3433 174.272 79.514C173.979 79.6834 173.768 80.0346 173.64 80.5675ZM177.305 80.5561L177.74 80.6612L177.207 82.8685L178.409 83.1591L178.943 80.9518L179.377 81.0568L178.844 83.2642L179.124 83.3319L178.862 84.4162L178.505 84.3299L178.68 83.6029L176.685 83.1209L177.305 80.5561ZM181.411 83.3886L181.847 83.5527C181.712 83.798 181.532 83.97 181.305 84.0686C181.079 84.1672 180.816 84.1805 180.519 84.1085C180.143 84.0179 179.873 83.8308 179.708 83.5472C179.546 83.2625 179.514 82.9116 179.615 82.4946C179.719 82.0631 179.912 81.7551 180.191 81.5705C180.471 81.3859 180.788 81.3364 181.142 81.422C181.485 81.5048 181.737 81.6893 181.898 81.9752C182.059 82.2612 182.088 82.6159 181.986 83.0394C181.98 83.0651 181.97 83.1036 181.956 83.1547L180.043 82.6925C179.991 82.9781 180.018 83.2132 180.126 83.3975C180.233 83.5819 180.393 83.6999 180.607 83.7517C180.767 83.7902 180.913 83.7812 181.046 83.7247C181.179 83.6682 181.3 83.5562 181.411 83.3886ZM180.153 82.3409L181.585 82.687C181.618 82.4666 181.603 82.2915 181.539 82.1619C181.441 81.961 181.281 81.8339 181.061 81.7806C180.861 81.7323 180.677 81.7585 180.508 81.859C180.34 81.96 180.222 82.1206 180.153 82.3409ZM182.831 81.8914L183.266 81.9964L183.008 83.0639L184.213 83.3551L184.471 82.2876L184.905 82.3927L184.286 84.9574L183.851 84.8524L184.126 83.7149L182.921 83.4237L182.646 84.5612L182.211 84.4561L182.831 81.8914ZM185.56 82.5508L185.995 82.6559L185.727 83.7644C185.865 83.7978 185.968 83.7946 186.036 83.7547C186.105 83.7152 186.224 83.5805 186.394 83.3505C186.528 83.1683 186.63 83.0514 186.699 82.9998C186.767 82.9483 186.839 82.9196 186.914 82.9138C186.988 82.908 187.102 82.9235 187.255 82.9605L187.342 82.9815L187.255 83.3413L187.135 83.3098C187.021 83.2821 186.943 83.2813 186.903 83.3074C186.861 83.3346 186.784 83.4276 186.672 83.5864C186.566 83.7379 186.477 83.8392 186.407 83.8904C186.337 83.9416 186.238 83.9799 186.111 84.0054C186.285 84.1004 186.427 84.3187 186.535 84.6601L186.819 85.5696L186.341 85.4541L186.069 84.5475C186.013 84.3651 185.955 84.2404 185.896 84.1734C185.838 84.1048 185.76 84.0586 185.661 84.0349L185.375 85.2206L184.94 85.1156L185.56 82.5508ZM188.968 85.754C188.773 85.8519 188.595 85.911 188.431 85.9312C188.27 85.9517 188.103 85.9414 187.933 85.9001C187.651 85.832 187.451 85.7113 187.333 85.5379C187.215 85.3628 187.182 85.1682 187.234 84.9541C187.264 84.8285 187.32 84.721 187.401 84.6316C187.484 84.541 187.579 84.4753 187.686 84.4347C187.795 84.3945 187.911 84.3723 188.035 84.3681C188.125 84.3662 188.259 84.3756 188.437 84.3963C188.798 84.4392 189.068 84.4517 189.248 84.4339C189.264 84.3747 189.274 84.337 189.278 84.3209C189.321 84.1438 189.31 84.0091 189.245 83.9168C189.158 83.7918 189.005 83.7028 188.786 83.6499C188.581 83.6005 188.421 83.6001 188.306 83.6488C188.192 83.6963 188.09 83.8054 187.999 83.9761L187.588 83.8154C187.671 83.6428 187.77 83.5117 187.885 83.422C188.001 83.3307 188.15 83.2754 188.331 83.2563C188.514 83.2356 188.715 83.2519 188.936 83.3052C189.155 83.3581 189.326 83.4269 189.451 83.5115C189.575 83.5961 189.66 83.6856 189.705 83.78C189.751 83.8729 189.772 83.982 189.769 84.1074C189.766 84.1849 189.741 84.3203 189.694 84.5135L189.554 85.0931C189.456 85.4972 189.403 85.7554 189.395 85.8675C189.389 85.9784 189.401 86.0896 189.432 86.2011L188.978 86.0914C188.955 85.9903 188.951 85.8778 188.968 85.754ZM189.166 84.7744C188.993 84.8006 188.743 84.7982 188.416 84.767C188.231 84.7496 188.098 84.748 188.016 84.7623C187.934 84.7766 187.866 84.8103 187.81 84.8634C187.755 84.9149 187.718 84.9784 187.7 85.0541C187.672 85.17 187.692 85.2771 187.761 85.3754C187.83 85.4741 187.95 85.5439 188.119 85.5847C188.286 85.6252 188.444 85.6249 188.592 85.584C188.74 85.5414 188.86 85.464 188.952 85.3516C189.023 85.2646 189.081 85.1254 189.127 84.9338L189.166 84.7744ZM192.195 85.6418L192.277 85.3013C192.461 85.344 192.588 85.3669 192.657 85.37C192.727 85.3734 192.8 85.3502 192.876 85.3002C192.951 85.2502 193 85.1769 193.023 85.0803C193.052 84.9627 193.035 84.8598 192.973 84.7715C192.912 84.682 192.82 84.6223 192.696 84.5923C192.452 84.5332 192.245 84.6358 192.078 84.9003L191.681 84.7329C191.926 84.2826 192.295 84.117 192.788 84.236C193.061 84.3022 193.257 84.4288 193.376 84.6159C193.496 84.8033 193.531 85.0009 193.48 85.2086C193.43 85.4179 193.288 85.5601 193.055 85.635C193.167 85.7354 193.243 85.8473 193.281 85.9707C193.32 86.0925 193.321 86.2267 193.286 86.3732C193.23 86.6034 193.101 86.77 192.899 86.8728C192.697 86.9756 192.446 86.9907 192.145 86.9179C191.56 86.7767 191.284 86.4348 191.316 85.8922L191.746 85.9038C191.743 86.077 191.787 86.2223 191.878 86.3397C191.97 86.4575 192.09 86.5341 192.237 86.5695C192.383 86.6049 192.515 86.5932 192.631 86.5344C192.749 86.4744 192.824 86.38 192.855 86.2512C192.879 86.1514 192.87 86.0571 192.827 85.9682C192.783 85.8794 192.729 85.8178 192.664 85.7833C192.6 85.7473 192.476 85.7073 192.294 85.6633C192.28 85.6598 192.247 85.6526 192.195 85.6418ZM194.24 84.6482L195.242 84.8904C195.488 84.95 195.666 85.015 195.775 85.0857C195.886 85.1551 195.971 85.2549 196.03 85.385C196.09 85.5155 196.102 85.6572 196.065 85.8102C196.035 85.9325 195.984 86.0334 195.91 86.1127C195.838 86.1908 195.744 86.2482 195.628 86.2848C195.739 86.3543 195.821 86.4541 195.873 86.5842C195.927 86.7132 195.936 86.8533 195.899 87.0046C195.824 87.2439 195.694 87.4032 195.507 87.4826C195.321 87.562 195.078 87.5653 194.777 87.4926L193.62 87.213L194.24 84.6482ZM194.413 85.8328L194.877 85.9449C195.062 85.9896 195.192 86.0107 195.266 86.0081C195.34 86.0055 195.411 85.9818 195.48 85.9371C195.549 85.8908 195.593 85.8265 195.613 85.7444C195.646 85.6092 195.62 85.5033 195.536 85.4268C195.454 85.3508 195.297 85.2847 195.065 85.2287L194.587 85.1131L194.413 85.8328ZM194.141 86.9606L194.713 87.0989C194.96 87.1585 195.135 87.1712 195.241 87.137C195.347 87.1012 195.419 87.0138 195.457 86.8749C195.477 86.7928 195.469 86.7107 195.433 86.6287C195.397 86.545 195.338 86.484 195.257 86.4457C195.176 86.4057 195.042 86.363 194.853 86.3175L194.327 86.1902L194.141 86.9606ZM198.142 87.4317L198.578 87.5958C198.444 87.8411 198.263 88.0131 198.037 88.1117C197.81 88.2103 197.548 88.2236 197.25 88.1516C196.875 88.061 196.605 87.8739 196.44 87.5903C196.277 87.3056 196.246 86.9547 196.347 86.5377C196.451 86.1062 196.643 85.7982 196.923 85.6136C197.203 85.429 197.519 85.3795 197.874 85.4651C198.217 85.5479 198.469 85.7324 198.63 86.0183C198.79 86.3043 198.82 86.659 198.717 87.0825C198.711 87.1082 198.701 87.1467 198.687 87.1978L196.774 86.7356C196.722 87.0213 196.75 87.2563 196.857 87.4406C196.964 87.625 197.125 87.743 197.339 87.7948C197.498 87.8333 197.644 87.8243 197.777 87.7678C197.91 87.7113 198.032 87.5993 198.142 87.4317ZM196.885 86.384L198.317 86.7301C198.35 86.5097 198.334 86.3346 198.27 86.205C198.172 86.0041 198.013 85.877 197.792 85.8237C197.593 85.7754 197.408 85.8016 197.239 85.9021C197.071 86.0031 196.953 86.1637 196.885 86.384ZM199.677 87.4497L199.759 87.1092C199.943 87.152 200.069 87.1749 200.139 87.1779C200.209 87.1814 200.282 87.1581 200.357 87.1081C200.432 87.0581 200.482 86.9848 200.505 86.8882C200.533 86.7707 200.517 86.6678 200.454 86.5795C200.394 86.49 200.302 86.4302 200.178 86.4003C199.933 86.3411 199.727 86.4438 199.559 86.7082L199.163 86.5408C199.408 86.0906 199.777 85.9249 200.269 86.044C200.543 86.1101 200.739 86.2367 200.858 86.4238C200.978 86.6113 201.012 86.8089 200.962 87.0166C200.912 87.2259 200.77 87.368 200.537 87.443C200.649 87.5433 200.724 87.6552 200.763 87.7786C200.801 87.9005 200.803 88.0346 200.768 88.1812C200.712 88.4114 200.583 88.5779 200.381 88.6808C200.179 88.7836 199.928 88.7986 199.626 88.7259C199.042 88.5846 198.766 88.2427 198.798 87.7001L199.227 87.7118C199.225 87.885 199.269 88.0303 199.36 88.1477C199.452 88.2654 199.572 88.342 199.718 88.3774C199.865 88.4128 199.996 88.4012 200.113 88.3424C200.231 88.2824 200.306 88.188 200.337 88.0592C200.361 87.9594 200.352 87.865 200.308 87.7762C200.265 87.6874 200.211 87.6257 200.146 87.5913C200.081 87.5552 199.958 87.5152 199.776 87.4713C199.762 87.4678 199.729 87.4606 199.677 87.4497ZM201.951 86.5116L203.738 86.9435L203.205 89.1508L203.482 89.218L203.22 90.3023L202.863 90.2159L203.038 89.489L201.019 89.0011L200.844 89.7281L200.486 89.6417L200.748 88.5573L200.978 88.6128C201.384 88.2713 201.708 87.5709 201.951 86.5116ZM202.226 86.959C201.993 87.7836 201.715 88.3683 201.393 88.7132L202.772 89.0464L203.219 87.1989L202.226 86.959ZM206.938 87.7167L207.373 87.8218L206.753 90.3866L206.318 90.2815L206.938 87.7167ZM204.506 87.1291L204.941 87.2341L204.698 88.2364L205.249 88.3694C205.608 88.4562 205.867 88.5929 206.027 88.7797C206.188 88.9652 206.239 89.1804 206.18 89.4251C206.128 89.6392 206.003 89.8031 205.803 89.9168C205.605 90.0292 205.329 90.0425 204.973 89.9565L203.886 89.6939L204.506 87.1291ZM204.407 89.4415L204.864 89.5518C205.139 89.6183 205.344 89.632 205.477 89.5927C205.611 89.5535 205.696 89.4623 205.73 89.319C205.757 89.2079 205.737 89.0984 205.672 88.9904C205.606 88.8825 205.424 88.7925 205.126 88.7205L204.611 88.5962L204.407 89.4415Z" fill="#333333" fill-opacity="0.8"/>
<path d="M152.546 76.288C151.788 76.1048 150.178 76.1565 149.98 76.9767L149.831 77.595L154.365 78.6906L154.514 78.0723C154.712 77.2521 153.304 76.4713 152.546 76.288Z" fill="#99A0A6"/>
<path d="M153.226 75.6588C153.582 75.5573 153.881 75.2762 153.975 74.8888C154.112 74.32 153.762 73.7468 153.193 73.6093C152.624 73.4719 152.051 73.822 151.914 74.3908C151.82 74.7782 151.958 75.1649 152.228 75.4178C152.357 75.5361 152.514 75.6264 152.695 75.6702C152.877 75.714 153.058 75.7054 153.226 75.6588Z" fill="#99A0A6"/>
<path d="M158.611 78.753L157.932 78.589L158.55 76.0315C158.246 76.2034 157.913 76.3043 157.549 76.3341L157.698 75.7182C157.889 75.7031 158.108 75.6401 158.355 75.5292C158.602 75.4168 158.79 75.2621 158.919 75.065L159.47 75.1981L158.611 78.753ZM160.958 79.3203L161.13 78.6078L159.681 78.2577L159.825 77.6636L161.904 75.7863L162.474 75.924L161.932 78.17L162.371 78.2763L162.227 78.8728L161.787 78.7666L161.615 79.479L160.958 79.3203ZM161.275 78.0113L161.567 76.8014L160.461 77.8146L161.275 78.0113Z" fill="#99A0A6"/>
<path d="M115.943 227.761C115.184 227.577 113.575 227.629 113.377 228.449L113.228 229.068L117.761 230.163L117.911 229.545C118.109 228.725 116.701 227.944 115.943 227.761Z" fill="#99A0A6"/>
<path d="M116.623 227.131C116.979 227.03 117.278 226.749 117.371 226.361C117.509 225.793 117.159 225.219 116.59 225.082C116.021 224.945 115.448 225.295 115.311 225.863C115.217 226.251 115.355 226.638 115.625 226.89C115.754 227.009 115.911 227.099 116.092 227.143C116.273 227.187 116.454 227.178 116.623 227.131Z" fill="#99A0A6"/>
<path d="M122.008 230.228L121.329 230.064L121.948 227.506C121.644 227.678 121.31 227.779 120.947 227.809L121.095 227.193C121.286 227.178 121.505 227.115 121.752 227.004C121.999 226.891 122.187 226.737 122.317 226.54L122.867 226.673L122.008 230.228ZM124.356 230.795L124.528 230.082L123.079 229.732L123.222 229.138L125.302 227.261L125.871 227.399L125.329 229.645L125.768 229.751L125.624 230.347L125.185 230.241L125.012 230.954L124.356 230.795ZM124.672 229.486L124.964 228.276L123.858 229.289L124.672 229.486Z" fill="#99A0A6"/>
<path d="M127.476 339.825C127.476 339.825 111.127 401.97 171.047 453.819C171.047 453.819 180.47 478.152 153.601 509.539C126.771 540.9 274.516 558.286 274.516 558.286C274.516 558.286 287.778 518.072 290.856 487.037C293.24 462.795 287.956 433.029 287.956 433.029L265.939 372.577L127.476 339.825Z" fill="#FFC8BA"/>
<path d="M127.476 339.825C127.476 339.825 111.127 401.97 171.047 453.819C171.047 453.819 180.47 478.152 153.601 509.539C126.771 540.9 274.516 558.286 274.516 558.286C274.516 558.286 287.778 518.072 290.856 487.037C293.24 462.795 287.956 433.029 287.956 433.029L265.939 372.577L127.476 339.825Z" fill="#FFC8BA"/>
<path d="M63.7906 254.853C63.7906 254.853 38.8878 295.477 34.4126 303.087C29.8987 310.723 65.1018 313.049 78.8804 292.468C84.1827 279.364 90.0171 251.712 91.4492 242.271C86.8907 238.108 63.7906 254.853 63.7906 254.853Z" fill="#FDB19E"/>
<path d="M59.7832 211.544C59.7832 211.544 37.5049 247.771 32.603 258.008C27.701 268.246 60.8293 273.62 86.1935 248.228C96.9867 224.311 102.982 194.122 102.982 194.122L59.7832 211.544Z" fill="#FFBDAC"/>
<path d="M131.175 64.7871C131.175 64.7871 94.8035 42.5166 90.6243 39.6348C86.4451 36.753 68.6024 78.0905 122.905 106.002C128.827 94.285 131.175 64.7871 131.175 64.7871Z" fill="#FFC7B9"/>
<path d="M107.842 175.9C107.842 175.9 82.419 169.693 71.7479 174.955C61.109 180.222 40.7316 193.451 32.8893 197.471C25.047 201.491 39.6053 235.798 92.5881 207.842C108.941 185.079 107.842 175.9 107.842 175.9Z" fill="#FFC7B9"/>
<path fill-rule="evenodd" clip-rule="evenodd" d="M252.384 68.4537L154.108 45.245C146.965 43.5732 139.864 47.981 138.215 55.0252L77.5707 312.719C75.8989 319.863 80.3066 326.964 87.3509 328.612L197.059 354.392C204.203 356.064 211.304 351.656 212.952 344.612L273.574 87.0172C275.245 79.8737 270.838 72.7725 263.793 71.1239L252.384 68.4537ZM155.455 39.4906L265.163 65.2703C275.482 67.6851 281.842 78.0687 279.45 88.2879L218.829 345.882C216.415 356.201 206.031 362.561 195.812 360.17L86.1034 334.39C75.7851 331.975 69.4246 321.591 71.8162 311.372L132.437 53.7777C134.852 43.4594 145.137 37.0758 155.455 39.4906Z" fill="#AAD5FB"/>
<path d="M280.381 180.816C279.608 171.148 288.636 143.014 281.59 140.897C274.505 138.805 242.444 158.332 240.584 189.143C237.422 242.302 230.439 276.44 217.585 302.265C202.138 333.331 158.616 387.771 190.281 438.339C221.94 488.94 283.754 462.554 283.754 462.554C283.754 462.554 281.155 190.484 280.381 180.816Z" fill="#FFC8BA"/>
<path d="M136.821 581.24C136.821 581.24 141.63 482.282 147.953 470.521C150.842 465.147 304.614 454.668 307.207 476.323C308.293 485.39 315.571 564.234 315.571 564.234L136.821 581.24Z" fill="#E8178A"/>
</svg>
