<svg width="1400" height="377" viewBox="0 0 1400 377" fill="none" xmlns="http://www.w3.org/2000/svg">
<g clip-path="url(#clip0)">
<rect x="-7" width="1417" height="377" fill="#290A54"/>
<path opacity="0.8" d="M942.893 573.777C934.379 546.889 910.001 526.202 878.572 525.513C860.299 525.108 842.567 532.269 827.001 540.444C805.994 551.469 781.224 564.778 756.075 561.441C739.968 559.293 720.896 551.037 717.12 533.971C713.127 515.92 729.085 503.529 746.153 496.273C760.772 490.044 781.292 475.168 787.856 460.926C813.912 404.433 741.064 339.955 761.625 275.571C783.146 208.187 882.768 196.796 932.863 242.548C937.668 246.939 942.148 251.614 946.236 256.573C956.455 268.977 962.465 285.867 976.677 295.176C995.072 307.229 1018.91 303.364 1038.72 296.217C1076.6 282.543 1086.61 273.517 1123.63 258.789C1150.26 248.196 1198.09 227.096 1228 236.5C1249.44 243.242 1260.01 255.448 1272 273C1294.29 305.645 1282.38 352.399 1317.62 398.826C1333.6 419.864 1358.98 425.755 1379.2 440.956C1431.63 480.356 1414.11 563.427 1356.92 591.843" stroke="white" stroke-opacity="0.3" stroke-width="1.15727" stroke-miterlimit="10" stroke-linejoin="round" stroke-dasharray="4.05 4.05"/>
<path opacity="0.8" d="M-52.3377 196.726C-30.7636 173.073 -23.793 139.367 -40.095 111.607C-49.5684 95.4653 -66.1143 84.366 -82.4771 75.7631C-104.553 64.149 -130.884 50.6409 -141.217 26.7453C-147.824 11.4343 -150.088 -10.1456 -135.517 -23.7417C-120.102 -38.1223 -99.4242 -31.725 -83.1444 -21.2598C-69.1871 -12.3057 -43.6259 -3.44205 -26.2189 -6.33544C42.839 -17.7999 66.2586 -120.134 140.029 -141.147C217.239 -163.136 282.124 -83.3493 264.645 -12.1254C262.966 -5.29181 260.835 1.43057 258.216 7.98289C251.661 24.3678 238.467 39.8008 237.081 57.79C235.283 81.0751 251.917 99.4772 269.575 112.398M82.6009 367.734C84.1932 371.444 123.798 382.624 131.876 416.248C153.548 464.165 103.053 526.722 166.893 575.549C225.433 608.133 302.527 565.476 312.56 496.052C316.435 469.275 308.463 443.636 320.315 417.03C346.47 358.316 386.106 345.768 405.841 306.65C416.449 285.612 420.66 251.7 410.145 223.165C399.629 194.63 360.398 174.6 360.398 174.6" stroke="white" stroke-opacity="0.3" stroke-miterlimit="10" stroke-linejoin="round" stroke-dasharray="3.5 4"/>
<path opacity="0.1" fill-rule="evenodd" clip-rule="evenodd" d="M255.6 292.4C255.149 292.4 254.717 292.579 254.398 292.898C254.079 293.217 253.9 293.649 253.9 294.1V317.9C253.9 318.351 254.079 318.783 254.398 319.102C254.717 319.421 255.149 319.6 255.6 319.6H279.4C279.851 319.6 280.283 319.421 280.602 319.102C280.921 318.783 281.1 318.351 281.1 317.9V308.822C281.1 307.883 281.861 307.122 282.8 307.122C283.739 307.122 284.5 307.883 284.5 308.822V317.9C284.5 319.253 283.963 320.55 283.006 321.506C282.05 322.463 280.753 323 279.4 323H255.6C254.247 323 252.95 322.463 251.994 321.506C251.037 320.55 250.5 319.253 250.5 317.9V294.1C250.5 292.747 251.037 291.45 251.994 290.494C252.95 289.537 254.247 289 255.6 289H264.678C265.617 289 266.378 289.761 266.378 290.7C266.378 291.639 265.617 292.4 264.678 292.4H255.6Z" fill="white"/>
<path opacity="0.1" fill-rule="evenodd" clip-rule="evenodd" d="M278.869 285.494C279.528 284.835 280.597 284.835 281.256 285.494L288.006 292.244C288.665 292.903 288.665 293.972 288.006 294.631L271.131 311.506C270.814 311.822 270.385 312 269.938 312H263.188C262.256 312 261.5 311.244 261.5 310.312V303.562C261.5 303.115 261.678 302.686 261.994 302.369L278.869 285.494ZM264.875 304.261V308.625H269.239L284.426 293.438L280.062 289.074L264.875 304.261Z" fill="white"/>
<path opacity="0.3" fill-rule="evenodd" clip-rule="evenodd" d="M310.548 109.485C310.955 108.582 311.863 108 312.866 108C315.557 108 318.138 109.054 320.04 110.929C321.943 112.804 323.012 115.348 323.012 118V125.5H334.82C335.918 125.49 337.005 125.714 338.006 126.157C339.013 126.602 339.909 127.258 340.633 128.078C341.356 128.899 341.891 129.864 342.198 130.908C342.506 131.953 342.579 133.05 342.414 134.125L338.913 156.625C338.913 156.625 338.913 156.624 338.913 156.625C338.638 158.412 337.716 160.043 336.318 161.215C334.924 162.383 333.149 163.016 331.319 163H295.11C293.092 163 291.156 162.21 289.729 160.803C288.302 159.396 287.5 157.489 287.5 155.5V138C287.5 136.011 288.302 134.103 289.729 132.697C291.156 131.29 293.092 130.5 295.11 130.5H301.071L310.548 109.485ZM305.256 133.53L314.408 113.236C315.172 113.477 315.875 113.895 316.453 114.464C317.405 115.402 317.939 116.674 317.939 118V128C317.939 129.381 319.075 130.5 320.476 130.5H334.833L334.862 130.5C335.229 130.496 335.593 130.57 335.929 130.719C336.264 130.867 336.563 131.086 336.804 131.359C337.046 131.633 337.224 131.954 337.326 132.303C337.429 132.65 337.453 133.016 337.398 133.374C337.398 133.373 337.398 133.374 337.398 133.374L333.898 155.875C333.806 156.471 333.499 157.014 333.032 157.405C332.566 157.795 331.973 158.007 331.361 158L305.256 158V133.53ZM300.183 158V135.5H295.11C294.437 135.5 293.792 135.763 293.316 136.232C292.84 136.701 292.573 137.337 292.573 138V155.5C292.573 156.163 292.84 156.799 293.316 157.267C293.792 157.736 294.437 158 295.11 158H300.183Z" fill="white"/>
<path opacity="0.3" fill-rule="evenodd" clip-rule="evenodd" d="M1144.7 87H1098.3C1095.11 87 1092.5 89.61 1092.5 92.8V145L1104.1 133.4H1144.7C1147.89 133.4 1150.5 130.79 1150.5 127.6V92.8C1150.5 89.61 1147.89 87 1144.7 87ZM1101.69 127.6L1098.3 130.993V92.8H1144.7V127.6H1101.69Z" fill="white"/>
<path opacity="0.3" d="M1118.33 339C1116.21 339 1114.5 340.715 1114.5 342.83V343.924C1114.5 346.039 1116.21 347.754 1118.33 347.754H1137.89V386.599C1137.89 388.714 1139.6 390.429 1141.72 390.429H1143.22C1145.34 390.429 1147.05 388.714 1147.05 386.599V347.754H1166.2C1168.32 347.754 1170.03 346.039 1170.03 343.924V342.83C1170.03 340.715 1168.32 339 1166.2 339L1118.33 339Z" fill="white" fill-opacity="0.53"/>
<path opacity="0.8" d="M1434.84 -267.577C1421.85 -242.544 1424.46 -210.679 1446.2 -187.968C1458.83 -174.76 1476.43 -167.286 1493.22 -162.059C1515.87 -155.001 1542.8 -146.897 1558.22 -126.754C1568.09 -113.846 1575.74 -94.5223 1566.34 -79.7848C1556.4 -64.1968 1536.35 -66.7197 1519.15 -73.6582C1504.41 -79.5904 1479.38 -83.5808 1464.67 -78.1526C1406.3 -56.6302 1412.22 40.4746 1352.15 71.4625C1289.29 103.892 1210.79 41.5031 1207.72 -26.2704C1207.43 -32.7733 1207.56 -39.2471 1208.18 -45.644C1209.73 -61.641 1217.42 -77.8335 1213.95 -94.4661C1209.47 -115.996 1189.88 -130.118 1170.81 -139.076C1134.37 -156.186 1120.9 -156.887 1084.31 -172.649C1057.99 -183.985 1009.25 -202.886 994.75 -230.688C984.357 -250.616 985.515 -266.719 989.446 -287.61C996.766 -326.457 1038.25 -351.091 1046.16 -408.843C1049.74 -435.013 1035.96 -457.125 1032.41 -482.172C1023.19 -547.111 1094.33 -593.457 1154.86 -573.112" stroke="white" stroke-opacity="0.3" stroke-width="1.15727" stroke-miterlimit="10" stroke-linejoin="round" stroke-dasharray="4.05 4.05"/>
</g>
<defs>
<clipPath id="clip0">
<rect width="1412" height="377" fill="white" transform="translate(-2)"/>
</clipPath>
</defs>
</svg>
