<svg width="50" height="50" viewBox="0 0 50 50" fill="none" xmlns="http://www.w3.org/2000/svg">
<path d="M25 50C38.8073 50 50 38.8073 50 25C50 11.1927 38.8073 0 25 0C11.1927 0 0 11.1927 0 25C0 38.8073 11.1927 50 25 50Z" fill="#CCCCCC"/>
<path fill-rule="evenodd" clip-rule="evenodd" d="M30.0813 21.4909V13H26.0193V35H30.0813V27.2475C30.0813 25.9464 30.2056 24.9636 30.4499 24.298C30.6974 23.6334 31.0849 23.1362 31.6147 22.8034C32.1412 22.4727 32.7457 22.3063 33.4187 22.3063C34.0074 22.3063 34.4992 22.4353 34.8868 22.6963C35.2714 22.941 35.56 23.3079 35.7051 23.7364C35.8599 24.1732 35.9368 25.2007 35.9368 26.8232V35H39.9998V25.9215C39.9998 24.532 39.9303 23.5075 39.7903 22.8492C39.6566 22.1997 39.3904 21.584 39.0078 21.0395C38.6286 20.4966 38.0642 20.0494 37.3122 19.701C36.5581 19.3505 35.7125 19.1737 34.7783 19.1737C32.9595 19.1737 31.3914 19.9496 30.0813 21.4909ZM14.0662 21.4909V13H10V35H14.062L14.0662 27.2476C14.062 25.9465 14.1863 24.9636 14.4348 24.298C14.6791 23.6334 15.0646 23.1363 15.6017 22.8035C16.1272 22.4727 16.7317 22.3063 17.4057 22.3063C17.9945 22.3063 18.4821 22.4353 18.8738 22.6964C19.2572 22.9418 19.545 23.3085 19.69 23.7364C19.8448 24.1732 19.9186 25.2008 19.9186 26.8232V35H23.9858V25.9215C23.9858 24.532 23.9163 23.5076 23.7773 22.8492C23.6372 22.1878 23.3782 21.5877 22.9948 21.0396C22.6136 20.4967 22.0491 20.0494 21.294 19.701C20.541 19.3505 19.7016 19.1737 18.7643 19.1737C16.9445 19.1737 15.3753 19.9496 14.0662 21.4909Z" fill="#212122"/>
</svg>
