<svg width="97" height="74" viewBox="0 0 97 74" fill="none" xmlns="http://www.w3.org/2000/svg">
<rect x="1.62314" y="17.6439" width="84.6639" height="56.0084" rx="12.3739" transform="rotate(-11.2956 1.62314 17.6439)" fill="white"/>
<path d="M33.2016 45.7507C33.6103 45.6691 33.9925 45.4546 34.3482 45.1073C34.7243 44.7559 34.9758 44.3657 35.1026 43.9365L34.1106 38.9704C33.8042 38.6066 33.4221 38.3429 32.9644 38.1793C32.5067 38.0157 32.0735 37.9747 31.6647 38.0563C30.8881 38.2115 30.3444 38.6813 30.0336 39.466C29.7432 40.2466 29.7144 41.2193 29.947 42.3842C30.1797 43.5491 30.5821 44.4463 31.1541 45.0759C31.7425 45.6809 32.425 45.9059 33.2016 45.7507ZM32.4833 49.9746C30.787 50.3134 29.2994 49.888 28.0204 48.6983C26.7415 47.5086 25.8611 45.708 25.3795 43.2965C24.8937 40.8646 25.0148 38.8639 25.7427 37.2947C26.4706 35.7254 27.6826 34.7713 29.3789 34.4325C30.9525 34.1182 32.3195 34.5784 33.48 35.813L33.131 34.0656L37.5453 33.1839L41.6293 53.6308L37.215 54.5125L35.7394 47.1247C35.1627 48.7062 34.0773 49.6562 32.4833 49.9746ZM56.3405 44.8268L51.9262 45.7085L50.0464 36.2975C49.8015 35.0713 49.0966 34.5745 47.9317 34.8072C46.9916 34.9949 46.3294 35.6692 45.9449 36.8298L47.8798 46.5168L43.4654 47.3985L39.3814 26.9516L43.7957 26.0699L45.2897 33.5497C45.5801 32.8754 46.0809 32.2441 46.7922 31.6557C47.4994 31.0469 48.3129 30.6507 49.2325 30.467C50.6018 30.1935 51.695 30.347 52.5123 30.9276C53.3296 31.5082 53.8628 32.4218 54.1118 33.6684L56.3405 44.8268ZM72.2069 41.6577L67.7926 42.5394L65.9128 33.1283C65.6679 31.9021 64.963 31.4054 63.7981 31.638C62.858 31.8258 62.1957 32.5 61.8112 33.6607L63.7461 43.3476L59.3318 44.2293L55.2477 23.7825L59.662 22.9008L61.1561 30.3806C61.4464 29.7063 61.9473 29.0749 62.6586 28.4866C63.3658 27.8778 64.1792 27.4815 65.0989 27.2978C66.4681 27.0243 67.5614 27.1779 68.3787 27.7584C69.196 28.339 69.7291 29.2526 69.9781 30.4993L72.2069 41.6577Z" fill="#333333"/>
<rect x="1.62314" y="17.6439" width="84.6639" height="56.0084" rx="12.3739" transform="rotate(-11.2956 1.62314 17.6439)" stroke="white" stroke-width="1.30252"/>
</svg>
