<svg width="238" height="184" viewBox="0 0 238 184" fill="none" xmlns="http://www.w3.org/2000/svg">
<g clip-path="url(#clip0)">
<rect width="238" height="184" fill="white"/>
<path fill-rule="evenodd" clip-rule="evenodd" d="M205.141 103.438C182.91 67.0871 199.89 62.119 186.689 42.0496C178.788 29.9981 163.673 23.7019 151.208 24.1938C131.332 24.9808 124.462 38.9998 110.083 46.9194C99.4333 52.7729 69.6937 54.347 57.9648 57.8395C27.0964 67.0379 20.2259 121.835 36.6661 145.249C49.5238 163.548 67.3872 174.173 89.0785 173.484C100.709 173.091 117.051 164.335 128.584 163.302C144.632 161.875 166.519 169.598 182.027 163.991C207.497 154.743 216.625 122.278 205.141 103.438Z" fill="#F4F8FF"/>
<mask id="mask0" mask-type="alpha" maskUnits="userSpaceOnUse" x="28" y="24" width="183" height="150">
<path fill-rule="evenodd" clip-rule="evenodd" d="M205.141 103.438C182.91 67.0871 199.89 62.119 186.689 42.0496C178.788 29.9981 163.673 23.7019 151.208 24.1938C131.332 24.9808 124.462 38.9998 110.083 46.9194C99.4333 52.7729 69.6937 54.347 57.9648 57.8395C27.0964 67.0379 20.2259 121.835 36.6661 145.249C49.5238 163.548 67.3872 174.173 89.0785 173.484C100.709 173.091 117.051 164.335 128.584 163.302C144.632 161.875 166.519 169.598 182.027 163.991C207.497 154.743 216.625 122.278 205.141 103.438Z" fill="#ECF2FF"/>
</mask>
<g mask="url(#mask0)">
<path fill-rule="evenodd" clip-rule="evenodd" d="M143.438 139.608L141.306 141.036C141.252 141.03 138.282 140.954 138.33 140.927C138.419 140.838 137.14 141.025 139.215 138.879C139.467 138.632 139.214 138.523 140.696 137.316C141.522 136.65 143.072 135.251 143.878 134.572C145.271 133.365 146.596 132.438 147.763 130.992C148.117 130.546 148.445 130.053 148.758 129.58C148.908 129.354 149.426 128.395 149.706 128.285C150.089 128.154 150.419 128.55 150.461 129.2C150.497 129.904 150.185 131.266 149.886 131.897C149.538 132.554 148.584 134.082 148.195 134.712C147.793 135.363 147.357 135.932 146.968 136.563C146.034 138.104 144.927 138.524 143.438 139.608Z" fill="#FAAE9B"/>
<path fill-rule="evenodd" clip-rule="evenodd" d="M131.071 144.193C128.529 145.527 140.872 136.871 141.686 136.582C142.301 136.368 146.991 134.654 148.064 134.33C149.808 133.799 151.655 133.87 153.406 133.462C154.712 133.145 154.637 133.213 157.175 133.091C157.565 133.083 158.967 133.066 159.344 133.257C159.721 133.448 159.66 133.941 159.49 134.153C158.951 134.832 157.734 135.149 156.899 135.247C154.854 135.518 150.683 136.807 150.684 136.896C150.67 136.917 153.866 137.32 154.845 137.674C156.194 138.184 157.14 138.989 158.38 139.663C158.88 139.936 160.545 140.862 161.059 141.114C161.12 141.155 161.669 141.489 161.17 141.928C161.033 142.045 160.719 142.251 160.131 142.245C158.858 142.2 157.242 141.424 156.633 141.405C156.633 141.405 158.962 142.802 159.387 143.143C159.668 143.389 160.011 143.498 160.607 144.071C160.916 144.365 160.451 144.619 160.376 144.687C159.618 145.161 158.666 144.767 158.378 144.665C155.858 143.733 154.912 143.106 154.084 143.06C153.489 143.02 151.06 142.978 151.019 143.039C151.006 143.06 153.887 143.669 154.71 144.126C156.58 145.189 158.763 148.324 158.559 148.81C158.212 149.646 156.909 148.575 156.464 148.22C155.237 147.258 153.955 146.289 153.414 145.99C152.338 145.424 148.222 146.275 146.984 146.668C143.641 147.736 141.546 147.235 140.459 147.579C138.504 148.206 135.436 150.286 133.384 150.524C132.741 150.6 134.717 149.809 134.155 149.496C132.443 148.596 131.071 144.193 131.071 144.193Z" fill="#FEB19E"/>
<path fill-rule="evenodd" clip-rule="evenodd" d="M92.8125 81.9384C92.8125 81.9384 99.3983 77.9912 101.143 73.2372C102.887 68.4833 101.906 64.8633 101.906 64.8633C101.906 64.8633 98.3297 61.9411 97.8063 58.3865C97.283 54.8538 97.0431 48.9003 99.878 45.433C102.713 41.9656 104.981 39.1525 111.414 38.7382C117.847 38.3238 122.252 39.7849 123.931 43.056C125.589 46.3271 126.548 52.6076 125.654 58.67C124.935 63.5766 124.019 73.3463 118.763 74.6983C116.212 75.3525 114.096 74.9818 114.096 74.9818C114.096 74.9818 113.202 76.2031 113.595 79.1034C113.682 79.7358 113.944 80.4118 114.314 81.0879C115.623 83.4648 117.062 87.6083 117.062 87.6083C117.062 87.6083 113.311 92.4058 108.732 92.0351C104.174 91.6426 92.8125 81.9384 92.8125 81.9384Z" fill="#FDB19E"/>
<mask id="mask1" mask-type="alpha" maskUnits="userSpaceOnUse" x="92" y="38" width="34" height="55">
<path fill-rule="evenodd" clip-rule="evenodd" d="M92.8125 81.9384C92.8125 81.9384 99.3983 77.9912 101.143 73.2372C102.887 68.4833 101.906 64.8633 101.906 64.8633C101.906 64.8633 98.3297 61.9411 97.8063 58.3865C97.283 54.8538 97.0431 48.9003 99.878 45.433C102.713 41.9656 104.981 39.1525 111.414 38.7382C117.847 38.3238 122.252 39.7849 123.931 43.056C125.589 46.3271 126.548 52.6076 125.654 58.67C124.935 63.5766 124.019 73.3463 118.763 74.6983C116.212 75.3525 114.096 74.9818 114.096 74.9818C114.096 74.9818 113.202 76.2031 113.595 79.1034C113.682 79.7358 113.944 80.4118 114.314 81.0879C115.623 83.4648 117.062 87.6083 117.062 87.6083C117.062 87.6083 113.311 92.4058 108.732 92.0351C104.174 91.6426 92.8125 81.9384 92.8125 81.9384Z" fill="#FDB19E"/>
</mask>
<g mask="url(#mask1)">
<path fill-rule="evenodd" clip-rule="evenodd" d="M125.018 71.6154C134.551 50.3166 131.418 49.284 128.391 48.4584C127.39 48.1564 127.439 47.9959 126.054 49.2425C125.249 49.963 126.784 53.2289 124.969 53.1194C122.745 52.9739 120.861 53.3693 120.665 55.4122C120.601 56.1812 120.484 56.8467 121.111 59.2254C121.408 60.1909 121.814 61.6274 121.981 62.4661C122.116 62.8569 121.918 63.2351 121.614 63.4063C121.108 63.6915 120.399 64.0909 120.201 64.4691C119.781 65.3058 120.163 66.8226 120.163 66.8226L120.374 67.2366C120.374 67.2366 119.439 67.8304 119.611 68.9332C119.953 71.1387 119.687 72.0219 118.983 72.6853C118.153 73.4861 117.105 75.5117 117.182 75.535C117.62 75.7546 120.883 74.1814 121.341 74.0567C123.22 73.3973 124.08 73.6099 125.018 71.6154Z" fill="#EB9B87"/>
<path fill-rule="evenodd" clip-rule="evenodd" d="M120.047 68.7715C118.679 68.7851 116.681 67.5005 116.697 67.1646C116.767 66.9302 117.83 67.0803 118.478 67.1907C119.463 67.3172 119.541 67.3408 120.315 67.3185C120.572 67.3111 121.94 67.2976 122.073 67.4228C122.236 67.7278 120.976 68.7964 120.047 68.7715Z" fill="#4F007F"/>
<path fill-rule="evenodd" clip-rule="evenodd" d="M114.751 81.6985C114.751 81.6985 110.825 78.9944 109.43 77.1408C107.86 75.0909 106.791 71.4272 106.791 71.4272C106.791 71.4272 108.623 72.7793 110.28 73.717C112.286 74.8292 114.227 75.0254 114.227 75.0254C114.227 75.0254 114.729 81.1751 114.751 81.6985Z" fill="#EB9B87"/>
</g>
<path fill-rule="evenodd" clip-rule="evenodd" d="M125.807 53.7852C125.807 53.7852 126.09 46.0655 121.184 43.3177C116.255 40.57 110.324 42.838 107.794 46.2835C105.33 49.6419 103.411 55.0282 103.411 55.0282C103.411 55.0282 101.099 52.3023 99.529 54.5049C98.4386 56.0532 98.1551 58.8881 101.535 60.1748C101.71 60.2402 102.975 62.7698 102.866 66.5861C102.56 76.6174 94.9059 58.67 93.9245 59.237L92.9214 55.9223L94.8186 51.9098L99.7252 40.8971L106.682 34.0933L116.822 35.7506L124.346 40.3083C124.346 40.3083 127.29 44.5171 127.857 46.6979C129.056 51.5391 125.807 53.7852 125.807 53.7852Z" fill="#FC6E51"/>
<path fill-rule="evenodd" clip-rule="evenodd" d="M107.401 50.0563C100.924 45.8693 107.554 38.6075 107.554 38.6075C107.554 38.6075 111.893 35.271 117.52 36.2087C122.71 37.081 123.604 38.1713 125.218 40.0249C127.355 42.4673 126.94 46.5017 126.94 46.5017C126.94 46.5017 126.461 47.0905 125.719 47.7883C124.978 48.4862 123.735 49.4893 123.735 49.4893C123.735 49.4893 123.386 47.2213 123.08 46.4581C122.797 45.6948 122.121 43.7758 122.121 43.7758C122.121 43.7758 122.47 46.3055 122.513 47.0905C122.557 47.8756 122.295 49.9909 122.295 49.9909C122.295 49.9909 121.423 50.4925 120.922 50.6451C119.155 51.2121 116.647 52.346 112.591 51.4737C112.439 51.4301 113.921 50.7541 114.881 49.184C116.756 46.1528 115.753 41.6823 115.753 41.6823C115.753 41.6823 115.731 46.9815 112.199 48.9877C109.931 50.2744 108.382 50.3834 108.382 50.3834C108.382 50.3834 107.728 50.2525 107.401 50.0563Z" fill="#FC6E51"/>
<path fill-rule="evenodd" clip-rule="evenodd" d="M171.91 78.1019C175.339 77.6502 179.631 76.8288 181.972 73.9949C182.362 73.5226 182.383 72.9476 182.383 72.9476C182.383 72.9476 183.245 72.9271 183.615 71.4485C183.779 70.7709 183.163 69.1897 183.163 69.1897C183.163 69.1897 185.278 68.7584 184.724 65.5138C184.642 65.0826 187.989 60.9139 187.311 59.8872C186.49 58.6551 184.888 60.9345 183.759 61.3657C179.488 63.0291 172.588 69.1486 170.904 71.3869C169.158 73.7074 169.302 77.0546 172.485 77.9582" fill="#EB9B87"/>
<path fill-rule="evenodd" clip-rule="evenodd" d="M187.887 56.4577C187.99 56.2318 187.949 55.9443 187.784 55.7595C187.661 55.6158 187.456 55.4515 187.127 55.3899C185.731 55.0819 180.864 53.9524 179.077 53.5417C178.687 53.4596 178.297 53.6444 178.153 54.014C177.003 56.7042 172.465 67.2182 171.192 70.1547C171.11 70.3395 171.11 70.5654 171.212 70.7503C171.315 70.9351 171.479 71.0583 171.685 71.1199C173.574 71.5511 178.297 72.6395 180.043 73.0297C180.433 73.1118 180.823 72.927 180.967 72.5574C182.178 69.744 187.107 58.2648 187.887 56.4577Z" fill="#51618D"/>
<path fill-rule="evenodd" clip-rule="evenodd" d="M187.269 56.2319C187.331 56.0881 187.331 55.9444 187.248 55.8007C187.187 55.6569 187.064 55.5748 186.899 55.5337C185.195 55.1641 180.308 54.0962 178.932 53.8087C178.726 53.7677 178.5 53.8703 178.418 54.0757C177.515 56.1703 172.751 67.2388 171.56 70.011C171.498 70.1753 171.498 70.3396 171.58 70.4833C171.662 70.6271 171.806 70.7298 171.97 70.7708C173.695 71.1405 178.275 72.1467 179.753 72.4547C180.02 72.5163 180.308 72.3726 180.41 72.1056C181.416 69.7851 186.14 58.8399 187.269 56.2319Z" fill="white"/>
<path fill-rule="evenodd" clip-rule="evenodd" d="M168.46 74.8179C168.665 75.1054 168.501 73.4777 168.542 73.108C168.624 72.3277 168.727 71.5474 168.85 70.7875C169.055 69.4733 170.185 62.286 172.403 62.9842C173.286 63.2717 175.688 65.3046 176.92 66.5162C177.311 66.9064 176.777 67.2555 176.387 67.276C174.128 67.3171 173.594 66.6394 172.772 65.9412C172.854 66.1877 173.08 67.2555 173.471 68.4465C174.723 72.1018 172.875 76.9481 169.302 76.558C167.659 76.3731 168.295 76.3756 168.46 75.4515" fill="#FDB19E"/>
<path fill-rule="evenodd" clip-rule="evenodd" d="M177.926 76.9891C178.399 76.8043 179.364 76.4141 180.124 76.1061C180.617 75.9008 181.089 75.6133 181.52 75.3052C184.908 72.8205 181.253 70.0893 177.885 69.5759C176.879 69.4116 177.557 70.7464 178.317 71.383C179.241 72.1633 179.877 71.7116 180.35 73.4981C180.493 74.0731 179.076 75.8597 176.982 76.8043C174.333 77.9954 170.986 78.3444 171.745 78.4061" fill="#FDB19E"/>
<path fill-rule="evenodd" clip-rule="evenodd" d="M180.822 54.0962C180.822 54.0962 180.719 54.3837 180.617 54.6301C180.576 54.7122 180.596 54.8149 180.637 54.8971C180.678 54.9792 180.76 55.0408 180.843 55.0613C181.623 55.2256 183.492 55.6363 184.272 55.8211C184.477 55.8622 184.662 55.7595 184.744 55.5747C184.847 55.3283 184.95 55.0613 184.95 55.0613L180.822 54.0962Z" fill="#51618D"/>
<path fill-rule="evenodd" clip-rule="evenodd" d="M183.552 71.8759C183.634 71.8964 183.839 70.7259 183.86 70.6848C183.921 70.2741 183.921 69.6375 183.798 69.2268C183.511 68.1795 182.956 67.0296 182.012 65.9207C181.847 65.7153 181.272 64.8939 180.903 65.0582C180.718 65.1609 180.574 65.8591 180.595 66.0439C180.636 66.6394 180.821 67.0501 181.047 67.4608C181.437 68.1796 181.683 68.467 182.114 69.1447C182.402 69.5965 182.833 70.1509 182.997 70.6643C183.326 71.5884 183.264 71.8143 182.895 72.9027" fill="#FDB19E"/>
<path fill-rule="evenodd" clip-rule="evenodd" d="M184.231 68.5904C184.231 68.5904 184.868 68.0155 184.909 66.8449C184.95 65.7977 185.093 65.1816 184.703 63.3334C184.642 63.0254 184.375 61.9781 184.334 61.6495C184.313 61.5674 184.026 61.321 183.779 61.6701C183.512 62.0602 183.286 62.4299 183.204 62.8816C183.06 63.7852 183.245 64.853 183.533 65.736C183.697 66.27 183.82 66.5574 183.984 67.0914C184.067 67.4199 184.231 68.5904 184.231 68.5904Z" fill="#FDB19E"/>
<path fill-rule="evenodd" clip-rule="evenodd" d="M114.838 166.311C114.838 166.311 162.814 188.728 174.241 199C178.82 203.099 213.167 262.023 213.167 262.023L198.076 268.826L137.648 207.679L97.5667 201.638L95.9312 175.252L114.838 166.311Z" fill="#B8C8FF"/>
<path fill-rule="evenodd" clip-rule="evenodd" d="M66.0326 172.155C66.0326 172.155 62.4781 182.623 73.9051 192.719C89.5845 206.611 149.86 209.642 152.978 215.682L124.869 256.702L136.339 270.898C136.339 270.898 181.415 234.938 190.05 217.449C198.708 199.959 99.2887 156.236 99.2887 156.236L88.2978 161.579L66.0326 172.155Z" fill="#E3E9FD"/>
<path fill-rule="evenodd" clip-rule="evenodd" d="M115.187 83.4867L127.464 102.197C127.464 102.197 132.632 111.596 142.86 100.453C153.066 89.3093 166.237 73.3027 166.237 73.3027L176.705 77.8604C176.705 77.8604 171.231 95.5462 163.708 107.671C156.184 119.774 147.963 127.232 136.536 130.569C131.324 132.095 120.355 128.78 120.355 128.78L108.187 115.173L118.065 92.5367L115.187 83.4867Z" fill="#3784FF"/>
<path fill-rule="evenodd" clip-rule="evenodd" d="M81.298 95.5241L70.9178 144.721C70.9178 144.721 60.1668 182.208 67.5158 183.713C73.6655 184.977 73.7527 172.286 101.579 172.744C111.479 172.896 120.987 166.31 120.987 166.31C120.987 166.31 119.592 145.332 121.969 129.195C125.959 101.914 120.071 85.5582 115.339 83.1812C114.576 82.7887 114.816 88.9601 114.336 89.2C113.66 89.9414 99.2672 79.1468 97.6971 78.8415C93.3574 78.0129 81.8214 85.1875 81.8214 85.1875L81.298 95.5241Z" fill="#E8178A"/>
<path fill-rule="evenodd" clip-rule="evenodd" d="M87.2953 113.493L80.644 139.488L124.128 143.5C124.128 143.5 117.542 130.35 109.321 130.896C101.296 131.419 96.1272 131.768 92.4636 128.846C88.7999 125.967 88.6037 112.207 87.2953 113.493Z" fill="#3784FF"/>
<path fill-rule="evenodd" clip-rule="evenodd" d="M96.934 79.125C96.934 79.125 81.5163 80.6951 71.6158 94.739C65.5098 103.396 54.4753 126.272 54.5843 137.438C54.6715 147.273 57.6155 155.472 64.005 159.07C66.9926 160.75 71.4413 162.276 76.566 163.257C82.4104 164.391 89.0834 164.828 95.3857 164.042C96.2144 163.933 97.1521 163.781 98.177 163.606C111.567 161.142 139.175 152.136 138.062 152.092C136.863 152.048 131.542 138.375 131.542 138.375C131.542 138.375 87.426 141.21 83.8933 137.285C80.3387 133.36 86.9681 115.674 86.9681 115.674L96.934 79.125Z" fill="#783ACE"/>
<path d="M123.501 58.7614C123.065 58.8001 122.792 58.302 122.77 57.8466L122.827 56.8401C122.821 56.2745 123.22 55.8907 123.572 55.8376C124.007 55.7989 124.281 56.2971 124.302 56.7524L124.245 57.7589C124.251 58.3245 123.837 58.8186 123.501 58.7614Z" fill="black"/>
<path d="M117.683 54.0689C116.194 53.4142 114.108 53.4146 112.514 54.5174" stroke="black" stroke-width="0.510443" stroke-miterlimit="10" stroke-linecap="round" stroke-linejoin="round"/>
<path d="M115.643 56.3747C116.123 56.3399 116.43 56.858 116.458 57.3287L116.406 58.3681C116.418 58.9525 115.982 59.3442 115.594 59.3948C115.114 59.4295 114.807 58.9114 114.779 58.4407L114.831 57.4014C114.819 56.8169 115.255 56.4252 115.643 56.3747Z" fill="black"/>
<path d="M125.967 53.6024C124.794 52.9733 122.968 53.0708 121.904 53.5775" stroke="black" stroke-width="0.510443" stroke-miterlimit="10" stroke-linecap="round" stroke-linejoin="round"/>
</g>
<g clip-path="url(#clip1)">
<path fill-rule="evenodd" clip-rule="evenodd" d="M143.438 139.608L141.306 141.036C141.252 141.03 138.282 140.954 138.33 140.927C138.419 140.838 137.14 141.025 139.215 138.879C139.467 138.632 139.214 138.523 140.696 137.316C141.522 136.65 143.072 135.251 143.878 134.572C145.271 133.365 146.596 132.438 147.763 130.992C148.117 130.546 148.445 130.053 148.758 129.58C148.908 129.354 149.426 128.395 149.706 128.285C150.089 128.154 150.419 128.55 150.461 129.2C150.497 129.904 150.185 131.266 149.886 131.897C149.538 132.554 148.584 134.082 148.195 134.712C147.793 135.363 147.357 135.932 146.968 136.563C146.034 138.104 144.927 138.524 143.438 139.608Z" fill="#FAAE9B"/>
<path fill-rule="evenodd" clip-rule="evenodd" d="M131.071 144.193C128.529 145.527 140.872 136.871 141.686 136.582C142.301 136.368 146.991 134.654 148.064 134.33C149.808 133.799 151.655 133.87 153.406 133.462C154.712 133.145 154.637 133.213 157.175 133.091C157.565 133.083 158.967 133.066 159.344 133.257C159.721 133.448 159.66 133.941 159.49 134.153C158.951 134.832 157.734 135.149 156.899 135.247C154.854 135.518 150.683 136.807 150.684 136.896C150.67 136.917 153.866 137.32 154.845 137.674C156.194 138.184 157.14 138.989 158.38 139.663C158.88 139.936 160.545 140.862 161.059 141.114C161.12 141.155 161.669 141.489 161.17 141.928C161.033 142.045 160.719 142.251 160.131 142.245C158.858 142.2 157.242 141.424 156.633 141.405C156.633 141.405 158.962 142.802 159.387 143.143C159.668 143.389 160.011 143.498 160.607 144.071C160.916 144.365 160.451 144.619 160.376 144.687C159.618 145.161 158.666 144.767 158.378 144.665C155.858 143.733 154.912 143.106 154.084 143.06C153.489 143.02 151.06 142.978 151.019 143.039C151.006 143.06 153.887 143.669 154.71 144.126C156.58 145.189 158.763 148.324 158.559 148.81C158.212 149.646 156.909 148.575 156.464 148.22C155.237 147.258 153.955 146.289 153.414 145.99C152.338 145.424 148.222 146.275 146.984 146.668C143.641 147.736 141.546 147.235 140.459 147.579C138.504 148.206 135.436 150.286 133.384 150.524C132.741 150.6 134.717 149.809 134.155 149.496C132.443 148.596 131.071 144.193 131.071 144.193Z" fill="#FEB19E"/>
<path fill-rule="evenodd" clip-rule="evenodd" d="M127.787 47.8733C128.768 49.378 129.881 42.5305 126.653 38.1908C126.348 37.7765 125.388 36.7298 124.996 36.3809C121.354 33.0444 113.525 33.9384 112.544 33.6767C109.731 32.9353 117.189 28.6829 115.204 22.6423C112.5 14.4428 104.541 14.1157 100.855 14.8353C97.1261 15.5549 92.1104 18.9351 91.26 22.9476C90.6276 25.9134 90.9983 29.8605 94.0731 33.0444C96.0357 35.0724 98.9797 36.3155 99.2632 36.817C99.4377 37.1441 93.5497 39.9136 91.8487 45.4527C90.8674 48.6365 90.3004 52.1039 92.9609 57.5557C94.989 61.6991 103.407 68.6774 104.366 68.1758C107.157 66.6929 101.226 52.2566 102.142 47.6116C103.341 41.5492 109.491 36.708 112.74 36.6426C123.993 36.4027 125.585 44.5586 127.787 47.8733Z" fill="#212122"/>
<path fill-rule="evenodd" clip-rule="evenodd" d="M92.8125 81.9389C92.8125 81.9389 99.3983 77.9917 101.143 73.2377C102.887 68.4837 101.906 64.8638 101.906 64.8638C101.906 64.8638 98.3297 61.9416 97.8063 58.387C97.283 54.8542 97.0431 48.9008 99.878 45.4335C102.713 41.9661 104.981 39.153 111.414 38.7387C117.847 38.3243 122.252 39.7854 123.931 43.0565C125.589 46.3276 126.548 52.6081 125.654 58.6705C124.935 63.5771 124.019 73.3468 118.763 74.6988C116.212 75.353 114.096 74.9823 114.096 74.9823C114.096 74.9823 113.202 76.2035 113.595 79.1039C113.682 79.7363 113.944 80.4123 114.314 81.0883C115.623 83.4653 117.062 87.6087 117.062 87.6087C117.062 87.6087 113.311 92.4063 108.732 92.0356C104.174 91.643 92.8125 81.9389 92.8125 81.9389Z" fill="#FDB19E"/>
<mask id="mask2" mask-type="alpha" maskUnits="userSpaceOnUse" x="92" y="38" width="34" height="55">
<path fill-rule="evenodd" clip-rule="evenodd" d="M92.8125 81.9389C92.8125 81.9389 99.3983 77.9917 101.143 73.2377C102.887 68.4837 101.906 64.8638 101.906 64.8638C101.906 64.8638 98.3297 61.9416 97.8063 58.387C97.283 54.8542 97.0431 48.9008 99.878 45.4335C102.713 41.9661 104.981 39.153 111.414 38.7387C117.847 38.3243 122.252 39.7854 123.931 43.0565C125.589 46.3276 126.548 52.6081 125.654 58.6705C124.935 63.5771 124.019 73.3468 118.763 74.6988C116.212 75.353 114.096 74.9823 114.096 74.9823C114.096 74.9823 113.202 76.2035 113.595 79.1039C113.682 79.7363 113.944 80.4123 114.314 81.0883C115.623 83.4653 117.062 87.6087 117.062 87.6087C117.062 87.6087 113.311 92.4063 108.732 92.0356C104.174 91.643 92.8125 81.9389 92.8125 81.9389Z" fill="#FDB19E"/>
</mask>
<g mask="url(#mask2)">
<path fill-rule="evenodd" clip-rule="evenodd" d="M125.018 71.6159C134.551 50.3171 131.418 49.2845 128.391 48.4589C127.39 48.1569 127.439 47.9963 126.054 49.243C125.249 49.9635 126.784 53.2294 124.969 53.1198C122.745 52.9744 120.861 53.3697 120.665 55.4127C120.601 56.1817 120.484 56.8472 121.111 59.2259C121.408 60.1913 121.814 61.6279 121.981 62.4666C122.116 62.8574 121.918 63.2356 121.614 63.4067C121.108 63.692 120.399 64.0914 120.201 64.4696C119.781 65.3063 120.163 66.8231 120.163 66.8231L120.374 67.2371C120.374 67.2371 119.439 67.8309 119.611 68.9337C119.953 71.1392 119.687 72.0223 118.983 72.6858C118.153 73.4866 117.105 75.5122 117.182 75.5355C117.62 75.7551 120.883 74.1819 121.341 74.0572C123.22 73.3978 124.08 73.6104 125.018 71.6159Z" fill="#EB9B87"/>
<path fill-rule="evenodd" clip-rule="evenodd" d="M120.047 68.772C118.679 68.7856 116.681 67.501 116.697 67.1651C116.767 66.9307 117.83 67.0808 118.478 67.1912C119.463 67.3177 119.541 67.3413 120.315 67.319C120.572 67.3116 121.94 67.298 122.073 67.4233C122.236 67.7283 120.976 68.7969 120.047 68.772Z" fill="#E8178A"/>
<path fill-rule="evenodd" clip-rule="evenodd" d="M114.751 81.699C114.751 81.699 110.825 78.9949 109.43 77.1413C107.86 75.0914 106.791 71.4277 106.791 71.4277C106.791 71.4277 108.623 72.7798 110.28 73.7175C112.286 74.8297 114.227 75.0259 114.227 75.0259C114.227 75.0259 114.729 81.1756 114.751 81.699Z" fill="#EB9B87"/>
</g>
<path fill-rule="evenodd" clip-rule="evenodd" d="M125.807 53.7852C125.807 53.7852 126.09 46.0655 121.184 43.3177C116.255 40.57 110.324 42.838 107.794 46.2835C105.33 49.6419 103.411 55.0282 103.411 55.0282C103.411 55.0282 101.099 52.3023 99.529 54.5049C98.4386 56.0532 98.1551 58.8881 101.535 60.1748C101.71 60.2402 102.975 62.7698 102.866 66.5861C102.56 76.6174 94.9059 58.67 93.9245 59.237L92.9214 55.9223L94.8186 51.9098L99.7252 40.8971L106.682 34.0933L116.822 35.7506L124.346 40.3083C124.346 40.3083 127.29 44.5171 127.857 46.6979C129.056 51.5391 125.807 53.7852 125.807 53.7852Z" fill="#212122"/>
<path fill-rule="evenodd" clip-rule="evenodd" d="M107.68 49.6398C101.204 45.4528 107.833 38.191 107.833 38.191C107.833 38.191 112.173 34.8544 117.799 35.7922C122.989 36.6645 123.883 37.7548 125.497 39.6084C127.634 42.0508 127.22 46.0852 127.22 46.0852C127.22 46.0852 126.74 46.674 125.998 47.3718C125.257 48.0697 124.014 49.0728 124.014 49.0728C124.014 49.0728 123.665 46.8048 123.36 46.0416C123.076 45.2783 122.4 43.3593 122.4 43.3593C122.4 43.3593 122.749 45.8889 122.793 46.674C122.836 47.4591 122.575 49.5744 122.575 49.5744C122.575 49.5744 121.702 50.076 121.201 50.2286C119.434 50.7956 116.927 51.9295 112.87 51.0572C112.718 51.0136 114.201 50.3376 115.16 48.7675C117.036 45.7363 116.033 41.2658 116.033 41.2658C116.033 41.2658 116.011 46.565 112.478 48.5712C110.21 49.8579 108.662 49.9669 108.662 49.9669C108.662 49.9669 108.007 49.836 107.68 49.6398Z" fill="#212122"/>
<path fill-rule="evenodd" clip-rule="evenodd" d="M171.91 78.1019C175.339 77.6502 179.631 76.8288 181.972 73.9949C182.362 73.5226 182.383 72.9476 182.383 72.9476C182.383 72.9476 183.245 72.9271 183.615 71.4485C183.779 70.7709 183.163 69.1897 183.163 69.1897C183.163 69.1897 185.278 68.7584 184.724 65.5138C184.642 65.0826 187.989 60.9139 187.311 59.8872C186.49 58.6551 184.888 60.9345 183.759 61.3657C179.488 63.0291 172.588 69.1486 170.904 71.3869C169.158 73.7074 169.302 77.0546 172.485 77.9582" fill="#EB9B87"/>
<path fill-rule="evenodd" clip-rule="evenodd" d="M187.887 56.4577C187.99 56.2318 187.949 55.9443 187.784 55.7595C187.661 55.6158 187.456 55.4515 187.127 55.3899C185.731 55.0819 180.864 53.9524 179.077 53.5417C178.687 53.4596 178.297 53.6444 178.153 54.014C177.003 56.7042 172.465 67.2182 171.192 70.1547C171.11 70.3395 171.11 70.5654 171.212 70.7503C171.315 70.9351 171.479 71.0583 171.685 71.1199C173.574 71.5511 178.297 72.6395 180.043 73.0297C180.433 73.1118 180.823 72.927 180.967 72.5574C182.178 69.744 187.107 58.2648 187.887 56.4577Z" fill="#51618D"/>
<path fill-rule="evenodd" clip-rule="evenodd" d="M187.269 56.2319C187.331 56.0881 187.331 55.9444 187.248 55.8007C187.187 55.6569 187.064 55.5748 186.899 55.5337C185.195 55.1641 180.308 54.0962 178.932 53.8087C178.726 53.7677 178.5 53.8703 178.418 54.0757C177.515 56.1703 172.751 67.2388 171.56 70.011C171.498 70.1753 171.498 70.3396 171.58 70.4833C171.662 70.6271 171.806 70.7298 171.97 70.7708C173.695 71.1405 178.275 72.1467 179.753 72.4547C180.02 72.5163 180.308 72.3726 180.41 72.1056C181.416 69.7851 186.14 58.8399 187.269 56.2319Z" fill="white"/>
<path fill-rule="evenodd" clip-rule="evenodd" d="M168.46 74.8179C168.665 75.1054 168.501 73.4777 168.542 73.108C168.624 72.3277 168.727 71.5474 168.85 70.7875C169.055 69.4733 170.185 62.286 172.403 62.9842C173.286 63.2717 175.688 65.3046 176.92 66.5162C177.311 66.9064 176.777 67.2555 176.387 67.276C174.128 67.3171 173.594 66.6394 172.772 65.9412C172.854 66.1877 173.08 67.2555 173.471 68.4465C174.723 72.1018 172.875 76.9481 169.302 76.558C167.659 76.3731 168.295 76.3756 168.46 75.4515" fill="#FDB19E"/>
<path fill-rule="evenodd" clip-rule="evenodd" d="M177.926 76.9891C178.399 76.8043 179.364 76.4141 180.124 76.1061C180.617 75.9008 181.089 75.6133 181.52 75.3052C184.908 72.8205 181.253 70.0893 177.885 69.5759C176.879 69.4116 177.557 70.7464 178.317 71.383C179.241 72.1633 179.877 71.7116 180.35 73.4981C180.493 74.0731 179.076 75.8597 176.982 76.8043C174.333 77.9954 170.986 78.3444 171.745 78.4061" fill="#FDB19E"/>
<path fill-rule="evenodd" clip-rule="evenodd" d="M180.822 54.0962C180.822 54.0962 180.719 54.3837 180.617 54.6301C180.576 54.7122 180.596 54.8149 180.637 54.8971C180.678 54.9792 180.76 55.0408 180.843 55.0613C181.623 55.2256 183.492 55.6363 184.272 55.8211C184.477 55.8622 184.662 55.7595 184.744 55.5747C184.847 55.3283 184.95 55.0613 184.95 55.0613L180.822 54.0962Z" fill="#51618D"/>
<path fill-rule="evenodd" clip-rule="evenodd" d="M183.552 71.8759C183.634 71.8964 183.839 70.7259 183.86 70.6848C183.921 70.2741 183.921 69.6375 183.798 69.2268C183.511 68.1795 182.956 67.0296 182.012 65.9207C181.847 65.7153 181.272 64.8939 180.903 65.0582C180.718 65.1609 180.574 65.8591 180.595 66.0439C180.636 66.6394 180.821 67.0501 181.047 67.4608C181.437 68.1796 181.683 68.467 182.114 69.1447C182.402 69.5965 182.833 70.1509 182.997 70.6643C183.326 71.5884 183.264 71.8143 182.895 72.9027" fill="#FDB19E"/>
<path fill-rule="evenodd" clip-rule="evenodd" d="M184.231 68.5904C184.231 68.5904 184.868 68.0155 184.909 66.8449C184.95 65.7977 185.093 65.1816 184.703 63.3334C184.642 63.0254 184.375 61.9781 184.334 61.6495C184.313 61.5674 184.026 61.321 183.779 61.6701C183.512 62.0602 183.286 62.4299 183.204 62.8816C183.06 63.7852 183.245 64.853 183.533 65.736C183.697 66.27 183.82 66.5574 183.984 67.0914C184.067 67.4199 184.231 68.5904 184.231 68.5904Z" fill="#FDB19E"/>
<path fill-rule="evenodd" clip-rule="evenodd" d="M66.0326 172.155C66.0326 172.155 62.4781 182.623 73.9051 192.719C89.5845 206.611 149.86 209.642 152.978 215.682L124.869 256.702L136.339 270.898C136.339 270.898 181.415 234.938 190.05 217.449C198.708 199.959 99.2887 156.236 99.2887 156.236L88.2978 161.579L66.0326 172.155Z" fill="#E3E9FD"/>
<path fill-rule="evenodd" clip-rule="evenodd" d="M115.187 83.4867L127.464 102.197C127.464 102.197 132.632 111.596 142.86 100.453C153.066 89.3093 166.237 73.3027 166.237 73.3027L176.705 77.8604C176.705 77.8604 171.231 95.5462 163.708 107.671C156.184 119.774 147.963 127.232 136.536 130.569C131.324 132.095 120.355 128.78 120.355 128.78L108.187 115.173L118.065 92.5367L115.187 83.4867Z" fill="#C8006E"/>
<path fill-rule="evenodd" clip-rule="evenodd" d="M81.298 95.5246L70.9178 144.722C70.9178 144.722 60.1668 182.208 67.5158 183.713C73.6655 184.978 73.7527 172.286 101.579 172.744C111.479 172.897 120.987 166.311 120.987 166.311C120.987 166.311 119.592 145.332 121.969 129.195C125.959 101.914 120.071 85.5587 115.339 83.1817C114.576 82.7892 114.816 88.9606 114.336 89.2005C113.66 89.9419 99.2672 79.1473 97.6971 78.842C93.3574 78.0133 81.8214 85.188 81.8214 85.188L81.298 95.5246Z" fill="#E8178A"/>
<path fill-rule="evenodd" clip-rule="evenodd" d="M87.2953 113.494L80.644 139.488L124.128 143.501C124.128 143.501 117.542 130.351 109.321 130.896C101.296 131.419 96.1272 131.768 92.4636 128.846C88.7999 125.968 88.6037 112.207 87.2953 113.494Z" fill="#C8006E"/>
<path fill-rule="evenodd" clip-rule="evenodd" d="M96.934 79.1255C96.934 79.1255 81.5163 80.6956 71.6158 94.7395C65.5098 103.397 54.4753 126.273 54.5843 137.438C54.6715 147.273 57.6155 155.473 64.005 159.071C66.9926 160.75 71.4413 162.277 76.566 163.258C82.4104 164.392 89.0834 164.828 95.3857 164.043C96.2144 163.934 97.1521 163.781 98.177 163.607C111.567 161.143 139.175 152.136 138.062 152.093C136.863 152.049 131.542 138.376 131.542 138.376C131.542 138.376 87.426 141.211 83.8933 137.285C80.3387 133.36 86.9681 115.674 86.9681 115.674L96.934 79.1255Z" fill="#E8178A"/>
<path fill-rule="evenodd" clip-rule="evenodd" d="M64.0702 159.463C63.9393 159.419 63.8303 159.31 63.7867 159.18C63.7431 158.961 63.8739 158.765 64.092 158.722C64.1138 158.722 64.1792 158.7 64.2883 158.722C64.3319 158.722 64.4845 158.787 64.7462 158.918C67.1668 159.921 79.5533 164.958 93.7935 163.628C107.597 162.342 124.869 156.279 126.548 155.451C126.744 155.363 126.962 155.429 127.071 155.625C127.159 155.821 127.093 156.039 126.897 156.148C125.196 156.999 107.794 163.105 93.8807 164.413C79.4661 165.765 66.927 160.662 64.4846 159.637C64.2665 159.55 64.1138 159.485 64.0702 159.463Z" fill="#4F007F"/>
<path d="M123.501 58.7614C123.065 58.8001 122.792 58.302 122.77 57.8466L122.827 56.8401C122.821 56.2745 123.22 55.8907 123.572 55.8376C124.007 55.7989 124.281 56.2971 124.302 56.7524L124.245 57.7589C124.251 58.3245 123.837 58.8186 123.501 58.7614Z" fill="#212122"/>
<path d="M117.683 54.0694C116.194 53.4147 114.108 53.4151 112.514 54.5179" stroke="#212122" stroke-width="0.510443" stroke-miterlimit="10" stroke-linecap="round" stroke-linejoin="round"/>
<path d="M115.643 56.3751C116.123 56.3404 116.43 56.8585 116.458 57.3292L116.406 58.3686C116.418 58.953 115.982 59.3447 115.594 59.3953C115.114 59.43 114.807 58.9119 114.779 58.4412L114.831 57.4018C114.819 56.8174 115.255 56.4257 115.643 56.3751Z" fill="#212122"/>
<path d="M125.967 53.6024C124.794 52.9733 122.968 53.0708 121.904 53.5775" stroke="#212122" stroke-width="0.510443" stroke-miterlimit="10" stroke-linecap="round" stroke-linejoin="round"/>
<g clip-path="url(#clip2)">
<path d="M203.608 89.2562L183.031 83.8448C182.347 83.6699 181.623 83.8351 181.086 84.2917L164.947 98.0681C163.598 99.2145 161.516 98.3304 161.408 96.5719L160.225 75.4507C160.186 74.7512 159.805 74.1197 159.199 73.7505L141.027 62.743C139.512 61.82 139.717 59.5758 141.369 58.9346L161.213 51.2885C161.868 51.0359 162.356 50.4725 162.523 49.7924L167.439 29.2152C167.85 27.5053 170.059 27.0001 171.183 28.37L184.634 44.7695C185.084 45.3136 185.768 45.605 186.472 45.5468L207.684 43.8369C209.453 43.6911 210.616 45.6342 209.658 47.1109L198.124 64.8901C197.742 65.4827 197.674 66.2211 197.948 66.8623L206.139 86.3805C206.824 88.003 205.328 89.7032 203.608 89.2562Z" fill="#FFBC27"/>
<path d="M183.519 46.9264C183.49 46.9264 183.47 46.9166 183.441 46.9166C183.226 46.8681 183.021 46.8292 182.815 46.7903C181.994 46.5766 181.007 46.1297 180.235 45.1387C179.267 43.8854 178.944 42.195 178.817 41.0388C178.808 40.0479 178.768 39.7661 178.729 39.7661C178.72 39.7661 178.71 39.7855 178.7 39.8244C178.69 39.7855 178.68 39.7661 178.671 39.7661C178.632 39.7661 178.592 40.0479 178.583 41.0388C178.456 42.1852 178.143 43.8854 177.165 45.1387C176.149 46.4503 174.77 46.8098 173.881 46.9264C173.9 46.9264 173.91 46.9264 173.93 46.9264C173.91 46.9264 173.9 46.9264 173.881 46.9361C174.77 47.0526 176.149 47.4218 177.165 48.7237C178.133 49.977 178.456 51.6675 178.583 52.8236C178.592 53.8146 178.632 54.0963 178.671 54.0963C178.68 54.0963 178.69 54.0769 178.7 54.038C178.71 54.0769 178.72 54.0963 178.729 54.0963C178.768 54.0963 178.808 53.8146 178.817 52.8236C178.944 51.6772 179.257 49.977 180.235 48.7237C181.251 47.4121 182.63 47.0527 183.519 46.9264C183.509 46.9264 183.5 46.9264 183.49 46.9264C183.5 46.9264 183.509 46.9264 183.519 46.9264Z" fill="white"/>
<g opacity="0.5">
<path d="M150.41 64.8124C150.313 64.8124 150.205 64.7832 150.117 64.725L144.975 61.1983C144.809 61.0914 144.731 60.8971 144.76 60.7028C144.79 60.5085 144.927 60.353 145.112 60.285L164.418 54.038C164.692 53.9506 164.985 54.0963 165.073 54.3684C165.161 54.6404 165.015 54.9319 164.741 55.0193L146.432 60.9457L150.714 63.8797C150.948 64.0449 151.007 64.3558 150.85 64.5987C150.733 64.7347 150.567 64.8124 150.41 64.8124Z" fill="#EA8C26"/>
</g>
</g>
</g>
<path d="M61.6148 77.1465L47.5087 73.4153C47.0394 73.2917 46.5453 73.4029 46.1747 73.7242L35.1073 83.2375C34.1809 84.0282 32.7481 83.4228 32.6863 82.1997L31.8711 67.6208C31.8464 67.1389 31.587 66.6941 31.167 66.447L18.7038 58.8487C17.6662 58.2186 17.8021 56.6619 18.9385 56.2294L32.5504 50.9539C32.9951 50.7809 33.341 50.3979 33.4521 49.9284L36.8242 35.7201C37.1083 34.534 38.6276 34.1881 39.3935 35.1271L48.6081 46.4443C48.9169 46.8149 49.3862 47.025 49.868 46.9755L64.4187 45.7895C65.6292 45.6906 66.4321 47.025 65.7774 48.0504L57.8721 60.319C57.6127 60.7267 57.5633 61.2332 57.7486 61.678L63.3687 75.145C63.8134 76.2816 62.7882 77.4554 61.6148 77.1465Z" fill="#D8E5FE"/>
<path d="M155.619 30.0314L147.98 27.9756C147.726 27.9076 147.458 27.9688 147.258 28.1458L141.264 33.3873C140.763 33.823 139.987 33.4894 139.953 32.8155L139.512 24.7831C139.498 24.5176 139.358 24.2726 139.13 24.1364L132.381 19.95C131.819 19.6029 131.893 18.7452 132.508 18.5069L139.88 15.6002C140.12 15.5049 140.308 15.2939 140.368 15.0353L142.194 7.20704C142.348 6.55355 143.171 6.36295 143.585 6.8803L148.575 13.1156C148.743 13.3199 148.997 13.4356 149.258 13.4083L157.137 12.7549C157.793 12.7004 158.228 13.4356 157.873 14.0006L153.592 20.7601C153.452 20.9847 153.425 21.2638 153.525 21.5089L156.569 28.9286C156.81 29.5549 156.254 30.2016 155.619 30.0314Z" fill="#D8E5FE"/>
</g>
<defs>
<clipPath id="clip0">
<rect width="238" height="184" fill="white"/>
</clipPath>
<clipPath id="clip1">
<rect width="158" height="151" fill="white" transform="translate(55 14)"/>
</clipPath>
<clipPath id="clip2">
<rect width="70" height="71" fill="white" transform="translate(140 27.583)"/>
</clipPath>
</defs>
</svg>
