<svg width="230" height="165" viewBox="0 0 230 165" fill="none" xmlns="http://www.w3.org/2000/svg">
<path fill-rule="evenodd" clip-rule="evenodd" d="M172.038 120.926C175.15 110.847 177.721 94.5772 173.272 79.0716C165.411 51.6586 145.371 28.5554 115.031 30.6906C105.339 31.3516 96.1249 35.0525 86.428 35.9756C55.6299 38.9046 22.1544 35.1713 12.0997 73.9862C8.6327 87.3282 12.1288 102.195 18.0155 114.445C25.3656 129.657 36.2129 143.186 50.8566 151.559C89.7051 173.831 157.309 168.71 172.038 120.926Z" fill="#F4F8FF"/>
<mask id="mask0" mask-type="alpha" maskUnits="userSpaceOnUse" x="10" y="30" width="166" height="135">
<path fill-rule="evenodd" clip-rule="evenodd" d="M172.038 120.926C175.15 110.847 177.721 94.5772 173.272 79.0716C165.411 51.6586 145.371 28.5554 115.031 30.6906C105.339 31.3516 96.1249 35.0525 86.428 35.9756C55.6299 38.9046 22.1544 35.1713 12.0997 73.9862C8.6327 87.3282 12.1288 102.195 18.0155 114.445C25.3656 129.657 36.2129 143.186 50.8566 151.559C89.7051 173.831 157.309 168.71 172.038 120.926Z" fill="#F4F8FF"/>
</mask>
<g mask="url(#mask0)">
<path d="M37.4777 122.992C37.4777 122.992 25.1744 98.762 26.2596 93.7554C27.3448 88.7488 35.6206 68.2155 37.0306 64.9986C41.5359 54.6895 46.0835 51.8475 46.0835 51.8475L44.6416 132.611L37.4777 122.992Z" fill="#C8006E"/>
<path d="M12.4663 254.944L22.8608 258.808L52.4221 200.979L65.3826 127.897L56.2523 125.86L46.5556 123.027L37.4813 122.994C37.7002 136.588 34.7112 192.943 34.7112 192.943C34.7112 192.943 29.5982 202.317 25.1128 213.637C20.6193 224.964 12.4663 254.944 12.4663 254.944Z" fill="#0F0060"/>
<path d="M61.9376 162.633L67.3164 262.241L77.9203 260.273L83.4563 201.042L88.2237 122.813L60.8307 128.637L61.9376 162.633Z" fill="#251798"/>
<path d="M53.3021 11.8854L55.8602 50.0074L69.5358 50.6161L69.968 41.37C69.968 41.37 75.7332 42.5026 77.2022 37.1126C78.1378 33.6688 77.8087 7.11827 77.8087 7.11827L53.3021 11.8854Z" fill="#EAAE9C"/>
<path d="M76.308 0.79736C71.3699 0.386107 70.7455 3.39991 68.5289 3.57936C67.3922 3.67871 60.6805 -2.635 51.748 3.62967C47.9765 6.28301 49.5107 11.462 49.5107 11.4811C49.5107 11.4811 44.1656 13.9208 45.0389 19.8074C45.9122 25.6941 52.1862 34.2013 52.6841 43.8442C52.6841 43.8442 64.7312 44.9353 68.4672 34.8199L70.4458 28.8755C70.4458 28.8755 67.2224 28.3628 67.5923 25.7502C68.1009 22.1459 70.8389 22.0408 72.8817 23.6442L75.2095 17.2982C75.2095 17.2982 79.7976 15.1471 81.009 11.9977C82.1547 9.02974 83.2555 1.36346 76.308 0.79736Z" fill="#0E0E30"/>
<path d="M122.19 57.2872L122.773 53.5311C122.773 53.5311 123.102 51.9938 123.085 49.2174C123.082 48.4945 122.941 47.7885 122.702 47.1076C122.405 46.2872 121.968 45.2127 121.55 44.7048C121.025 44.0742 121.544 43.1277 122.264 43.314C122.983 43.5004 124.459 45.212 125.138 47.7725C125.816 50.333 127.518 46.5318 128.159 45.1577C128.807 43.7836 130.998 39.6274 131.577 39.4939C132.426 39.2937 132.788 40.1714 132.115 41.5292C131.434 42.9035 129.693 47.0991 130.437 47.4086C130.437 47.4086 131.49 47.1502 132.046 47.3371C132.234 47.4022 132.365 47.5085 132.382 47.6974C132.458 48.4446 132.623 48.8794 132.623 48.8794C132.623 48.8794 133.634 48.5472 133.889 48.9817C134.144 49.4161 134.221 50.4098 134.221 50.4098C134.221 50.4098 134.987 50.0621 135.396 50.3235C136.28 50.8954 135.337 52.1063 135.337 52.1063C133.201 55.5229 128.564 60.7475 128.564 60.7475L122.19 57.2872Z" fill="#FFBE9D"/>
<path d="M37.8598 132.883C36.7833 133.331 35.5965 132.563 35.576 131.388C35.3624 119.289 34.8431 68.0559 40.1846 58.7546C44.3814 51.437 49.2225 48.5446 57.7366 47.3807C62.7079 46.6976 66.843 47.4468 68.796 47.7684C69.2291 47.8408 71.1507 48.5157 71.6742 48.7274C73.8087 49.5906 81.4484 52.9641 92.0119 61.0341C104.573 70.6248 109.984 74.0638 109.984 74.0638L121.458 55.2529L131.053 59.6627C131.053 59.6627 121.34 91.5611 116.679 92.3171C112.018 93.073 86.7222 80.4883 86.7222 80.4883C86.7222 80.4883 84.6356 95.75 87.2607 108.473C89.9439 121.467 89.2106 124.962 89.2106 124.962C89.2106 124.962 80.2671 136.478 60.8488 132.596C47.9116 130.022 41.0159 131.566 37.8598 132.883Z" fill="#1E88E5"/>
<path d="M72.1567 49.2083L52.6302 49.2777L54.5057 46.1168L71.3944 46.0568L72.1567 49.2083Z" fill="#C8006E"/>
</g>
<rect x="68.0078" y="6.74631" width="161.497" height="109.052" rx="6.24346" fill="white" stroke="#CDDBFC" stroke-width="0.832461"/>
<path d="M88.4031 102.563C88.4031 102.563 97.1439 87.2454 108.465 87.2454C119.787 87.2454 130.775 95.1537 130.775 95.1537C130.775 95.1537 140.182 99.8155 144.677 94.1548C149.173 88.4941 151.92 74.592 161.16 74.9249C170.4 75.2579 172.482 90.4087 178.892 90.7417C184.885 91.0747 192.627 84.4982 203.782 70.5129C205.614 68.2652 208.194 66.7668 211.108 66.5171H211.191V102.646H88.4031V102.563Z" fill="#D8E5FE"/>
<path d="M191.011 23.7285C181.438 23.7285 173.696 31.4704 173.696 41.0437C173.696 50.617 181.438 58.3589 191.011 58.3589C200.585 58.3589 208.327 50.617 208.327 41.0437C208.327 31.4704 200.585 23.7285 191.011 23.7285ZM191.011 50.5337C185.767 50.5337 181.521 46.2882 181.521 41.0437C181.521 35.7992 185.767 31.5536 191.011 31.5536C196.256 31.5536 200.502 35.7992 200.502 41.0437C200.502 46.2882 196.256 50.5337 191.011 50.5337Z" fill="#D8E5FE"/>
<path d="M190.429 53.6139C190.429 51.949 189.43 50.4506 187.848 49.9511C184.102 48.7024 181.438 45.1228 181.438 40.9605C181.438 36.7982 184.102 33.3019 187.848 31.9699C189.43 31.4705 190.429 29.972 190.429 28.3071C190.429 25.6432 187.765 23.7286 185.267 24.561C178.525 26.8919 173.696 33.3851 173.696 40.8773C173.696 48.3694 178.525 54.8626 185.267 57.1935C187.765 58.2757 190.429 56.361 190.429 53.6139Z" fill="#E8178A"/>
<path d="M150.005 22.9795C140.432 22.9795 132.69 30.7214 132.69 40.2947C132.69 49.868 140.432 57.6098 150.005 57.6098C159.578 57.6098 167.32 49.868 167.32 40.2947C167.32 30.7214 159.578 22.9795 150.005 22.9795ZM150.005 49.7847C144.761 49.7847 140.515 45.5392 140.515 40.2947C140.515 35.0502 144.761 30.8046 150.005 30.8046C155.25 30.8046 159.495 35.0502 159.495 40.2947C159.495 45.5392 155.25 49.7847 150.005 49.7847Z" fill="#D8E5FE"/>
<path d="M141.098 37.0482C142.097 34.3843 144.178 32.3031 146.842 31.3874C148.424 30.8047 149.422 29.3895 149.422 27.7246C149.422 25.0607 146.759 23.1461 144.261 23.9785C139.35 25.7267 135.437 29.556 133.689 34.4675C132.773 36.9649 134.688 39.6288 137.435 39.6288C139.1 39.5456 140.515 38.5466 141.098 37.0482Z" fill="#2998FF"/>
<path d="M109.381 23.7285C99.8078 23.7285 92.0659 31.4704 92.0659 41.0437C92.0659 50.617 99.8078 58.3589 109.381 58.3589C118.954 58.3589 126.696 50.617 126.696 41.0437C126.696 31.4704 118.954 23.7285 109.381 23.7285ZM109.381 50.5337C104.137 50.5337 99.8911 46.2882 99.8911 41.0437C99.8911 35.7992 104.137 31.5536 109.381 31.5536C114.626 31.5536 118.871 35.7992 118.871 41.0437C118.871 46.2882 114.626 50.5337 109.381 50.5337Z" fill="#D8E5FE"/>
<g clip-path="url(#clip0)">
<path d="M37.4777 122.992C37.4777 122.992 25.1744 98.762 26.2596 93.7554C27.3448 88.7488 35.6206 68.2155 37.0306 64.9986C41.5359 54.6895 46.0835 51.8475 46.0835 51.8475L44.6416 132.611L37.4777 122.992Z" fill="#006CCB"/>
<path d="M12.4663 254.944L22.8608 258.808L52.4221 200.979L65.3826 127.897L56.2523 125.86L46.5556 123.027L37.4813 122.994C37.7002 136.588 34.7112 192.943 34.7112 192.943C34.7112 192.943 29.5982 202.317 25.1128 213.637C20.6193 224.964 12.4663 254.944 12.4663 254.944Z" fill="#0F0060"/>
<path d="M61.9376 162.633L67.3164 262.241L77.9203 260.273L83.4563 201.042L88.2237 122.813L60.8307 128.637L61.9376 162.633Z" fill="#251798"/>
<path d="M53.3021 11.8854L55.8602 50.0074L69.5358 50.6161L69.968 41.37C69.968 41.37 75.7332 42.5026 77.2022 37.1126C78.1378 33.6688 77.8087 7.11827 77.8087 7.11827L53.3021 11.8854Z" fill="#EAAE9C"/>
<path d="M76.308 0.79736C71.3699 0.386107 70.7455 3.39991 68.5289 3.57936C67.3922 3.67871 60.6805 -2.635 51.748 3.62967C47.9765 6.28301 49.5107 11.462 49.5107 11.4811C49.5107 11.4811 44.1656 13.9208 45.0389 19.8074C45.9122 25.6941 52.1862 34.2013 52.6841 43.8442C52.6841 43.8442 64.7312 44.9353 68.4672 34.8199L70.4458 28.8755C70.4458 28.8755 67.2224 28.3628 67.5923 25.7502C68.1009 22.1459 70.8389 22.0408 72.8817 23.6442L75.2095 17.2982C75.2095 17.2982 79.7976 15.1471 81.009 11.9977C82.1547 9.02974 83.2555 1.36346 76.308 0.79736Z" fill="#0E0E30"/>
<path d="M122.19 57.2872L122.773 53.5311C122.773 53.5311 123.102 51.9938 123.085 49.2174C123.082 48.4945 122.941 47.7885 122.702 47.1076C122.405 46.2872 121.968 45.2127 121.55 44.7048C121.025 44.0742 121.544 43.1277 122.264 43.314C122.983 43.5004 124.459 45.212 125.138 47.7725C125.816 50.333 127.518 46.5318 128.159 45.1577C128.807 43.7836 130.998 39.6274 131.577 39.4939C132.426 39.2937 132.788 40.1714 132.115 41.5292C131.434 42.9035 129.693 47.0991 130.437 47.4086C130.437 47.4086 131.49 47.1502 132.046 47.3371C132.234 47.4022 132.365 47.5085 132.382 47.6974C132.458 48.4446 132.623 48.8794 132.623 48.8794C132.623 48.8794 133.634 48.5472 133.889 48.9817C134.144 49.4161 134.221 50.4098 134.221 50.4098C134.221 50.4098 134.987 50.0621 135.396 50.3235C136.28 50.8954 135.337 52.1063 135.337 52.1063C133.201 55.5229 128.564 60.7475 128.564 60.7475L122.19 57.2872Z" fill="#FFBE9D"/>
<path d="M37.8598 129.884C36.7833 130.331 35.5964 129.563 35.576 128.388C35.3623 116.289 34.8431 68.056 40.1845 58.7546C44.3814 51.437 49.2225 48.5447 57.7366 47.3807C62.7079 46.6976 66.843 47.4468 68.796 47.7684C69.2291 47.8408 71.1507 48.5158 71.6741 48.7275C73.8087 49.5906 81.4484 52.9641 92.0119 61.0341C104.573 70.6248 109.984 74.0638 109.984 74.0638L121.458 55.2529L131.053 59.6627C131.053 59.6627 121.34 91.5612 116.679 92.3171C112.018 93.073 86.7221 80.4883 86.7221 80.4883C86.7221 80.4883 84.6356 95.75 87.2607 108.473C89.9439 121.467 89.2106 121.962 89.2106 121.962C89.2106 121.962 80.267 133.478 60.8488 129.596C47.9115 127.022 41.0158 128.566 37.8598 129.884Z" fill="#1E88E5"/>
<path d="M72.1567 49.2083L52.6302 49.2777L54.5057 46.1168L71.3944 46.0568L72.1567 49.2083Z" fill="#006CCB"/>
</g>
<defs>
<clipPath id="clip0">
<rect width="128.515" height="122.673" fill="white" transform="translate(8 0.544922)"/>
</clipPath>
</defs>
</svg>
