<svg width="247" height="171" viewBox="0 0 247 171" fill="none" xmlns="http://www.w3.org/2000/svg">
<path d="M231.681 117.27C242.32 80.5844 221.892 68.7788 185.787 53.7263C165.432 45.2518 153.016 5.77338 99.4326 11.597C67.5402 15.0366 8.83195 43.1389 27.5055 110.435C47.4912 182.338 210.484 190.288 231.681 117.27Z" fill="#F4F8FF"/>
<rect x="128.788" y="7.55664" width="64.1204" height="59.4057" rx="4.71474" fill="#D8E5FE"/>
<rect x="182.535" y="101.852" width="33.9461" height="23.5737" rx="4.71474" fill="#EFEDFE"/>
<rect x="200.451" y="33.959" width="31.1173" height="59.4057" rx="4.71474" fill="#C0EBF8"/>
<rect x="142.932" y="73.5625" width="49.9762" height="23.5737" rx="4.71474" fill="#F9D3FA"/>
<g clip-path="url(#clip0)">
<mask id="mask0" mask-type="alpha" maskUnits="userSpaceOnUse" x="23" y="11" width="212" height="158">
<path d="M231.708 117.328C242.348 80.6425 221.92 68.8369 185.815 53.7844C165.46 45.3099 153.044 5.83149 99.4605 11.6551C67.568 15.0947 8.85978 43.197 27.5333 110.493C47.519 182.396 210.512 190.346 231.708 117.328Z" fill="#F3F3FE"/>
</mask>
<g mask="url(#mask0)">
<g clip-path="url(#clip1)">
<path fill-rule="evenodd" clip-rule="evenodd" d="M91.9218 139.47L99.9014 206.313C99.9014 206.313 100.481 214.04 97.8422 222.54C91.7931 241.988 87.1598 273.22 86.3876 281.785C86.3876 281.785 81.9474 282.171 78.215 281.72C74.4183 281.269 68.8197 282.815 68.8197 282.815C68.8197 282.815 68.4979 254.803 71.3294 235.999C72.4234 228.787 74.6757 222.09 76.2845 217.904C77.4428 214.942 77.5715 211.658 76.7349 208.631C72.0373 192.21 57.1078 140.242 57.1078 140.242L91.9218 139.47Z" fill="#3E177B"/>
<mask id="mask1" mask-type="alpha" maskUnits="userSpaceOnUse" x="57" y="139" width="43" height="144">
<path fill-rule="evenodd" clip-rule="evenodd" d="M91.9218 139.47L99.9014 206.313C99.9014 206.313 100.481 214.04 97.8422 222.54C91.7931 241.988 87.1598 273.22 86.3876 281.785C86.3876 281.785 81.9474 282.171 78.215 281.72C74.4183 281.269 68.8197 282.815 68.8197 282.815C68.8197 282.815 68.4979 254.803 71.3294 235.999C72.4234 228.787 74.6757 222.09 76.2845 217.904C77.4428 214.942 77.5715 211.658 76.7349 208.631C72.0373 192.21 57.1078 140.242 57.1078 140.242L91.9218 139.47Z" fill="#B1191F"/>
</mask>
<g mask="url(#mask1)">
<path fill-rule="evenodd" clip-rule="evenodd" d="M115.796 132.193C115.796 132.193 88.3827 152.864 89.6697 169.027C90.635 181.263 95.0109 195.558 94.1099 210.434C93.8525 214.555 92.5011 221.768 87.6104 229.946C73.4531 253.643 73.9036 282.106 74.161 282.042L134.265 290.607" fill="#5625A3"/>
</g>
<path fill-rule="evenodd" clip-rule="evenodd" d="M84.0063 151.963L64.4435 213.268C64.4435 213.268 63.9931 218.097 58.3945 224.73C52.796 231.427 22.036 273.864 22.036 273.864C22.036 273.864 17.8532 272.576 14.5712 270.322C11.225 268.068 10.0023 265.042 10.0023 265.042C10.0023 265.042 19.3333 242.568 30.2086 226.34C34.8419 219.45 38.0595 214.813 40.3118 211.786C43.0145 208.116 44.6233 203.801 44.9451 199.294C45.5242 192.403 46.2321 181.842 46.4252 172.956C46.7469 154.989 50.2219 139.083 50.2219 139.083L84.0063 151.963Z" fill="#491D8D"/>
<mask id="mask2" mask-type="alpha" maskUnits="userSpaceOnUse" x="10" y="139" width="75" height="135">
<path fill-rule="evenodd" clip-rule="evenodd" d="M84.0063 151.963L64.4435 213.268C64.4435 213.268 63.9931 218.097 58.3945 224.73C52.796 231.427 22.036 273.864 22.036 273.864C22.036 273.864 17.8532 272.576 14.5712 270.322C11.225 268.068 10.0023 265.042 10.0023 265.042C10.0023 265.042 19.3333 242.568 30.2086 226.34C34.8419 219.45 38.0595 214.813 40.3118 211.786C43.0145 208.116 44.6233 203.801 44.9451 199.294C45.5242 192.403 46.2321 181.842 46.4252 172.956C46.7469 154.989 50.2219 139.083 50.2219 139.083L84.0063 151.963Z" fill="#5F25CC"/>
</mask>
<g mask="url(#mask2)">
<path fill-rule="evenodd" clip-rule="evenodd" d="M87.3527 154.152C87.3527 154.152 83.8134 150.739 70.1066 157.693C56.3997 164.584 50.7368 166.644 50.7368 166.644C50.7368 166.644 49.1924 179.781 50.222 192.081C51.316 205.153 54.2118 211.013 46.3609 216.487C29.8226 228.078 26.7981 239.347 22.744 255.253C18.6898 271.223 16.7593 276.761 16.7593 276.761L2.92375 267.746L31.5601 142.367L91.0208 144.879L87.3527 154.152Z" fill="#632DB7"/>
</g>
<path fill-rule="evenodd" clip-rule="evenodd" d="M82.462 61.6147C82.462 61.6147 97.7776 77.0054 107.044 86.2784C111.613 90.8505 117.019 94.4566 122.939 96.8393C134.78 101.669 154.149 109.525 154.149 109.525L152.219 118.219C152.219 118.219 131.884 114.097 117.469 111.2C108.331 109.396 99.8369 105.275 92.7582 99.2863C84.1995 92.074 73.6459 83.1874 73.6459 83.1874L82.462 61.6147Z" fill="#4F007F"/>
<mask id="mask3" mask-type="alpha" maskUnits="userSpaceOnUse" x="73" y="61" width="82" height="58">
<path fill-rule="evenodd" clip-rule="evenodd" d="M82.4618 61.6147C82.4618 61.6147 97.7774 77.0054 107.044 86.2784C111.613 90.8505 117.018 94.4566 122.939 96.8393C134.779 101.669 154.149 109.525 154.149 109.525L152.219 118.219C152.219 118.219 131.884 114.097 117.469 111.2C108.331 109.396 99.8366 105.275 92.758 99.2863C84.1993 92.074 73.6457 83.1874 73.6457 83.1874L82.4618 61.6147Z" fill="#2D0074"/>
</mask>
<g mask="url(#mask3)">
<path fill-rule="evenodd" clip-rule="evenodd" d="M77.5709 54.6602C77.5709 54.6602 83.7486 69.6 94.0448 84.3467C99.9008 92.7181 109.747 100.446 119.206 103.215C132.141 107.014 153.827 115.128 153.827 115.128L161.099 106.306L111.291 76.6835L77.5709 54.6602Z" fill="#632DB7"/>
</g>
<path fill-rule="evenodd" clip-rule="evenodd" d="M67.1467 59.2327C74.0323 54.5962 85.4868 60.8426 90.9567 71.8543C97.4561 84.991 97.3274 88.5328 95.9761 94.7148C92.3724 110.814 90.4419 118.219 91.7289 129.424C92.6942 137.796 96.0404 154.925 96.0404 154.925C96.0404 154.925 79.3091 153.186 67.211 157.05C48.2274 163.168 35.0997 150.417 35.0997 150.417C35.0997 150.417 42.8862 139.212 49.9005 124.659C58.5236 106.692 55.3704 106.177 56.5287 92.2034C57.6227 78.2939 55.1773 67.2822 67.1467 59.2327Z" fill="#5D25B4"/>
<mask id="mask4" mask-type="alpha" maskUnits="userSpaceOnUse" x="35" y="57" width="62" height="102">
<path fill-rule="evenodd" clip-rule="evenodd" d="M67.1467 59.2327C74.0323 54.5962 85.4868 60.8426 90.9567 71.8543C97.4561 84.991 97.3274 88.5328 95.9761 94.7148C92.3724 110.814 90.4419 118.219 91.7289 129.424C92.6942 137.796 96.0404 154.925 96.0404 154.925C96.0404 154.925 79.3091 153.186 67.211 157.05C48.2274 163.168 35.0997 150.417 35.0997 150.417C35.0997 150.417 42.8862 139.212 49.9005 124.659C58.5236 106.692 55.3704 106.177 56.5287 92.2034C57.6227 78.2939 55.1773 67.2822 67.1467 59.2327Z" fill="#B1191F"/>
</mask>
<g mask="url(#mask4)">
<path fill-rule="evenodd" clip-rule="evenodd" d="M55.1768 59.5546C55.1768 59.5546 70.0419 61.2289 68.047 76.3619C66.3739 88.9835 73.5812 93.7488 84.9714 93.5556C102.025 93.2336 63.9285 166.323 63.9285 166.323L100.223 164.906L101.445 119.829L106.722 72.8845L88.7682 46.8042L55.1768 59.5546Z" fill="#783ACE"/>
</g>
<path d="M33.3618 29.1597C34.8419 27.8718 36.8368 27.2279 38.7673 27.0347C40.6979 26.7771 42.6928 26.9059 44.6233 27.2279C46.5538 27.4854 48.4844 27.8718 50.4149 28.1294C52.3455 28.3226 54.2117 28.387 56.0135 28.0006C57.8153 27.6142 59.4885 26.7771 61.0329 25.6823C62.5773 24.5876 63.9931 23.2997 65.4732 22.0118C66.9532 20.7239 68.4333 19.3715 70.2351 18.2768C70.6856 18.0192 71.1361 17.7617 71.5865 17.5041C72.037 17.2465 72.6161 17.0533 73.1309 16.8601C73.7101 16.6669 74.2893 16.6025 74.9971 16.6025C75.6407 16.6025 76.4129 16.8601 77.0564 17.3109L75.5119 19.436C75.3189 19.3072 75.1258 19.1784 74.8684 19.1784C74.5467 19.114 74.2249 19.1784 73.8388 19.2428C73.4527 19.3072 73.0666 19.4359 72.6805 19.6291C72.2944 19.8223 71.8439 20.0155 71.4578 20.2087C69.849 21.1102 68.3689 22.2694 66.8245 23.4285C65.2801 24.652 63.8 25.8755 62.0625 26.9703C61.226 27.4854 60.325 28.0006 59.3598 28.387C58.845 28.5802 58.3945 28.7733 57.8797 28.9021C57.3649 29.0309 56.9144 29.1597 56.3996 29.2241C54.3403 29.5461 52.3455 29.3529 50.4149 29.0309C48.4844 28.709 46.5539 28.1938 44.6877 27.8074C42.8215 27.421 40.8909 27.1634 38.9604 27.2922C36.9011 27.4854 34.9706 28.0006 33.3618 29.1597Z" fill="#17013C"/>
<path fill-rule="evenodd" clip-rule="evenodd" d="M71.7152 57.558C71.7152 57.558 74.5466 61.2286 77.3137 62.5809C80.2739 64.062 81.947 62.1302 81.947 62.1302L87.0308 52.7928C87.0308 52.7928 90.8275 55.0466 92.5006 53.6943C94.6242 52.0844 96.233 46.8683 96.6191 45.7092C96.6834 45.5804 96.7478 45.4516 96.9409 45.4516C97.327 45.3872 98.2279 45.1296 98.8071 45.0008C99.1288 44.9364 99.3862 44.6145 99.3219 44.2281C99.0645 42.8114 98.4209 39.334 98.1635 38.2393C98.1635 38.1749 99.901 32.8944 98.8071 29.3526C97.7774 25.8753 94.946 24.0722 94.946 24.0722L80.5956 23.4282L73.6457 33.3452L74.2892 46.3532L70.5568 56.3989L71.7152 57.558Z" fill="#F8BEBC"/>
<mask id="mask5" mask-type="alpha" maskUnits="userSpaceOnUse" x="70" y="23" width="30" height="41">
<path fill-rule="evenodd" clip-rule="evenodd" d="M71.7152 57.558C71.7152 57.558 74.5466 61.2286 77.3137 62.5809C80.2739 64.062 81.947 62.1302 81.947 62.1302L87.0308 52.7928C87.0308 52.7928 90.8275 55.0466 92.5006 53.6943C94.6242 52.0844 96.233 46.8683 96.6191 45.7092C96.6834 45.5804 96.7478 45.4516 96.9409 45.4516C97.327 45.3872 98.2279 45.1296 98.8071 45.0008C99.1288 44.9364 99.3862 44.6145 99.3219 44.2281C99.0645 42.8114 98.4209 39.334 98.1635 38.2393C98.1635 38.1749 99.901 32.8944 98.8071 29.3526C97.7774 25.8753 94.946 24.0722 94.946 24.0722L80.5956 23.4282L73.6457 33.3452L74.2892 46.3532L70.5568 56.3989L71.7152 57.558Z" fill="#F8BEBC"/>
</mask>
<g mask="url(#mask5)">
<path fill-rule="evenodd" clip-rule="evenodd" d="M94.2383 53.5012C94.2383 53.5012 91.4712 56.399 87.5457 53.3724C83.6203 50.4101 83.1698 48.7358 83.1698 48.7358C83.1698 48.7358 83.4272 54.3383 81.9471 58.202C79.8879 63.7401 78.794 66.1227 78.794 66.1227L94.2383 53.5012Z" fill="#F8ABA3"/>
<path fill-rule="evenodd" clip-rule="evenodd" d="M97.0696 48.1563L96.04 49.7018C96.04 49.7018 94.8816 49.4442 93.9807 48.6714C92.758 47.7055 92.3719 46.5464 92.3719 46.5464C92.3719 46.5464 94.946 48.3495 97.0696 48.1563Z" fill="#F6EDFC" stroke="#4F007F" stroke-width="0.452952" stroke-miterlimit="10" stroke-linecap="round" stroke-linejoin="round"/>
</g>
<path fill-rule="evenodd" clip-rule="evenodd" d="M162.901 108.367L167.856 108.817C167.856 108.817 170.688 110.105 171.267 111.586C171.782 113.132 172.296 117.189 172.296 117.189C172.296 117.189 170.881 117.253 170.495 116.545C170.237 115.965 169.529 114.677 169.529 114.677L167.084 114.871C167.084 114.871 164.317 116.03 164.767 114.484C165.218 112.939 164.188 112.359 163.802 112.166C163.03 111.78 161.55 111.458 160.263 112.102C159.812 112.23 162.901 108.367 162.901 108.367Z" fill="#F8ABA3"/>
<path fill-rule="evenodd" clip-rule="evenodd" d="M153.184 117.833C153.184 117.833 150.674 117.833 150.417 115.321C149.902 111.136 154.6 109.848 154.6 109.848C154.6 109.848 162.258 106.95 164.574 107.014C168.114 107.143 169.336 107.594 172.361 108.045C176.479 108.689 177.766 109.011 177.766 109.011C177.766 109.011 176.801 110.298 176.093 110.492C174.742 110.878 172.361 110.363 171.074 110.17C169.722 109.976 167.728 110.17 166.183 110.556C164.639 110.942 161.936 112.488 161.936 112.488C161.936 112.488 160.327 113.325 161.421 113.84C162.515 114.291 162.644 114.677 165.347 114.484C168.049 114.291 169.401 113.776 170.559 114.355C171.46 114.806 171.46 115.901 171.46 115.901C171.46 115.901 170.366 116.03 167.985 116.674C165.604 117.318 165.089 118.09 161.679 117.768C158.204 117.318 153.184 117.833 153.184 117.833Z" fill="#F8BEBC"/>
<path fill-rule="evenodd" clip-rule="evenodd" d="M66.6959 22.3336C75.9625 9.71201 88.3823 13.5758 91.5355 14.4773C101.51 17.3751 102.797 26.9057 102.733 31.8642C102.733 32.637 102.347 33.4097 101.767 33.9249C101.188 34.44 100.416 34.6976 99.5795 34.6332C98.3568 34.5044 96.748 34.3113 95.1392 33.9893C93.3374 33.6673 91.5356 32.8945 90.0555 32.7014C89.7337 32.637 90.9564 31.671 91.6643 30.7695C92.6939 29.4816 93.4017 27.8072 93.4017 27.8072C93.4017 27.8072 92.5008 30.3187 87.6101 32.6369C86.1944 33.3453 84.6499 36.3075 84.6499 36.3075C84.6499 36.3075 82.6551 32.9589 80.4671 34.6332C79.6949 35.2128 79.4375 36.5007 79.6305 37.531C80.0167 39.9781 82.3333 39.7849 82.3333 39.8493C81.368 44.4858 80.4671 47.126 78.2148 50.4102C74.4181 55.8195 71.2649 57.6226 71.2649 57.6226C71.2649 57.6226 67.5325 58.8461 63.7358 61.8083C58.2659 65.994 53.9543 73.5283 53.9543 73.5283C53.9543 73.5283 52.2812 73.1419 50.1576 72.3692C48.034 71.5964 46.1678 70.8237 46.1678 70.8237C46.1678 70.8237 49.2567 67.9259 50.5437 66.8312C51.8308 65.7364 55.3057 63.0962 55.3057 63.0962C55.3057 63.0962 50.3507 65.6721 48.7419 66.316C47.1331 66.96 42.4355 68.1191 42.4355 68.1191C42.4355 68.1191 40.5693 66.9599 39.797 66.2516C36.9656 63.6114 32.2679 60.134 30.3374 52.4065C30.273 52.0845 33.0402 54.2096 37.2874 54.6603C45.3313 55.7551 53.7613 50.6034 53.7613 50.6034C53.7613 50.6034 42.5641 54.5959 35.1637 50.0238C30.4017 47.0616 28.7286 44.4858 28.7286 44.4858C28.7286 44.4858 28.4712 43.1335 28.4712 42.4251C29.0504 23.6215 43.272 28.58 49.1924 30.3187C57.365 32.637 64.4436 25.489 66.6959 22.3336Z" fill="#2D0074"/>
<path fill-rule="evenodd" clip-rule="evenodd" d="M66.7602 81.8353C67.082 80.8694 71.0074 75.1382 71.3935 70.1153C71.9083 64.4485 68.8195 58.6528 68.8195 58.6528C68.8195 58.6528 53.0534 64.3197 47.5835 91.1727C47.2618 92.847 46.8757 94.2637 46.6183 96.3244C44.8164 111.457 46.4252 122.405 62.3844 128.2C76.9921 133.481 97.9062 132.386 97.9062 132.386C97.9062 132.386 96.6193 131.871 95.847 128.522C95.2035 125.947 97.9062 123.371 97.9062 123.371C97.9062 123.371 83.6203 122.598 72.4875 118.219C61.3547 113.84 59.939 106.563 62.0626 93.4266C62.9635 87.9529 66.7602 81.8997 66.7602 81.8353Z" fill="#783ACE"/>
<path fill-rule="evenodd" clip-rule="evenodd" d="M94.6242 39.2696C94.3025 39.2052 94.1094 38.8832 94.1738 38.5613C94.2381 38.2393 94.5599 38.0461 94.8817 38.1105C95.1391 38.1749 95.4608 38.2393 95.7826 38.3037C96.1043 38.3681 96.2974 38.6901 96.233 39.012C96.1687 39.334 95.8469 39.5272 95.5252 39.4628C95.2034 39.3984 94.8817 39.2696 94.6242 39.2696Z" fill="#47018D"/>
<path d="M82.6551 61.4217C82.3977 61.1642 88.0606 66.3803 91.2782 72.7554C95.1393 80.4829 98.2925 86.4717 95.8472 95.2296M98.0823 123.5C97.4388 123.5 85.5823 122.5 78.0823 120M54.2119 124.337C59.8748 128.973 71.8441 130.969 76.22 131.742C85.551 133.352 91.7287 132.644 96.8768 132.644" stroke="#47018D" stroke-width="0.452952" stroke-miterlimit="10" stroke-linecap="round" stroke-linejoin="round"/>
<path fill-rule="evenodd" clip-rule="evenodd" d="M98.3567 124.272C98.3567 124.272 102.282 120.537 104.084 118.799C104.663 118.219 105.307 117.704 106.015 117.317C107.881 116.223 111.549 114.098 111.549 114.098L111.806 116.416C111.806 116.416 109.876 117.897 108.717 118.799C108.138 119.249 107.688 119.893 107.495 120.602C107.173 121.696 106.722 123.113 106.722 123.113L98.3567 124.272Z" fill="#F8ABA3"/>
<path d="M28.6643 49.1866C30.6591 50.3457 32.7184 51.3761 34.9063 52.1489C37.0299 52.9216 39.2822 53.308 41.5345 53.308C43.7868 53.308 45.9104 52.7928 47.9696 51.9556C50.0289 51.1185 51.9594 49.9594 53.8256 48.7358L55.177 50.9897C53.1178 52.0844 50.9298 53.1148 48.6132 53.8231C46.2965 54.5315 43.8512 54.8535 41.4702 54.5959C39.0892 54.4027 36.7725 53.6943 34.6489 52.7284C32.5253 51.7625 30.5304 50.4745 28.6643 49.1866Z" fill="#17013C"/>
<path d="M74.6754 58.2022C77.1208 55.9483 78.6008 52.8573 79.2444 49.7663C79.9522 46.6109 79.9522 43.3267 79.6948 40.1069H82.3333C82.1402 43.5199 81.6897 46.9329 80.5314 50.1527C79.3731 53.3081 77.3782 56.2703 74.6754 58.2022Z" fill="#17013C"/>
<path d="M92.9513 36.8872C93.6592 36.6296 94.3671 36.3076 95.2036 36.3076C96.0402 36.3076 96.8124 36.5652 97.5203 36.8228L97.2628 37.4024C96.6193 37.016 95.9758 36.694 95.2036 36.6296C94.4314 36.5652 93.6592 36.694 92.9513 36.8872Z" fill="#47018D"/>
<path d="M152.09 94.5213L138.255 130.003C137.868 130.969 136.903 131.549 135.938 131.42L107.752 128.394C107.43 128.007 107.237 127.878 107.044 127.621C106.787 127.299 106.722 126.912 106.851 126.526L120.108 91.0439C120.494 90.078 121.459 89.4984 122.424 89.6272L150.546 92.9758C150.932 93.0402 151.189 93.2978 151.382 93.5554C151.768 93.8129 152.219 94.1349 152.09 94.5213Z" fill="#B4C3FA"/>
<path d="M152.219 95.2298L138.962 130.712C138.576 131.678 137.611 132.257 136.646 132.129L108.524 128.78C107.752 128.716 107.302 127.943 107.559 127.235L120.815 91.7524C121.201 90.7865 122.167 90.2069 123.132 90.3357L151.254 93.6843C152.026 93.7487 152.476 94.5214 152.219 95.2298Z" fill="#CFD8FA"/>
<path d="M147.135 100.188C147.65 100.381 148.294 100.124 148.487 99.6084L149.581 96.9682C149.774 96.453 149.516 95.8091 149.001 95.6159C148.487 95.4227 147.843 95.6803 147.65 96.1954L146.556 98.8357C146.299 99.3509 146.556 99.9948 147.135 100.188Z" fill="#B4C3FA"/>
<path d="M147.986 97.5979C147.671 97.3668 147.636 96.877 147.909 96.5039C148.182 96.1308 148.659 96.0156 148.974 96.2467C149.29 96.4777 149.324 96.9675 149.051 97.3406C148.778 97.7137 148.302 97.8289 147.986 97.5979Z" fill="#8095E3"/>
<path d="M157.367 96.3889L157.431 96.3245C157.753 96.1313 158.139 96.1957 158.332 96.5177L169.272 114.033C168.693 113.969 168.178 114.033 167.663 114.162L157.11 97.2904C156.981 96.9684 157.11 96.5821 157.367 96.3889Z" fill="#CFD8FA"/>
<path d="M170.559 115.901L172.297 118.734C172.49 119.056 173.133 120.924 173.069 121.053C172.94 121.053 171.331 119.829 171.138 119.507L169.143 116.223C169.529 116.094 169.916 115.965 170.559 115.901Z" fill="#CFD8FA"/>
<path fill-rule="evenodd" clip-rule="evenodd" d="M107.495 131.613C108.331 131.549 109.168 131.356 109.94 131.098C111.356 130.583 113.672 129.81 114.509 129.553C114.702 129.488 114.895 129.424 115.088 129.295C116.375 128.715 121.33 126.59 121.33 126.59C121.33 126.59 121.008 126.333 120.687 126.011C120.172 125.624 119.528 125.496 118.949 125.689C117.791 126.075 115.925 126.784 114.895 127.106C114.509 127.234 114.058 127.363 113.608 127.363C112.836 127.428 111.549 127.556 111.549 127.556C111.549 127.556 114.123 126.268 115.41 125.689C115.86 125.431 116.311 125.174 116.697 124.852C117.533 124.143 119.078 122.92 119.979 122.147C120.429 121.761 120.751 121.181 120.687 120.537C120.687 119.893 120.622 119.056 120.558 118.283C120.558 117.961 120.365 117.639 120.043 117.446C119.721 117.253 119.335 117.253 119.078 117.446C117.791 118.155 115.925 119.185 114.638 119.893C113.672 120.408 112.578 120.859 111.484 121.117C109.682 121.568 106.915 122.211 105.114 122.662C104.663 122.791 104.213 122.662 103.891 122.405C103.569 122.147 103.312 121.761 103.312 121.31C103.247 120.408 103.183 119.507 103.183 119.507L96.8766 124.337C96.8766 124.337 95.3322 126.14 95.847 128.78C96.2974 131.098 97.1983 132.644 97.1983 132.644C97.1983 132.644 104.47 131.935 107.495 131.613Z" fill="#F8BEBC"/>
</g>
</g>
</g>
<g clip-path="url(#clip2)">
<path fill-rule="evenodd" clip-rule="evenodd" d="M82.4618 61.6143C82.4618 61.6143 97.7774 77.0049 107.044 86.2779C111.613 90.85 117.018 94.4562 122.939 96.8388C134.779 101.668 154.149 109.525 154.149 109.525L152.219 118.218C152.219 118.218 131.884 114.097 117.469 111.199C108.331 109.396 99.8366 105.275 92.758 99.2858C84.1993 92.0735 73.6457 83.1869 73.6457 83.1869L82.4618 61.6143Z" fill="#5D25B4"/>
<mask id="mask6" mask-type="alpha" maskUnits="userSpaceOnUse" x="73" y="61" width="82" height="58">
<path fill-rule="evenodd" clip-rule="evenodd" d="M82.4615 61.6143C82.4615 61.6143 97.7772 77.0049 107.044 86.2779C111.613 90.85 117.018 94.4562 122.939 96.8388C134.779 101.668 154.149 109.525 154.149 109.525L152.218 118.218C152.218 118.218 131.883 114.097 117.469 111.199C108.331 109.396 99.8364 105.275 92.7578 99.2858C84.199 92.0735 73.6454 83.1869 73.6454 83.1869L82.4615 61.6143Z" fill="#2D0074"/>
</mask>
<g mask="url(#mask6)">
<path fill-rule="evenodd" clip-rule="evenodd" d="M77.5706 54.6597C77.5706 54.6597 83.7483 69.5995 94.0445 84.3462C99.9005 92.7176 109.746 100.445 119.206 103.214C132.141 107.014 153.827 115.127 153.827 115.127L161.099 106.305L111.291 76.6831L77.5706 54.6597Z" fill="#783ACE"/>
</g>
<path fill-rule="evenodd" clip-rule="evenodd" d="M67.1296 59.5467C74.0152 54.9102 85.4697 61.1566 90.9396 72.1682C97.4391 85.305 97.3103 88.8468 95.959 95.0288C92.3553 111.128 90.4248 118.533 91.7118 129.738C92.6771 138.11 96.0233 155.239 96.0233 155.239C96.0233 155.239 79.292 153.5 67.194 157.364C48.2103 163.482 35.0826 150.731 35.0826 150.731C35.0826 150.731 42.8691 139.526 49.8834 124.973C58.5065 107.006 55.3533 106.491 56.5116 92.5173C57.6056 78.6078 55.1602 67.5962 67.1296 59.5467Z" fill="#5D25B4"/>
<mask id="mask7" mask-type="alpha" maskUnits="userSpaceOnUse" x="35" y="57" width="62" height="102">
<path fill-rule="evenodd" clip-rule="evenodd" d="M67.1464 59.2322C74.032 54.5957 85.4866 60.8421 90.9564 71.8538C97.4559 84.9906 97.3272 88.5323 95.9758 94.7143C92.3721 110.813 90.4416 118.219 91.7286 129.424C92.6939 137.795 96.0402 154.924 96.0402 154.924C96.0402 154.924 79.3088 153.186 67.2108 157.05C48.2272 163.167 35.0995 150.417 35.0995 150.417C35.0995 150.417 42.886 139.212 49.9003 124.658C58.5234 106.692 55.3701 106.177 56.5285 92.2029C57.6224 78.2934 55.1771 67.2817 67.1464 59.2322Z" fill="#B1191F"/>
</mask>
<g mask="url(#mask7)">
<path fill-rule="evenodd" clip-rule="evenodd" d="M55.1765 59.5541C55.1765 59.5541 70.0417 61.2284 68.0468 76.3614C66.3737 88.983 73.581 93.7483 84.9712 93.5551C102.024 93.2332 63.9283 166.322 63.9283 166.322L100.222 164.906L101.445 119.829L106.722 72.884L88.7679 46.8037L55.1765 59.5541Z" fill="#783ACE"/>
</g>
<path d="M33.3616 29.1592C34.8416 27.8713 36.8366 27.2274 38.7671 27.0342C40.6976 26.7766 42.6925 26.9054 44.6231 27.2274C46.5536 27.485 48.4841 27.8713 50.4147 28.1289C52.3452 28.3221 54.2114 28.3865 56.0132 28.0001C57.8151 27.6138 59.4882 26.7766 61.0326 25.6819C62.5771 24.5871 63.9928 23.2992 65.4729 22.0113C66.953 20.7234 68.433 19.3711 70.2349 18.2763C70.6853 18.0187 71.1358 17.7612 71.5863 17.5036C72.0367 17.246 72.6159 17.0528 73.1307 16.8596C73.7099 16.6664 74.289 16.6021 74.9969 16.6021C75.6404 16.6021 76.4126 16.8596 77.0562 17.3104L75.5117 19.4355C75.3186 19.3067 75.1256 19.1779 74.8682 19.1779C74.5464 19.1135 74.2247 19.1779 73.8386 19.2423C73.4525 19.3067 73.0664 19.4355 72.6803 19.6286C72.2942 19.8218 71.8437 20.015 71.4576 20.2082C69.8488 21.1097 68.3687 22.2689 66.8243 23.428C65.2798 24.6515 63.7998 25.875 62.0623 26.9698C61.2257 27.4849 60.3248 28.0001 59.3595 28.3865C58.8447 28.5797 58.3943 28.7729 57.8795 28.9016C57.3646 29.0304 56.9142 29.1592 56.3993 29.2236C54.3401 29.5456 52.3452 29.3524 50.4147 29.0304C48.4841 28.7085 46.5536 28.1933 44.6874 27.8069C42.8212 27.4205 40.8907 27.163 38.9601 27.2918C36.9009 27.4849 34.9703 28.0001 33.3616 29.1592Z" fill="#3A088D"/>
<path fill-rule="evenodd" clip-rule="evenodd" d="M71.7149 57.5575C71.7149 57.5575 74.5463 61.2281 77.3134 62.5804C80.2736 64.0615 81.9468 62.1297 81.9468 62.1297L87.0305 52.7923C87.0305 52.7923 90.8273 55.0461 92.5004 53.6938C94.624 52.0839 96.2327 46.8679 96.6189 45.7087C96.6832 45.5799 96.7476 45.4511 96.9406 45.4511C97.3267 45.3867 98.2277 45.1291 98.8068 45.0003C99.1286 44.936 99.386 44.614 99.3216 44.2276C99.0642 42.8109 98.4207 39.3335 98.1633 38.2388C98.1633 38.1744 99.9008 32.8939 98.8068 29.3522C97.7772 25.8748 94.9457 24.0717 94.9457 24.0717L80.5954 23.4277L73.6455 33.3447L74.289 46.3527L70.5566 56.3984L71.7149 57.5575Z" fill="#F8BEBC"/>
<mask id="mask8" mask-type="alpha" maskUnits="userSpaceOnUse" x="70" y="23" width="30" height="41">
<path fill-rule="evenodd" clip-rule="evenodd" d="M71.7149 57.5575C71.7149 57.5575 74.5463 61.2281 77.3134 62.5804C80.2736 64.0615 81.9468 62.1297 81.9468 62.1297L87.0305 52.7923C87.0305 52.7923 90.8273 55.0461 92.5004 53.6938C94.624 52.0839 96.2327 46.8679 96.6189 45.7087C96.6832 45.5799 96.7476 45.4511 96.9406 45.4511C97.3267 45.3867 98.2277 45.1291 98.8068 45.0003C99.1286 44.936 99.386 44.614 99.3216 44.2276C99.0642 42.8109 98.4207 39.3335 98.1633 38.2388C98.1633 38.1744 99.9008 32.8939 98.8068 29.3522C97.7772 25.8748 94.9457 24.0717 94.9457 24.0717L80.5954 23.4277L73.6455 33.3447L74.289 46.3527L70.5566 56.3984L71.7149 57.5575Z" fill="#F8BEBC"/>
</mask>
<g mask="url(#mask8)">
<path fill-rule="evenodd" clip-rule="evenodd" d="M94.238 53.5007C94.238 53.5007 91.4709 56.3985 87.5455 53.3719C83.62 50.4097 83.1696 48.7354 83.1696 48.7354C83.1696 48.7354 83.427 54.3378 81.9469 58.2016C79.8877 63.7396 78.7937 66.1222 78.7937 66.1222L94.238 53.5007Z" fill="#F8ABA3"/>
<path fill-rule="evenodd" clip-rule="evenodd" d="M97.0693 48.1558L96.0397 49.7013C96.0397 49.7013 94.8814 49.4437 93.9805 48.671C92.7578 47.705 92.3717 46.5459 92.3717 46.5459C92.3717 46.5459 94.9457 48.349 97.0693 48.1558Z" fill="#F6EDFC" stroke="#D6001D" stroke-width="0.452952" stroke-miterlimit="10" stroke-linecap="round" stroke-linejoin="round"/>
</g>
<path fill-rule="evenodd" clip-rule="evenodd" d="M162.901 108.366L167.856 108.817C167.856 108.817 170.687 110.105 171.266 111.586C171.781 113.132 172.296 117.188 172.296 117.188C172.296 117.188 170.88 117.253 170.494 116.544C170.237 115.965 169.529 114.677 169.529 114.677L167.084 114.87C167.084 114.87 164.317 116.029 164.767 114.484C165.217 112.938 164.188 112.359 163.802 112.166C163.03 111.779 161.549 111.457 160.262 112.101C159.812 112.23 162.901 108.366 162.901 108.366Z" fill="#F8ABA3"/>
<path fill-rule="evenodd" clip-rule="evenodd" d="M153.184 117.832C153.184 117.832 150.674 117.832 150.417 115.321C149.902 111.135 154.6 109.847 154.6 109.847C154.6 109.847 162.257 106.949 164.574 107.014C168.113 107.143 169.336 107.593 172.361 108.044C176.479 108.688 177.766 109.01 177.766 109.01C177.766 109.01 176.801 110.298 176.093 110.491C174.742 110.878 172.361 110.362 171.074 110.169C169.722 109.976 167.727 110.169 166.183 110.556C164.638 110.942 161.936 112.487 161.936 112.487C161.936 112.487 160.327 113.325 161.421 113.84C162.515 114.29 162.644 114.677 165.346 114.484C168.049 114.29 169.4 113.775 170.559 114.355C171.46 114.806 171.46 115.9 171.46 115.9C171.46 115.9 170.366 116.029 167.985 116.673C165.604 117.317 165.089 118.09 161.678 117.768C158.203 117.317 153.184 117.832 153.184 117.832Z" fill="#F8BEBC"/>
<path fill-rule="evenodd" clip-rule="evenodd" d="M66.6957 22.3331C75.9622 9.71152 88.3821 13.5753 91.5353 14.4768C101.51 17.3746 102.797 26.9052 102.732 31.8637C102.732 32.6365 102.346 33.4092 101.767 33.9244C101.188 34.4395 100.416 34.6971 99.5792 34.6327C98.3565 34.504 96.7477 34.3108 95.139 33.9888C93.3371 33.6668 91.5353 32.8941 90.0552 32.7009C89.7335 32.6365 90.9561 31.6705 91.664 30.769C92.6936 29.4811 93.4015 27.8068 93.4015 27.8068C93.4015 27.8068 92.5005 30.3182 87.6098 32.6364C86.1941 33.3448 84.6497 36.307 84.6497 36.307C84.6497 36.307 82.6548 32.9585 80.4669 34.6327C79.6946 35.2123 79.4372 36.5002 79.6303 37.5306C80.0164 39.9776 82.3331 39.7844 82.3331 39.8488C81.3678 44.4853 80.4669 47.1255 78.2146 50.4097C74.4178 55.819 71.2646 57.6221 71.2646 57.6221C71.2646 57.6221 67.5322 58.8456 63.7355 61.8078C58.2656 65.9935 53.9541 73.5278 53.9541 73.5278C53.9541 73.5278 52.281 73.1415 50.1574 72.3687C48.0338 71.596 46.1676 70.8232 46.1676 70.8232C46.1676 70.8232 49.2565 67.9254 50.5435 66.8307C51.8305 65.736 55.3055 63.0957 55.3055 63.0957C55.3055 63.0957 50.3504 65.6716 48.7416 66.3155C47.1329 66.9595 42.4352 68.1186 42.4352 68.1186C42.4352 68.1186 40.569 66.9595 39.7968 66.2511C36.9653 63.6109 32.2677 60.1335 30.3371 52.406C30.2728 52.084 33.0399 54.2091 37.2871 54.6598C45.331 55.7546 53.761 50.6029 53.761 50.6029C53.761 50.6029 42.5639 54.5954 35.1635 50.0233C30.4015 47.0611 28.7284 44.4853 28.7284 44.4853C28.7284 44.4853 28.471 43.133 28.471 42.4246C29.0501 23.621 43.2718 28.5795 49.1921 30.3182C57.3647 32.6365 64.4434 25.4885 66.6957 22.3331Z" fill="#3A088D"/>
<path fill-rule="evenodd" clip-rule="evenodd" d="M66.76 81.8349C67.0817 80.8689 71.0072 75.1377 71.3933 70.1148C71.9081 64.448 68.8192 58.6523 68.8192 58.6523C68.8192 58.6523 53.0532 64.3192 47.5833 91.1723C47.2615 92.8465 46.8754 94.2633 46.618 96.3239C44.8162 111.457 46.425 122.404 62.3841 128.2C76.9919 133.48 97.906 132.386 97.906 132.386C97.906 132.386 96.619 131.87 95.8468 128.522C95.2033 125.946 97.906 123.37 97.906 123.37C97.906 123.37 83.62 122.597 72.4872 118.219C61.3545 113.84 59.9388 106.563 62.0624 93.4261C62.9633 87.9525 66.76 81.8992 66.76 81.8349Z" fill="#783ACE"/>
<path fill-rule="evenodd" clip-rule="evenodd" d="M94.624 39.2692C94.3022 39.2048 94.1092 38.8828 94.1735 38.5608C94.2379 38.2388 94.5597 38.0456 94.8814 38.11C95.1388 38.1744 95.4606 38.2388 95.7823 38.3032C96.1041 38.3676 96.2971 38.6896 96.2328 39.0116C96.1684 39.3335 95.8467 39.5267 95.5249 39.4623C95.2032 39.3979 94.8814 39.2692 94.624 39.2692Z" fill="#212122"/>
<path d="M82.6549 61.4213C82.3975 61.1637 88.0604 66.3798 91.278 72.755C95.139 80.4825 98.2923 86.4713 95.8469 95.2291M97.8418 123.692C97.1983 123.692 85.6151 122.855 79.3086 119.184M54.2116 124.336C59.8745 128.973 71.8439 130.969 76.2198 131.742C85.5507 133.351 91.7284 132.643 96.8765 132.643" stroke="#47018D" stroke-width="0.452952" stroke-miterlimit="10" stroke-linecap="round" stroke-linejoin="round"/>
<path fill-rule="evenodd" clip-rule="evenodd" d="M98.3567 124.272C98.3567 124.272 102.282 120.537 104.084 118.798C104.663 118.219 105.307 117.703 106.015 117.317C107.881 116.222 111.549 114.097 111.549 114.097L111.806 116.415C111.806 116.415 109.876 117.897 108.717 118.798C108.138 119.249 107.688 119.893 107.495 120.601C107.173 121.696 106.722 123.113 106.722 123.113L98.3567 124.272Z" fill="#F8ABA3"/>
<path d="M28.664 49.1861C30.6589 50.3453 32.7181 51.3756 34.9061 52.1484C37.0297 52.9211 39.282 53.3075 41.5343 53.3075C43.7866 53.3075 45.9102 52.7923 47.9694 51.9551C50.0286 51.118 51.9592 49.9589 53.8254 48.7354L55.1768 50.9892C53.1175 52.0839 50.9296 53.1143 48.6129 53.8226C46.2963 54.531 43.8509 54.853 41.4699 54.5954C39.0889 54.4022 36.7723 53.6938 34.6487 52.7279C32.5251 51.762 30.5302 50.474 28.664 49.1861Z" fill="#3A088D"/>
<path d="M74.6752 58.2017C77.1205 55.9478 78.6006 52.8568 79.2441 49.7658C79.952 46.6104 79.952 43.3262 79.6946 40.1064H82.333C82.14 43.5194 81.6895 46.9324 80.5311 50.1522C79.3728 53.3076 77.3779 56.2698 74.6752 58.2017Z" fill="#3A088D"/>
<path d="M92.9511 36.8867C93.6589 36.6291 94.3668 36.3071 95.2034 36.3071C96.04 36.3071 96.8122 36.5647 97.52 36.8223L97.2626 37.4019C96.6191 37.0155 95.9756 36.6935 95.2034 36.6291C94.4312 36.5647 93.6589 36.6935 92.9511 36.8867Z" fill="#212122"/>
<path d="M152.09 94.5208L138.254 130.003C137.868 130.969 136.903 131.548 135.938 131.42L107.752 128.393C107.43 128.007 107.237 127.878 107.044 127.62C106.787 127.298 106.722 126.912 106.851 126.526L120.107 91.0434C120.493 90.0775 121.459 89.4979 122.424 89.6267L150.545 92.9753C150.932 93.0397 151.189 93.2973 151.382 93.5549C151.768 93.8125 152.219 94.1344 152.09 94.5208Z" fill="#B4C3FA"/>
<path d="M152.219 95.2293L138.962 130.711C138.576 131.677 137.611 132.257 136.646 132.128L108.524 128.78C107.752 128.715 107.301 127.942 107.559 127.234L120.815 91.7519C121.201 90.786 122.166 90.2064 123.132 90.3352L151.253 93.6838C152.025 93.7482 152.476 94.5209 152.219 95.2293Z" fill="#CFD8FA"/>
<path d="M147.135 100.187C147.65 100.381 148.293 100.123 148.486 99.6079L149.58 96.9677C149.773 96.4525 149.516 95.8086 149.001 95.6154C148.486 95.4222 147.843 95.6798 147.65 96.195L146.556 98.8352C146.298 99.3504 146.556 99.9943 147.135 100.187Z" fill="#B4C3FA"/>
<path d="M147.986 97.5974C147.67 97.3663 147.636 96.8766 147.909 96.5034C148.181 96.1303 148.658 96.0152 148.974 96.2462C149.289 96.4773 149.324 96.967 149.051 97.3402C148.778 97.7133 148.301 97.8284 147.986 97.5974Z" fill="#8095E3"/>
<path d="M157.367 96.3884L157.431 96.324C157.753 96.1308 158.139 96.1952 158.332 96.5172L169.272 114.033C168.693 113.968 168.178 114.033 167.663 114.162L157.109 97.2899C156.981 96.968 157.109 96.5816 157.367 96.3884Z" fill="#CFD8FA"/>
<path d="M170.559 115.9L172.296 118.734C172.489 119.056 173.133 120.923 173.068 121.052C172.94 121.052 171.331 119.829 171.138 119.507L169.143 116.222C169.529 116.094 169.915 115.965 170.559 115.9Z" fill="#CFD8FA"/>
</g>
<defs>
<clipPath id="clip0">
<rect width="147.942" height="153.801" fill="white" transform="matrix(-1 0 0 1 191.874 12.8423)"/>
</clipPath>
<clipPath id="clip1">
<rect width="232.897" height="154.643" fill="white" transform="translate(0.546631 13.2144)"/>
</clipPath>
<clipPath id="clip2">
<rect width="232.908" height="102.781" fill="white" transform="translate(0.546387 13.2139)"/>
</clipPath>
</defs>
</svg>
