<svg width="57" height="56" viewBox="0 0 57 56" fill="none" xmlns="http://www.w3.org/2000/svg">
<ellipse opacity="0.13" cx="25.5224" cy="29.7763" rx="25.5224" ry="25.5224" fill="#2998FF"/>
<path d="M10.0229 28.793V46.9777" stroke="#2998FF" stroke-width="1.5" stroke-linecap="round" stroke-linejoin="round"/>
<path d="M10.0229 43.9464H40.3308C40.3308 40.5987 37.6169 37.8848 34.2692 37.8848H26.6923C26.6923 34.5371 23.9784 31.8232 20.6307 31.8232H10.0229" stroke="#2998FF" stroke-width="1.5" stroke-linecap="round" stroke-linejoin="round"/>
<path d="M20.6309 37.8848H26.6924" stroke="#2998FF" stroke-width="1.5" stroke-linecap="round" stroke-linejoin="round"/>
<path fill-rule="evenodd" clip-rule="evenodd" d="M42.7189 2.49137L46.77 10.4644H53.6964C54.4204 10.4653 55.0723 10.9032 55.3468 11.5732C55.6214 12.2432 55.4643 13.0127 54.9491 13.5214L48.6511 19.7204L52.1688 27.8025C52.4752 28.5055 52.298 29.3257 51.7287 29.8396C51.1594 30.3534 50.3255 30.446 49.6573 30.0695L41.1267 25.2728L32.5961 30.0695C31.9279 30.446 31.0939 30.3534 30.5247 29.8396C29.9554 29.3257 29.7782 28.5055 30.0845 27.8025L33.6043 19.7204L27.2982 13.5214C26.781 13.0134 26.6225 12.2429 26.8974 11.572C27.1724 10.9011 27.8259 10.4633 28.551 10.4644H35.4773L39.5184 2.49137C39.8188 1.88198 40.4392 1.49609 41.1186 1.49609C41.798 1.49609 42.4185 1.88198 42.7189 2.49137V2.49137Z" stroke="#2998FF" stroke-width="1.5" stroke-linecap="round" stroke-linejoin="round"/>
</svg>
