<svg width="67" height="65" viewBox="0 0 67 65" fill="none" xmlns="http://www.w3.org/2000/svg">
<ellipse opacity="0.13" cx="30" cy="35" rx="30" ry="30" fill="#2998FF"/>
<path d="M40.2812 48.0938V48.7279C40.2819 50.4496 39.5982 52.1009 38.3808 53.3183C37.1634 54.5357 35.5121 55.2194 33.7904 55.2188H18.2721C16.5504 55.2194 14.8991 54.5357 13.6817 53.3183C12.4643 52.1009 11.7806 50.4496 11.7813 48.7279V11.8346C11.7806 10.1129 12.4643 8.4616 13.6817 7.24419C14.8991 6.02678 16.5504 5.34312 18.2721 5.34375H22.4687" stroke="#2998FF" stroke-width="1.5" stroke-linecap="round" stroke-linejoin="round"/>
<path d="M11.7812 44.5312H26.0312" stroke="#2998FF" stroke-width="1.5" stroke-linecap="round" stroke-linejoin="round"/>
<path fill-rule="evenodd" clip-rule="evenodd" d="M61.6562 33.8438H47.4062L36.7187 40.9688V33.8438H33.1562C31.1887 33.8438 29.5938 32.2488 29.5938 30.2812V5.34375C29.5938 3.37624 31.1887 1.78125 33.1562 1.78125H61.6562C63.6238 1.78125 65.2187 3.37624 65.2187 5.34375V30.2812C65.2187 32.2488 63.6238 33.8438 61.6562 33.8438Z" stroke="#2998FF" stroke-width="1.5" stroke-linecap="round" stroke-linejoin="round"/>
<path fill-rule="evenodd" clip-rule="evenodd" d="M56.74 10.9249C55.8883 10.0312 54.7077 9.52539 53.4732 9.52539C52.2387 9.52539 51.058 10.0312 50.2064 10.9249L47.4063 13.8082L44.6061 10.9249C43.7545 10.0312 42.5738 9.52539 41.3393 9.52539C40.1048 9.52539 38.9242 10.0312 38.0725 10.9249C36.2675 12.8156 36.2675 15.7911 38.0725 17.6818L46.4111 26.3054C46.6706 26.5775 47.0302 26.7315 47.4063 26.7315C47.7823 26.7315 48.1419 26.5775 48.4014 26.3054L56.74 17.6699C58.5375 15.7808 58.5375 12.814 56.74 10.9249Z" stroke="#2998FF" stroke-width="1.5" stroke-linecap="round" stroke-linejoin="round"/>
</svg>
