<svg width="67" height="65" viewBox="0 0 67 65" fill="none" xmlns="http://www.w3.org/2000/svg">
<circle cx="30" cy="35" r="30" fill="#EAF5FF"/>
<path d="M37.4997 58.7188H9.33222C8.65383 58.7194 8.00298 58.4505 7.52284 57.9713C7.0427 57.492 6.7726 56.8417 6.77197 56.1633V7.83678C6.7726 7.15839 7.0427 6.50803 7.52284 6.02878C8.00298 5.54953 8.65383 5.28065 9.33222 5.28128H45.1805C45.8605 5.27812 46.5138 5.54589 46.996 6.02541C47.4782 6.50494 47.7496 7.15674 47.7502 7.83678V20.6167" stroke="#2998FF" stroke-width="1.5" stroke-linecap="round" stroke-linejoin="round"/>
<path d="M22.1074 18.6406H37.4404" stroke="#2998FF" stroke-width="1.5" stroke-linecap="round" stroke-linejoin="round"/>
<path d="M14.0371 17.75C14.529 17.75 14.9277 18.1487 14.9277 18.6406C14.9277 19.1325 14.529 19.5312 14.0371 19.5312C13.5452 19.5312 13.1465 19.1325 13.1465 18.6406C13.1465 18.4044 13.2403 18.1779 13.4073 18.0109C13.5744 17.8438 13.8009 17.75 14.0371 17.75" stroke="#2998FF" stroke-width="1.5" stroke-linecap="round" stroke-linejoin="round"/>
<path d="M14.0371 26.9199C14.529 26.9199 14.9277 27.3187 14.9277 27.8105C14.9277 28.3024 14.529 28.7012 14.0371 28.7012C13.5452 28.7012 13.1465 28.3024 13.1465 27.8105C13.1465 27.3187 13.5452 26.9199 14.0371 26.9199" stroke="#2998FF" stroke-width="1.5" stroke-linecap="round" stroke-linejoin="round"/>
<path d="M42.8313 30.4611C42.4461 30.1872 42.0403 29.9434 41.6176 29.732L38.8104 28.3283C37.1815 27.5144 35.2361 27.667 33.754 28.725L29.3721 31.8552C27.9992 32.8403 27.0881 34.3433 26.8499 36.0162L26.1873 40.6665" stroke="#2998FF" stroke-width="1.5" stroke-linecap="round" stroke-linejoin="round"/>
<path d="M60.2096 56.9376L47.4915 36.5981" stroke="#2998FF" stroke-width="1.5" stroke-linecap="round" stroke-linejoin="round"/>
<path d="M37.5539 42.6873L50.7851 34.5814C51.953 33.8657 52.6504 32.5812 52.6146 31.2119C52.5788 29.8425 51.8151 28.5963 50.6113 27.9427C49.4075 27.2891 47.9464 27.3273 46.7784 28.043L22.8123 42.7324V42.7324L18.2737 50.007L26.8237 49.2684V49.2684L31.7091 46.2498" stroke="#2998FF" stroke-width="1.5" stroke-linecap="round" stroke-linejoin="round"/>
<path d="M44.1875 42.6875H35.2812C33.3137 42.6875 31.7188 44.2825 31.7188 46.25V46.25C31.7188 48.2175 33.3137 49.8125 35.2812 49.8125H41.7935L45.9688 58.7188" stroke="#2998FF" stroke-width="1.5" stroke-linecap="round" stroke-linejoin="round"/>
</svg>
