<svg width="68" height="65" viewBox="0 0 68 65" fill="none" xmlns="http://www.w3.org/2000/svg">
<circle cx="30.5" cy="35" r="30" fill="#EAF5FF"/>
<path d="M20.8623 19.456C24.409 11.6812 32.2376 6.75832 40.7814 6.93025C42.5534 6.94908 44.3172 7.17384 46.0373 7.6L50.7469 2.19925C51.2474 1.78088 51.9367 1.66998 52.5431 1.91028C53.1496 2.15057 53.5758 2.70351 53.6539 3.35112L54.4994 11.5947C57.7125 14.0332 60.0959 17.4027 61.3252 21.2444H65.7189V35.5609H59.8052C58.5836 37.7422 56.9645 39.6755 55.0314 41.2609C52.9776 42.9627 50.6206 44.2608 48.0846 45.087" stroke="#2998FF" stroke-width="1.5" stroke-linecap="round" stroke-linejoin="round"/>
<path fill-rule="evenodd" clip-rule="evenodd" d="M26.5312 40.9688C34.4013 40.9688 40.7812 37.7788 40.7812 33.8438C40.7812 29.9087 34.4013 26.7188 26.5312 26.7188C18.6612 26.7188 12.2812 29.9087 12.2812 33.8438C12.2812 37.7788 18.6612 40.9688 26.5312 40.9688Z" stroke="#2998FF" stroke-width="1.5" stroke-linecap="round" stroke-linejoin="round"/>
<path d="M40.7812 33.8438V48.0938C40.7812 52.0291 34.402 55.2188 26.5312 55.2188C18.6605 55.2188 12.2812 52.0291 12.2812 48.0938V33.8438" stroke="#2998FF" stroke-width="1.5" stroke-linecap="round" stroke-linejoin="round"/>
<path d="M12.2812 40.9688C12.2812 44.9041 18.6605 48.0938 26.5312 48.0938C34.402 48.0938 40.7812 44.9041 40.7812 40.9688" stroke="#2998FF" stroke-width="1.5" stroke-linecap="round" stroke-linejoin="round"/>
<path d="M50.5781 17.8125C50.0862 17.8125 49.6875 18.2112 49.6875 18.7031C49.6875 19.195 50.0862 19.5938 50.5781 19.5938C51.07 19.5938 51.4688 19.195 51.4688 18.7031C51.4688 18.2112 51.07 17.8125 50.5781 17.8125" stroke="#2998FF" stroke-width="1.5" stroke-linecap="round" stroke-linejoin="round"/>
<path d="M53.1479 42.6455L55.0313 49.875" stroke="#2998FF" stroke-width="1.5" stroke-linecap="round" stroke-linejoin="round"/>
</svg>
