<svg width="68" height="65" viewBox="0 0 68 65" fill="none" xmlns="http://www.w3.org/2000/svg">
<circle cx="30.5" cy="35" r="30" fill="#EAF5FF"/>
<path d="M58.5938 2.10449L63.377 7.75937C64.8934 9.65498 65.7193 12.0104 65.7188 14.4379V26.719C65.7187 28.6865 64.1238 30.2815 62.1562 30.2815V30.2815C60.1887 30.2815 58.5938 28.6865 58.5938 26.719V17.8127" stroke="#2998FF" stroke-width="1.5" stroke-linecap="round" stroke-linejoin="round"/>
<path d="M47.9063 2.10449V9.22949C47.9043 11.343 48.5301 13.4095 49.7041 15.167L52.4164 19.2377C52.884 20.0176 53.6507 20.5718 54.5378 20.7715C55.4249 20.9712 56.3551 20.7989 57.1118 20.2946V20.2946C58.5107 19.3625 58.9939 17.5328 58.2375 16.0315L55.0313 10.6877" stroke="#2998FF" stroke-width="1.5" stroke-linecap="round" stroke-linejoin="round"/>
<path d="M19.4062 2.10449L14.623 7.75937C13.1066 9.65498 12.2807 12.0104 12.2813 14.4379V26.719C12.2813 27.6638 12.6566 28.57 13.3247 29.2381C13.9928 29.9062 14.8989 30.2815 15.8438 30.2815V30.2815C17.8113 30.2815 19.4062 28.6865 19.4062 26.719V17.8127" stroke="#2998FF" stroke-width="1.5" stroke-linecap="round" stroke-linejoin="round"/>
<path d="M30.0937 2.10449V9.22949C30.0957 11.343 29.4699 13.4095 28.2958 15.167L25.5836 19.2377C25.1159 20.0176 24.3493 20.5718 23.4622 20.7715C22.5751 20.9712 21.6449 20.7989 20.8882 20.2946V20.2946C19.4892 19.3625 19.0061 17.5328 19.7625 16.0315L22.9687 10.6877" stroke="#2998FF" stroke-width="1.5" stroke-linecap="round" stroke-linejoin="round"/>
<path fill-rule="evenodd" clip-rule="evenodd" d="M38.9999 55.2191L26.8542 42.5485C24.6671 40.3619 24.1246 37.0211 25.5076 34.255V34.255C26.5409 32.1891 28.5043 30.7458 30.7844 30.376C33.0645 30.0062 35.3834 30.7549 37.0168 32.3882L38.9999 34.3713L40.9831 32.3882C42.6164 30.7549 44.9353 30.0062 47.2154 30.376C49.4956 30.7458 51.4589 32.1891 52.4923 34.255V34.255C53.8753 37.0211 53.3328 40.3619 51.1457 42.5485L38.9999 55.2191Z" stroke="#2998FF" stroke-width="1.5" stroke-linecap="round" stroke-linejoin="round"/>
</svg>
