<svg width="68" height="65" viewBox="0 0 68 65" fill="none" xmlns="http://www.w3.org/2000/svg">
<circle cx="30.5" cy="35" r="30" fill="#EAF5FF"/>
<path fill-rule="evenodd" clip-rule="evenodd" d="M40.7812 1.78129C31.7309 1.76824 23.386 6.66651 18.9854 14.575C14.5848 22.4834 14.8214 32.1568 19.6034 39.8407L12.2812 55.2188L27.6594 47.8967C36.6518 53.4876 48.1945 52.7901 56.4482 46.1569C64.7019 39.5238 67.8667 28.4015 64.3416 18.4167C60.8164 8.43193 51.37 1.76205 40.7812 1.78129Z" stroke="#2998FF" stroke-width="1.5" stroke-linecap="round" stroke-linejoin="round"/>
<path fill-rule="evenodd" clip-rule="evenodd" d="M47.9062 32.0625C47.9062 35.9975 44.7163 39.1875 40.7812 39.1875C36.8462 39.1875 33.6562 35.9975 33.6562 32.0625H47.9062Z" stroke="#2998FF" stroke-width="1.5" stroke-linecap="round" stroke-linejoin="round"/>
<path d="M30.0938 22.2656C29.6019 22.2656 29.2031 22.6644 29.2031 23.1562C29.2031 23.6481 29.6019 24.0469 30.0938 24.0469C30.5856 24.0469 30.9844 23.6481 30.9844 23.1562C30.9844 22.6644 30.5856 22.2656 30.0938 22.2656" stroke="#2998FF" stroke-width="1.5" stroke-linecap="round" stroke-linejoin="round"/>
<path d="M51.4688 22.2656C50.9769 22.2656 50.5781 22.6644 50.5781 23.1562C50.5781 23.6481 50.9769 24.0469 51.4688 24.0469C51.9606 24.0469 52.3594 23.6481 52.3594 23.1562C52.3594 22.6644 51.9606 22.2656 51.4688 22.2656" stroke="#2998FF" stroke-width="1.5" stroke-linecap="round" stroke-linejoin="round"/>
</svg>
