<svg width="67" height="65" viewBox="0 0 67 65" fill="none" xmlns="http://www.w3.org/2000/svg">
<circle cx="30.0004" cy="35" r="30" fill="#EAF5FF"/>
<path d="M61.6564 37.4062V44.5312" stroke="#2998FF" stroke-width="1.5" stroke-linecap="round" stroke-linejoin="round"/>
<path d="M15.3439 44.5303V19.5928C15.3439 17.6253 16.9389 16.0303 18.9064 16.0303H27.8126" stroke="#2998FF" stroke-width="1.5" stroke-linecap="round" stroke-linejoin="round"/>
<path fill-rule="evenodd" clip-rule="evenodd" d="M44.6371 44.5303C43.3788 46.7327 41.0367 48.092 38.5001 48.092C35.9635 48.092 33.6215 46.7327 32.3631 44.5303H11.7814V48.0928C11.7814 52.0278 14.9713 55.2178 18.9064 55.2178H58.0939C62.0289 55.2178 65.2189 52.0278 65.2189 48.0928V44.5303H44.6371Z" stroke="#2998FF" stroke-width="1.5" stroke-linecap="round" stroke-linejoin="round"/>
<path fill-rule="evenodd" clip-rule="evenodd" d="M54.3128 2.40085C48.6042 0.694968 42.4261 2.50242 38.5371 7.01614C34.6481 11.5299 33.7742 17.9073 36.3055 23.3008L31.4059 33.2497L42.6206 30.186C47.7047 33.0336 53.9705 32.7172 58.7419 29.3719C63.5132 26.0266 65.9464 20.2438 65.0022 14.4936C64.058 8.74339 59.9033 4.04234 54.3128 2.39848V2.40085Z" stroke="#2998FF" stroke-width="1.5" stroke-linecap="round" stroke-linejoin="round"/>
<path d="M44.7345 10.6865C44.2426 10.6865 43.8439 11.0853 43.8439 11.5771C43.8439 12.069 44.2426 12.4678 44.7345 12.4678C45.2264 12.4678 45.6251 12.069 45.6251 11.5771C45.6251 11.0853 45.2264 10.6865 44.7345 10.6865" stroke="#2998FF" stroke-width="1.5" stroke-linecap="round" stroke-linejoin="round"/>
<path d="M55.422 10.6865C54.9301 10.6865 54.5314 11.0853 54.5314 11.5771C54.5314 12.069 54.9301 12.4678 55.422 12.4678C55.9139 12.4678 56.3126 12.069 56.3126 11.5771C56.3126 11.0853 55.9139 10.6865 55.422 10.6865" stroke="#2998FF" stroke-width="1.5" stroke-linecap="round" stroke-linejoin="round"/>
<path d="M56.3126 19.5938C56.0488 22.7818 53.2692 25.1644 50.0782 24.9375C46.8873 25.1644 44.1077 22.7818 43.8439 19.5938" stroke="#2998FF" stroke-width="1.5" stroke-linecap="round" stroke-linejoin="round"/>
</svg>
