<svg width="55" height="55" viewBox="0 0 55 55" fill="none" xmlns="http://www.w3.org/2000/svg">
<path fill-rule="evenodd" clip-rule="evenodd" d="M30.0364 28.4925C29.3669 29.1713 28.4533 29.5535 27.4999 29.5535C26.5465 29.5535 25.6329 29.1713 24.9634 28.4925L12.3189 15.6675C9.59928 13.0518 8.91596 8.96248 10.6374 5.60463V5.60463C11.9856 3.08089 14.4396 1.33569 17.266 0.89051C20.0925 0.445334 22.9641 1.35174 25.0228 3.33888L27.4999 5.74713L29.9794 3.33888C32.0381 1.35174 34.9097 0.445334 37.7361 0.89051C40.5626 1.33569 43.0166 3.08089 44.3648 5.60463V5.60463C46.0904 8.96539 45.4058 13.0603 42.6809 15.677L30.0364 28.4925Z" stroke="#2998FF" stroke-width="1.5" stroke-linecap="round" stroke-linejoin="round"/>
<path d="M7.90625 54.219L3.123 48.5641C1.60712 46.6691 0.781258 44.3147 0.78125 41.888V29.6045C0.78125 27.637 2.37624 26.042 4.34375 26.042V26.042C6.31126 26.042 7.90625 27.637 7.90625 29.6045V38.5107" stroke="#2998FF" stroke-width="1.5" stroke-linecap="round" stroke-linejoin="round"/>
<path d="M18.5935 54.2185V47.0935C18.5944 44.9801 17.9688 42.9139 16.7956 41.156L14.0834 37.0948C13.6137 36.3169 12.8462 35.7651 11.9593 35.5677C11.0723 35.3703 10.1432 35.5445 9.388 36.0498V36.0498C8.00044 36.9801 7.51862 38.7956 8.26225 40.2915L11.4733 45.6353" stroke="#2998FF" stroke-width="1.5" stroke-linecap="round" stroke-linejoin="round"/>
<path d="M47.0938 54.219L51.877 48.5641C53.3929 46.6691 54.2187 44.3147 54.2187 41.888V29.6045C54.2187 27.637 52.6238 26.042 50.6562 26.042V26.042C48.6887 26.042 47.0938 27.637 47.0938 29.6045V38.5107" stroke="#2998FF" stroke-width="1.5" stroke-linecap="round" stroke-linejoin="round"/>
<path d="M36 53.7435V46.6185C35.9991 44.5051 36.6247 42.4388 37.7979 40.681L40.5101 36.615C40.9778 35.8351 41.7444 35.2809 42.6315 35.0812C43.5186 34.8815 44.4488 35.0538 45.2055 35.5581V35.5581C46.6011 36.488 47.0858 38.3116 46.336 39.8117L43.125 45.1555" stroke="#2998FF" stroke-width="1.5" stroke-linecap="round" stroke-linejoin="round"/>
</svg>
