<svg width="67" height="65" viewBox="0 0 67 65" fill="none" xmlns="http://www.w3.org/2000/svg">
<ellipse cx="30" cy="35" rx="30" ry="30" fill="#EAF5FF"/>
<path fill-rule="evenodd" clip-rule="evenodd" d="M52.6241 27.7664L56.284 37.4326H63.409C64.1452 37.4038 64.8203 37.8402 65.0961 38.5234C65.372 39.2066 65.1892 39.9894 64.6393 40.4798L58.4643 44.7904L61.889 52.6611C62.1957 53.4 61.9975 54.2522 61.3962 54.7799C60.7949 55.3076 59.9242 55.3935 59.2314 54.9934L50.945 50.336L42.6634 54.9934C41.9706 55.3935 41.0999 55.3076 40.4986 54.7799C39.8973 54.2522 39.6991 53.4 40.0058 52.6611L43.4329 44.7904L37.2579 40.4798C36.7063 39.9914 36.5213 39.2089 36.7957 38.5252C37.0702 37.8415 37.7448 37.4041 38.481 37.4326H45.606L49.273 27.7664C49.6035 27.1482 50.2476 26.7622 50.9486 26.7622C51.6496 26.7622 52.2936 27.1482 52.6241 27.7664Z" stroke="#2998FF" stroke-width="1.5" stroke-linecap="round" stroke-linejoin="round"/>
<path d="M22.4688 24.9639H38.5" stroke="#2998FF" stroke-width="1.5" stroke-linecap="round" stroke-linejoin="round"/>
<path d="M22.4688 33.8701H27.8125" stroke="#2998FF" stroke-width="1.5" stroke-linecap="round" stroke-linejoin="round"/>
<path d="M22.4688 42.7764H27.8125" stroke="#2998FF" stroke-width="1.5" stroke-linecap="round" stroke-linejoin="round"/>
<path d="M31.375 55.2451H15.3438C13.3762 55.2451 11.7812 53.6501 11.7812 51.6826V14.2764C11.7812 12.3089 13.3762 10.7139 15.3438 10.7139H24.25C24.25 5.79508 28.2375 1.80762 33.1562 1.80762C38.075 1.80762 42.0625 5.79508 42.0625 10.7139H50.9688C52.9363 10.7139 54.5312 12.3089 54.5312 14.2764V19.6201" stroke="#2998FF" stroke-width="1.5" stroke-linecap="round" stroke-linejoin="round"/>
<path d="M33.1562 8.93262C33.6481 8.93262 34.0469 9.33136 34.0469 9.82324C34.0469 10.3151 33.6481 10.7139 33.1562 10.7139C32.6644 10.7139 32.2656 10.3151 32.2656 9.82324C32.2656 9.33136 32.6644 8.93262 33.1562 8.93262" stroke="#2998FF" stroke-width="1.5" stroke-linecap="round" stroke-linejoin="round"/>
</svg>
