<svg width="67" height="65" viewBox="0 0 67 65" fill="none" xmlns="http://www.w3.org/2000/svg">
<circle cx="30" cy="35" r="30" fill="#EAF5FF"/>
<path d="M59.875 24.3916V43.2016C59.875 45.0904 58.28 46.6216 56.3125 46.6216H20.6875C18.72 46.6216 17.125 45.0904 17.125 43.2016V24.3916" stroke="#2998FF" stroke-width="1.5" stroke-linecap="round" stroke-linejoin="round"/>
<path d="M38.4999 46.6221V53.4621" stroke="#2998FF" stroke-width="1.5" stroke-linecap="round" stroke-linejoin="round"/>
<path d="M26.0312 53.4619H50.9687" stroke="#2998FF" stroke-width="1.5" stroke-linecap="round" stroke-linejoin="round"/>
<path fill-rule="evenodd" clip-rule="evenodd" d="M21.0366 12.4221C23.9879 12.4221 26.3804 10.1253 26.3804 7.29211C26.3804 4.45889 23.9879 2.16211 21.0366 2.16211C18.0853 2.16211 15.6929 4.45889 15.6929 7.29211C15.6929 10.1253 18.0853 12.4221 21.0366 12.4221Z" stroke="#2998FF" stroke-width="1.5" stroke-linecap="round" stroke-linejoin="round"/>
<path d="M30.2896 19.2623C28.3801 16.0893 24.8527 14.1348 21.0354 14.1348C17.2182 14.1348 13.6908 16.0893 11.7812 19.2623" stroke="#2998FF" stroke-width="1.5" stroke-linecap="round" stroke-linejoin="round"/>
<path fill-rule="evenodd" clip-rule="evenodd" d="M55.9657 12.4221C58.917 12.4221 61.3094 10.1253 61.3094 7.29211C61.3094 4.45889 58.917 2.16211 55.9657 2.16211C53.0144 2.16211 50.6219 4.45889 50.6219 7.29211C50.6219 10.1253 53.0144 12.4221 55.9657 12.4221Z" stroke="#2998FF" stroke-width="1.5" stroke-linecap="round" stroke-linejoin="round"/>
<path d="M65.2188 19.2623C63.3093 16.0893 59.7819 14.1348 55.9646 14.1348C52.1474 14.1348 48.62 16.0893 46.7104 19.2623" stroke="#2998FF" stroke-width="1.5" stroke-linecap="round" stroke-linejoin="round"/>
<path fill-rule="evenodd" clip-rule="evenodd" d="M38.4999 12.4221C41.4512 12.4221 43.8436 10.1253 43.8436 7.29211C43.8436 4.45889 41.4512 2.16211 38.4999 2.16211C35.5486 2.16211 33.1561 4.45889 33.1561 7.29211C33.1561 10.1253 35.5486 12.4221 38.4999 12.4221Z" stroke="#2998FF" stroke-width="1.5" stroke-linecap="round" stroke-linejoin="round"/>
<path d="M47.2305 18.4775C45.2279 15.7537 41.9716 14.1338 38.4988 14.1338C35.0259 14.1338 31.7697 15.7537 29.7671 18.4775" stroke="#2998FF" stroke-width="1.5" stroke-linecap="round" stroke-linejoin="round"/>
<path d="M59.875 39.7822H17.125" stroke="#2998FF" stroke-width="1.5" stroke-linecap="round" stroke-linejoin="round"/>
</svg>
