<svg width="67" height="65" viewBox="0 0 67 65" fill="none" xmlns="http://www.w3.org/2000/svg">
<circle cx="30" cy="35" r="30" fill="#EAF5FF"/>
<path d="M64.9479 55.2189L65.1854 52.5542C65.5096 48.9856 63.133 45.7314 59.635 44.9542L50.9639 43.0257V31.5283C50.9639 29.0689 48.9701 27.0752 46.5107 27.0752C44.0513 27.0752 42.0576 29.0689 42.0576 31.5283V51.2408L38.5497 48.6093C37.1002 47.5237 35.0732 47.6684 33.7926 48.9489C32.5121 50.2295 32.3673 52.2566 33.453 53.7061L34.5787 55.2071" stroke="#2998FF" stroke-width="1.5" stroke-linecap="round" stroke-linejoin="round"/>
<path d="M31.375 23.1562V8.90625" stroke="#2998FF" stroke-width="1.5" stroke-linecap="round" stroke-linejoin="round"/>
<path d="M38.5001 23.1562V8.90625" stroke="#2998FF" stroke-width="1.5" stroke-linecap="round" stroke-linejoin="round"/>
<path d="M43.3095 20.8406L38.5001 16.0312L45.6251 8.90625" stroke="#2998FF" stroke-width="1.5" stroke-linecap="round" stroke-linejoin="round"/>
<path d="M18.9062 8.90625V20.3063C19.1233 22.0658 20.7045 23.3308 22.4687 23.1562H26.0312" stroke="#2998FF" stroke-width="1.5" stroke-linecap="round" stroke-linejoin="round"/>
<path d="M58.0939 23.1567H54.5314C52.7671 23.3312 51.1859 22.0662 50.9689 20.3067V11.7567C51.1859 9.99719 52.7671 8.73221 54.5314 8.90671H58.0939" stroke="#2998FF" stroke-width="1.5" stroke-linecap="round" stroke-linejoin="round"/>
<path d="M50.9689 16.0312H58.0939" stroke="#2998FF" stroke-width="1.5" stroke-linecap="round" stroke-linejoin="round"/>
<path d="M34.9375 30.2812H15.3437C13.3762 30.2812 11.7812 28.6863 11.7812 26.7187V5.34375C11.7812 3.37624 13.3762 1.78125 15.3437 1.78125H61.6562C63.6238 1.78125 65.2187 3.37624 65.2187 5.34375V26.7187C65.2187 28.6863 63.6238 30.2812 61.6562 30.2812H58.0937" stroke="#2998FF" stroke-width="1.5" stroke-linecap="round" stroke-linejoin="round"/>
</svg>
