<svg width="68" height="65" viewBox="0 0 68 65" fill="none" xmlns="http://www.w3.org/2000/svg">
<circle cx="30.5" cy="35" r="30" fill="#EAF5FF"/>
<path fill-rule="evenodd" clip-rule="evenodd" d="M47.9062 51.6562H30.0938L31.875 40.9688H46.125L47.9062 51.6562V51.6562Z" stroke="#2998FF" stroke-width="1.5" stroke-linecap="round" stroke-linejoin="round"/>
<path d="M24.75 51.6562H53.25" stroke="#2998FF" stroke-width="1.5" stroke-linecap="round" stroke-linejoin="round"/>
<path fill-rule="evenodd" clip-rule="evenodd" d="M12.2812 7.59375C12.2812 6.35111 13.2886 5.34375 14.5313 5.34375H63.4688C64.7114 5.34375 65.7188 6.35111 65.7188 7.59375V38.7187C65.7188 39.9614 64.7114 40.9688 63.4687 40.9688H14.5312C13.2886 40.9688 12.2812 39.9614 12.2812 38.7188V7.59375Z" stroke="#2998FF" stroke-width="1.5" stroke-linecap="round" stroke-linejoin="round"/>
<path d="M57.8408 23.1564H51.9461C51.6482 23.1568 51.3699 23.0078 51.2051 22.7598L45.1939 13.7466C45.0178 13.4829 44.7148 13.3327 44.3983 13.3523C44.0818 13.3719 43.7996 13.5582 43.6573 13.8416L34.3426 32.4711C34.2003 32.7545 33.9181 32.9409 33.6016 32.9605C33.2851 32.98 32.982 32.8298 32.8059 32.5661L26.7948 23.553C26.63 23.3049 26.3517 23.156 26.0538 23.1564H18.6533" stroke="#2998FF" stroke-width="1.5" stroke-linecap="round" stroke-linejoin="round"/>
</svg>
