<svg width="67" height="65" viewBox="0 0 67 65" fill="none" xmlns="http://www.w3.org/2000/svg">
<ellipse cx="30" cy="35" rx="30" ry="30" fill="#EAF5FF"/>
<path d="M43.8437 37.4062V48.7302C43.8437 50.4515 43.1598 52.1023 41.9425 53.3192C40.7251 54.536 39.0741 55.2194 37.3529 55.2188H21.8346C20.1134 55.2194 18.4624 54.536 17.245 53.3192C16.0277 52.1023 15.3437 50.4515 15.3438 48.7302V11.8346C15.3438 8.24981 18.2498 5.34375 21.8346 5.34375H27.8125" stroke="#2998FF" stroke-width="1.5" stroke-linecap="round" stroke-linejoin="round"/>
<path d="M15.3438 44.5312H43.8437" stroke="#2998FF" stroke-width="1.5" stroke-linecap="round" stroke-linejoin="round"/>
<path fill-rule="evenodd" clip-rule="evenodd" d="M47.4062 30.2813C55.2763 30.2813 61.6562 23.9013 61.6562 16.0313C61.6562 8.16119 55.2763 1.78125 47.4062 1.78125C39.5362 1.78125 33.1562 8.16119 33.1562 16.0313C33.1562 23.9013 39.5362 30.2813 47.4062 30.2813Z" stroke="#2998FF" stroke-width="1.5" stroke-linecap="round" stroke-linejoin="round"/>
<path d="M42.9531 13.3594C42.9531 10.9 44.9469 8.90625 47.4062 8.90625C49.8656 8.90625 51.8594 10.9 51.8594 13.3594C51.8594 15.8188 49.8656 17.8125 47.4062 17.8125" stroke="#2998FF" stroke-width="1.5" stroke-linecap="round" stroke-linejoin="round"/>
<path d="M47.4062 23.1562C46.9144 23.1562 46.5156 23.555 46.5156 24.0469C46.5156 24.5388 46.9144 24.9375 47.4062 24.9375C47.8981 24.9375 48.2969 24.5388 48.2969 24.0469C48.2969 23.555 47.8981 23.1562 47.4062 23.1562" stroke="#2998FF" stroke-width="1.5" stroke-linecap="round" stroke-linejoin="round"/>
</svg>
