<svg width="46" height="46" viewBox="0 0 46 46" fill="none" xmlns="http://www.w3.org/2000/svg">
<path d="M23 46C35.7027 46 46 35.7027 46 23C46 10.2973 35.7027 0 23 0C10.2973 0 0 10.2973 0 23C0 35.7027 10.2973 46 23 46Z" fill="#D6001D"/>
<path fill-rule="evenodd" clip-rule="evenodd" d="M12.9411 19.7716V11.96H9.2002V32.2H12.9372L12.9411 25.0677C12.9372 23.8707 13.0516 22.9665 13.2802 22.3541C13.505 21.7427 13.8596 21.2853 14.3538 20.9791C14.8372 20.6748 15.3934 20.5217 16.0135 20.5217C16.5551 20.5217 17.0037 20.6404 17.3641 20.8806C17.7169 21.1064 17.9816 21.4437 18.115 21.8374C18.2574 22.2393 18.3253 23.1846 18.3253 24.6773V32.2H22.0671V23.8477C22.0671 22.5694 22.0032 21.6269 21.8753 21.0212C21.7464 20.4127 21.5081 19.8606 21.1554 19.3563C20.8047 18.8569 20.2853 18.4454 19.5906 18.1249C18.8979 17.8024 18.1257 17.6398 17.2634 17.6398C15.5891 17.6398 14.1454 18.3536 12.9411 19.7716ZM27.6751 19.7717V11.9601H23.938V32.2001H27.6751V25.0678C27.6751 23.8708 27.7894 22.9666 28.0142 22.3542C28.2419 21.7428 28.5984 21.2854 29.0858 20.9792C29.5702 20.675 30.1264 20.5219 30.7455 20.5219C31.2871 20.5219 31.7396 20.6405 32.0962 20.8807C32.45 21.1058 32.7155 21.4433 32.849 21.8375C32.9914 22.2394 33.0622 23.1848 33.0622 24.6774V32.2001H36.8002V23.8478C36.8002 22.5695 36.7362 21.627 36.6073 21.0213C36.4844 20.4238 36.2395 19.8574 35.8875 19.3564C35.5387 18.857 35.0193 18.4455 34.3275 18.125C33.6338 17.8025 32.8558 17.6399 31.9964 17.6399C30.3231 17.6399 28.8804 18.3537 27.6751 19.7717Z" fill="white"/>
</svg>
