<svg width="253" height="357" viewBox="0 0 253 357" fill="none" xmlns="http://www.w3.org/2000/svg">
<g clip-path="url(#clip0)">
<g filter="url(#filter0_d)">
<rect x="15.8445" y="13.5737" width="221.311" height="479.803" rx="24.1967" fill="white"/>
</g>
<rect x="27.0574" y="323.018" width="198.885" height="20.7143" rx="3.54098" fill="#F2F2F2"/>
<path d="M124.256 332.106V331.053H128.133V331.876C127.813 332.191 127.488 332.643 127.157 333.232C126.826 333.821 126.573 334.448 126.399 335.112C126.226 335.773 126.142 336.365 126.144 336.887H125.051C125.07 336.069 125.238 335.236 125.555 334.386C125.875 333.536 126.302 332.776 126.834 332.106H124.256Z" fill="#6E7176"/>
<rect x="27.0574" y="347.26" width="198.885" height="20.7143" rx="3.54098" fill="#F2F2F2"/>
<path d="M125.229 356.706C124.935 356.582 124.722 356.412 124.587 356.197C124.455 355.979 124.389 355.741 124.389 355.483C124.389 355.042 124.543 354.678 124.849 354.39C125.159 354.102 125.597 353.958 126.165 353.958C126.727 353.958 127.162 354.102 127.472 354.39C127.784 354.678 127.94 355.042 127.94 355.483C127.94 355.758 127.868 356.002 127.726 356.217C127.583 356.43 127.383 356.593 127.125 356.706C127.453 356.837 127.702 357.03 127.871 357.282C128.043 357.535 128.129 357.827 128.129 358.158C128.129 358.704 127.954 359.148 127.605 359.489C127.258 359.831 126.795 360.002 126.217 360.002C125.679 360.002 125.231 359.86 124.874 359.578C124.451 359.245 124.24 358.787 124.24 358.206C124.24 357.886 124.32 357.593 124.478 357.327C124.637 357.058 124.887 356.851 125.229 356.706ZM125.463 355.564C125.463 355.79 125.526 355.966 125.652 356.092C125.781 356.219 125.952 356.282 126.165 356.282C126.38 356.282 126.552 356.219 126.681 356.092C126.81 355.963 126.875 355.786 126.875 355.56C126.875 355.347 126.81 355.178 126.681 355.052C126.555 354.922 126.386 354.858 126.177 354.858C125.959 354.858 125.785 354.922 125.656 355.052C125.527 355.181 125.463 355.351 125.463 355.564ZM125.358 358.097C125.358 358.409 125.437 358.653 125.596 358.828C125.757 359.002 125.957 359.09 126.197 359.09C126.431 359.09 126.624 359.006 126.778 358.84C126.931 358.67 127.008 358.427 127.008 358.11C127.008 357.832 126.93 357.611 126.774 357.444C126.618 357.274 126.42 357.19 126.181 357.19C125.904 357.19 125.697 357.285 125.559 357.476C125.425 357.667 125.358 357.874 125.358 358.097Z" fill="#6E7176"/>
<rect x="27.0574" y="298.776" width="198.885" height="20.7143" rx="3.54098" fill="#F2F2F2"/>
<path d="M128.097 308.179L127 308.3C126.973 308.074 126.903 307.907 126.79 307.799C126.677 307.692 126.53 307.638 126.35 307.638C126.111 307.638 125.908 307.746 125.741 307.961C125.577 308.176 125.473 308.624 125.43 309.304C125.713 308.971 126.064 308.804 126.483 308.804C126.957 308.804 127.361 308.984 127.698 309.344C128.036 309.705 128.206 310.17 128.206 310.74C128.206 311.345 128.028 311.831 127.673 312.197C127.318 312.562 126.862 312.745 126.306 312.745C125.709 312.745 125.218 312.514 124.833 312.051C124.449 311.586 124.256 310.825 124.256 309.768C124.256 308.684 124.457 307.903 124.857 307.424C125.258 306.945 125.779 306.706 126.419 306.706C126.868 306.706 127.239 306.832 127.532 307.085C127.828 307.335 128.016 307.7 128.097 308.179ZM125.527 310.652C125.527 311.02 125.612 311.305 125.781 311.507C125.951 311.706 126.144 311.805 126.362 311.805C126.572 311.805 126.747 311.723 126.887 311.559C127.027 311.395 127.096 311.126 127.096 310.752C127.096 310.368 127.021 310.087 126.871 309.909C126.72 309.729 126.532 309.639 126.306 309.639C126.088 309.639 125.904 309.725 125.753 309.897C125.602 310.067 125.527 310.318 125.527 310.652Z" fill="#6E7176"/>
<rect x="27.0574" y="274.533" width="198.885" height="20.7143" rx="3.54098" fill="#F2F2F2"/>
<path d="M124.272 286.881L125.402 286.764C125.434 287.019 125.53 287.222 125.689 287.373C125.847 287.521 126.03 287.595 126.237 287.595C126.474 287.595 126.674 287.499 126.838 287.308C127.002 287.115 127.084 286.824 127.084 286.437C127.084 286.074 127.002 285.802 126.838 285.622C126.677 285.439 126.466 285.348 126.205 285.348C125.879 285.348 125.588 285.492 125.329 285.779L124.41 285.646L124.991 282.568H127.988V283.629H125.85L125.672 284.634C125.925 284.507 126.183 284.444 126.447 284.444C126.95 284.444 127.376 284.627 127.726 284.993C128.075 285.358 128.25 285.833 128.25 286.417C128.25 286.904 128.109 287.338 127.827 287.72C127.442 288.242 126.908 288.502 126.225 288.502C125.679 288.502 125.234 288.356 124.89 288.063C124.545 287.77 124.34 287.376 124.272 286.881Z" fill="#6E7176"/>
<rect x="27.0574" y="250.304" width="198.885" height="20.7143" rx="3.54098" fill="#F2F2F2"/>
<path d="M126.479 264.173V262.983H124.059V261.991L126.624 258.235H127.577V261.987H128.311V262.983H127.577V264.173H126.479ZM126.479 261.987V259.966L125.12 261.987H126.479Z" fill="#6E7176"/>
<rect x="27.0574" y="226.075" width="198.885" height="20.7143" rx="3.54098" fill="#007AFF"/>
<path d="M124.216 238.375L125.313 238.242C125.348 238.521 125.442 238.735 125.596 238.883C125.749 239.031 125.935 239.105 126.152 239.105C126.386 239.105 126.583 239.016 126.741 238.839C126.903 238.661 126.984 238.422 126.984 238.121C126.984 237.835 126.907 237.61 126.754 237.443C126.6 237.276 126.413 237.193 126.193 237.193C126.048 237.193 125.874 237.221 125.672 237.277L125.797 236.354C126.104 236.362 126.338 236.296 126.499 236.156C126.661 236.013 126.741 235.825 126.741 235.591C126.741 235.392 126.682 235.233 126.564 235.115C126.446 234.997 126.288 234.937 126.092 234.937C125.898 234.937 125.733 235.005 125.596 235.139C125.459 235.274 125.375 235.47 125.346 235.728L124.301 235.551C124.373 235.193 124.482 234.908 124.627 234.695C124.775 234.48 124.98 234.312 125.241 234.191C125.504 234.067 125.799 234.006 126.124 234.006C126.681 234.006 127.127 234.183 127.464 234.538C127.741 234.829 127.879 235.157 127.879 235.522C127.879 236.042 127.595 236.456 127.028 236.765C127.367 236.838 127.637 237 127.839 237.253C128.043 237.506 128.145 237.811 128.145 238.169C128.145 238.688 127.956 239.131 127.577 239.496C127.197 239.862 126.725 240.045 126.161 240.045C125.625 240.045 125.182 239.892 124.829 239.585C124.477 239.276 124.272 238.872 124.216 238.375Z" fill="white"/>
<rect x="27.0574" y="201.846" width="198.885" height="20.7143" rx="3.54098" fill="#F2F2F2"/>
<path d="M128.085 214.662V215.715H124.111C124.154 215.317 124.283 214.94 124.498 214.585C124.714 214.228 125.138 213.754 125.773 213.165C126.284 212.689 126.598 212.367 126.713 212.197C126.869 211.963 126.947 211.732 126.947 211.503C126.947 211.25 126.879 211.057 126.741 210.922C126.607 210.785 126.42 210.717 126.181 210.717C125.944 210.717 125.756 210.788 125.616 210.93C125.476 211.073 125.395 211.31 125.374 211.64L124.244 211.527C124.311 210.903 124.523 210.456 124.878 210.184C125.233 209.912 125.676 209.777 126.209 209.777C126.793 209.777 127.251 209.934 127.585 210.249C127.918 210.563 128.085 210.955 128.085 211.423C128.085 211.689 128.036 211.943 127.94 212.185C127.846 212.424 127.695 212.676 127.488 212.939C127.351 213.114 127.103 213.366 126.745 213.694C126.388 214.022 126.161 214.24 126.064 214.347C125.97 214.455 125.893 214.56 125.834 214.662H128.085Z" fill="#6E7176"/>
<rect x="27.0574" y="177.617" width="198.885" height="20.7143" rx="3.54098" fill="#F2F2F2"/>
<path opacity="0.9" d="M127.157 191.486H126.023V187.214C125.609 187.601 125.121 187.887 124.559 188.073V187.044C124.855 186.947 125.176 186.765 125.523 186.496C125.87 186.224 126.108 185.908 126.237 185.548H127.157V191.486Z" fill="#6E7176"/>
<rect x="27.0574" y="153.174" width="198.885" height="20.7143" rx="3.54098" fill="#F2F2F2"/>
<path d="M72.4037 160.547C72.9766 160.547 73.4244 160.752 73.7472 161.161C74.1318 161.645 74.3241 162.447 74.3241 163.569C74.3241 164.688 74.1304 165.492 73.7431 165.982C73.4231 166.385 72.9766 166.587 72.4037 166.587C71.8282 166.587 71.3642 166.366 71.0119 165.925C70.6596 165.481 70.4834 164.692 70.4834 163.557C70.4834 162.443 70.677 161.642 71.0643 161.152C71.3844 160.749 71.8309 160.547 72.4037 160.547ZM72.4037 161.487C72.2666 161.487 72.1442 161.532 72.0366 161.62C71.929 161.707 71.8456 161.863 71.7865 162.088C71.7085 162.382 71.6695 162.875 71.6695 163.569C71.6695 164.263 71.7044 164.74 71.7744 165.001C71.8443 165.259 71.9317 165.432 72.0366 165.518C72.1442 165.604 72.2666 165.647 72.4037 165.647C72.5409 165.647 72.6633 165.604 72.7709 165.518C72.8784 165.429 72.9618 165.272 73.021 165.046C73.099 164.755 73.138 164.263 73.138 163.569C73.138 162.875 73.103 162.399 73.0331 162.141C72.9632 161.88 72.8744 161.707 72.7668 161.62C72.6619 161.532 72.5409 161.487 72.4037 161.487ZM77.5817 164.908V163.775H79.8087V164.908H77.5817ZM82.3361 162.201H86.2131V163.117H84.8414V166.486H83.7077V163.117H82.3361V162.201ZM86.561 164.283C86.561 163.907 86.6538 163.542 86.8393 163.19C87.0249 162.837 87.2872 162.569 87.626 162.383C87.9676 162.197 88.3482 162.105 88.7678 162.105C89.4159 162.105 89.9471 162.316 90.3613 162.738C90.7755 163.158 90.9826 163.689 90.9826 164.332C90.9826 164.98 90.7728 165.518 90.3532 165.945C89.9364 166.37 89.4106 166.583 88.7758 166.583C88.3831 166.583 88.008 166.494 87.6502 166.316C87.2952 166.139 87.0249 165.879 86.8393 165.538C86.6538 165.194 86.561 164.775 86.561 164.283ZM87.7229 164.344C87.7229 164.769 87.8237 165.094 88.0254 165.32C88.2272 165.546 88.4759 165.659 88.7718 165.659C89.0676 165.659 89.3151 165.546 89.5141 165.32C89.7158 165.094 89.8167 164.766 89.8167 164.336C89.8167 163.916 89.7158 163.593 89.5141 163.367C89.3151 163.141 89.0676 163.028 88.7718 163.028C88.4759 163.028 88.2272 163.141 88.0254 163.367C87.8237 163.593 87.7229 163.919 87.7229 164.344ZM91.5726 162.201H92.7183V163.226C92.7183 163.46 92.7385 163.635 92.7788 163.751C92.8219 163.864 92.9106 163.962 93.0451 164.045C93.1823 164.126 93.3544 164.166 93.5615 164.166C93.7632 164.166 93.9891 164.12 94.2393 164.029V162.201H95.3729V166.486H94.2393V164.775C93.7982 164.894 93.462 164.953 93.2307 164.953C92.8837 164.953 92.5717 164.879 92.2947 164.731C92.0177 164.58 91.8281 164.389 91.7259 164.158C91.6237 163.924 91.5726 163.613 91.5726 163.226V162.201ZM96.5035 162.201H97.6371V163.771H99.2589V162.201H100.397V166.486H99.2589V164.687H97.6371V166.486H96.5035V162.201ZM101.321 164.283C101.321 163.907 101.414 163.542 101.6 163.19C101.785 162.837 102.048 162.569 102.387 162.383C102.728 162.197 103.109 162.105 103.528 162.105C104.176 162.105 104.708 162.316 105.122 162.738C105.536 163.158 105.743 163.689 105.743 164.332C105.743 164.98 105.533 165.518 105.114 165.945C104.697 166.37 104.171 166.583 103.536 166.583C103.144 166.583 102.768 166.494 102.411 166.316C102.056 166.139 101.785 165.879 101.6 165.538C101.414 165.194 101.321 164.775 101.321 164.283ZM102.483 164.344C102.483 164.769 102.584 165.094 102.786 165.32C102.988 165.546 103.236 165.659 103.532 165.659C103.828 165.659 104.076 165.546 104.275 165.32C104.476 165.094 104.577 164.766 104.577 164.336C104.577 163.916 104.476 163.593 104.275 163.367C104.076 163.141 103.828 163.028 103.532 163.028C103.236 163.028 102.988 163.141 102.786 163.367C102.584 163.593 102.483 163.919 102.483 164.344ZM108.972 162.201H110.106V163.771H111.728V162.201H112.866V166.486H111.728V164.687H110.106V166.486H108.972V162.201ZM116.534 165.122L117.663 165.312C117.518 165.726 117.288 166.042 116.973 166.26C116.662 166.475 116.27 166.583 115.8 166.583C115.054 166.583 114.503 166.339 114.145 165.852C113.863 165.462 113.722 164.97 113.722 164.376C113.722 163.666 113.907 163.11 114.279 162.71C114.65 162.306 115.119 162.105 115.687 162.105C116.324 162.105 116.827 162.316 117.195 162.738C117.564 163.158 117.74 163.802 117.724 164.67H114.884C114.892 165.007 114.983 165.269 115.158 165.457C115.333 165.643 115.551 165.735 115.812 165.735C115.989 165.735 116.138 165.687 116.259 165.59C116.38 165.493 116.472 165.337 116.534 165.122ZM116.598 163.976C116.59 163.648 116.506 163.4 116.344 163.23C116.183 163.058 115.986 162.972 115.755 162.972C115.508 162.972 115.303 163.062 115.142 163.242C114.981 163.422 114.901 163.667 114.904 163.976H116.598ZM120.99 162.201H124.794V166.486H123.66V163.117H122.123V166.486H120.99V162.201ZM125.808 164.283C125.808 163.907 125.9 163.542 126.086 163.19C126.271 162.837 126.534 162.569 126.873 162.383C127.214 162.197 127.595 162.105 128.014 162.105C128.662 162.105 129.194 162.316 129.608 162.738C130.022 163.158 130.229 163.689 130.229 164.332C130.229 164.98 130.019 165.518 129.6 165.945C129.183 166.37 128.657 166.583 128.022 166.583C127.63 166.583 127.255 166.494 126.897 166.316C126.542 166.139 126.271 165.879 126.086 165.538C125.9 165.194 125.808 164.775 125.808 164.283ZM126.969 164.344C126.969 164.769 127.07 165.094 127.272 165.32C127.474 165.546 127.722 165.659 128.018 165.659C128.314 165.659 128.562 165.546 128.761 165.32C128.962 165.094 129.063 164.766 129.063 164.336C129.063 163.916 128.962 163.593 128.761 163.367C128.562 163.141 128.314 163.028 128.018 163.028C127.722 163.028 127.474 163.141 127.272 163.367C127.07 163.593 126.969 163.919 126.969 164.344ZM131.13 162.201H132.187V162.831C132.324 162.616 132.51 162.441 132.744 162.306C132.977 162.172 133.237 162.105 133.522 162.105C134.02 162.105 134.442 162.3 134.789 162.69C135.136 163.08 135.309 163.623 135.309 164.319C135.309 165.035 135.135 165.592 134.785 165.99C134.435 166.385 134.012 166.583 133.514 166.583C133.277 166.583 133.062 166.536 132.869 166.441C132.678 166.347 132.476 166.186 132.263 165.957V168.116H131.13V162.201ZM132.251 164.271C132.251 164.752 132.347 165.109 132.538 165.34C132.729 165.569 132.961 165.683 133.236 165.683C133.499 165.683 133.718 165.578 133.893 165.368C134.068 165.156 134.156 164.809 134.156 164.327C134.156 163.878 134.065 163.545 133.885 163.327C133.705 163.109 133.482 163 133.216 163C132.938 163 132.709 163.108 132.526 163.323C132.343 163.535 132.251 163.851 132.251 164.271ZM138.735 165.122L139.865 165.312C139.72 165.726 139.49 166.042 139.175 166.26C138.863 166.475 138.472 166.583 138.001 166.583C137.256 166.583 136.705 166.339 136.347 165.852C136.065 165.462 135.924 164.97 135.924 164.376C135.924 163.666 136.109 163.11 136.48 162.71C136.851 162.306 137.321 162.105 137.888 162.105C138.526 162.105 139.029 162.316 139.397 162.738C139.766 163.158 139.942 163.802 139.926 164.67H137.085C137.093 165.007 137.185 165.269 137.36 165.457C137.535 165.643 137.752 165.735 138.013 165.735C138.191 165.735 138.34 165.687 138.461 165.59C138.582 165.493 138.674 165.337 138.735 165.122ZM138.8 163.976C138.792 163.648 138.707 163.4 138.546 163.23C138.384 163.058 138.188 162.972 137.957 162.972C137.709 162.972 137.505 163.062 137.344 163.242C137.182 163.422 137.103 163.667 137.106 163.976H138.8ZM140.85 162.201H141.98V163.952C142.168 163.931 142.301 163.873 142.379 163.779C142.457 163.685 142.552 163.479 142.662 163.162C142.807 162.739 142.966 162.469 143.138 162.351C143.31 162.232 143.536 162.173 143.816 162.173C143.902 162.173 144.051 162.18 144.263 162.193L144.267 162.944C143.969 162.944 143.778 162.972 143.695 163.028C143.611 163.088 143.521 163.264 143.424 163.557C143.293 163.952 143.103 164.196 142.855 164.287C143.213 164.387 143.516 164.697 143.763 165.219C143.777 165.246 143.791 165.274 143.808 165.304L144.441 166.486H143.223L142.658 165.247C142.542 164.997 142.441 164.837 142.355 164.767C142.272 164.695 142.147 164.658 141.98 164.658V166.486H140.85V162.201ZM144.7 164.283C144.7 163.907 144.793 163.542 144.978 163.19C145.164 162.837 145.426 162.569 145.765 162.383C146.107 162.197 146.487 162.105 146.907 162.105C147.555 162.105 148.086 162.316 148.5 162.738C148.915 163.158 149.122 163.689 149.122 164.332C149.122 164.98 148.912 165.518 148.492 165.945C148.075 166.37 147.55 166.583 146.915 166.583C146.522 166.583 146.147 166.494 145.789 166.316C145.434 166.139 145.164 165.879 144.978 165.538C144.793 165.194 144.7 164.775 144.7 164.283ZM145.862 164.344C145.862 164.769 145.963 165.094 146.165 165.32C146.366 165.546 146.615 165.659 146.911 165.659C147.207 165.659 147.454 165.546 147.653 165.32C147.855 165.094 147.956 164.766 147.956 164.336C147.956 163.916 147.855 163.593 147.653 163.367C147.454 163.141 147.207 163.028 146.911 163.028C146.615 163.028 146.366 163.141 146.165 163.367C145.963 163.593 145.862 163.919 145.862 164.344ZM149.974 162.201H151.378L152.443 165.187L153.516 162.201H154.916V166.486H153.952V163.666L152.907 166.486H151.939L150.942 163.666V166.486H149.974V162.201ZM158.58 165.122L159.71 165.312C159.564 165.726 159.335 166.042 159.02 166.26C158.708 166.475 158.317 166.583 157.846 166.583C157.101 166.583 156.55 166.339 156.192 165.852C155.909 165.462 155.768 164.97 155.768 164.376C155.768 163.666 155.954 163.11 156.325 162.71C156.696 162.306 157.165 162.105 157.733 162.105C158.37 162.105 158.873 162.316 159.242 162.738C159.61 163.158 159.786 163.802 159.77 164.67H156.93C156.938 165.007 157.03 165.269 157.204 165.457C157.379 165.643 157.597 165.735 157.858 165.735C158.035 165.735 158.185 165.687 158.306 165.59C158.427 165.493 158.518 165.337 158.58 165.122ZM158.645 163.976C158.637 163.648 158.552 163.4 158.391 163.23C158.229 163.058 158.033 162.972 157.801 162.972C157.554 162.972 157.35 163.062 157.188 163.242C157.027 163.422 156.948 163.667 156.95 163.976H158.645ZM160.695 162.201H161.829V163.771H163.451V162.201H164.588V166.486H163.451V164.687H161.829V166.486H160.695V162.201ZM169.317 166.486H166.074V167.615H165.154V165.558H165.618C165.812 165.343 165.972 165.007 166.098 164.549C166.224 164.092 166.3 163.309 166.324 162.201H169.781V165.558H170.241V167.615H169.317V166.486ZM168.66 165.558L168.664 163.133H167.292C167.246 164.317 167.058 165.125 166.727 165.558H168.66ZM170.63 162.201H171.836L172.861 165.243L173.861 162.201H175.035L173.522 166.324L173.252 167.071C173.152 167.321 173.057 167.512 172.965 167.644C172.877 167.775 172.773 167.882 172.655 167.962C172.539 168.046 172.395 168.11 172.223 168.156C172.054 168.202 171.861 168.225 171.646 168.225C171.428 168.225 171.215 168.202 171.005 168.156L170.904 167.268C171.081 167.303 171.241 167.321 171.384 167.321C171.648 167.321 171.843 167.243 171.969 167.087C172.095 166.934 172.192 166.737 172.259 166.498L170.63 162.201ZM175.798 162.201H176.932V163.932H177.836C177.895 163.383 178.102 162.942 178.457 162.609C178.815 162.273 179.292 162.105 179.889 162.105C180.492 162.105 180.985 162.3 181.37 162.69C181.754 163.08 181.947 163.642 181.947 164.376C181.947 164.806 181.874 165.183 181.729 165.505C181.586 165.828 181.367 166.089 181.071 166.288C180.775 166.484 180.39 166.583 179.913 166.583C179.228 166.583 178.717 166.397 178.38 166.026C178.044 165.652 177.863 165.254 177.836 164.832H176.932V166.486H175.798V162.201ZM179.873 162.988C179.558 162.988 179.328 163.089 179.183 163.291C179.041 163.492 178.969 163.814 178.969 164.255C178.969 164.82 179.046 165.202 179.199 165.401C179.355 165.597 179.591 165.695 179.905 165.695C180.196 165.695 180.414 165.585 180.559 165.364C180.704 165.141 180.777 164.808 180.777 164.364C180.777 163.82 180.697 163.456 180.539 163.27C180.383 163.082 180.161 162.988 179.873 162.988Z" fill="#6E7176"/>
<path d="M38.7542 30.2442C40.629 30.2442 41.7427 28.7781 41.7427 26.2903C41.7427 23.8485 40.5575 22.5101 38.7951 22.5101C37.1911 22.5101 36.057 23.588 36.057 25.095C36.057 26.51 37.0787 27.5419 38.4835 27.5419C39.3468 27.5419 40.0467 27.1434 40.394 26.4436H40.4809C40.4656 28.1753 39.8474 29.1664 38.7696 29.1664C38.1361 29.1664 37.6304 28.819 37.472 28.2571H36.1592C36.3737 29.4575 37.4056 30.2442 38.7542 30.2442ZM38.8002 26.5253C37.942 26.5253 37.3494 25.9225 37.3494 25.0541C37.3494 24.2214 37.9727 23.5829 38.8053 23.5829C39.638 23.5829 40.2612 24.2316 40.2612 25.0796C40.2612 25.9174 39.6533 26.5253 38.8002 26.5253ZM43.9417 25.2942C44.427 25.2942 44.759 24.957 44.759 24.5024C44.759 24.0477 44.427 23.7106 43.9417 23.7106C43.4615 23.7106 43.1243 24.0477 43.1243 24.5024C43.1243 24.957 43.4615 25.2942 43.9417 25.2942ZM43.9417 29.0438C44.427 29.0438 44.759 28.7015 44.759 28.2519C44.759 27.7973 44.427 27.4601 43.9417 27.4601C43.4615 27.4601 43.1243 27.7973 43.1243 28.2519C43.1243 28.7015 43.4615 29.0438 43.9417 29.0438ZM49.737 30.0654H50.9988V28.6504H51.9949V27.5623H50.9988V22.694H49.1393C48.1381 24.2163 47.0909 25.9123 46.1356 27.5725V28.6504H49.737V30.0654ZM47.3565 27.5163C48.0768 26.2648 48.9299 24.9008 49.6859 23.7463H49.7574V27.593H47.3565V27.5163ZM54.8989 30.0654H56.2169V22.694H54.904L52.9782 24.0477V25.2891L54.8121 23.9915H54.8989V30.0654Z" fill="black"/>
<path fill-rule="evenodd" clip-rule="evenodd" d="M216.258 21.9304H225.005C225.741 21.9304 226.008 22.0071 226.278 22.1511C226.547 22.2952 226.758 22.5065 226.902 22.7758C227.046 23.0451 227.123 23.3122 227.123 24.0488V26.5989C227.123 27.3355 227.046 27.6027 226.902 27.8719C226.758 28.1412 226.547 28.3526 226.278 28.4966C226.008 28.6406 225.741 28.7173 225.005 28.7173H216.258C215.521 28.7173 215.254 28.6406 214.985 28.4966C214.715 28.3526 214.504 28.1412 214.36 27.8719C214.216 27.6027 214.139 27.3355 214.139 26.5989V24.0488C214.139 23.3122 214.216 23.0451 214.36 22.7758C214.504 22.5065 214.715 22.2952 214.985 22.1511C215.254 22.0071 215.521 21.9304 216.258 21.9304ZM216.258 22.5207C215.675 22.5207 215.472 22.56 215.263 22.6717C215.097 22.7607 214.97 22.8878 214.881 23.0543C214.769 23.2631 214.73 23.4665 214.73 24.0489V26.5991C214.73 27.1816 214.769 27.3849 214.881 27.5938C214.97 27.7602 215.097 27.8873 215.263 27.9763C215.472 28.088 215.675 28.1273 216.258 28.1273H225.005C225.587 28.1273 225.79 28.088 225.999 27.9763C226.166 27.8873 226.293 27.7602 226.382 27.5938C226.494 27.3849 226.533 27.1816 226.533 26.5991V24.0489C226.533 23.4665 226.494 23.2631 226.382 23.0543C226.293 22.8878 226.166 22.7607 225.999 22.6717C225.79 22.56 225.587 22.5207 225.005 22.5207H216.258ZM227.713 26.4689V24.1082C227.713 24.1082 228.598 24.5588 228.598 25.2885C228.598 26.0183 227.713 26.4689 227.713 26.4689Z" fill="black" fill-opacity="0.36"/>
<rect x="215.32" y="23.0618" width="10.623" height="4.52459" rx="0.944262" fill="black"/>
<path fill-rule="evenodd" clip-rule="evenodd" d="M197.392 22.7602C197.379 22.8286 197.379 22.9109 197.379 23.0754V27.6197C197.379 27.7842 197.379 27.8665 197.392 27.9349C197.448 28.2158 197.668 28.4355 197.949 28.4913C198.017 28.5049 198.099 28.5049 198.264 28.5049C198.428 28.5049 198.511 28.5049 198.579 28.4913C198.86 28.4355 199.08 28.2158 199.136 27.9349C199.149 27.8665 199.149 27.7842 199.149 27.6197V23.0754C199.149 22.9109 199.149 22.8286 199.136 22.7602C199.08 22.4793 198.86 22.2597 198.579 22.2038C198.511 22.1902 198.428 22.1902 198.264 22.1902C198.099 22.1902 198.017 22.1902 197.949 22.2038C197.668 22.2597 197.448 22.4793 197.392 22.7602ZM194.605 24.4918C194.605 24.3273 194.605 24.245 194.619 24.1766C194.674 23.8957 194.894 23.6761 195.175 23.6202C195.243 23.6066 195.326 23.6066 195.49 23.6066C195.655 23.6066 195.737 23.6066 195.805 23.6202C196.086 23.6761 196.306 23.8957 196.362 24.1766C196.375 24.245 196.375 24.3273 196.375 24.4918V27.6197C196.375 27.7842 196.375 27.8665 196.362 27.9349C196.306 28.2158 196.086 28.4355 195.805 28.4913C195.737 28.5049 195.655 28.5049 195.49 28.5049C195.326 28.5049 195.243 28.5049 195.175 28.4913C194.894 28.4355 194.674 28.2158 194.619 27.9349C194.605 27.8665 194.605 27.7842 194.605 27.6197V24.4918ZM191.904 25.5341C191.89 25.6025 191.89 25.6848 191.89 25.8493V27.6198C191.89 27.7843 191.89 27.8666 191.904 27.935C191.96 28.2159 192.179 28.4355 192.46 28.4914C192.529 28.505 192.611 28.505 192.775 28.505C192.94 28.505 193.022 28.505 193.091 28.4914C193.372 28.4355 193.591 28.2159 193.647 27.935C193.661 27.8666 193.661 27.7843 193.661 27.6198V25.8493C193.661 25.6848 193.661 25.6025 193.647 25.5341C193.591 25.2531 193.372 25.0335 193.091 24.9776C193.022 24.964 192.94 24.964 192.775 24.964C192.611 24.964 192.529 24.964 192.46 24.9776C192.179 25.0335 191.96 25.2531 191.904 25.5341ZM189.071 26.7142C189.057 26.7827 189.057 26.8649 189.057 27.0295V27.6196C189.057 27.7842 189.057 27.8664 189.071 27.9348C189.127 28.2158 189.346 28.4354 189.627 28.4913C189.696 28.5049 189.778 28.5049 189.943 28.5049C190.107 28.5049 190.189 28.5049 190.258 28.4913C190.539 28.4354 190.758 28.2158 190.814 27.9348C190.828 27.8664 190.828 27.7842 190.828 27.6196V27.0295C190.828 26.8649 190.828 26.7827 190.814 26.7142C190.758 26.4333 190.539 26.2137 190.258 26.1578C190.189 26.1442 190.107 26.1442 189.943 26.1442C189.778 26.1442 189.696 26.1442 189.627 26.1578C189.346 26.2137 189.127 26.4333 189.071 26.7142Z" fill="black"/>
<path fill-rule="evenodd" clip-rule="evenodd" d="M206.645 23.4275C207.963 23.4276 209.232 23.9342 210.187 24.8428C210.259 24.913 210.374 24.9121 210.445 24.8408L211.133 24.1466C211.169 24.1104 211.189 24.0615 211.189 24.0106C211.188 23.9596 211.168 23.9109 211.131 23.8752C208.623 21.4713 204.666 21.4713 202.157 23.8752C202.121 23.9109 202.1 23.9596 202.1 24.0105C202.1 24.0614 202.12 24.1104 202.156 24.1466L202.844 24.8408C202.915 24.9122 203.03 24.9131 203.102 24.8428C204.057 23.9342 205.326 23.4275 206.645 23.4275ZM206.645 25.686C207.369 25.686 208.068 25.9553 208.605 26.4416C208.678 26.5106 208.792 26.5091 208.863 26.4382L209.55 25.7439C209.586 25.7075 209.606 25.6581 209.606 25.6068C209.605 25.5554 209.584 25.5065 209.547 25.4708C207.912 23.9495 205.379 23.9495 203.744 25.4708C203.707 25.5065 203.686 25.5555 203.685 25.6068C203.685 25.6582 203.705 25.7076 203.741 25.7439L204.428 26.4382C204.499 26.5091 204.613 26.5106 204.686 26.4416C205.223 25.9556 205.921 25.6863 206.645 25.686ZM207.965 27.3433C208.002 27.3072 208.022 27.2576 208.021 27.2061C208.02 27.1546 207.998 27.1058 207.96 27.0713C207.2 26.4293 206.089 26.4293 205.33 27.0713C205.291 27.1058 205.269 27.1546 205.268 27.206C205.267 27.2575 205.287 27.3072 205.324 27.3433L206.513 28.5428C206.547 28.578 206.595 28.5979 206.645 28.5979C206.694 28.5979 206.742 28.578 206.776 28.5428L207.965 27.3433Z" fill="black"/>
<path fill-rule="evenodd" clip-rule="evenodd" d="M213.549 0H39.4508C18.9167 0 2.2705 16.6462 2.2705 37.1803V469.18C2.2705 489.714 18.9167 506.361 39.4508 506.361H213.549C234.083 506.361 250.73 489.714 250.73 469.18V37.1803C250.73 16.6462 234.083 0 213.549 0ZM5.22132 37.1803C5.22132 18.2759 20.5464 2.95082 39.4508 2.95082H213.549C232.454 2.95082 247.779 18.2759 247.779 37.1803V469.18C247.779 488.085 232.454 503.41 213.549 503.41H39.4508C20.5464 503.41 5.22132 488.085 5.22132 469.18V37.1803ZM2.27049 86.7542V67.8689C1.29268 67.8689 0.5 68.6616 0.5 69.6394V84.9837C0.5 85.9615 1.29268 86.7542 2.27049 86.7542ZM2.27049 104.459V141.049C1.29268 141.049 0.5 140.256 0.5 139.279V106.229C0.5 105.252 1.29268 104.459 2.27049 104.459ZM250.73 175.279C251.707 175.279 252.5 174.486 252.5 173.508V118.033C252.5 117.055 251.707 116.262 250.73 116.262V175.279ZM2.27049 187.082V150.492C1.29268 150.492 0.5 151.285 0.5 152.262V185.312C0.5 186.289 1.29268 187.082 2.27049 187.082Z" fill="#AABBCC"/>
<path fill-rule="evenodd" clip-rule="evenodd" d="M237.156 37.1802C237.156 24.1376 226.592 13.5736 213.549 13.5736H192.598C189.991 13.5736 187.877 15.6874 187.877 18.2949V18.8851C187.877 26.0851 182.094 31.8687 174.894 31.8687H78.1067C70.9067 31.8687 65.1231 26.0851 65.1231 18.8851V18.2949C65.1231 15.6874 63.0093 13.5736 60.4018 13.5736H39.4509C26.4083 13.5736 15.8444 24.1376 15.8444 37.1802V469.18C15.8444 482.223 26.4083 492.787 39.4509 492.787H213.549C226.592 492.787 237.156 482.223 237.156 469.18V37.1802ZM39.4509 2.95068H213.549C232.435 2.95068 247.779 18.2949 247.779 37.1802V469.18C247.779 488.065 232.435 503.41 213.549 503.41H39.4509C20.5657 503.41 5.22144 488.065 5.22144 469.18V37.1802C5.22144 18.2949 20.5657 2.95068 39.4509 2.95068Z" fill="#333333"/>
<path d="M157.189 18.8853C157.189 21.1669 155.339 23.0164 153.057 23.0164C150.776 23.0164 148.926 21.1669 148.926 18.8853C148.926 16.6037 150.776 14.7542 153.057 14.7542C155.339 14.7542 157.189 16.6037 157.189 18.8853Z" fill="#4F4F4F"/>
<path d="M113.221 17.1148C112.244 17.1148 111.451 17.9075 111.451 18.8853C111.451 19.8631 112.244 20.6558 113.221 20.6558H139.189C140.166 20.6558 140.959 19.8631 140.959 18.8853C140.959 17.9075 140.166 17.1148 139.189 17.1148H113.221Z" fill="#4F4F4F"/>
<rect x="26.467" y="74.0925" width="198.885" height="2.95082" fill="#F2F2F2"/>
<rect x="26.467" y="74.0925" width="48.9836" height="2.95082" fill="#25A2FF"/>
<path d="M29.7153 69.5186C30.8579 69.5186 31.3961 68.7726 31.3961 67.8189C31.3961 67.0351 30.924 66.3742 30.2819 66.2703C30.8579 66.1287 31.2922 65.6188 31.2922 64.8256C31.2922 63.9663 30.754 63.2203 29.6303 63.2203H27.0242V69.5186H29.7153ZM29.3282 65.7698H28.2895V64.3251H29.3282C29.7814 64.3251 29.9986 64.6178 29.9986 65.0428C29.9986 65.4771 29.7814 65.7698 29.3282 65.7698ZM29.3754 68.4138H28.2895V66.8652H29.3754C29.8569 66.8652 30.1025 67.2051 30.1025 67.6395C30.1025 68.1305 29.8475 68.4138 29.3754 68.4138ZM34.0647 69.6319C35.4245 69.6319 36.1327 68.5176 36.1327 67.2334C36.1327 65.9587 35.4245 64.8445 34.0647 64.8445C32.7239 64.8445 32.0062 65.9587 32.0062 67.2334C32.0062 68.5176 32.7239 69.6319 34.0647 69.6319ZM34.0647 68.6309C33.4604 68.6309 33.1866 67.9888 33.1866 67.2334C33.1866 66.4875 33.4604 65.8454 34.0647 65.8454C34.688 65.8454 34.9618 66.4875 34.9618 67.2334C34.9618 67.9888 34.688 68.6309 34.0647 68.6309ZM40.619 69.5186V64.9578H36.9175V69.5186H38.0506V65.9492H39.4765V69.5186H40.619ZM43.9239 69.6319C44.9532 69.6319 45.6142 68.7159 45.6142 67.2334C45.6142 65.7415 44.9532 64.8445 43.9239 64.8445C43.4801 64.8445 43.0552 65.0805 42.7719 65.5338V64.9578H41.6388V71.256H42.7719V68.9426C43.0552 69.4147 43.4896 69.6319 43.9239 69.6319ZM43.5557 68.6309C43.2535 68.6309 42.923 68.3854 42.7719 68.0927V66.3742C42.923 66.072 43.2535 65.8454 43.5557 65.8454C44.1411 65.8454 44.4433 66.4403 44.4433 67.2334C44.4433 68.0361 44.1411 68.6309 43.5557 68.6309ZM48.2102 69.6319C49.57 69.6319 50.2782 68.5176 50.2782 67.2334C50.2782 65.9587 49.57 64.8445 48.2102 64.8445C46.8694 64.8445 46.1517 65.9587 46.1517 67.2334C46.1517 68.5176 46.8694 69.6319 48.2102 69.6319ZM48.2102 68.6309C47.6059 68.6309 47.3321 67.9888 47.3321 67.2334C47.3321 66.4875 47.6059 65.8454 48.2102 65.8454C48.8334 65.8454 49.1073 66.4875 49.1073 67.2334C49.1073 67.9888 48.8334 68.6309 48.2102 68.6309ZM52.9138 69.6319C53.6314 69.6319 54.1035 69.3391 54.3679 69.0181L53.8014 68.2344C53.5936 68.4893 53.3481 68.6309 53.0365 68.6309C52.385 68.6309 51.9978 68.0266 51.9978 67.2334C51.9978 66.4403 52.385 65.8454 53.0365 65.8454C53.3481 65.8454 53.5936 65.987 53.8014 66.242L54.3679 65.4582C54.1035 65.1372 53.6314 64.8445 52.9138 64.8445C51.6579 64.8445 50.8269 65.8454 50.8269 67.2334C50.8269 68.6309 51.6579 69.6319 52.9138 69.6319ZM58.984 69.6319C60.3249 69.6319 61.1842 68.7443 61.1842 67.4789C61.1842 66.1759 60.4193 65.4299 59.4656 65.4299C58.984 65.4299 58.5591 65.6471 58.3136 65.9492V64.3346H60.8254V63.2203H57.0483V66.7991L57.9642 67.0446C58.257 66.6763 58.578 66.5252 59.0029 66.5252C59.5695 66.5252 59.9 66.8935 59.9 67.5167C59.9 68.0455 59.5506 68.5082 58.9463 68.5082C58.408 68.5082 57.9642 68.2627 57.6337 67.8283L56.8689 68.6404C57.341 69.273 58.0115 69.6319 58.984 69.6319ZM65.0774 69.5186L66.541 66.8463V69.5186H67.6836V64.9578H66.5221L65.1152 67.5262V64.9578H63.9821V69.5186H65.0774ZM70.1764 69.6319C71.3473 69.6319 72.0838 69.0653 72.0838 68.2721C72.0838 67.6395 71.5173 67.2429 70.9602 67.1768C71.5267 67.0824 72.0083 66.6291 72.0083 66.1003C72.0083 65.3166 71.2623 64.8445 70.0537 64.8445C69.336 64.8445 68.7695 65.1277 68.3729 65.5715L68.93 66.242C69.2227 65.902 69.6099 65.7509 70.082 65.7509C70.5447 65.7509 70.8657 65.9304 70.8657 66.2514C70.8657 66.5913 70.5919 66.7708 70.082 66.7708H69.2511V67.6584H70.1009C70.5636 67.6584 70.9413 67.7622 70.9413 68.1777C70.9413 68.5082 70.658 68.7254 70.1481 68.7254C69.6382 68.7254 69.1661 68.546 68.8545 68.2249L68.3162 68.9048C68.7128 69.3486 69.336 69.6319 70.1764 69.6319ZM77.3752 69.5186V63.2203H76.2704L74.4196 65.0805L75.1467 65.8454L76.1004 64.8539V69.5186H77.3752ZM80.4052 69.6319C81.6516 69.6319 82.577 69.0275 82.577 67.9039C82.577 67.1485 82.0104 66.5158 81.3683 66.2703C81.9632 66.0531 82.492 65.5432 82.492 64.7689C82.492 63.6169 81.425 63.1259 80.4052 63.1259C79.3665 63.1259 78.3183 63.6169 78.3183 64.7689C78.3183 65.5432 78.8377 66.0531 79.4326 66.2703C78.7905 66.5158 78.2333 67.1485 78.2333 67.9133C78.2333 69.0275 79.1493 69.6319 80.4052 69.6319ZM80.4052 65.817C80.1596 65.7604 79.5836 65.5149 79.5836 64.9767C79.5836 64.514 79.9047 64.2307 80.4052 64.2307C80.8962 64.2307 81.2172 64.514 81.2172 64.9767C81.2172 65.5149 80.6412 65.7604 80.4052 65.817ZM80.4052 68.5271C79.8952 68.5271 79.5081 68.2438 79.5081 67.7433C79.5081 67.139 80.1408 66.8274 80.4052 66.7896C80.6601 66.8274 81.3022 67.139 81.3022 67.7433C81.3022 68.2438 80.8962 68.5271 80.4052 68.5271Z" fill="#333333"/>
<path d="M34.243 108.519V99.0715H32.3309V102.825H29.2007V99.0715H27.3027V108.519H29.2007V104.496H32.3309V108.519H34.243ZM41.104 108.519V103.93C41.104 102.173 39.9284 101.508 38.4412 101.508C37.563 101.508 36.5291 101.805 35.8067 102.499L36.4441 103.661C36.954 103.165 37.5347 102.924 38.1296 102.924C38.9369 102.924 39.3902 103.377 39.3902 104.114V105.006C39.0219 104.482 38.2996 104.199 37.5914 104.199C36.5149 104.199 35.4809 104.921 35.4809 106.423C35.4809 107.881 36.5149 108.689 37.5914 108.689C38.2854 108.689 39.0078 108.377 39.3902 107.839V108.519H41.104ZM38.2429 107.541C37.6055 107.541 37.1806 107.102 37.1806 106.451C37.1806 105.799 37.6055 105.346 38.2429 105.346C38.7103 105.346 39.1636 105.601 39.3902 106.012V106.89C39.1636 107.301 38.7103 107.541 38.2429 107.541ZM45.403 108.689C46.4795 108.689 47.1877 108.25 47.5843 107.768L46.7344 106.593C46.4228 106.975 46.0545 107.187 45.5871 107.187C44.6098 107.187 44.0291 106.281 44.0291 105.091C44.0291 103.901 44.6098 103.009 45.5871 103.009C46.0545 103.009 46.4228 103.221 46.7344 103.604L47.5843 102.428C47.1877 101.947 46.4795 101.508 45.403 101.508C43.5192 101.508 42.2728 103.009 42.2728 105.091C42.2728 107.187 43.5192 108.689 45.403 108.689ZM54.424 108.519L52.1861 104.751L54.3532 101.678H52.3702L50.2881 104.78V101.678H48.5885V108.519H50.2881V106.847L51.0105 105.842L52.4269 108.519H54.424ZM57.837 108.689C59.8766 108.689 60.9389 107.017 60.9389 105.091C60.9389 103.179 59.8766 101.508 57.837 101.508C55.8257 101.508 54.7492 103.179 54.7492 105.091C54.7492 107.017 55.8257 108.689 57.837 108.689ZM57.837 107.187C56.9305 107.187 56.5197 106.224 56.5197 105.091C56.5197 103.972 56.9305 103.009 57.837 103.009C58.7718 103.009 59.1825 103.972 59.1825 105.091C59.1825 106.224 58.7718 107.187 57.837 107.187ZM61.5921 108.689C63.2067 108.689 64.0707 107.839 64.2832 105.36L64.4673 103.165H65.9545V108.519H67.6684V101.678H62.9235L62.5977 105.19C62.4277 106.89 62.102 107.258 61.5921 107.258V108.689ZM69.1981 101.678V108.519H72.3991C73.9997 108.519 74.8212 107.485 74.8212 106.295C74.8212 105.091 74.028 104.071 72.3991 104.071H70.8978V101.678H69.1981ZM72.1867 105.459C72.7674 105.459 73.079 105.828 73.079 106.295C73.079 106.777 72.7674 107.131 72.1867 107.131H70.8978V105.459H72.1867ZM81.7836 108.519L79.5457 104.751L81.7128 101.678H79.7299L77.6478 104.78V101.678H75.9481V108.519H77.6478V106.847L78.3701 105.842L79.7865 108.519H81.7836ZM85.1966 108.689C87.2362 108.689 88.2985 107.017 88.2985 105.091C88.2985 103.179 87.2362 101.508 85.1966 101.508C83.1853 101.508 82.1089 103.179 82.1089 105.091C82.1089 107.017 83.1853 108.689 85.1966 108.689ZM85.1966 107.187C84.2901 107.187 83.8793 106.224 83.8793 105.091C83.8793 103.972 84.2901 103.009 85.1966 103.009C86.1314 103.009 86.5422 103.972 86.5422 105.091C86.5422 106.224 86.1314 107.187 85.1966 107.187ZM96.0189 108.519C97.492 108.519 98.1577 107.697 98.1577 106.663C98.1577 105.842 97.6195 105.148 96.8404 104.978C97.5203 104.794 98.0161 104.241 98.0161 103.434C98.0161 102.485 97.3645 101.678 95.9198 101.678H92.4496V108.519H96.0189ZM95.6224 107.145H94.1493V105.714H95.6224C96.1464 105.714 96.4155 106.04 96.4155 106.437C96.4155 106.876 96.1464 107.145 95.6224 107.145ZM95.5657 104.34H94.1493V103.052H95.5657C96.0614 103.052 96.2881 103.335 96.2881 103.703C96.2881 104.071 96.0614 104.34 95.5657 104.34ZM99.5593 101.678V108.519H102.76C104.361 108.519 105.182 107.485 105.182 106.295C105.182 105.091 104.389 104.071 102.76 104.071H101.259V101.678H99.5593ZM102.548 105.459C103.129 105.459 103.44 105.828 103.44 106.295C103.44 106.777 103.129 107.131 102.548 107.131H101.259V105.459H102.548ZM107.661 108.519V101.678H105.961V108.519H107.661ZM116.579 101.678H112.16V108.519H113.86V103.165H116.579V101.678ZM120.316 108.689C122.356 108.689 123.418 107.017 123.418 105.091C123.418 103.179 122.356 101.508 120.316 101.508C118.305 101.508 117.228 103.179 117.228 105.091C117.228 107.017 118.305 108.689 120.316 108.689ZM120.316 107.187C119.409 107.187 118.999 106.224 118.999 105.091C118.999 103.972 119.409 103.009 120.316 103.009C121.251 103.009 121.662 103.972 121.662 105.091C121.662 106.224 121.251 107.187 120.316 107.187ZM127.286 108.519V103.165H128.802V101.678H124.071V103.165H125.572V108.519H127.286ZM132.53 108.689C134.569 108.689 135.631 107.017 135.631 105.091C135.631 103.179 134.569 101.508 132.53 101.508C130.518 101.508 129.442 103.179 129.442 105.091C129.442 107.017 130.518 108.689 132.53 108.689ZM132.53 107.187C131.623 107.187 131.212 106.224 131.212 105.091C131.212 103.972 131.623 103.009 132.53 103.009C133.464 103.009 133.875 103.972 133.875 105.091C133.875 106.224 133.464 107.187 132.53 107.187ZM140.378 108.519C141.851 108.519 142.517 107.697 142.517 106.663C142.517 105.842 141.979 105.148 141.2 104.978C141.879 104.794 142.375 104.241 142.375 103.434C142.375 102.485 141.724 101.678 140.279 101.678H136.809V108.519H140.378ZM139.981 107.145H138.508V105.714H139.981C140.506 105.714 140.775 106.04 140.775 106.437C140.775 106.876 140.506 107.145 139.981 107.145ZM139.925 104.34H138.508V103.052H139.925C140.421 103.052 140.647 103.335 140.647 103.703C140.647 104.071 140.421 104.34 139.925 104.34ZM143.918 101.678V108.519H147.119C148.72 108.519 149.541 107.485 149.541 106.295C149.541 105.091 148.748 104.071 147.119 104.071H145.618V101.678H143.918ZM146.907 105.459C147.488 105.459 147.799 105.828 147.799 106.295C147.799 106.777 147.488 107.131 146.907 107.131H145.618V105.459H146.907ZM152.02 108.519V101.678H150.32V108.519H152.02ZM32.7842 123.519V116.678H27.2319V123.519H28.9316V118.165H31.0703V123.519H32.7842ZM37.0475 123.689C39.0871 123.689 40.1494 122.017 40.1494 120.091C40.1494 118.179 39.0871 116.508 37.0475 116.508C35.0362 116.508 33.9598 118.179 33.9598 120.091C33.9598 122.017 35.0362 123.689 37.0475 123.689ZM37.0475 122.187C36.141 122.187 35.7303 121.224 35.7303 120.091C35.7303 118.972 36.141 118.009 37.0475 118.009C37.9823 118.009 38.3931 118.972 38.3931 120.091C38.3931 121.224 37.9823 122.187 37.0475 122.187ZM44.7543 123.689C46.2982 123.689 47.2897 122.315 47.2897 120.091C47.2897 117.853 46.2982 116.508 44.7543 116.508C44.0886 116.508 43.4513 116.862 43.0263 117.542V116.678H41.3267V126.125H43.0263V122.655C43.4513 123.363 44.1028 123.689 44.7543 123.689ZM44.2019 122.187C43.7487 122.187 43.253 121.819 43.0263 121.38V118.802C43.253 118.349 43.7487 118.009 44.2019 118.009C45.0801 118.009 45.5334 118.901 45.5334 120.091C45.5334 121.295 45.0801 122.187 44.2019 122.187ZM51.2829 123.689C52.2036 123.689 53.1242 123.335 53.7333 122.669L52.9543 121.649C52.5718 122.074 51.9486 122.315 51.4671 122.315C50.4331 122.315 49.8807 121.578 49.8099 120.644H54.1015V120.162C54.1015 118.037 53.0393 116.508 51.1554 116.508C49.2575 116.508 48.096 118.108 48.096 120.091C48.096 122.244 49.3566 123.689 51.2829 123.689ZM52.4585 119.482H49.8099C49.8382 118.774 50.1781 117.882 51.1271 117.882C52.1186 117.882 52.4302 118.774 52.4585 119.482ZM61.0633 123.519L58.8254 119.751L60.9925 116.678H59.0096L56.9275 119.78V116.678H55.2278V123.519H56.9275V121.847L57.6498 120.842L59.0662 123.519H61.0633ZM64.4763 123.689C66.5159 123.689 67.5782 122.017 67.5782 120.091C67.5782 118.179 66.5159 116.508 64.4763 116.508C62.465 116.508 61.3886 118.179 61.3886 120.091C61.3886 122.017 62.465 123.689 64.4763 123.689ZM64.4763 122.187C63.5698 122.187 63.1591 121.224 63.1591 120.091C63.1591 118.972 63.5698 118.009 64.4763 118.009C65.4111 118.009 65.8219 118.972 65.8219 120.091C65.8219 121.224 65.4111 122.187 64.4763 122.187ZM75.9224 123.519V116.678H73.7553L72.3389 120.488L70.9367 116.678H68.7555V123.519H70.4551V119.369L71.9707 123.519H72.7072L74.2369 119.369V123.519H75.9224ZM80.2886 123.689C81.2092 123.689 82.1299 123.335 82.7389 122.669L81.9599 121.649C81.5775 122.074 80.9543 122.315 80.4727 122.315C79.4387 122.315 78.8863 121.578 78.8155 120.644H83.1072V120.162C83.1072 118.037 82.0449 116.508 80.1611 116.508C78.2631 116.508 77.1017 118.108 77.1017 120.091C77.1017 122.244 78.3623 123.689 80.2886 123.689ZM81.4642 119.482H78.8155C78.8438 118.774 79.1838 117.882 80.1328 117.882C81.1242 117.882 81.4358 118.774 81.4642 119.482ZM85.9331 123.519V120.714H88.0719V123.519H89.7857V116.678H88.0719V119.227H85.9331V116.678H84.2334V123.519H85.9331ZM90.7913 125.261H92.491V123.519H95.8762V125.261H97.5759V122.032H96.8677V116.678H92.1227L91.797 120.19C91.627 121.847 91.3012 122.074 90.7913 122.159V125.261ZM93.6666 118.165H95.1538V122.032H92.8026C93.185 121.649 93.4258 121.097 93.4967 120.247L93.6666 118.165ZM101.269 123.689C103.309 123.689 104.371 122.017 104.371 120.091C104.371 118.179 103.309 116.508 101.269 116.508C99.2581 116.508 98.1816 118.179 98.1816 120.091C98.1816 122.017 99.2581 123.689 101.269 123.689ZM101.269 122.187C100.363 122.187 99.9521 121.224 99.9521 120.091C99.9521 118.972 100.363 118.009 101.269 118.009C102.204 118.009 102.615 118.972 102.615 120.091C102.615 121.224 102.204 122.187 101.269 122.187ZM109.118 123.519C110.591 123.519 111.257 122.697 111.257 121.663C111.257 120.842 110.718 120.148 109.939 119.978C110.619 119.794 111.115 119.241 111.115 118.434C111.115 117.485 110.463 116.678 109.019 116.678H105.549V123.519H109.118ZM108.721 122.145H107.248V120.714H108.721C109.245 120.714 109.514 121.04 109.514 121.437C109.514 121.876 109.245 122.145 108.721 122.145ZM108.665 119.34H107.248V118.052H108.665C109.16 118.052 109.387 118.335 109.387 118.703C109.387 119.071 109.16 119.34 108.665 119.34ZM117.913 123.519V118.93C117.913 117.173 116.737 116.508 115.25 116.508C114.372 116.508 113.338 116.805 112.616 117.499L113.253 118.661C113.763 118.165 114.344 117.924 114.939 117.924C115.746 117.924 116.199 118.377 116.199 119.114V120.006C115.831 119.482 115.108 119.199 114.4 119.199C113.324 119.199 112.29 119.921 112.29 121.423C112.29 122.881 113.324 123.689 114.4 123.689C115.094 123.689 115.817 123.377 116.199 122.839V123.519H117.913ZM115.052 122.541C114.414 122.541 113.99 122.102 113.99 121.451C113.99 120.799 114.414 120.346 115.052 120.346C115.519 120.346 115.972 120.601 116.199 121.012V121.89C115.972 122.301 115.519 122.541 115.052 122.541ZM122.127 123.519V118.165H123.642V116.678H118.912V118.165H120.413V123.519H122.127ZM124.637 116.678V123.519H127.838C129.438 123.519 130.26 122.485 130.26 121.295C130.26 120.091 129.467 119.071 127.838 119.071H126.336V116.678H124.637ZM127.625 120.459C128.206 120.459 128.518 120.828 128.518 121.295C128.518 121.777 128.206 122.131 127.625 122.131H126.336V120.459H127.625ZM136.06 123.519V120.714H138.199V123.519H139.913V116.678H138.199V119.227H136.06V116.678H134.36V123.519H136.06ZM146.697 123.519V118.93C146.697 117.173 145.522 116.508 144.034 116.508C143.156 116.508 142.122 116.805 141.4 117.499L142.037 118.661C142.547 118.165 143.128 117.924 143.723 117.924C144.53 117.924 144.983 118.377 144.983 119.114V120.006C144.615 119.482 143.893 119.199 143.185 119.199C142.108 119.199 141.074 119.921 141.074 121.423C141.074 122.881 142.108 123.689 143.185 123.689C143.879 123.689 144.601 123.377 144.983 122.839V123.519H146.697ZM143.836 122.541C143.199 122.541 142.774 122.102 142.774 121.451C142.774 120.799 143.199 120.346 143.836 120.346C144.304 120.346 144.757 120.601 144.983 121.012V121.89C144.757 122.301 144.304 122.541 143.836 122.541ZM150.996 123.689C152.073 123.689 152.781 123.25 153.178 122.768L152.328 121.593C152.016 121.975 151.648 122.187 151.18 122.187C150.203 122.187 149.622 121.281 149.622 120.091C149.622 118.901 150.203 118.009 151.18 118.009C151.648 118.009 152.016 118.221 152.328 118.604L153.178 117.428C152.781 116.947 152.073 116.508 150.996 116.508C149.112 116.508 147.866 118.009 147.866 120.091C147.866 122.187 149.112 123.689 150.996 123.689ZM159.932 123.689C161.008 123.689 161.716 123.25 162.113 122.768L161.263 121.593C160.952 121.975 160.583 122.187 160.116 122.187C159.139 122.187 158.558 121.281 158.558 120.091C158.558 118.901 159.139 118.009 160.116 118.009C160.583 118.009 160.952 118.221 161.263 118.604L162.113 117.428C161.716 116.947 161.008 116.508 159.932 116.508C158.048 116.508 156.801 118.009 156.801 120.091C156.801 122.187 158.048 123.689 159.932 123.689ZM166.686 123.519C168.16 123.519 168.825 122.697 168.825 121.663C168.825 120.842 168.287 120.148 167.508 119.978C168.188 119.794 168.684 119.241 168.684 118.434C168.684 117.485 168.032 116.678 166.587 116.678H163.117V123.519H166.686ZM166.29 122.145H164.817V120.714H166.29C166.814 120.714 167.083 121.04 167.083 121.437C167.083 121.876 166.814 122.145 166.29 122.145ZM166.233 119.34H164.817V118.052H166.233C166.729 118.052 166.956 118.335 166.956 118.703C166.956 119.071 166.729 119.34 166.233 119.34ZM172.96 123.689C175 123.689 176.062 122.017 176.062 120.091C176.062 118.179 175 116.508 172.96 116.508C170.949 116.508 169.873 118.179 169.873 120.091C169.873 122.017 170.949 123.689 172.96 123.689ZM172.96 122.187C172.054 122.187 171.643 121.224 171.643 120.091C171.643 118.972 172.054 118.009 172.96 118.009C173.895 118.009 174.306 118.972 174.306 120.091C174.306 121.224 173.895 122.187 172.96 122.187ZM178.883 123.519L181.078 119.51V123.519H182.792V116.678H181.05L178.939 120.53V116.678H177.24V123.519H178.883ZM191.489 123.519V116.678H189.321L187.905 120.488L186.503 116.678H184.322V123.519H186.021V119.369L187.537 123.519H188.273L189.803 119.369V123.519H191.489ZM26.7078 139.261H28.4075V137.519H31.7927V139.261H33.4924V136.032H32.7842V130.678H28.0392L27.7135 134.19C27.5435 135.847 27.2177 136.074 26.7078 136.159V139.261ZM29.5831 132.165H31.0703V136.032H28.7191C29.1015 135.649 29.3423 135.097 29.4131 134.247L29.5831 132.165ZM37.8799 137.689C39.4237 137.689 40.4152 136.315 40.4152 134.091C40.4152 131.853 39.4237 130.508 37.8799 130.508C37.2141 130.508 36.5768 130.862 36.1519 131.542V130.678H34.4522V140.125H36.1519V136.655C36.5768 137.363 37.2283 137.689 37.8799 137.689ZM37.3275 136.187C36.8742 136.187 36.3785 135.819 36.1519 135.38V132.802C36.3785 132.349 36.8742 132.009 37.3275 132.009C38.2056 132.009 38.6589 132.901 38.6589 134.091C38.6589 135.295 38.2056 136.187 37.3275 136.187ZM41.4198 140.196C41.604 140.252 42.0289 140.295 42.2414 140.295C43.332 140.281 44.0685 139.941 44.4934 138.68L47.1704 130.678H45.3574L43.9694 135.465L42.5954 130.678H40.7825L43.0912 137.646L42.8646 138.298C42.7371 138.652 42.4963 138.794 42.1139 138.794C41.9864 138.794 41.7881 138.751 41.6748 138.694L41.4198 140.196ZM50.1203 137.689C51.8766 137.689 52.9814 136.839 52.9814 135.649C52.9814 134.7 52.1315 134.105 51.2959 134.006C52.1457 133.865 52.8681 133.185 52.8681 132.391C52.8681 131.216 51.7491 130.508 49.9361 130.508C48.8597 130.508 48.0098 130.933 47.415 131.598L48.2506 132.604C48.6897 132.094 49.2704 131.867 49.9786 131.867C50.6727 131.867 51.1542 132.137 51.1542 132.618C51.1542 133.128 50.7435 133.397 49.9786 133.397H48.7322V134.729H50.007C50.701 134.729 51.2675 134.884 51.2675 135.508C51.2675 136.003 50.8426 136.329 50.0778 136.329C49.3129 136.329 48.6047 136.06 48.1373 135.578L47.33 136.598C47.9249 137.264 48.8597 137.689 50.1203 137.689ZM54.1627 130.678V137.519H57.3638C58.9643 137.519 59.7858 136.485 59.7858 135.295C59.7858 134.091 58.9926 133.071 57.3638 133.071H55.8624V130.678H54.1627ZM57.1513 134.459C57.732 134.459 58.0437 134.828 58.0437 135.295C58.0437 135.777 57.732 136.131 57.1513 136.131H55.8624V134.459H57.1513ZM62.5699 137.519L63.6889 135.125H64.7228V137.519H66.4225V130.678H63.1648C61.6068 130.678 60.7569 131.669 60.7569 132.887C60.7569 134.034 61.4085 134.686 62.0459 134.898L60.672 137.519H62.5699ZM63.3773 133.737C62.7965 133.737 62.4849 133.383 62.4849 132.887C62.4849 132.42 62.8107 132.066 63.3773 132.066H64.7228V133.737H63.3773ZM75.1202 137.519V130.678H72.9531L71.5367 134.488L70.1345 130.678H67.9532V137.519H69.6529V133.369L71.1684 137.519H71.9049L73.4347 133.369V137.519H75.1202ZM81.2704 137.519L83.4658 133.51V137.519H85.1797V130.678H83.4375L81.3271 134.53V130.678H79.6274V137.519H81.2704ZM95.5188 137.519L93.2809 133.751L95.448 130.678H93.465L91.3829 133.78V130.678H89.6832V137.519H91.3829V135.847L92.1053 134.842L93.5217 137.519H95.5188ZM98.9317 137.689C100.971 137.689 102.034 136.017 102.034 134.091C102.034 132.179 100.971 130.508 98.9317 130.508C96.9205 130.508 95.844 132.179 95.844 134.091C95.844 136.017 96.9205 137.689 98.9317 137.689ZM98.9317 136.187C98.0252 136.187 97.6145 135.224 97.6145 134.091C97.6145 132.972 98.0252 132.009 98.9317 132.009C99.8666 132.009 100.277 132.972 100.277 134.091C100.277 135.224 99.8666 136.187 98.9317 136.187ZM102.687 137.689C104.302 137.689 105.166 136.839 105.378 134.36L105.562 132.165H107.049V137.519H108.763V130.678H104.018L103.692 134.19C103.523 135.89 103.197 136.258 102.687 136.258V137.689ZM109.769 137.689C111.383 137.689 112.247 136.839 112.46 134.36L112.644 132.165H114.131V137.519H115.845V130.678H111.1L110.774 134.19C110.604 135.89 110.279 136.258 109.769 136.258V137.689ZM120.208 137.689C121.128 137.689 122.049 137.335 122.658 136.669L121.879 135.649C121.497 136.074 120.873 136.315 120.392 136.315C119.358 136.315 118.805 135.578 118.735 134.644H123.026V134.162C123.026 132.037 121.964 130.508 120.08 130.508C118.182 130.508 117.021 132.108 117.021 134.091C117.021 136.244 118.281 137.689 120.208 137.689ZM121.383 133.482H118.735C118.763 132.774 119.103 131.882 120.052 131.882C121.043 131.882 121.355 132.774 121.383 133.482ZM128.572 130.678H124.153V137.519H125.852V132.165H128.572V130.678ZM134.829 137.519V132.93C134.829 131.173 133.654 130.508 132.167 130.508C131.288 130.508 130.255 130.805 129.532 131.499L130.17 132.661C130.679 132.165 131.26 131.924 131.855 131.924C132.662 131.924 133.116 132.377 133.116 133.114V134.006C132.747 133.482 132.025 133.199 131.317 133.199C130.24 133.199 129.206 133.921 129.206 135.423C129.206 136.881 130.24 137.689 131.317 137.689C132.011 137.689 132.733 137.377 133.116 136.839V137.519H134.829ZM131.968 136.541C131.331 136.541 130.906 136.102 130.906 135.451C130.906 134.799 131.331 134.346 131.968 134.346C132.436 134.346 132.889 134.601 133.116 135.012V135.89C132.889 136.301 132.436 136.541 131.968 136.541ZM143.519 137.519V130.678H141.352L139.936 134.488L138.534 130.678H136.352V137.519H138.052V133.369L139.568 137.519H140.304L141.834 133.369V137.519H143.519ZM146.011 134.658L147.455 134.19C147.328 134.049 147.229 133.794 147.229 133.567C147.229 132.335 149.197 131.938 149.197 130.069C149.197 128.836 148.234 127.93 146.676 127.93C145.699 127.93 144.792 128.312 144.155 129.049L145.104 130.239C145.43 129.828 145.841 129.587 146.365 129.587C146.974 129.587 147.299 129.984 147.299 130.423C147.299 131.499 145.6 131.797 145.6 133.411C145.6 133.921 145.741 134.346 146.011 134.658ZM146.69 137.675C147.285 137.675 147.781 137.179 147.781 136.584C147.781 135.989 147.285 135.479 146.69 135.479C146.081 135.479 145.586 135.989 145.586 136.584C145.586 137.179 146.081 137.675 146.69 137.675Z" fill="#111111"/>
<path d="M207.961 244.262V243.009H206.73V244.262V245.514V246.763H205.501V245.514V244.262V243.009V241.76H204.269H203.037V243.009V244.262V245.514H201.808V244.262V243.009V241.76V240.508H200.577H199.345V241.76V243.009V244.262V245.514H198.116V244.262V243.009V241.76V240.508V239.256V238.006V236.754V235.502V234.252H196.884H195.653V235.502V236.754V238.006V239.256V240.508V241.76V243.009V244.262V245.514V246.763V248.015H194.424V246.763H193.192V245.514H191.96H190.731V246.763V248.015H191.96V249.268H193.192V250.517V251.769H194.424V253.021V254.271H195.653V255.523V256.775H196.884V258.025V259.277H198.116H199.345H200.577H201.808H203.037H204.269H205.501H206.73V258.025V256.775H207.961V255.523V254.271V253.021H209.193V251.769V250.517V249.268V248.015V246.763V245.514V244.262H207.961Z" fill="white"/>
<path d="M209.193 243.009H207.961V244.261H209.193V243.009Z" fill="black"/>
<path d="M204.27 240.508H203.038H201.809V241.76V243.009V244.262V245.514H203.038V244.262V243.009V241.76H204.27H205.501V240.508H204.27Z" fill="black"/>
<path d="M206.73 241.76H205.501V243.009V244.261V245.514V246.763H206.73V245.514V244.261V243.009H207.961V241.76H206.73Z" fill="black"/>
<path d="M191.961 244.261H190.732H189.5V245.514V246.763V248.015H190.732V246.763V245.514H191.961H193.192V244.261H191.961Z" fill="black"/>
<path d="M191.963 248.015H190.731V249.268H191.963V248.015Z" fill="black"/>
<path d="M191.96 249.268V250.517V251.769H193.192V250.517V249.268H191.96Z" fill="black"/>
<path d="M209.193 244.261V245.514V246.763V248.015V249.267V250.517V251.769V253.021H210.422V251.769V250.517V249.267V248.015V246.763V245.514V244.261H209.193Z" fill="black"/>
<path d="M193.192 251.769V253.021V254.271H194.424V253.021V251.769H193.192Z" fill="black"/>
<path d="M194.424 254.271V255.523V256.775H195.653V255.523V254.271H194.424Z" fill="black"/>
<path d="M207.961 253.021V254.271V255.523V256.775H209.193V255.523V254.271V253.021H207.961Z" fill="black"/>
<path d="M200.578 239.256H199.346V238.006V236.754V235.502V234.252H198.117V235.502V236.754V238.006V239.256V240.508V241.76V243.01V244.262V245.514H199.346V244.262V243.01V241.76V240.508H200.578H201.809V239.256H200.578Z" fill="black"/>
<path d="M194.424 234.252V235.502V236.754V238.006V239.256V240.508V241.76V243.009V244.262V245.514H193.192V246.763H194.424V248.015H195.653V246.763V245.514V244.262V243.009V241.76V240.508V239.256V238.006V236.754V235.502V234.252H194.424Z" fill="black"/>
<path d="M196.885 233H195.653V234.252H196.885H198.116V233H196.885Z" fill="black"/>
<path d="M206.73 256.775V258.025V259.277H205.501H204.269H203.038H201.809H200.577H199.345H198.116H196.885V258.025V256.775H195.653V258.025V259.277V260.529H196.885H198.116H199.345H200.577H201.809H203.038H204.269H205.501H206.73H207.962V259.277V258.025V256.775H206.73Z" fill="black"/>
</g>
<defs>
<filter id="filter0_d" x="-12.4834" y="-14.7541" width="277.967" height="536.459" filterUnits="userSpaceOnUse" color-interpolation-filters="sRGB">
<feFlood flood-opacity="0" result="BackgroundImageFix"/>
<feColorMatrix in="SourceAlpha" type="matrix" values="0 0 0 0 0 0 0 0 0 0 0 0 0 0 0 0 0 0 127 0"/>
<feOffset/>
<feGaussianBlur stdDeviation="14.1639"/>
<feColorMatrix type="matrix" values="0 0 0 0 0 0 0 0 0 0 0 0 0 0 0 0 0 0 0.09 0"/>
<feBlend mode="normal" in2="BackgroundImageFix" result="effect1_dropShadow"/>
<feBlend mode="normal" in="SourceGraphic" in2="effect1_dropShadow" result="shape"/>
</filter>
<clipPath id="clip0">
<rect width="252" height="506.361" fill="white" transform="translate(0.5)"/>
</clipPath>
</defs>
</svg>
