<svg width="290" height="170" viewBox="0 0 290 170" fill="none" xmlns="http://www.w3.org/2000/svg">
<path d="M268.59 80.9207L267.2 77.5588C268.966 76.3231 269.444 75.2621 270.09 73.8838L273.826 74.3156L274.651 68.0587L271.032 67.5834C270.748 65.9705 270.145 64.6056 269.282 63.3664L271.486 60.4828L266.453 56.6467L264.168 59.5679C262.738 59.0457 261.651 58.6347 259.527 59.0052L258.137 55.6433L252.304 58.0556L253.694 61.4175C251.929 62.6552 251.449 63.7142 250.806 65.0936L247.125 64.6393L246.269 70.9091L249.866 71.3932C250.131 72.8821 250.668 74.2743 251.605 75.615L249.379 78.5074L254.383 82.3537L256.722 79.41C258.151 79.9322 259.242 80.3443 261.364 79.9699L262.755 83.3338L268.59 80.9207Z" stroke="#BBCCF9" stroke-miterlimit="10" stroke-linejoin="round"/>
<path d="M262.055 73.3765C264.203 72.4884 265.224 70.0273 264.336 67.8795C263.447 65.7318 260.986 64.7107 258.839 65.5989C256.691 66.487 255.67 68.9481 256.558 71.0959C257.446 73.2436 259.907 74.2647 262.055 73.3765Z" stroke="#BBCCF9" stroke-miterlimit="10" stroke-linejoin="round"/>
<path d="M220.956 22.6525L222.029 20.2995C223.527 20.6176 224.311 20.3517 225.34 20.0188L226.927 22.1688L230.579 19.5629L229.07 17.4523C229.77 16.5222 230.187 15.5468 230.412 14.4973L232.98 14.2441L232.529 9.76893L229.903 9.99878C229.483 9.002 229.169 8.23765 227.947 7.31397L229.019 4.96101L224.936 3.1004L223.864 5.45336C222.365 5.13663 221.582 5.4011 220.553 5.73601L219.004 3.60337L215.331 6.19933L216.824 8.30319C216.179 9.16302 215.717 10.1173 215.474 11.2544L212.892 11.5008L213.321 15.9661L215.985 15.7536C216.409 16.7508 216.723 17.5166 217.946 18.4389L216.874 20.7918L220.956 22.6525Z" stroke="#BBCCF9" stroke-miterlimit="10" stroke-linejoin="round"/>
<path d="M221.706 15.599C223.209 16.284 224.983 15.6208 225.668 14.1176C226.353 12.6144 225.69 10.8405 224.187 10.1554C222.683 9.47039 220.909 10.1336 220.224 11.6368C219.539 13.14 220.203 14.9139 221.706 15.599Z" stroke="#BBCCF9" stroke-miterlimit="10" stroke-linejoin="round"/>
<path d="M15.3143 123.091L16.8229 119.78C18.9311 120.228 20.0333 119.854 21.4815 119.386L23.7146 122.41L28.8513 118.744L26.7294 115.775C27.7141 114.466 28.3002 113.094 28.617 111.618L32.229 111.262L31.5953 104.966L27.9011 105.289C27.3101 103.887 26.8684 102.812 25.1484 101.512L26.657 98.2019L20.9135 95.5844L19.4049 98.8946C17.2958 98.449 16.1944 98.8211 14.7473 99.2922L12.5678 96.292L7.40049 99.944L9.50136 102.904C8.59401 104.113 7.94285 105.456 7.60225 107.056L3.96912 107.402L4.57219 113.684L8.32002 113.385C8.91762 114.788 9.35849 115.865 11.0793 117.163L9.57073 120.473L15.3143 123.091Z" stroke="#BBCCF9" stroke-miterlimit="10" stroke-linejoin="round"/>
<path d="M16.3692 113.166C18.484 114.13 20.9796 113.197 21.9433 111.082C22.9071 108.967 21.974 106.471 19.8593 105.508C17.7446 104.544 15.249 105.477 14.2852 107.592C13.3215 109.706 14.2545 112.202 16.3692 113.166Z" stroke="#BBCCF9" stroke-miterlimit="10" stroke-linejoin="round"/>
<rect x="63.1157" y="19.2773" width="175.291" height="118.745" rx="6.86667" fill="#EAF5FF"/>
<rect x="67.6318" y="26.6094" width="165.032" height="102.652" fill="white"/>
<path fill-rule="evenodd" clip-rule="evenodd" d="M190.713 37.5342H221.146V63.9095H190.713V37.5342Z" stroke="#BBCCF9" stroke-miterlimit="10" stroke-linejoin="round"/>
<path d="M198.829 40.5776V33.4766" stroke="#BBCCF9" stroke-miterlimit="10" stroke-linejoin="round"/>
<path d="M213.031 40.5776V33.4766" stroke="#BBCCF9" stroke-miterlimit="10" stroke-linejoin="round"/>
<path fill-rule="evenodd" clip-rule="evenodd" d="M196.8 51.7363H202.886V57.8229H196.8V51.7363Z" stroke="#BBCCF9" stroke-miterlimit="10" stroke-linejoin="round"/>
<path d="M208.973 45.6494V57.8226" stroke="#BBCCF9" stroke-miterlimit="10" stroke-linejoin="round"/>
<path fill-rule="evenodd" clip-rule="evenodd" d="M202.887 45.6494H215.06V57.8226H202.887V45.6494Z" stroke="#BBCCF9" stroke-miterlimit="10" stroke-linejoin="round"/>
<path d="M202.887 51.7363H215.06" stroke="#BBCCF9" stroke-miterlimit="10" stroke-linejoin="round"/>
<rect x="130.862" y="138.016" width="40.6483" height="30.1099" fill="#D4EAFF"/>
<path d="M153.526 39.9199H122.655V42.2066H153.526V39.9199Z" fill="#AAD5FB"/>
<path d="M174.34 45.9043H114.08V47.2182H174.34V45.9043Z" fill="#AAD5FB"/>
<path d="M140.862 48.582H114.08V49.896H140.862V48.582Z" fill="#AAD5FB"/>
<circle cx="116.49" cy="58.8758" r="2.40898" fill="#AAD5FB"/>
<path d="M154.585 56.9053H123.715V58.2192H154.585V56.9053Z" fill="#AAD5FB"/>
<path d="M137.435 59.46H123.715V60.7739H137.435V59.46Z" fill="#AAD5FB"/>
<circle cx="116.49" cy="68.073" r="2.40898" fill="#AAD5FB"/>
<circle cx="116.49" cy="68.0725" r="1.09499" fill="#AAD5FB"/>
<path d="M160.943 66.1025H123.715V67.4165H160.943V66.1025Z" fill="#AAD5FB"/>
<path d="M146.49 68.7295H123.715V70.0434H146.49V68.7295Z" fill="#AAD5FB"/>
<circle cx="116.49" cy="77.2703" r="2.40898" fill="#AAD5FB"/>
<path d="M139.719 75.2998H123.715V76.6137H139.719V75.2998Z" fill="#AAD5FB"/>
<path d="M178.132 75.2988H144.522V76.6128H178.132V75.2988Z" fill="#AAD5FB"/>
<path d="M155.724 77.9268H123.715V79.2407H155.724V77.9268Z" fill="#AAD5FB"/>
<circle cx="116.49" cy="86.4686" r="2.40898" fill="#AAD5FB"/>
<path d="M146.052 84.498H123.715V85.812H146.052V84.498Z" fill="#AAD5FB"/>
<path d="M149.555 87.126H123.715V88.4399H149.555V87.126Z" fill="#AAD5FB"/>
<path d="M180.107 105.973H122.655V108.259H180.107V105.973Z" fill="#AAD5FB"/>
<path d="M174.34 111.957H114.08V113.271H174.34V111.957Z" fill="#AAD5FB"/>
<path d="M160.519 114.635H114.08V115.949H160.519V114.635Z" fill="#AAD5FB"/>
<circle cx="116.49" cy="124.929" r="2.40898" fill="#AAD5FB"/>
<path d="M171.511 122.958H123.715V124.272H171.511V122.958Z" fill="#AAD5FB"/>
<path d="M155.724 125.513H123.715V126.827H155.724V125.513Z" fill="#AAD5FB"/>
<rect x="11.5225" y="168.125" width="278.478" height="0.930574" fill="#D4EAFF"/>
<path d="M192.799 82.0837L183.418 92.5786L234.486 139.361L244.085 128.314L192.799 82.0837Z" fill="#E8178A" stroke="#9A0F5B"/>
<path d="M244.007 128.303L234.613 139.41L239.579 143.84L249.302 133.008L244.007 128.303Z" fill="#B80F6C" stroke="#9A0F5B"/>
<path d="M177.031 77.4209L183.663 92.6382L192.897 82.124L177.031 77.4209Z" fill="#F8FAFF" stroke="#9A0F5B"/>
<path d="M184.401 79.4424L180.136 84.5462L176.801 76.8936L184.401 79.4424Z" fill="#333333" stroke="#9A0F5B"/>
<path d="M186.602 89.0547L237.612 135.486" stroke="#9A0F5B"/>
<path d="M189.794 85.5693L240.793 132.215" stroke="#9A0F5B"/>
<path d="M224.324 160.644L224.136 163.962C224.136 163.962 222.91 164.46 221.218 163.913L221.209 159.958L224.324 160.644Z" fill="#FFBE9D"/>
<path d="M224.787 163.693C224.447 162.708 222.871 163.814 221.791 163.567C221.791 163.567 221.143 162.673 220.619 162.702C220.426 162.713 219.747 163.15 218.894 163.708C218.756 163.797 218.615 163.891 218.468 163.986C218.367 164.052 218.263 164.121 218.16 164.187C217.99 164.3 217.82 164.412 217.647 164.521C217.581 164.564 217.517 164.604 217.451 164.644C217.293 164.745 217.134 164.845 216.979 164.943C216.031 165.532 215.136 166.029 214.614 166.121C213.223 166.366 213.48 167.389 213.725 167.911C213.969 168.434 224.781 167.874 224.781 167.874" fill="#0E0E30"/>
<path d="M224.674 112.288C224.674 112.288 226.017 114.93 226.405 116.902C227.022 120.034 226.404 123.244 226.404 123.244L225.398 161.068H218.047C218.047 161.068 216.367 117.477 217.176 111.843" fill="#464552"/>
<mask id="mask0" mask-type="alpha" maskUnits="userSpaceOnUse" x="216" y="111" width="11" height="51">
<path d="M224.674 112.288C224.674 112.288 226.017 114.93 226.405 116.902C227.022 120.034 226.404 123.244 226.404 123.244L225.398 161.068H218.047C218.047 161.068 216.367 117.477 217.176 111.843" fill="#464552"/>
</mask>
<g mask="url(#mask0)">
<path fill-rule="evenodd" clip-rule="evenodd" d="M228.454 104.831C228.454 104.831 228.869 112.253 227.649 118.395C226.207 121.217 224.656 125.196 224.656 125.196C224.656 125.196 222.977 127.83 222.861 131.504C222.678 138.165 224.835 143.183 223.694 148.35C222.552 153.518 223.312 162.529 223.312 162.529L229.238 161.139C229.238 161.139 223.68 137.844 227.765 132.085C231.851 126.326 236.805 121.528 237.697 118.613C238.601 115.678 228.454 104.831 228.454 104.831Z" fill="#363548"/>
</g>
<path d="M218.119 157.054L219.044 160.247C219.044 160.247 218.053 161.124 216.275 161.17L214.953 157.442L218.119 157.054Z" fill="#FFBE9D"/>
<path d="M219.564 159.791C218.921 158.971 217.793 160.531 216.692 160.65C216.692 160.65 215.787 160.017 215.301 160.216C215.123 160.289 214.623 160.924 213.999 161.73C213.898 161.859 213.795 161.995 213.688 162.132C213.614 162.228 213.538 162.327 213.462 162.423C213.338 162.585 213.214 162.746 213.086 162.906C213.038 162.968 212.991 163.027 212.942 163.086C212.825 163.233 212.708 163.38 212.593 163.523C211.89 164.389 211.206 165.152 210.743 165.409C209.508 166.094 210.084 166.977 210.487 167.392C210.889 167.806 220.924 163.745 220.924 163.745" fill="#0E0E30"/>
<path d="M210.464 117.523C206.224 127.939 206.148 129.042 205.449 134.125C204.732 139.341 214.07 158.777 214.07 158.777L219.936 156.821C219.936 156.821 215.106 137.326 215.429 134.909C216.023 130.464 221.156 122.88 221.156 122.88C221.156 122.88 223.593 120.951 224.123 118.39C224.654 115.829 223.488 113.146 223.488 113.146" fill="#464552"/>
<path d="M217.175 129.904C218.804 126.325 221.157 122.88 221.157 122.88C221.157 122.88 223.594 120.952 224.125 118.391" stroke="#47018D" stroke-width="0.324139" stroke-miterlimit="10" stroke-linecap="round" stroke-linejoin="round"/>
<path d="M226.851 112.746C226.851 112.746 228.815 103.429 227.986 101.84C227.158 100.25 222.459 94.084 221.684 93.1284C219.205 90.0651 217.397 89.5262 217.397 89.5262L225.196 114.743L226.851 112.746Z" fill="#3C87CA"/>
<path fill-rule="evenodd" clip-rule="evenodd" d="M190.986 97.672C190.986 97.672 190.347 96.2469 190.057 95.5866C189.966 95.3691 189.849 95.1601 189.698 94.9759C189.31 94.471 188.543 93.4855 188.543 93.4855L188.182 94.0419C188.182 94.0419 188.541 94.6526 188.754 95.0222C188.861 95.2071 188.908 95.4252 188.874 95.6283C188.828 95.9451 188.779 96.3591 188.779 96.3591L190.986 97.672Z" fill="#FEB19E"/>
<path fill-rule="evenodd" clip-rule="evenodd" d="M187.505 98.4204C187.278 98.3022 187.067 98.1513 186.882 97.9919C186.548 97.6888 185.992 97.2107 185.789 97.0435C185.743 97.0037 185.697 96.9638 185.659 96.9077C185.369 96.604 184.24 95.4616 184.24 95.4616C184.24 95.4616 184.362 95.4355 184.493 95.3931C184.686 95.3578 184.883 95.4035 185.021 95.5231C185.299 95.7621 185.736 96.169 185.985 96.3761C186.077 96.4558 186.188 96.5433 186.315 96.5982C186.524 96.7085 186.87 96.898 186.87 96.898C186.87 96.898 186.306 96.2579 186.016 95.9542C185.922 95.834 185.827 95.7138 185.759 95.5852C185.611 95.3037 185.329 94.8053 185.172 94.4997C185.094 94.3468 185.075 94.1607 185.173 94.0053C185.253 93.842 185.375 93.6376 185.49 93.4495C185.53 93.3679 185.624 93.3097 185.738 93.3C185.853 93.2902 185.961 93.3372 186.01 93.4175C186.283 93.7539 186.68 94.2424 186.954 94.5788C187.161 94.827 187.413 95.0745 187.688 95.2731C188.139 95.6069 188.836 96.1072 189.287 96.441C189.398 96.5285 189.54 96.5507 189.663 96.5246C189.785 96.4985 189.905 96.4319 189.961 96.3176C190.092 96.0968 190.222 95.8761 190.222 95.8761L191.394 97.8688C191.394 97.8688 191.604 98.5141 191.131 99.1208C190.717 99.6537 190.271 99.9358 190.271 99.9358C190.271 99.9358 188.315 98.8704 187.505 98.4204Z" fill="#FEB19E"/>
<path d="M211.109 77.6089L213.372 88.9049L209.409 90.172L208.552 87.5162C208.552 87.5162 206.95 88.3052 206.093 86.8541C205.547 85.9266 203.544 78.1752 203.544 78.1752L211.109 77.6089Z" fill="#FEB19E"/>
<path d="M203.485 76.2159C204.9 75.7026 205.322 76.5298 205.986 76.4053C206.327 76.3436 207.797 73.9716 210.912 75.0824C212.228 75.5539 212.188 77.183 212.189 77.1886C212.189 77.1886 213.95 77.4724 214.159 79.2548C214.368 81.0372 213.201 84.0126 213.817 86.858C213.817 86.858 210.37 88.1357 208.474 85.4903L207.424 83.9184C207.424 83.9184 208.329 83.5123 208.014 82.7816C207.58 81.7734 206.768 81.9611 206.296 82.5904L205.111 80.9295C205.111 80.9295 203.596 80.6693 202.991 79.8495C202.421 79.0772 201.492 76.9344 203.485 76.2159Z" fill="#151515"/>
<path d="M225.735 115.35C226.143 115.402 227.657 114.94 227.556 114.541C226.519 110.437 222.708 93.9577 220.037 91.3118C217.938 89.2296 216.025 88.7009 213.021 89.0954C211.267 89.3245 209.928 89.9598 209.293 90.249C209.152 90.3135 208.56 90.719 208.402 90.8389C207.754 91.3276 205.464 93.1729 202.609 96.874C199.214 101.273 197.689 102.934 197.689 102.934L192.059 97.6455L189.198 100.021C189.198 100.021 195.429 109.891 197.085 109.715C198.74 109.54 206.194 102.952 206.194 102.952C206.194 102.952 208.304 107.911 208.578 112.449C208.856 117.083 209.151 117.183 209.151 117.183C209.151 117.183 213.251 120.243 219.503 117.137C223.67 115.072 224.184 115.35 225.735 115.35Z" fill="#5C9FDB"/>
<path d="M208.281 91.0463L214.933 89.2641L214.004 88.3704L208.251 89.9119L208.281 91.0463Z" fill="#3C87CA"/>
<path d="M39.9312 161.704H61.3746" stroke="#5C9FDB" stroke-width="2" stroke-linecap="round" stroke-linejoin="round"/>
<path d="M43.1636 151.252H64.6071" stroke="#5C9FDB" stroke-width="2" stroke-linecap="round" stroke-linejoin="round"/>
<path d="M46.2886 140.691H67.7321" stroke="#5C9FDB" stroke-width="2" stroke-linecap="round" stroke-linejoin="round"/>
<path d="M49.3057 130.348H70.7491" stroke="#5C9FDB" stroke-width="2" stroke-linecap="round" stroke-linejoin="round"/>
<path d="M52.5386 119.896H73.9821" stroke="#5C9FDB" stroke-width="2" stroke-linecap="round" stroke-linejoin="round"/>
<path d="M55.4482 109.228H76.8917" stroke="#5C9FDB" stroke-width="2" stroke-linecap="round" stroke-linejoin="round"/>
<path d="M57.8262 98.7754H79.2697" stroke="#5C9FDB" stroke-width="2" stroke-linecap="round" stroke-linejoin="round"/>
<path d="M60.0278 88.3232H81.4713" stroke="#5C9FDB" stroke-width="2" stroke-linecap="round" stroke-linejoin="round"/>
<path d="M63.2603 77.7627H84.7037" stroke="#5C9FDB" stroke-width="2" stroke-linecap="round" stroke-linejoin="round"/>
<path d="M68.5476 69.2598L41.1792 167.748" stroke="#5C9FDB" stroke-width="2" stroke-linecap="round" stroke-linejoin="round"/>
<path d="M57.5615 168.133L85.5082 69.0664L113.069 168.133" stroke="#5C9FDB" stroke-width="2" stroke-linecap="round" stroke-linejoin="round"/>
<path fill-rule="evenodd" clip-rule="evenodd" d="M44.6372 119.138L42.168 123.445L39.7804 121.056L41.617 117.239L44.6372 119.138Z" fill="#F8BEBC"/>
<path fill-rule="evenodd" clip-rule="evenodd" d="M64.0029 122.505L63.7172 126.016L60.5134 126.343L60.4521 122.117L64.0029 122.505Z" fill="#F8BEBC"/>
<path fill-rule="evenodd" clip-rule="evenodd" d="M37.2294 123.567C37.0865 123.424 37.0661 123.179 37.1885 123.016C37.6375 122.404 38.6578 121.036 39.2496 120.22C39.3517 120.077 39.5353 119.975 39.719 119.954C39.9027 119.934 40.0863 120.016 40.2088 120.158C40.7189 120.71 41.4944 121.526 41.923 121.975C42.1066 122.159 42.3923 122.2 42.5964 122.057C42.7596 121.955 42.9841 121.934 43.1678 121.996C43.3514 122.077 43.4943 122.24 43.5351 122.445C43.6779 123.077 43.882 123.935 44.1677 124.731C44.4126 125.445 45.0248 126.65 45.1268 126.915C45.3309 127.425 46.086 127.895 46.6574 128.201C47.0655 128.405 47.29 128.834 47.2492 129.283C47.2288 129.446 47.2083 129.589 47.2083 129.711C47.2083 129.793 47.1675 129.854 47.1063 129.895C47.0451 129.936 46.9635 129.956 46.9022 129.956C46.2288 129.875 44.5759 129.65 43.8208 129.14C41.4332 127.588 38.1681 124.465 37.2294 123.567Z" fill="#0E0E30"/>
<path fill-rule="evenodd" clip-rule="evenodd" d="M60.105 129.854C60.0029 129.854 59.8805 129.813 59.7989 129.731C59.7172 129.65 59.6764 129.547 59.6764 129.425C59.6764 128.69 59.6764 127.118 59.656 126.139C59.656 125.934 59.758 125.751 59.9213 125.628C60.0845 125.506 60.2886 125.485 60.4927 125.547C61.0845 125.73 61.8804 125.996 62.4518 126.179C62.6558 126.241 62.8803 126.22 63.064 126.139C63.2476 126.057 63.3905 125.873 63.4517 125.669C63.5333 125.424 63.717 125.24 63.9619 125.159C64.2068 125.077 64.4721 125.118 64.6761 125.261C65.2475 125.669 66.023 126.2 66.6964 126.649C67.3086 127.078 67.8596 127.425 68.1045 127.588C68.5738 127.874 69.635 128.159 70.3697 128.343C70.839 128.466 71.1655 128.894 71.1655 129.384C71.1655 129.445 71.1655 129.486 71.1655 129.527C71.1655 129.609 71.1451 129.67 71.0839 129.731C71.0227 129.792 70.9615 129.813 70.8798 129.813C69.3697 129.813 61.962 129.833 60.105 129.854Z" fill="#0E0E30"/>
<path fill-rule="evenodd" clip-rule="evenodd" d="M66.0848 78.2314L68.6152 99.4195C68.6152 99.4195 68.7989 101.869 67.9622 104.563C66.044 110.728 64.5747 120.628 64.3298 123.343C64.3298 123.343 62.9217 123.465 61.7381 123.322C60.5341 123.179 58.7587 123.669 58.7587 123.669C58.7587 123.669 58.6566 114.79 59.5545 108.83C59.9015 106.543 60.6157 104.42 61.1259 103.094C61.4932 102.155 61.534 101.114 61.2687 100.154C59.779 94.9492 55.0446 78.4764 55.0446 78.4764L66.0848 78.2314Z" fill="#464552"/>
<mask id="mask1" mask-type="alpha" maskUnits="userSpaceOnUse" x="55" y="78" width="14" height="46">
<path fill-rule="evenodd" clip-rule="evenodd" d="M66.0848 78.2314L68.6152 99.4195C68.6152 99.4195 68.7989 101.869 67.9622 104.563C66.044 110.728 64.5747 120.628 64.3298 123.343C64.3298 123.343 62.9217 123.465 61.7381 123.322C60.5341 123.179 58.7587 123.669 58.7587 123.669C58.7587 123.669 58.6566 114.79 59.5545 108.83C59.9015 106.543 60.6157 104.42 61.1259 103.094C61.4932 102.155 61.534 101.114 61.2687 100.154C59.779 94.9492 55.0446 78.4764 55.0446 78.4764L66.0848 78.2314Z" fill="#B1191F"/>
</mask>
<g mask="url(#mask1)">
<path fill-rule="evenodd" clip-rule="evenodd" d="M73.6564 75.9248C73.6564 75.9248 64.963 82.4772 65.3712 87.6007C65.6773 91.479 67.065 96.0106 66.7793 100.726C66.6976 102.032 66.2691 104.318 64.7182 106.911C60.2286 114.423 60.3715 123.445 60.4531 123.424L79.5132 126.139" fill="#363548"/>
</g>
<path fill-rule="evenodd" clip-rule="evenodd" d="M63.5747 82.1918L57.371 101.624C57.371 101.624 57.2282 103.155 55.4527 105.258C53.6773 107.381 43.9228 120.832 43.9228 120.832C43.9228 120.832 42.5964 120.424 41.5556 119.71C40.4945 118.995 40.1067 118.036 40.1067 118.036C40.1067 118.036 43.0657 110.912 46.5145 105.768C47.9838 103.584 49.0041 102.114 49.7184 101.155C50.5755 99.9914 51.0857 98.6238 51.1877 97.1949C51.3714 95.0108 51.5958 91.6632 51.657 88.8463C51.7591 83.1512 52.8611 78.1094 52.8611 78.1094L63.5747 82.1918Z" fill="#363548"/>
<mask id="mask2" mask-type="alpha" maskUnits="userSpaceOnUse" x="40" y="78" width="24" height="43">
<path fill-rule="evenodd" clip-rule="evenodd" d="M63.5747 82.1918L57.371 101.624C57.371 101.624 57.2282 103.155 55.4527 105.258C53.6773 107.381 43.9228 120.832 43.9228 120.832C43.9228 120.832 42.5964 120.424 41.5556 119.71C40.4945 118.995 40.1067 118.036 40.1067 118.036C40.1067 118.036 43.0657 110.912 46.5145 105.768C47.9838 103.584 49.0041 102.114 49.7184 101.155C50.5755 99.9914 51.0857 98.6238 51.1877 97.1949C51.3714 95.0108 51.5958 91.6632 51.657 88.8463C51.7591 83.1512 52.8611 78.1094 52.8611 78.1094L63.5747 82.1918Z" fill="#5F25CC"/>
</mask>
<g mask="url(#mask2)">
<path fill-rule="evenodd" clip-rule="evenodd" d="M64.6356 82.8858C64.6356 82.8858 63.5133 81.804 59.1666 84.0085C54.8199 86.1926 53.0241 86.8459 53.0241 86.8459C53.0241 86.8459 52.5343 91.01 52.8608 94.9087C53.2077 99.0524 54.1261 100.91 51.6364 102.645C46.3918 106.319 45.4327 109.891 44.1471 114.933C42.8614 119.996 42.2492 121.751 42.2492 121.751L37.8617 118.893L46.9428 79.1504L65.7988 79.9465L64.6356 82.8858Z" fill="#464552"/>
</g>
<path fill-rule="evenodd" clip-rule="evenodd" d="M63.085 53.5527C63.085 53.5527 67.9419 58.4313 70.8805 61.3707C72.3294 62.82 74.0436 63.963 75.921 64.7183C79.6759 66.2492 85.8184 68.7395 85.8184 68.7395L85.2062 71.4952C85.2062 71.4952 78.7576 70.1888 74.1864 69.2702C71.2886 68.6987 68.5949 67.3923 66.3501 65.494C63.636 63.2078 60.2893 60.3909 60.2893 60.3909L63.085 53.5527Z" fill="#5C9FDB"/>
<mask id="mask3" mask-type="alpha" maskUnits="userSpaceOnUse" x="60" y="53" width="26" height="19">
<path fill-rule="evenodd" clip-rule="evenodd" d="M63.085 53.5527C63.085 53.5527 67.9419 58.4313 70.8805 61.3707C72.3294 62.82 74.0436 63.963 75.921 64.7183C79.6759 66.2492 85.8184 68.7395 85.8184 68.7395L85.2062 71.4952C85.2062 71.4952 78.7576 70.1888 74.1864 69.2702C71.2886 68.6987 68.5949 67.3923 66.3501 65.494C63.636 63.2078 60.2893 60.3909 60.2893 60.3909L63.085 53.5527Z" fill="#006CCB"/>
</mask>
<g mask="url(#mask3)">
<path fill-rule="evenodd" clip-rule="evenodd" d="M61.5343 51.3486C61.5343 51.3486 63.4933 56.0843 66.7584 60.7587C68.6155 63.4123 71.7377 65.8618 74.7375 66.7395C78.8393 67.9439 85.7165 70.5158 85.7165 70.5158L88.0225 67.7193L72.2275 58.3297L61.5343 51.3486Z" fill="#3C87CA"/>
</g>
<path fill-rule="evenodd" clip-rule="evenodd" d="M58.2285 52.7979C60.412 51.3282 64.0445 53.3082 65.7791 56.7987C67.8402 60.9628 67.7993 62.0855 67.3708 64.0451C66.228 69.1482 65.6158 71.4956 66.0239 75.0474C66.33 77.701 67.3912 83.1306 67.3912 83.1306C67.3912 83.1306 62.0854 82.5795 58.2489 83.8042C52.2289 85.7434 48.0658 81.7018 48.0658 81.7018C48.0658 81.7018 50.5351 78.15 52.7594 73.5368C55.494 67.8418 54.494 67.6785 54.8613 63.249C55.2083 58.8399 54.4328 55.3494 58.2285 52.7979Z" fill="#5C9FDB"/>
<mask id="mask4" mask-type="alpha" maskUnits="userSpaceOnUse" x="48" y="52" width="20" height="33">
<path fill-rule="evenodd" clip-rule="evenodd" d="M58.2285 52.7979C60.412 51.3282 64.0445 53.3082 65.7791 56.7987C67.8402 60.9628 67.7993 62.0855 67.3708 64.0451C66.228 69.1482 65.6158 71.4956 66.0239 75.0474C66.33 77.701 67.3912 83.1306 67.3912 83.1306C67.3912 83.1306 62.0854 82.5795 58.2489 83.8043C52.2289 85.7434 48.0658 81.7018 48.0658 81.7018C48.0658 81.7018 50.5351 78.15 52.7594 73.5368C55.494 67.8418 54.494 67.6785 54.8613 63.249C55.2083 58.8399 54.4328 55.3494 58.2285 52.7979Z" fill="#B1191F"/>
</mask>
<g mask="url(#mask4)">
<path fill-rule="evenodd" clip-rule="evenodd" d="M54.4324 52.9001C54.4324 52.9001 59.1464 53.4308 58.5138 58.2277C57.9832 62.2285 60.2687 63.739 63.8808 63.6778C69.2886 63.5757 57.2077 86.7437 57.2077 86.7437L68.7172 86.2947L69.1049 72.006L70.7783 57.1254L65.0848 48.8584L54.4324 52.9001Z" fill="#3C87CA"/>
</g>
<path d="M47.5148 43.2656C47.9841 42.8573 48.6168 42.6532 49.229 42.592C49.8412 42.5103 50.4738 42.5511 51.086 42.6532C51.6982 42.7348 52.3104 42.8573 52.9226 42.939C53.5348 43.0002 54.1266 43.0206 54.698 42.8981C55.2694 42.7757 55.8 42.5103 56.2898 42.1633C56.7795 41.8163 57.2285 41.408 57.6978 40.9998C58.1672 40.5915 58.6366 40.1629 59.2079 39.8159C59.3508 39.7342 59.4937 39.6526 59.6365 39.5709C59.7794 39.4893 59.963 39.428 60.1263 39.3668C60.3099 39.3056 60.4936 39.2852 60.7181 39.2852C60.9221 39.2852 61.167 39.3668 61.3711 39.5097L60.8813 40.1833C60.8201 40.1425 60.7589 40.1017 60.6773 40.1017C60.5752 40.0812 60.4732 40.1016 60.3507 40.1221C60.2283 40.1425 60.1059 40.1833 59.9834 40.2445C59.861 40.3058 59.7181 40.367 59.5957 40.4282C59.0855 40.714 58.6162 41.0814 58.1264 41.4489C57.6366 41.8367 57.1673 42.2245 56.6163 42.5715C56.351 42.7348 56.0653 42.8981 55.7592 43.0206C55.5959 43.0819 55.4531 43.1431 55.2898 43.1839C55.1266 43.2247 54.9837 43.2656 54.8205 43.286C54.1674 43.388 53.5348 43.3268 52.9226 43.2247C52.3104 43.1227 51.6982 42.9594 51.1064 42.8369C50.5146 42.7144 49.9024 42.6328 49.2902 42.6736C48.6372 42.7348 48.0249 42.8981 47.5148 43.2656Z" fill="#17013C"/>
<path fill-rule="evenodd" clip-rule="evenodd" d="M59.6768 52.2668C59.6768 52.2668 60.5747 53.4303 61.4522 53.859C62.391 54.3284 62.9215 53.7161 62.9215 53.7161L64.5337 50.7563C64.5337 50.7563 65.7377 51.4707 66.2683 51.042C66.9417 50.5317 67.4519 48.8783 67.5743 48.5109C67.5947 48.4701 67.6151 48.4293 67.6764 48.4293C67.7988 48.4089 68.0845 48.3272 68.2682 48.2864C68.3702 48.266 68.4518 48.1639 68.4314 48.0414C68.3498 47.5924 68.1457 46.4901 68.0641 46.1431C68.0641 46.1227 68.6151 44.4489 68.2682 43.3262C67.9417 42.2239 67.0438 41.6524 67.0438 41.6524L62.493 41.4482L60.2891 44.5917L60.4931 48.715L59.3095 51.8994L59.6768 52.2668Z" fill="#F8BEBC"/>
<mask id="mask5" mask-type="alpha" maskUnits="userSpaceOnUse" x="59" y="41" width="10" height="14">
<path fill-rule="evenodd" clip-rule="evenodd" d="M59.6768 52.2668C59.6768 52.2668 60.5747 53.4303 61.4522 53.859C62.391 54.3284 62.9215 53.7161 62.9215 53.7161L64.5337 50.7563C64.5337 50.7563 65.7377 51.4707 66.2683 51.042C66.9417 50.5317 67.4519 48.8783 67.5743 48.5109C67.5947 48.4701 67.6151 48.4293 67.6764 48.4293C67.7988 48.4089 68.0845 48.3272 68.2682 48.2864C68.3702 48.266 68.4518 48.1639 68.4314 48.0414C68.3498 47.5924 68.1457 46.4901 68.0641 46.1431C68.0641 46.1227 68.6151 44.4489 68.2682 43.3262C67.9417 42.2239 67.0438 41.6524 67.0438 41.6524L62.493 41.4482L60.2891 44.5917L60.4931 48.715L59.3095 51.8994L59.6768 52.2668Z" fill="#F8BEBC"/>
</mask>
<g mask="url(#mask5)">
<path fill-rule="evenodd" clip-rule="evenodd" d="M66.8198 50.9812C66.8198 50.9812 65.9423 51.8998 64.6975 50.9404C63.4527 50.0014 63.3098 49.4707 63.3098 49.4707C63.3098 49.4707 63.3914 51.2466 62.9221 52.4713C62.2691 54.2268 61.9222 54.982 61.9222 54.982L66.8198 50.9812Z" fill="#F8ABA3"/>
<path fill-rule="evenodd" clip-rule="evenodd" d="M67.7173 49.2877L67.3908 49.7775C67.3908 49.7775 67.0235 49.6959 66.7378 49.4509C66.35 49.1448 66.2276 48.7773 66.2276 48.7773C66.2276 48.7773 67.0439 49.3489 67.7173 49.2877Z" fill="#F6EDFC" stroke="#D6001C" stroke-width="0.452952" stroke-miterlimit="10" stroke-linecap="round" stroke-linejoin="round"/>
</g>
<path fill-rule="evenodd" clip-rule="evenodd" d="M58.0851 41.1016C61.0237 37.1008 64.9622 38.3255 65.9622 38.6113C69.1252 39.5298 69.5334 42.5509 69.513 44.1226C69.513 44.3676 69.3905 44.6125 69.2069 44.7758C69.0232 44.9391 68.7783 45.0208 68.513 45.0003C68.1253 44.9595 67.6151 44.8983 67.105 44.7962C66.5336 44.6942 65.9622 44.4492 65.4928 44.388C65.3908 44.3676 65.7785 44.0614 66.003 43.7756C66.3295 43.3674 66.554 42.8366 66.554 42.8366C66.554 42.8366 66.2683 43.6327 64.7173 44.3676C64.2684 44.5921 63.7786 45.5311 63.7786 45.5311C63.7786 45.5311 63.146 44.4696 62.4522 45.0003C62.2073 45.1841 62.1257 45.5923 62.1869 45.9189C62.3093 46.6946 63.044 46.6333 63.044 46.6537C62.7379 48.1234 62.4522 48.9603 61.7379 50.0014C60.5339 51.716 59.534 52.2876 59.534 52.2876C59.534 52.2876 58.3504 52.6754 57.1464 53.6144C55.4118 54.9412 54.0445 57.3294 54.0445 57.3294C54.0445 57.3294 53.5139 57.2069 52.8405 56.962C52.1671 56.717 51.5753 56.4721 51.5753 56.4721C51.5753 56.4721 52.5548 55.5535 52.9629 55.2065C53.3711 54.8595 54.4731 54.0226 54.4731 54.0226C54.4731 54.0226 52.9017 54.8391 52.3916 55.0432C51.8814 55.2473 50.3917 55.6148 50.3917 55.6148C50.3917 55.6148 49.7999 55.2473 49.555 55.0228C48.6571 54.1859 47.1674 53.0836 46.5552 50.6341C46.5348 50.5321 47.4123 51.2057 48.7591 51.3486C51.31 51.6956 53.9833 50.0626 53.9833 50.0626C53.9833 50.0626 50.4325 51.3282 48.0857 49.8789C46.5756 48.9399 46.045 48.1234 46.045 48.1234C46.045 48.1234 45.9634 47.6948 45.9634 47.4702C46.147 41.5098 50.657 43.0816 52.5344 43.6327C55.1261 44.3676 57.3708 42.1018 58.0851 41.1016Z" fill="#0E0E30"/>
<path fill-rule="evenodd" clip-rule="evenodd" d="M58.1055 59.9627C58.2075 59.6565 59.4523 57.8398 59.5748 56.2477C59.738 54.4514 58.7585 52.6143 58.7585 52.6143C58.7585 52.6143 53.7588 54.4105 52.0242 62.9225C51.9222 63.4532 51.7997 63.9023 51.7181 64.5555C51.1467 69.3524 51.6569 72.8225 56.7178 74.6596C61.3502 76.3334 67.9824 75.9864 67.9824 75.9864C67.9824 75.9864 67.5743 75.8231 67.3294 74.7617C67.1253 73.9452 67.9824 73.1287 67.9824 73.1287C67.9824 73.1287 63.4521 72.8837 59.9217 71.4957C56.3913 70.1076 55.9423 67.801 56.6158 63.6369C56.9015 61.9019 58.1055 59.9831 58.1055 59.9627Z" fill="#3C87CA"/>
<path fill-rule="evenodd" clip-rule="evenodd" d="M66.942 46.47C66.8399 46.4496 66.7787 46.3475 66.7991 46.2454C66.8195 46.1434 66.9216 46.0821 67.0236 46.1025C67.1052 46.123 67.2073 46.1434 67.3093 46.1638C67.4113 46.1842 67.4726 46.2863 67.4521 46.3883C67.4317 46.4904 67.3297 46.5516 67.2277 46.5312C67.1256 46.5108 67.0236 46.47 66.942 46.47Z" fill="#47018D"/>
<path d="M63.1459 53.4922C63.0642 53.4105 64.86 55.0639 65.8804 57.0847C67.1048 59.5342 68.1048 61.4326 67.3293 64.2086M68.0381 73.1699C67.834 73.1699 64.0741 72.8529 61.6957 72.0604M54.126 73.435C55.9218 74.9047 59.7175 75.5375 61.1052 75.7824C64.0642 76.2928 66.0232 76.0682 67.6558 76.0682" stroke="#47018D" stroke-width="0.452952" stroke-miterlimit="10" stroke-linecap="round" stroke-linejoin="round"/>
<path d="M58.7998 123.486C58.7794 123.486 58.8406 123.016 58.8406 122.914C58.8815 122.506 58.8815 122.118 58.8815 121.71C58.8815 120.485 58.7794 118.791 58.8611 117.546C59.0855 114.239 59.0651 110.728 60.1263 106.299C60.6773 104.033 61.9221 102.461 61.3711 100.052M62.0649 87.2334C61.5956 88.5602 58.5958 97.7866 58.0448 99.6441C57.5958 101.216 57.453 101.951 56.6571 103.38C55.9633 104.645 54.6572 106.217 53.6981 107.625M40.1887 118.015C40.6377 116.995 41.3111 115.178 41.8213 114.157C43.413 110.953 44.8007 108.176 46.923 105.278M52.9022 108.626C52.9022 108.626 52.0451 109.789 51.9635 109.891L52.9022 108.626ZM51.5554 110.422C51.0452 111.116 51.086 111.095 50.6371 111.667L51.5554 110.422Z" stroke="#47018D" stroke-width="0.452952" stroke-miterlimit="10" stroke-linecap="round" stroke-linejoin="round"/>
<path fill-rule="evenodd" clip-rule="evenodd" d="M68.1256 73.4146C68.1256 73.4146 69.3704 72.2307 69.9418 71.6796C70.1255 71.4959 70.3295 71.3325 70.554 71.2101C71.1458 70.8631 72.309 70.1895 72.309 70.1895L72.3906 70.9243C72.3906 70.9243 71.7784 71.3938 71.4111 71.6796C71.2274 71.8225 71.0846 72.0266 71.0234 72.2511C70.9213 72.5981 70.7785 73.0472 70.7785 73.0472L68.1256 73.4146Z" fill="#F8ABA3"/>
<path d="M46.025 49.6136C46.6576 49.981 47.3106 50.3076 48.0044 50.5526C48.6779 50.7975 49.3921 50.92 50.1063 50.92C50.8206 50.92 51.494 50.7567 52.147 50.4913C52.8001 50.226 53.4123 49.8585 54.0041 49.4707L54.4326 50.1851C53.7796 50.5321 53.0858 50.8587 52.3511 51.0833C51.6165 51.3078 50.841 51.4099 50.0859 51.3282C49.3309 51.267 48.5962 51.0425 47.9228 50.7363C47.2494 50.4301 46.6168 50.0218 46.025 49.6136Z" fill="#17013C"/>
<path d="M60.616 52.4712C61.3915 51.7568 61.8608 50.777 62.0649 49.7972C62.2894 48.797 62.2894 47.756 62.2077 46.7354H63.0444C62.9832 47.8172 62.8404 48.8991 62.473 49.9197C62.1057 50.9199 61.4731 51.8588 60.616 52.4712Z" fill="#17013C"/>
<path d="M66.4115 45.715C66.6359 45.6333 66.8604 45.5312 67.1257 45.5312C67.391 45.5312 67.6359 45.6129 67.8604 45.6945L67.7787 45.8783C67.5746 45.7558 67.3706 45.6537 67.1257 45.6333C66.8808 45.6129 66.6359 45.6537 66.4115 45.715Z" fill="#47018D"/>
<path d="M101.537 54.8311L90.8991 46.8138L50.82 98.6688L61.9959 106.847L101.537 54.8311Z" fill="#E8178A" stroke="#9D0F5D"/>
<path d="M61.9999 106.773L50.7833 98.7923L46.9985 103.825L57.9817 112.138L61.9999 106.773Z" fill="#B80F6C" stroke="#9D0F5D"/>
<path d="M104.688 39.5938L90.8619 47.0508L101.507 54.9274L104.688 39.5938Z" fill="#F8FAFF" stroke="#9D0F5D"/>
<path d="M103.365 46.7046L98.2147 43.086L105.167 39.3359L103.365 46.7046Z" fill="#333333" stroke="#9D0F5D"/>
<path d="M94.4736 49.5391L54.7209 101.311" stroke="#9D0F5D"/>
<path d="M98.0122 52.2734L58.0565 104.052" stroke="#9D0F5D"/>
<path fill-rule="evenodd" clip-rule="evenodd" d="M71.0232 75.7407C71.2884 75.7203 71.5537 75.6591 71.7986 75.5775C72.2476 75.4142 72.9822 75.1692 73.2475 75.0875C73.3087 75.0671 73.3699 75.0467 73.4312 75.0059C73.8393 74.8222 75.4106 74.1486 75.4106 74.1486C75.4106 74.1486 75.3086 74.0669 75.2066 73.9649C75.0433 73.8424 74.8392 73.8016 74.6556 73.8628C74.2883 73.9853 73.6965 74.2098 73.37 74.3119C73.2475 74.3527 73.1047 74.3935 72.9618 74.3935C72.7169 74.4139 72.3088 74.4548 72.3088 74.4548C72.3088 74.4548 73.1251 74.0465 73.5332 73.8628C73.6761 73.7812 73.8189 73.6995 73.9413 73.5975C74.2066 73.3729 74.6964 72.9851 74.9821 72.7401C75.125 72.6177 75.227 72.4339 75.2066 72.2298C75.2066 72.0257 75.1862 71.7603 75.1658 71.5154C75.1658 71.4133 75.1045 71.3113 75.0025 71.25C74.9005 71.1888 74.778 71.1888 74.6964 71.25C74.2883 71.4746 73.6965 71.8012 73.2883 72.0257C72.9822 72.189 72.6353 72.3319 72.2884 72.4135C71.717 72.5564 70.8395 72.7606 70.2681 72.9034C70.1252 72.9443 69.9824 72.9034 69.8804 72.8218C69.7783 72.7401 69.6967 72.6177 69.6967 72.4748C69.6763 72.189 69.6559 71.9032 69.6559 71.9032L67.656 73.4342C67.656 73.4342 67.1662 74.0057 67.3295 74.8426C67.4723 75.5775 67.758 76.0674 67.758 76.0674C67.758 76.0674 70.064 75.8428 71.0232 75.7407Z" fill="#F8BEBC"/>
<path d="M116.354 42.4204H115.365V39.6123L114.754 40.2349L114.193 39.6489L115.499 38.3486H116.354V42.4204Z" fill="#AAD5FB"/>
<path d="M117.484 42.4875C117.333 42.4875 117.203 42.4346 117.093 42.3288C116.987 42.223 116.934 42.0948 116.934 41.9442C116.934 41.7977 116.987 41.6716 117.093 41.5657C117.203 41.4559 117.333 41.4009 117.484 41.4009C117.63 41.4009 117.757 41.4559 117.862 41.5657C117.972 41.6716 118.027 41.7977 118.027 41.9442C118.027 42.0948 117.972 42.223 117.862 42.3288C117.757 42.4346 117.63 42.4875 117.484 42.4875Z" fill="#AAD5FB"/>
<path d="M117.233 108.183H114.407V107.389C115.208 106.669 115.709 106.199 115.908 105.979C116.108 105.755 116.207 105.547 116.207 105.356C116.207 105.23 116.163 105.126 116.073 105.045C115.984 104.963 115.868 104.923 115.725 104.923C115.387 104.923 115.096 105.067 114.852 105.356L114.278 104.727C114.649 104.276 115.137 104.05 115.743 104.05C116.175 104.05 116.525 104.17 116.793 104.41C117.066 104.646 117.202 104.957 117.202 105.344C117.202 105.629 117.105 105.914 116.909 106.199C116.718 106.479 116.374 106.854 115.878 107.322H117.233V108.183Z" fill="#AAD5FB"/>
<path d="M118.241 108.25C118.09 108.25 117.96 108.197 117.85 108.091C117.744 107.985 117.692 107.857 117.692 107.706C117.692 107.56 117.744 107.434 117.85 107.328C117.96 107.218 118.09 107.163 118.241 107.163C118.388 107.163 118.514 107.218 118.619 107.328C118.729 107.434 118.784 107.56 118.784 107.706C118.784 107.857 118.729 107.985 118.619 108.091C118.514 108.197 118.388 108.25 118.241 108.25Z" fill="#AAD5FB"/>
</svg>
