<svg width="287" height="37" viewBox="0 0 287 37" fill="none" xmlns="http://www.w3.org/2000/svg">
<path fill-rule="evenodd" clip-rule="evenodd" d="M18.5 36C28.165 36 36 28.165 36 18.5C36 8.83502 28.165 1 18.5 1C8.83502 1 1 8.83502 1 18.5C1 28.165 8.83502 36 18.5 36Z" stroke="#CCCCCC"/>
<path d="M25.4618 17.4799C25.4655 17.4746 25.4691 17.4692 25.4726 17.4637C25.9664 16.6878 26.3907 16.0042 26.7451 15.4135C27.227 14.6103 27.5525 13.9612 27.6469 13.5137C27.7299 13.1986 27.7477 12.8114 27.4944 12.5017C27.2448 12.1967 26.8583 12.125 26.5273 12.125H24.4531C24.1614 12.125 23.88 12.1949 23.6358 12.361C23.3978 12.5228 23.2306 12.7518 23.1194 13.0141L22.7754 13.7022L22.7686 13.7162C22.4943 14.3107 22.2097 14.8569 21.9153 15.3554C21.4827 16.0608 21.0563 16.6425 20.6374 17.1055C20.4221 17.3423 20.2819 17.4628 20.2074 17.5106C20.2072 17.4999 20.207 17.4885 20.207 17.4766V13.3984C20.207 13.0976 20.1687 12.7643 19.9936 12.514C19.7792 12.2079 19.4368 12.125 19.1445 12.125H15.875C15.6114 12.125 15.3703 12.2171 15.1737 12.3919C14.9728 12.5705 14.8476 12.8134 14.8476 13.0996C14.8476 13.4147 15.0324 13.6967 15.2078 13.9096C15.3539 14.087 15.4404 14.2279 15.4857 14.3337C15.4896 14.3427 15.4937 14.3516 15.4981 14.3603C15.6018 14.5678 15.6702 14.8233 15.6914 15.1373V18.1797C15.6914 18.2498 15.6896 18.3105 15.6866 18.3626C15.5638 18.2651 15.4043 18.1039 15.2073 17.8631C14.8143 17.3828 14.4108 16.7471 13.9993 15.9471L13.9993 15.9471L13.9971 15.9429C13.5412 15.0765 13.1536 14.188 12.8343 13.2771C12.733 12.9508 12.5897 12.638 12.3617 12.4308C12.1051 12.1976 11.769 12.125 11.4453 12.125H9.37109C9.07771 12.125 8.76442 12.1856 8.51993 12.3934C8.25987 12.6145 8.16797 12.9232 8.16797 13.2227C8.16797 13.5345 8.26972 14.0063 8.43258 14.5879C8.43563 14.5988 8.43906 14.6096 8.44285 14.6203C8.70861 15.3693 9.05678 16.1728 9.48543 17.0303C10.0377 18.1586 10.7201 19.2715 11.5308 20.3691C12.4095 21.6366 13.4443 22.6258 14.6387 23.3225C15.8261 24.0152 17.0254 24.375 18.2304 24.375C18.5626 24.375 18.856 24.3567 19.1037 24.3154C19.3428 24.2756 19.582 24.2077 19.7734 24.0801L19.7867 24.0709C20.141 23.8179 20.2332 23.4198 20.207 23.0473V22.1523C20.207 21.5806 20.2197 21.2552 20.2371 21.1332C20.2405 21.1098 20.2422 21.0861 20.2422 21.0625C20.2422 21.0394 20.2427 21.0188 20.2436 21.0003C20.2517 21.0001 20.2603 21 20.2695 21C20.3446 21 20.5278 21.046 20.8513 21.2543C21.1592 21.4526 21.5394 21.7618 21.9947 22.194C22.2657 22.4652 22.5793 22.8016 22.9362 23.2045C23.2802 23.5929 23.5688 23.8924 23.7727 24.0338C24.0649 24.2568 24.4018 24.375 24.7695 24.375H26.8437C27.2094 24.375 27.5826 24.2744 27.8406 23.9694C28.1148 23.6454 28.1225 23.2374 28.0319 22.8748C28.0292 22.8641 28.0262 22.8535 28.0228 22.8431C27.8874 22.4217 27.5459 21.898 27.0683 21.2965C26.5804 20.682 25.9107 19.9386 25.0643 19.0685L24.7588 18.7289C24.7206 18.6841 24.6969 18.6499 24.6827 18.6262C24.6832 18.625 24.6836 18.6239 24.6841 18.6227C24.7019 18.5812 24.7336 18.5217 24.7853 18.4423C24.792 18.4339 24.7968 18.4275 24.7987 18.4249L24.7994 18.4239C24.8118 18.4076 24.8265 18.3877 24.8427 18.3653C24.8754 18.32 24.9202 18.2571 24.9762 18.1774C25.0887 18.0176 25.2507 17.7849 25.4618 17.4799ZM24.6666 18.5948C24.6666 18.5947 24.6667 18.5951 24.6669 18.5957L24.6666 18.5948Z" stroke="#CCCCCC" stroke-linecap="round" stroke-linejoin="round"/>
<path fill-rule="evenodd" clip-rule="evenodd" d="M68.5 36C78.165 36 86 28.165 86 18.5C86 8.83502 78.165 1 68.5 1C58.835 1 51 8.83502 51 18.5C51 28.165 58.835 36 68.5 36Z" stroke="#CCCCCC"/>
<path d="M66.207 27.25C66.207 27.5261 66.4309 27.75 66.707 27.75H70.0117C70.2878 27.75 70.5117 27.5261 70.5117 27.25V19.6992H72.5781C72.829 19.6992 73.041 19.5133 73.0738 19.2646L73.4957 16.0654C73.5145 15.9226 73.4709 15.7786 73.3759 15.6704C73.281 15.5621 73.144 15.5 73 15.5H70.5117V13.7851C70.5117 13.3154 70.5998 13.0801 70.6802 12.9765C70.7714 12.8707 71.0127 12.7383 71.5937 12.7383H73.2812C73.5574 12.7383 73.7812 12.5144 73.7812 12.2383V9.39062C73.7812 9.14278 73.5997 8.93234 73.3545 8.89602C72.6878 8.79725 71.8404 8.75 70.8203 8.75C69.4723 8.75 68.3415 9.15434 67.4813 10.0011C66.6117 10.857 66.207 12.0369 66.207 13.4687V15.5H64C63.7239 15.5 63.5 15.7238 63.5 16V19.1992C63.5 19.4753 63.7239 19.6992 64 19.6992H66.207V27.25Z" stroke="#CCCCCC" stroke-linecap="round" stroke-linejoin="round"/>
<path fill-rule="evenodd" clip-rule="evenodd" d="M118.5 36C128.165 36 136 28.165 136 18.5C136 8.83502 128.165 1 118.5 1C108.835 1 101 8.83502 101 18.5C101 28.165 108.835 36 118.5 36Z" stroke="#CCCCCC"/>
<path d="M123.979 19.7945C123.711 19.2554 122.967 18.807 121.98 19.5853C120.645 20.6372 118.5 20.6372 118.5 20.6372C118.5 20.6372 116.356 20.6372 115.021 19.5853C114.033 18.807 113.29 19.2554 113.021 19.7945C112.554 20.7343 113.082 21.1886 114.275 21.9542C115.294 22.6082 116.694 22.8526 117.598 22.944L116.843 23.6986C115.78 24.7614 114.754 25.7875 114.042 26.4994C113.617 26.9249 113.617 27.615 114.042 28.0406L114.171 28.169C114.596 28.5947 115.286 28.5946 115.712 28.169L118.513 25.3683C119.576 26.4311 120.602 27.4572 121.313 28.1689C121.739 28.5946 122.429 28.5946 122.855 28.1689L122.983 28.0405C123.409 27.6149 123.409 26.9249 122.983 26.4993L120.182 23.6985L119.425 22.9415C120.33 22.8484 121.715 22.6028 122.725 21.9542C123.918 21.1886 124.447 20.7343 123.979 19.7945" stroke="#CCCCCC" stroke-linecap="round" stroke-linejoin="round"/>
<path d="M118.5 11.2136C119.791 11.2136 120.838 12.2606 120.838 13.5519C120.838 14.8433 119.791 15.8902 118.5 15.8902C117.208 15.8902 116.162 14.8433 116.162 13.5519C116.162 12.2606 117.208 11.2136 118.5 11.2136" stroke="#CCCCCC" stroke-linecap="round" stroke-linejoin="round"/>
<path d="M118.5 18.3048C121.125 18.3048 123.253 16.1768 123.253 13.5519C123.253 10.927 121.125 8.79907 118.5 8.79907C115.875 8.79907 113.747 10.927 113.747 13.5519C113.747 16.1768 115.875 18.3048 118.5 18.3048" stroke="#CCCCCC" stroke-linecap="round" stroke-linejoin="round"/>
<path fill-rule="evenodd" clip-rule="evenodd" d="M168.5 36C178.165 36 186 28.165 186 18.5C186 8.83502 178.165 1 168.5 1C158.835 1 151 8.83502 151 18.5C151 28.165 158.835 36 168.5 36Z" stroke="#CCCCCC"/>
<path d="M177.801 12.2014C177.719 12.2369 177.637 12.2709 177.555 12.3033C177.732 12.0177 177.875 11.7074 177.983 11.373C178.047 11.1759 177.983 10.9598 177.822 10.8297C177.661 10.6996 177.436 10.6823 177.257 10.7864C176.651 11.1382 176.001 11.3942 175.305 11.5543C174.96 11.2478 174.574 10.9962 174.149 10.7999C173.622 10.5566 173.051 10.4375 172.445 10.4375C171.701 10.4375 171.005 10.6247 170.365 10.9978C169.726 11.3709 169.218 11.886 168.847 12.5351C168.476 13.1843 168.289 13.8849 168.289 14.6289C168.289 14.729 168.292 14.829 168.297 14.929C167.085 14.8025 165.938 14.4605 164.851 13.9028C163.589 13.2551 162.526 12.3862 161.657 11.2941C161.555 11.1658 161.396 11.0958 161.233 11.1066C161.069 11.1174 160.921 11.2076 160.837 11.3482C160.442 12.007 160.238 12.7105 160.238 13.4512C160.238 14.1782 160.411 14.8553 160.76 15.4726C160.78 15.5078 160.8 15.5426 160.821 15.5772C160.709 15.5584 160.592 15.578 160.49 15.636C160.335 15.725 160.238 15.8908 160.238 16.0703V16.1406C160.238 17.1264 160.562 18.0121 161.197 18.7797C161.385 19.0071 161.588 19.2106 161.806 19.3899C161.746 19.4211 161.693 19.4643 161.65 19.5179C161.544 19.6492 161.511 19.825 161.563 19.9855C161.829 20.8109 162.318 21.4978 163.016 22.038C163.363 22.3063 163.738 22.5089 164.137 22.6462C163.14 23.1799 162.056 23.4453 160.879 23.4453C160.562 23.4453 160.285 23.4339 160.045 23.4122C159.816 23.3913 159.602 23.5298 159.527 23.7475C159.452 23.9652 159.536 24.2059 159.729 24.3305C161.522 25.4848 163.503 26.0625 165.66 26.0625C167.905 26.0625 169.912 25.4877 171.664 24.3286C173.262 23.2954 174.504 21.9048 175.386 20.1663C176.241 18.529 176.672 16.822 176.672 15.0508C176.672 14.9709 176.67 14.8924 176.667 14.8172C177.339 14.2827 177.921 13.6577 178.412 12.9434C178.538 12.7597 178.528 12.5145 178.386 12.3424C178.244 12.1702 178.006 12.1127 177.801 12.2014Z" stroke="#CCCCCC" stroke-linecap="round" stroke-linejoin="round"/>
<path fill-rule="evenodd" clip-rule="evenodd" d="M218.5 36C228.165 36 236 28.165 236 18.5C236 8.83502 228.165 1 218.5 1C208.835 1 201 8.83502 201 18.5C201 28.165 208.835 36 218.5 36Z" stroke="#CCCCCC"/>
<path fill-rule="evenodd" clip-rule="evenodd" d="M218.875 13.832C219.602 13.832 220.275 14.0137 220.896 14.3769C221.518 14.7402 222.01 15.2324 222.373 15.8535C222.736 16.4746 222.918 17.1484 222.918 17.875C222.918 18.6015 222.736 19.2754 222.373 19.8965C222.01 20.5176 221.518 21.0097 220.896 21.373C220.275 21.7363 219.602 21.9179 218.875 21.9179C218.148 21.9179 217.475 21.7363 216.854 21.373C216.232 21.0097 215.74 20.5176 215.377 19.8965C215.014 19.2754 214.832 18.6015 214.832 17.875C214.832 17.1484 215.014 16.4746 215.377 15.8535C215.74 15.2324 216.232 14.7402 216.854 14.3769C217.475 14.0137 218.148 13.832 218.875 13.832ZM218.875 20.6308C219.634 20.6308 220.284 20.3614 220.822 19.8224C221.361 19.2835 221.631 18.6344 221.631 17.875C221.631 17.1156 221.361 16.4664 220.822 15.9275C220.284 15.3886 219.634 15.1191 218.875 15.1191C218.116 15.1191 217.466 15.3886 216.928 15.9275C216.389 16.4664 216.119 17.1156 216.119 17.875C216.119 18.6344 216.389 19.2835 216.928 19.8224C217.466 20.3614 218.116 20.6308 218.875 20.6308ZM224.043 13.6562C224.019 13.9141 223.92 14.1367 223.744 14.3242C223.568 14.5117 223.352 14.6055 223.094 14.6055C222.836 14.6055 222.613 14.5117 222.426 14.3242C222.238 14.1367 222.145 13.9141 222.145 13.6562C222.145 13.3984 222.238 13.1758 222.426 12.9883C222.613 12.8008 222.836 12.707 223.094 12.707C223.352 12.707 223.574 12.8008 223.762 12.9883C223.949 13.1758 224.043 13.3984 224.043 13.6562ZM226.715 14.6055C226.738 15.2617 226.75 16.3515 226.75 17.875C226.75 19.3984 226.732 20.4941 226.697 21.1621C226.662 21.83 226.562 22.4101 226.398 22.9023C226.187 23.4882 225.865 23.998 225.432 24.4316C224.998 24.8652 224.488 25.1875 223.902 25.3984C223.41 25.5625 222.83 25.6621 222.162 25.6972C221.494 25.7324 220.398 25.75 218.875 25.75C217.352 25.75 216.256 25.7324 215.588 25.6972C214.92 25.6621 214.34 25.5507 213.848 25.3632C213.262 25.1757 212.752 24.8652 212.318 24.4316C211.885 23.998 211.562 23.4882 211.352 22.9023C211.187 22.4101 211.088 21.83 211.053 21.1621C211.018 20.4941 211 19.3984 211 17.875C211 16.3515 211.018 15.2558 211.053 14.5879C211.088 13.9199 211.187 13.3398 211.352 12.8476C211.562 12.2617 211.885 11.7519 212.318 11.3184C212.752 10.8848 213.262 10.5625 213.848 10.3516C214.34 10.1875 214.92 10.0879 215.588 10.0527C216.256 10.0176 217.352 10 218.875 10C220.398 10 221.494 10.0176 222.162 10.0527C222.83 10.0879 223.41 10.1875 223.902 10.3516C224.488 10.5625 224.998 10.8848 225.432 11.3184C225.865 11.7519 226.187 12.2617 226.398 12.8476C226.562 13.3398 226.668 13.9258 226.715 14.6055ZM225.22 22.6613C225.366 22.2504 225.462 21.5977 225.511 20.7033C225.535 20.1715 225.547 19.4221 225.547 18.4551V17.2948C225.547 16.3037 225.535 15.5543 225.511 15.0467C225.462 14.1281 225.366 13.4754 225.22 13.0886C224.93 12.3393 224.411 11.8195 223.661 11.5295C223.275 11.3844 222.622 11.2877 221.703 11.2394C221.171 11.2152 220.422 11.2031 219.455 11.2031H218.295C217.328 11.2031 216.579 11.2152 216.047 11.2394C215.152 11.2877 214.5 11.3844 214.089 11.5295C213.339 11.8195 212.82 12.3393 212.529 13.0886C212.384 13.4754 212.288 14.1281 212.239 15.0467C212.215 15.5785 212.203 16.3279 212.203 17.2948V18.4551C212.203 19.4221 212.215 20.1715 212.239 20.7033C212.288 21.5977 212.384 22.2504 212.529 22.6613C212.844 23.4107 213.363 23.9304 214.089 24.2205C214.5 24.3655 215.152 24.4622 216.047 24.5106C216.579 24.5348 217.328 24.5468 218.295 24.5468H219.455C220.446 24.5468 221.196 24.5348 221.703 24.5106C222.622 24.4622 223.275 24.3655 223.661 24.2205C224.411 23.9062 224.93 23.3865 225.22 22.6613Z" fill="#CCCCCC"/>
<path fill-rule="evenodd" clip-rule="evenodd" d="M268.5 36C278.165 36 286 28.165 286 18.5C286 8.83502 278.165 1 268.5 1C258.835 1 251 8.83502 251 18.5C251 28.165 258.835 36 268.5 36Z" stroke="#CCCCCC"/>
<path fill-rule="evenodd" clip-rule="evenodd" d="M275.018 11.6798C271.308 13.1289 267.634 14.6858 263.969 16.2722C263.549 16.4633 263.124 16.6534 262.699 16.8441C260.958 17.6241 259.195 18.4143 257.579 19.3256C257.568 19.3343 257.558 19.3424 257.549 19.3499C257.579 19.375 257.623 19.4082 257.687 19.4487C257.871 19.5643 258.127 19.6823 258.43 19.8083C258.55 19.8581 258.689 19.914 258.831 19.9709C259.003 20.0397 259.179 20.1101 259.329 20.1735C259.464 20.2164 259.599 20.2603 259.732 20.3039C260.256 20.475 260.764 20.641 261.278 20.726C261.912 20.8308 262.481 20.7963 262.989 20.5106C264.868 19.4025 266.635 18.126 268.423 16.8348C269.014 16.4078 269.608 15.9793 270.208 15.5546L270.222 15.5449C270.245 15.5298 270.273 15.5112 270.305 15.4902C270.531 15.339 270.956 15.0551 271.298 14.9191C271.4 14.8787 271.527 14.8374 271.66 14.8256C271.784 14.8145 272.01 14.8219 272.195 14.9963C272.386 15.1757 272.407 15.4111 272.396 15.5619C272.385 15.7168 272.335 15.8788 272.271 16.0379C272.249 16.0913 272.219 16.1405 272.18 16.1835C271.335 17.1323 270.442 17.9865 269.55 18.8183C269.375 18.9819 269.2 19.1444 269.025 19.3065C268.307 19.9729 267.595 20.6331 266.899 21.3372C266.887 21.3486 266.876 21.3595 266.863 21.3697C266.606 21.5844 266.356 21.9008 266.243 22.209C266.143 22.4834 266.164 22.6924 266.314 22.8671C267.878 23.9905 269.466 25.0863 271.057 26.1845C271.58 26.5458 272.104 26.9073 272.627 27.2702C272.638 27.2778 272.649 27.2859 272.659 27.2944C273.213 27.7482 274.172 27.4009 274.309 26.6041C274.396 26.0833 274.483 25.5627 274.569 25.0423C275.049 22.1661 275.527 19.2945 275.95 16.4143C276.01 15.9446 276.076 15.4829 276.142 15.0259C276.297 13.9534 276.448 12.9067 276.498 11.8438C276.476 11.7001 276.425 11.6395 276.388 11.6079C276.338 11.5653 276.248 11.5236 276.094 11.5071C275.775 11.473 275.358 11.5646 275.018 11.6798ZM257.487 19.4157C257.487 19.4158 257.488 19.4128 257.493 19.4068C257.49 19.4127 257.488 19.4157 257.487 19.4157ZM277.035 10.8453C277.297 11.0679 277.453 11.3829 277.497 11.7643C277.5 11.7908 277.501 11.8175 277.5 11.8442C277.449 12.9742 277.285 14.1127 277.125 15.2207C277.061 15.668 276.997 16.1104 276.941 16.5452L276.94 16.5548L276.94 16.5547C276.516 19.447 276.035 22.331 275.555 25.2085C275.469 25.7291 275.382 26.2494 275.296 26.7695L275.295 26.7722C275.045 28.2318 273.256 29.055 272.042 28.0814C271.527 27.7246 271.011 27.3682 270.494 27.0115C268.887 25.9021 267.274 24.7889 265.688 23.6489C265.663 23.631 265.64 23.6109 265.619 23.5889C265.105 23.0531 265.11 22.3973 265.304 21.8658C265.488 21.3617 265.853 20.915 266.204 20.6178C266.912 19.9029 267.637 19.2295 268.352 18.567C268.525 18.4065 268.697 18.2466 268.868 18.0869C269.352 17.6364 269.828 17.1858 270.293 16.7215C269.875 17.0201 269.457 17.3221 269.037 17.625C267.239 18.924 265.417 20.24 263.493 21.3745L263.485 21.3792L263.485 21.3791C262.704 21.8203 261.876 21.8384 261.115 21.7126C260.518 21.6139 259.915 21.4165 259.384 21.2426C259.253 21.1997 259.126 21.1582 259.005 21.12C258.99 21.1151 258.975 21.1096 258.96 21.1033C258.797 21.0343 258.644 20.9728 258.483 20.9087C258.345 20.8538 258.203 20.7969 258.046 20.7317C257.737 20.6032 257.415 20.4586 257.155 20.2953C256.925 20.1506 256.607 19.9097 256.521 19.5378C256.417 19.0848 256.699 18.7356 257.002 18.5078C257.019 18.4948 257.037 18.4829 257.056 18.4723C258.726 17.5284 260.554 16.709 262.309 15.9227C262.731 15.7336 263.149 15.5465 263.559 15.36L263.567 15.3562L263.567 15.3563C267.241 13.7662 270.933 12.2016 274.665 10.7443C274.671 10.7417 274.678 10.7393 274.685 10.737C275.068 10.606 275.658 10.4548 276.2 10.5127C276.478 10.5424 276.783 10.6312 277.035 10.8453Z" fill="#CCCCCC"/>
</svg>
