<svg width="84" height="84" viewBox="0 0 84 84" fill="none" xmlns="http://www.w3.org/2000/svg">
<path d="M57.4675 53.204C57.6167 52.4542 57.8535 51.7773 58.2712 51.2211C58.804 50.5087 59.6945 50.1677 60.5238 49.8647C65.6105 48.0202 70.7335 46.132 75.2909 43.196C76.7099 42.2724 78.2524 40.933 78.0474 39.2372C77.9322 38.1641 77.1101 37.3179 76.2475 36.6454C74.4287 35.2523 72.1389 34.9783 69.931 34.802C67.3147 34.5824 64.71 34.3133 62.1285 33.945C59.5966 33.5882 55.884 33.5831 54.7166 30.7469C53.6837 28.2298 53.562 25.5073 53.0773 22.883C52.5514 19.9875 51.7791 17.139 51.0011 14.3153C50.223 11.4916 48.4433 6.57663 44.5895 7.84627C42.0082 8.7073 40.8585 11.4986 39.9239 13.8172C38.3223 17.7583 37.0081 21.9236 34.9585 25.6553C34.5439 26.4215 34.0798 27.176 33.4272 27.7296C31.8542 29.088 29.6077 28.4057 27.8091 27.9328C24.0631 26.9521 20.0798 26.2036 16.2194 25.8239C13.7139 25.578 10.2757 25.7416 9.7913 28.8193C9.40071 31.1605 11.6252 32.8316 13.1596 34.2105C15.8021 36.5547 18.4636 38.9296 21.106 41.2738C22.8404 42.8042 24.9731 44.5322 24.3641 47.1362C23.9002 49.1201 22.0929 50.9207 20.8629 52.4901C17.5614 56.766 12.8934 60.9578 11.5299 66.3408C10.9699 68.5115 11.616 70.7812 14.1737 70.804C16.9662 70.8293 22.0147 67.6943 24.5754 66.6977C28.1432 65.3089 31.9072 63.4166 35.6186 62.5322C36.4859 62.2904 37.3854 62.1346 38.2533 62.3375C39.146 62.5463 39.9021 63.1155 40.6028 63.6978C46.8506 68.7423 52.0736 75.038 58.8731 79.4007C59.6028 79.8591 60.4317 80.3406 61.2758 80.198C62.0893 80.0744 62.7213 79.3852 63.0119 78.59C63.2966 77.8196 63.2839 76.9797 63.2157 76.1529C62.8468 71.8033 61.0435 67.772 59.5857 63.717C58.6768 61.2289 56.8507 56.5123 57.4675 53.204Z" fill="#E8178A"/>
<path d="M46.3774 39.6775C46.1454 40.6695 46.7533 41.6486 47.7452 41.8806C48.7371 42.1126 49.7162 41.5046 49.9481 40.5126C50.1801 39.5206 49.5722 38.5415 48.5803 38.3095C47.5884 38.0775 46.6036 38.7103 46.3774 39.6775Z" fill="#212122"/>
<path d="M48.5698 39.249C48.4944 39.5714 48.6844 39.8774 49.0067 39.9528C49.3291 40.0282 49.6351 39.8382 49.7105 39.5158C49.7859 39.1934 49.5959 38.8874 49.2735 38.812C48.9818 38.7176 48.6452 38.9266 48.5698 39.249Z" fill="white"/>
<path d="M50.005 47.1362C49.2928 45.9891 49.6453 44.4817 50.7924 43.7694C51.9395 43.0571 53.4467 43.4096 54.1589 44.5567C54.8711 45.7039 54.5186 47.2112 53.3715 47.9235C52.2244 48.6359 50.7172 48.2834 50.005 47.1362Z" fill="white"/>
<path d="M36.9296 37.468C36.6976 38.46 37.3055 39.4392 38.2974 39.6711C39.2893 39.9031 40.2684 39.2951 40.5004 38.3031C40.7324 37.3112 40.1245 36.332 39.1326 36.1C38.1407 35.8681 37.1558 36.5009 36.9296 37.468Z" fill="#212122"/>
<path d="M39.1471 37.0448C39.0717 37.3672 39.2617 37.6732 39.584 37.7486C39.9064 37.824 40.2124 37.634 40.2877 37.3116C40.3631 36.9892 40.1732 36.6832 39.8508 36.6078C39.5284 36.5324 39.2225 36.7224 39.1471 37.0448Z" fill="white"/>
<path d="M30.5804 42.6079C29.8682 41.4608 30.2207 39.9534 31.3678 39.2411C32.5149 38.5288 34.0221 38.8813 34.7344 40.0284C35.4466 41.1755 35.094 42.6829 33.947 43.3952C32.7999 44.1075 31.2926 43.755 30.5804 42.6079Z" fill="white"/>
<path d="M49.5298 51.583C48.2495 52.696 46.5397 53.1854 44.8689 53.3963C40.1524 53.9933 35.1824 52.5433 31.5285 49.4917" stroke="#212122" stroke-miterlimit="10"/>
<path d="M43.8734 29.8061C43.2708 29.6652 42.8966 29.0624 43.0375 28.4597C43.1785 27.8571 43.7812 27.4828 44.3838 27.6237C44.9864 27.7647 45.3606 28.3674 45.2197 28.9701C45.0787 29.5727 44.476 29.947 43.8734 29.8061Z" fill="#C8006E"/>
<path d="M43.4696 24.3762C43.342 24.9218 43.6781 25.4974 44.2485 25.6307C44.794 25.7583 45.3695 25.4221 45.5029 24.8517C45.6305 24.3061 45.2944 23.7306 44.724 23.5972C44.1479 23.4886 43.5972 23.8306 43.4696 24.3762Z" fill="#C8006E"/>
<path d="M44.5989 21.449C44.0785 21.3273 43.7552 20.8068 43.877 20.2863C43.9987 19.7658 44.5192 19.4426 45.0396 19.5643C45.5601 19.686 45.8833 20.2066 45.7615 20.727C45.6398 21.2475 45.1193 21.5707 44.5989 21.449Z" fill="#C8006E"/>
<path d="M44.309 16.2023C44.1988 16.6734 44.5028 17.163 44.9739 17.2732C45.4451 17.3834 45.9346 17.0794 46.0448 16.6082C46.155 16.137 45.851 15.6474 45.3799 15.5373C44.9088 15.4271 44.4192 15.7311 44.309 16.2023Z" fill="#C8006E"/>
<path d="M45.3487 13.0979C44.9105 12.9954 44.6383 12.557 44.7408 12.1187C44.8433 11.6804 45.2817 11.4082 45.7199 11.5107C46.1582 11.6132 46.4303 12.0516 46.3278 12.4899C46.2253 12.9281 45.787 13.2004 45.3487 13.0979Z" fill="#C8006E"/>
<path d="M27.258 36.7753C27.782 37.1071 28.4715 36.9544 28.8033 36.4305C29.135 35.9065 28.9825 35.2169 28.4585 34.8851C27.9346 34.5533 27.2451 34.706 26.9133 35.2299C26.5815 35.7539 26.7341 36.4435 27.258 36.7753Z" fill="#C8006E"/>
<path d="M23.5316 35.0406C24.0117 35.3359 24.6459 35.1965 24.966 34.7221C25.2614 34.2419 25.122 33.6078 24.6477 33.2876C24.1676 32.9922 23.5334 33.1316 23.2133 33.606C22.8873 34.1052 23.0515 34.7452 23.5316 35.0406Z" fill="#C8006E"/>
<path d="M19.805 33.3059C20.2603 33.5955 20.8448 33.4445 21.1286 33.0139C21.4182 32.5585 21.2672 31.9739 20.8367 31.6901C20.3813 31.4006 19.7968 31.5516 19.513 31.9822C19.2234 32.4376 19.3496 33.0163 19.805 33.3059Z" fill="#C8006E"/>
<path d="M16.0786 31.5712C16.4901 31.8243 17.0383 31.7171 17.2914 31.3055C17.5446 30.8939 17.4374 30.3458 17.0259 30.0926C16.6143 29.8394 16.0662 29.9466 15.813 30.3582C15.535 30.764 15.667 31.318 16.0786 31.5712Z" fill="#C8006E"/>
<path d="M12.352 29.8362C12.7387 30.0836 13.2373 29.9648 13.4599 29.5722C13.7072 29.1854 13.5885 28.6869 13.1959 28.4643C12.8092 28.2169 12.3106 28.3357 12.088 28.7283C11.8713 29.0961 11.99 29.5947 12.352 29.8362Z" fill="#C8006E"/>
<path d="M29.4745 56.5967C30.0137 56.3043 30.2009 55.6158 29.9085 55.0766C29.6162 54.5374 28.9276 54.3502 28.3885 54.6426C27.8494 54.935 27.6622 55.6236 27.9545 56.1628C28.2717 56.7078 28.9354 56.8891 29.4745 56.5967Z" fill="#C8006E"/>
<path d="M26.1634 59.0132C26.6719 58.7398 26.8475 58.1009 26.5683 57.6171C26.295 57.1085 25.6561 56.9329 25.1723 57.2121C24.6638 57.4855 24.4882 58.1245 24.7673 58.6083C25.0159 59.1111 25.6548 59.2866 26.1634 59.0132Z" fill="#C8006E"/>
<path d="M22.852 61.4299C23.3052 61.1697 23.494 60.5861 23.2338 60.133C22.9737 59.6798 22.3901 59.491 21.937 59.7512C21.4838 60.0114 21.295 60.595 21.5552 61.0482C21.7848 61.5203 22.3741 61.6843 22.852 61.4299Z" fill="#C8006E"/>
<path d="M19.5161 63.8406C19.9386 63.5994 20.091 63.0597 19.8747 62.6429C19.6335 62.2203 19.0937 62.0679 18.677 62.2843C18.2544 62.5255 18.102 63.0653 18.3184 63.4821C18.5538 63.9295 19.0935 64.0818 19.5161 63.8406Z" fill="#C8006E"/>
<path d="M16.2047 66.2571C16.5967 66.0349 16.7375 65.5447 16.5153 65.1527C16.2931 64.7607 15.803 64.62 15.411 64.8422C15.0191 65.0644 14.8783 65.5545 15.1004 65.9465C15.3226 66.3385 15.8128 66.4793 16.2047 66.2571Z" fill="#C8006E"/>
<path d="M58.5402 42.9142C57.9498 43.09 57.3209 42.7598 57.1393 42.1942C56.9636 41.6038 57.2938 40.9749 57.8593 40.7932C58.4496 40.6174 59.0786 40.9476 59.2601 41.5132C59.4607 42.1094 59.1363 42.7135 58.5402 42.9142Z" fill="#C8006E"/>
<path d="M62.5871 42.1601C62.0522 42.3228 61.4671 42.029 61.2797 41.4882C61.1171 40.9532 61.4109 40.368 61.9516 40.1806C62.4866 40.018 63.0717 40.3118 63.2591 40.8526C63.4407 41.4182 63.1221 41.9975 62.5871 42.1601Z" fill="#C8006E"/>
<path d="M66.6283 41.4315C66.1182 41.5999 65.5826 41.3177 65.4143 40.8075C65.2459 40.2974 65.5281 39.7618 66.0382 39.5934C66.5484 39.425 67.0839 39.7071 67.2523 40.2173C67.4206 40.7275 67.1385 41.2631 66.6283 41.4315Z" fill="#C8006E"/>
<path d="M70.6695 40.7027C70.2147 40.8579 69.704 40.5815 69.5488 40.1267C69.3936 39.6719 69.67 39.1611 70.1248 39.0059C70.5795 38.8507 71.0902 39.1271 71.2454 39.5819C71.3948 40.0615 71.1242 40.5475 70.6695 40.7027Z" fill="#C8006E"/>
<path d="M74.7164 39.9489C74.2922 40.0851 73.8253 39.8451 73.7139 39.4267C73.5777 39.0026 73.8177 38.5356 74.236 38.4242C74.6602 38.288 75.1271 38.5279 75.2385 38.9463C75.3747 39.3705 75.1405 39.8127 74.7164 39.9489Z" fill="#C8006E"/>
<path d="M50.4725 61.9778C50.0884 61.4956 50.2012 60.7896 50.6775 60.4302C51.1597 60.046 51.8656 60.1588 52.2249 60.6352C52.5843 61.1115 52.4963 61.8233 52.0199 62.1827C51.5378 62.5669 50.8566 62.4599 50.4725 61.9778Z" fill="#C8006E"/>
<path d="M52.5463 65.5234C52.2059 65.0776 52.2823 64.4154 52.7281 64.075C53.1738 63.7346 53.8359 63.811 54.1763 64.2568C54.5166 64.7025 54.4402 65.3647 53.9945 65.7051C53.5429 66.0703 52.9114 65.9749 52.5463 65.5234Z" fill="#C8006E"/>
<path d="M54.6203 69.0685C54.2989 68.6533 54.3885 68.0466 54.8037 67.7252C55.2188 67.4038 55.8256 67.4933 56.1469 67.9085C56.4683 68.3237 56.3787 68.9305 55.9635 69.2519C55.5483 69.5733 54.9416 69.4837 54.6203 69.0685Z" fill="#C8006E"/>
<path d="M56.6942 72.6133C56.3918 72.2287 56.4698 71.6715 56.8544 71.3691C57.239 71.0667 57.7961 71.1447 58.0985 71.5293C58.4008 71.9138 58.3228 72.471 57.9383 72.7734C57.5537 73.0758 56.9966 72.9978 56.6942 72.6133Z" fill="#C8006E"/>
<path d="M58.768 76.1586C58.4847 75.8046 58.5511 75.297 58.9298 75.0194C59.2838 74.736 59.7913 74.8024 60.0689 75.1812C60.3523 75.5352 60.2859 76.0428 59.9071 76.3204C59.5283 76.598 59.0514 76.5126 58.768 76.1586Z" fill="#C8006E"/>
</svg>
