<svg width="176" height="119" viewBox="0 0 176 119" fill="none" xmlns="http://www.w3.org/2000/svg">
<path d="M88.0679 73.5183C88.029 72.3501 88.1458 71.2597 88.5741 70.2862C89.1192 69.0402 90.3262 68.2224 91.4554 67.4826C98.3861 62.9656 105.356 58.3707 111.118 52.4129C112.909 50.5438 114.739 48.0127 113.844 45.5595C113.299 44.0019 111.78 43.0284 110.262 42.3275C107.069 40.8867 103.565 41.2761 100.216 41.7823C96.2446 42.3664 92.2731 42.8726 88.3016 43.2231C84.4079 43.5736 78.879 44.8586 76.1534 41.0425C73.7394 37.6547 72.6102 33.6439 70.9749 29.9057C69.1838 25.7781 67.0423 21.8062 64.9008 17.8733C62.7593 13.9404 58.3984 7.24273 53.1031 10.4747C49.5599 12.6554 48.8201 17.2113 48.236 20.9885C47.2237 27.4135 46.7175 34.0722 44.9654 40.3416C44.6149 41.6266 44.1866 42.9116 43.4079 43.963C41.539 46.533 37.9568 46.2993 35.1145 46.2215C29.1961 46.0657 23.0053 46.3383 17.1259 47.1171C13.3101 47.6233 8.24837 49.0641 8.5988 53.8147C8.83242 57.4361 12.7261 59.1495 15.4905 60.6681C20.2408 63.2381 25.03 65.8471 29.7802 68.4171C32.8951 70.0915 36.6719 71.9217 36.6719 76.0104C36.6719 79.1256 34.6083 82.4355 33.3234 85.2002C29.897 92.7156 24.407 100.581 24.2512 109.07C24.1734 112.497 25.9255 115.651 29.7412 114.794C33.9074 113.86 40.3319 107.435 43.7973 105.059C48.6254 101.75 53.5703 97.622 58.7878 95.013C59.9948 94.351 61.2797 93.8059 62.6425 93.8059C64.0442 93.8059 65.368 94.39 66.614 95.013C77.6719 100.348 87.6396 107.902 99.2816 112.03C100.528 112.458 101.929 112.886 103.136 112.38C104.304 111.913 105.005 110.667 105.161 109.382C105.317 108.136 105.005 106.89 104.616 105.683C102.552 99.3353 98.464 93.9616 94.8818 88.4322C92.6624 85.0444 88.3016 78.6583 88.0679 73.5183Z" fill="#E8178A"/>
<path d="M66.8473 57.2412C66.8473 58.7988 68.0932 60.0448 69.6507 60.0448C71.2081 60.0448 72.4541 58.7988 72.4541 57.2412C72.4541 55.6836 71.2081 54.4375 69.6507 54.4375C68.0932 54.4375 66.8473 55.7225 66.8473 57.2412Z" fill="#212122"/>
<path d="M69.9623 55.8395C69.9623 56.3457 70.3517 56.7351 70.8579 56.7351C71.3641 56.7351 71.7534 56.3457 71.7534 55.8395C71.7534 55.3333 71.3641 54.9439 70.8579 54.9439C70.3906 54.9049 69.9623 55.3333 69.9623 55.8395Z" fill="white"/>
<path d="M74.8452 67.0828C73.3855 65.6229 73.3855 63.256 74.8452 61.7962C76.3049 60.3363 78.6716 60.3363 80.1314 61.7962C81.5911 63.256 81.5911 65.6229 80.1314 67.0827C78.6716 68.5426 76.3049 68.5426 74.8452 67.0828Z" fill="white"/>
<path d="M52.0128 57.2412C52.0128 58.7988 53.2588 60.0448 54.8162 60.0448C56.3737 60.0448 57.6196 58.7988 57.6196 57.2412C57.6196 55.6836 56.3737 54.4375 54.8162 54.4375C53.2588 54.4375 52.0128 55.7225 52.0128 57.2412Z" fill="#212122"/>
<path d="M55.1665 55.8395C55.1665 56.3457 55.5558 56.7351 56.062 56.7351C56.5682 56.7351 56.9575 56.3457 56.9575 55.8395C56.9575 55.3332 56.5682 54.9438 56.062 54.9438C55.5558 54.9438 55.1665 55.3332 55.1665 55.8395Z" fill="white"/>
<path d="M44.3496 67.1037C42.8899 65.6439 42.8899 63.277 44.3496 61.8172C45.8093 60.3573 48.176 60.3573 49.6357 61.8172C51.0955 63.277 51.0955 65.6439 49.6357 67.1037C48.176 68.5636 45.8093 68.5636 44.3496 67.1037Z" fill="white"/>
<path d="M75.686 73.8687C74.1675 75.9714 71.7924 77.2954 69.3783 78.191C62.5645 80.7221 54.6604 80.2937 48.158 77.0228" stroke="#212122" stroke-miterlimit="10"/>
<path d="M59.6833 43.4174C58.7371 43.4174 57.9701 42.6503 57.9701 41.7041C57.9701 40.7578 58.7371 39.9907 59.6833 39.9907C60.6295 39.9907 61.3965 40.7578 61.3965 41.7041C61.3965 42.6503 60.6295 43.4174 59.6833 43.4174Z" fill="#C8006E"/>
<path d="M57.1915 35.474C57.1915 36.3307 57.8923 37.0705 58.7879 37.0705C59.6445 37.0705 60.3843 36.3696 60.3843 35.474C60.3843 34.6173 59.6834 33.8774 58.7879 33.8774C57.8923 33.9164 57.1915 34.6173 57.1915 35.474Z" fill="#C8006E"/>
<path d="M57.8534 30.7231C57.0363 30.7231 56.3738 30.0606 56.3738 29.2434C56.3738 28.4262 57.0363 27.7637 57.8534 27.7637C58.6706 27.7637 59.333 28.4262 59.333 29.2434C59.333 30.0606 58.6706 30.7231 57.8534 30.7231Z" fill="#C8006E"/>
<path d="M55.5948 23.0133C55.5948 23.7531 56.2177 24.3762 56.9575 24.3762C57.6973 24.3762 58.3203 23.7531 58.3203 23.0133C58.3203 22.2734 57.6973 21.6504 56.9575 21.6504C56.2177 21.6504 55.5948 22.2734 55.5948 23.0133Z" fill="#C8006E"/>
<path d="M56.0621 18.0288C55.374 18.0288 54.8162 17.4709 54.8162 16.7827C54.8162 16.0945 55.374 15.5366 56.0621 15.5366C56.7503 15.5366 57.3081 16.0945 57.3081 16.7827C57.3081 17.4709 56.7503 18.0288 56.0621 18.0288Z" fill="#C8006E"/>
<path d="M37.373 59.5775C38.2685 59.889 39.242 59.4217 39.5534 58.5261C39.8649 57.6305 39.3977 56.657 38.5022 56.3455C37.6066 56.034 36.6332 56.5012 36.3217 57.3969C36.0102 58.2925 36.4775 59.266 37.373 59.5775Z" fill="#C8006E"/>
<path d="M31.221 58.2927C32.0387 58.5653 32.9342 58.137 33.2457 57.3192C33.5182 56.5015 33.0899 55.6059 32.2723 55.2944C31.4546 55.0218 30.5591 55.4501 30.2476 56.2679C29.9361 57.1245 30.4033 58.0201 31.221 58.2927Z" fill="#C8006E"/>
<path d="M25.069 57.0075C25.8477 57.2801 26.6653 56.8517 26.9379 56.1119C27.2104 55.3331 26.7821 54.5154 26.0424 54.2428C25.2636 53.9702 24.446 54.3985 24.1734 55.1384C23.9009 55.9172 24.2902 56.7349 25.069 57.0075Z" fill="#C8006E"/>
<path d="M18.9174 55.7228C19.6182 55.9564 20.3969 55.606 20.6306 54.9051C20.8642 54.2041 20.5138 53.4254 19.8129 53.1917C19.112 52.9581 18.3333 53.3085 18.0997 54.0094C17.8271 54.7104 18.2165 55.4892 18.9174 55.7228Z" fill="#C8006E"/>
<path d="M12.7651 54.4376C13.4271 54.6713 14.1279 54.3208 14.3226 53.6588C14.5562 52.9969 14.2058 52.2959 13.5439 52.1012C12.8819 51.8676 12.1811 52.2181 11.9864 52.88C11.7917 53.5031 12.1422 54.204 12.7651 54.4376Z" fill="#C8006E"/>
<path d="M47.5743 88.3156C48.2752 87.6926 48.3141 86.6023 47.6911 85.9013C47.0681 85.2004 45.9779 85.1615 45.2771 85.7845C44.5762 86.4076 44.5373 87.4979 45.1602 88.1988C45.8222 88.8997 46.8734 88.9386 47.5743 88.3156Z" fill="#C8006E"/>
<path d="M43.4862 93.0664C44.1481 92.4823 44.1871 91.4699 43.603 90.8468C43.019 90.1849 42.0066 90.1459 41.3836 90.73C40.7217 91.3141 40.6828 92.3266 41.2668 92.9496C41.8119 93.6116 42.8243 93.6505 43.4862 93.0664Z" fill="#C8006E"/>
<path d="M39.3978 97.8169C39.9819 97.2717 40.0598 96.3372 39.5146 95.7531C38.9695 95.169 38.0351 95.0911 37.451 95.6363C36.867 96.1814 36.7891 97.116 37.3342 97.7001C37.8404 98.3231 38.7749 98.362 39.3978 97.8169Z" fill="#C8006E"/>
<path d="M35.2702 102.568C35.8153 102.061 35.8542 101.205 35.387 100.66C34.8808 100.114 34.0242 100.075 33.4791 100.543C32.934 101.049 32.895 101.906 33.3623 102.451C33.8685 103.035 34.7251 103.074 35.2702 102.568Z" fill="#C8006E"/>
<path d="M31.1821 107.318C31.6883 106.851 31.7272 106.072 31.26 105.566C30.7928 105.06 30.014 105.021 29.5079 105.488C29.0017 105.955 28.9628 106.734 29.43 107.24C29.8972 107.747 30.6759 107.786 31.1821 107.318Z" fill="#C8006E"/>
<path d="M86.0824 57.8251C85.2647 58.2924 84.2135 58.0198 83.7462 57.241C83.279 56.4233 83.5515 55.3719 84.3303 54.9046C85.1479 54.4373 86.1992 54.7099 86.6664 55.4887C87.1726 56.3064 86.9001 57.3189 86.0824 57.8251Z" fill="#C8006E"/>
<path d="M91.8447 55.2942C91.1049 55.7226 90.1315 55.4889 89.6643 54.7491C89.236 54.0092 89.4696 53.0357 90.2094 52.5685C90.9492 52.1401 91.9226 52.3738 92.3898 53.1136C92.8571 53.8924 92.5845 54.8659 91.8447 55.2942Z" fill="#C8006E"/>
<path d="M97.6075 52.8022C96.9066 53.2306 96.0111 52.9969 95.5828 52.296C95.1545 51.5951 95.3881 50.6995 96.089 50.2711C96.7898 49.8428 97.6853 50.0764 98.1136 50.7774C98.5419 51.4783 98.3083 52.3739 97.6075 52.8022Z" fill="#C8006E"/>
<path d="M103.37 50.31C102.747 50.6994 101.89 50.4657 101.501 49.8427C101.111 49.2196 101.345 48.363 101.968 47.9736C102.591 47.5842 103.448 47.8178 103.837 48.4409C104.226 49.1028 103.993 49.9206 103.37 50.31Z" fill="#C8006E"/>
<path d="M109.133 47.7787C108.548 48.1292 107.77 47.9345 107.458 47.3504C107.108 46.7663 107.303 45.9875 107.887 45.676C108.471 45.3255 109.249 45.5202 109.561 46.1043C109.911 46.6884 109.717 47.4283 109.133 47.7787Z" fill="#C8006E"/>
<path d="M80.7089 89.016C79.9691 88.4319 79.8913 87.3416 80.4753 86.6407C81.0594 85.9008 82.1496 85.8229 82.8504 86.407C83.5513 86.9911 83.6681 88.0815 83.0841 88.7824C82.5 89.5222 81.4487 89.6001 80.7089 89.016Z" fill="#C8006E"/>
<path d="M85.031 93.572C84.3691 93.0268 84.2523 92.0144 84.7974 91.3524C85.3425 90.6905 86.3548 90.5736 87.0168 91.1188C87.6787 91.6639 87.7955 92.6764 87.2504 93.3384C86.7053 94.0393 85.7319 94.1172 85.031 93.572Z" fill="#C8006E"/>
<path d="M89.3527 98.1279C88.7297 97.6217 88.6518 96.6871 89.158 96.0641C89.6642 95.4411 90.5986 95.3632 91.2216 95.8694C91.8446 96.3756 91.9225 97.3102 91.4163 97.9332C90.9101 98.5562 89.9756 98.6341 89.3527 98.1279Z" fill="#C8006E"/>
<path d="M93.6748 102.684C93.0908 102.216 93.0129 101.36 93.4802 100.776C93.9474 100.191 94.804 100.114 95.388 100.581C95.9721 101.048 96.05 101.905 95.5827 102.489C95.1155 103.073 94.2589 103.151 93.6748 102.684Z" fill="#C8006E"/>
<path d="M97.9967 107.24C97.4516 106.811 97.3737 106.033 97.841 105.487C98.2693 104.942 99.048 104.864 99.5931 105.332C100.138 105.76 100.216 106.539 99.7489 107.084C99.2816 107.629 98.5418 107.668 97.9967 107.24Z" fill="#C8006E"/>
<rect x="103.088" y="25.0618" width="65" height="43" rx="9.5" transform="rotate(-11.2956 103.088 25.0618)" fill="white"/>
<path d="M133.765 52.5005L130.629 36.8026L127.24 37.4795L127.508 38.821C126.577 37.8324 125.442 37.545 124.383 37.7565C121.794 38.2736 120.556 40.7726 121.313 44.5617C122.06 48.3038 124.178 50.2059 126.767 49.6888C127.802 49.482 128.767 48.7997 129.243 47.5055L130.376 53.1774L133.765 52.5005ZM128.754 45.0578C128.547 45.7355 127.93 46.3237 127.318 46.446C126.071 46.6951 125.149 45.6311 124.796 43.866C124.448 42.1244 124.891 40.7878 126.138 40.5386C126.75 40.4164 127.536 40.6755 127.992 41.2451L128.754 45.0578ZM141.693 46.4137L145.082 45.7367L143.371 37.17C143.005 35.3342 141.814 34.2749 139.625 34.7121C138.119 35.0129 136.994 36.1187 136.598 37.0788L135.451 31.3363L132.062 32.0132L135.198 47.7111L138.587 47.0342L137.101 39.5971C137.313 38.9429 137.803 38.2088 138.627 38.0442C139.474 37.875 140.043 38.1528 140.25 39.1884L141.693 46.4137ZM153.875 43.9806L157.264 43.3036L155.552 34.7369C155.186 32.9011 153.995 31.8418 151.806 32.279C150.3 32.5798 149.175 33.6857 148.779 34.6457L147.632 28.9032L144.243 29.5801L147.379 45.278L150.768 44.6011L149.282 37.164C149.494 36.5098 149.984 35.7757 150.808 35.6111C151.655 35.4419 152.224 35.7198 152.431 36.7553L153.875 43.9806Z" fill="#333333"/>
<rect x="103.088" y="25.0618" width="65" height="43" rx="9.5" transform="rotate(-11.2956 103.088 25.0618)" stroke="#E6F7FC"/>
</svg>
