<svg width="138" height="138" viewBox="0 0 138 138" fill="none" xmlns="http://www.w3.org/2000/svg">
<path d="M104.059 83.7589C104.008 82.2373 104.16 80.8172 104.718 79.5492C105.428 77.9261 107.001 76.861 108.471 75.8974C117.499 70.0138 126.577 64.0289 134.083 56.2688C136.415 53.8342 138.799 50.5374 137.633 47.3421C136.923 45.3133 134.945 44.0453 132.967 43.1323C128.808 41.2557 124.244 41.7629 119.882 42.4222C114.709 43.183 109.536 43.8424 104.363 44.2989C99.2918 44.7553 92.0902 46.4291 88.5401 41.4585C85.3957 37.0459 83.925 31.8218 81.7949 26.9527C79.462 21.5763 76.6727 16.4029 73.8833 11.2802C71.094 6.1575 65.4139 -2.56632 58.5166 1.64343C53.9014 4.48374 52.9379 10.418 52.1771 15.3378C50.8585 23.7066 50.1992 32.3797 47.917 40.5456C47.4606 42.2193 46.9027 43.8931 45.8884 45.2625C43.4541 48.6101 38.7882 48.3057 35.086 48.2043C27.3773 48.0014 19.3135 48.3565 11.6555 49.3708C6.68536 50.0302 0.0923615 51.9068 0.548798 58.0947C0.853088 62.8116 5.92464 65.0433 9.52544 67.0214C15.7127 70.3689 21.9507 73.7671 28.138 77.1146C32.1952 79.2956 37.1146 81.6794 37.1146 87.005C37.1146 91.0626 34.4267 95.3738 32.7531 98.9749C28.2901 108.764 21.1393 119.009 20.9364 130.066C20.835 134.53 23.1172 138.638 28.0873 137.522C33.5138 136.305 41.8819 127.936 46.3956 124.842C52.6843 120.531 59.1251 115.155 65.921 111.756C67.4932 110.894 69.1668 110.184 70.9418 110.184C72.7676 110.184 74.4919 110.945 76.1148 111.756C90.518 118.705 103.501 128.545 118.665 133.921C120.288 134.479 122.114 135.037 123.686 134.377C125.207 133.769 126.12 132.146 126.323 130.472C126.526 128.849 126.12 127.226 125.613 125.654C122.925 117.386 117.6 110.387 112.934 103.185C110.043 98.772 104.363 90.454 104.059 83.7589Z" fill="#E8178A"/>
<path d="M76.4187 62.5581C76.4187 64.5869 78.0416 66.2099 80.0702 66.2099C82.0988 66.2099 83.7217 64.5869 83.7217 62.5581C83.7217 60.5293 82.0988 58.9062 80.0702 58.9062C78.0416 58.9062 76.4187 60.58 76.4187 62.5581Z" fill="#212122"/>
<path d="M80.4762 60.7323C80.4762 61.3916 80.9833 61.8988 81.6426 61.8988C82.3019 61.8988 82.8091 61.3916 82.8091 60.7323C82.8091 60.0729 82.3019 59.5657 81.6426 59.5657C81.034 59.515 80.4762 60.0729 80.4762 60.7323Z" fill="white"/>
<path d="M86.8361 75.3765C84.9348 73.4751 84.9348 70.3921 86.8361 68.4906C88.7374 66.5892 91.8201 66.5892 93.7214 68.4906C95.6227 70.3921 95.6227 73.4751 93.7214 75.3765C91.8201 77.278 88.7374 77.278 86.8361 75.3765Z" fill="white"/>
<path d="M57.0964 62.5581C57.0964 64.5869 58.7193 66.2099 60.7479 66.2099C62.7765 66.2099 64.3994 64.5869 64.3994 62.5581C64.3994 60.5293 62.7765 58.9062 60.7479 58.9062C58.7193 58.9062 57.0964 60.58 57.0964 62.5581Z" fill="#212122"/>
<path d="M61.2042 60.733C61.2042 61.3923 61.7114 61.8995 62.3707 61.8995C63.03 61.8995 63.5371 61.3923 63.5371 60.733C63.5371 60.0736 63.03 59.5664 62.3707 59.5664C61.7114 59.5664 61.2042 60.0736 61.2042 60.733Z" fill="white"/>
<path d="M47.1149 75.4039C45.2136 73.5024 45.2136 70.4195 47.1149 68.518C49.0162 66.6165 52.0989 66.6165 54.0002 68.518C55.9015 70.4195 55.9015 73.5024 54.0002 75.4039C52.0989 77.3054 49.0162 77.3054 47.1149 75.4039Z" fill="white"/>
<path d="M87.9312 84.2158C85.9532 86.9547 82.8596 88.6792 79.7153 89.8457C70.84 93.1425 60.5448 92.5846 52.0753 88.3241" stroke="#212122" stroke-width="1.30252" stroke-miterlimit="10"/>
<path d="M67.0874 44.5512C65.855 44.5512 64.8559 43.5521 64.8559 42.3196C64.8559 41.087 65.855 40.0879 67.0874 40.0879C68.3198 40.0879 69.3188 41.087 69.3188 42.3196C69.3188 43.5521 68.3198 44.5512 67.0874 44.5512Z" fill="#C8006E"/>
<path d="M63.8418 34.2055C63.8418 35.3213 64.7547 36.285 65.9212 36.285C67.0369 36.285 68.0005 35.3721 68.0005 34.2055C68.0005 33.0897 67.0876 32.126 65.9212 32.126C64.7547 32.1767 63.8418 33.0897 63.8418 34.2055Z" fill="#C8006E"/>
<path d="M64.7042 28.0168C63.6398 28.0168 62.777 27.1539 62.777 26.0895C62.777 25.025 63.6398 24.1621 64.7042 24.1621C65.7685 24.1621 66.6313 25.025 66.6313 26.0895C66.6313 27.1539 65.7685 28.0168 64.7042 28.0168Z" fill="#C8006E"/>
<path d="M61.7619 17.9744C61.7619 18.9381 62.5734 19.7496 63.537 19.7496C64.5006 19.7496 65.312 18.9381 65.312 17.9744C65.312 17.0107 64.5006 16.1992 63.537 16.1992C62.5734 16.1992 61.7619 17.0107 61.7619 17.9744Z" fill="#C8006E"/>
<path d="M62.3708 11.4824C61.4745 11.4824 60.7479 10.7557 60.7479 9.85936C60.7479 8.96298 61.4745 8.23633 62.3708 8.23633C63.2671 8.23633 63.9937 8.96298 63.9937 9.85936C63.9937 10.7557 63.2671 11.4824 62.3708 11.4824Z" fill="#C8006E"/>
<path d="M38.0279 65.601C39.1944 66.0068 40.4623 65.3981 40.868 64.2316C41.2737 63.065 40.6652 61.797 39.4987 61.3913C38.3322 60.9855 37.0643 61.5942 36.6586 62.7607C36.2529 63.9273 36.8615 65.1953 38.0279 65.601Z" fill="#C8006E"/>
<path d="M30.0148 63.9272C31.0799 64.2823 32.2463 63.7243 32.6521 62.6592C33.0071 61.5941 32.4492 60.4275 31.3842 60.0218C30.3191 59.6667 29.1527 60.2247 28.747 61.2898C28.3412 62.4056 28.9498 63.5722 30.0148 63.9272Z" fill="#C8006E"/>
<path d="M22.0015 62.2537C23.0158 62.6087 24.0808 62.0508 24.4358 61.0871C24.7909 60.0727 24.233 59.0076 23.2694 58.6525C22.2551 58.2975 21.1901 58.8554 20.8351 59.8191C20.4801 60.8335 20.9872 61.8986 22.0015 62.2537Z" fill="#C8006E"/>
<path d="M13.9891 60.5801C14.902 60.8845 15.9163 60.428 16.2206 59.515C16.5249 58.6021 16.0684 57.5877 15.1556 57.2833C14.2427 56.979 13.2283 57.4355 12.924 58.3485C12.569 59.2614 13.0762 60.2758 13.9891 60.5801Z" fill="#C8006E"/>
<path d="M5.97568 58.9061C6.83784 59.2104 7.75071 58.7539 8.00429 57.8917C8.30858 57.0295 7.85214 56.1165 6.98998 55.8629C6.12782 55.5586 5.21495 56.0151 4.96137 56.8773C4.7078 57.6888 5.16424 58.6018 5.97568 58.9061Z" fill="#C8006E"/>
<path d="M51.3151 103.033C52.228 102.221 52.2787 100.801 51.4673 99.8881C50.6558 98.9751 49.2358 98.9244 48.3229 99.7359C47.41 100.547 47.3593 101.968 48.1707 102.881C49.0329 103.794 50.4022 103.844 51.3151 103.033Z" fill="#C8006E"/>
<path d="M45.9902 109.221C46.8524 108.46 46.9031 107.141 46.1424 106.33C45.3816 105.467 44.063 105.417 43.2516 106.178C42.3894 106.938 42.3387 108.257 43.0994 109.069C43.8094 109.931 45.128 109.982 45.9902 109.221Z" fill="#C8006E"/>
<path d="M40.6652 115.409C41.4259 114.699 41.5273 113.481 40.8173 112.721C40.1073 111.96 38.8901 111.858 38.1294 112.568C37.3687 113.279 37.2672 114.496 37.9773 115.257C38.6366 116.068 39.8537 116.119 40.6652 115.409Z" fill="#C8006E"/>
<path d="M35.2888 121.597C35.9988 120.938 36.0496 119.822 35.441 119.112C34.7817 118.402 33.6659 118.351 32.9559 118.959C32.2459 119.619 32.1952 120.735 32.8038 121.445C33.4631 122.206 34.5788 122.256 35.2888 121.597Z" fill="#C8006E"/>
<path d="M29.9643 127.784C30.6236 127.175 30.6743 126.161 30.0657 125.502C29.4572 124.842 28.4428 124.791 27.7835 125.4C27.1242 126.009 27.0735 127.023 27.6821 127.683C28.2907 128.342 29.305 128.393 29.9643 127.784Z" fill="#C8006E"/>
<path d="M101.473 63.3185C100.408 63.9271 99.0386 63.5721 98.43 62.5577C97.8215 61.4926 98.1765 60.1231 99.1908 59.5145C100.256 58.9059 101.625 59.2609 102.234 60.2753C102.893 61.3404 102.538 62.6591 101.473 63.3185Z" fill="#C8006E"/>
<path d="M108.979 60.0218C108.015 60.5797 106.747 60.2754 106.139 59.3117C105.581 58.348 105.885 57.08 106.849 56.4714C107.812 55.9135 109.08 56.2178 109.689 57.1815C110.297 58.1959 109.942 59.4639 108.979 60.0218Z" fill="#C8006E"/>
<path d="M116.485 56.776C115.572 57.334 114.405 57.0296 113.847 56.1167C113.289 55.2037 113.594 54.0372 114.507 53.4792C115.42 52.9213 116.586 53.2256 117.144 54.1386C117.702 55.0516 117.397 56.2181 116.485 56.776Z" fill="#C8006E"/>
<path d="M123.99 53.5294C123.179 54.0366 122.063 53.7323 121.556 52.9208C121.049 52.1093 121.353 50.9934 122.164 50.4862C122.976 49.979 124.092 50.2834 124.599 51.0949C125.106 51.9571 124.802 53.0222 123.99 53.5294Z" fill="#C8006E"/>
<path d="M131.496 50.2328C130.735 50.6893 129.721 50.4357 129.315 49.6749C128.859 48.9141 129.112 47.8997 129.873 47.4939C130.634 47.0375 131.648 47.2911 132.054 48.0519C132.51 48.8127 132.257 49.7763 131.496 50.2328Z" fill="#C8006E"/>
<path d="M94.474 103.946C93.5104 103.185 93.4089 101.765 94.1697 100.852C94.9304 99.8881 96.3504 99.7866 97.2633 100.547C98.1762 101.308 98.3283 102.728 97.5676 103.641C96.8069 104.605 95.4376 104.706 94.474 103.946Z" fill="#C8006E"/>
<path d="M100.103 109.88C99.2411 109.169 99.089 107.851 99.799 106.989C100.509 106.126 101.828 105.974 102.69 106.684C103.552 107.394 103.704 108.713 102.994 109.575C102.284 110.488 101.016 110.59 100.103 109.88Z" fill="#C8006E"/>
<path d="M105.732 115.814C104.921 115.155 104.819 113.937 105.479 113.126C106.138 112.314 107.355 112.213 108.167 112.872C108.978 113.532 109.08 114.749 108.42 115.56C107.761 116.372 106.544 116.473 105.732 115.814Z" fill="#C8006E"/>
<path d="M111.362 121.748C110.602 121.14 110.5 120.024 111.109 119.263C111.717 118.502 112.833 118.401 113.594 119.01C114.355 119.618 114.456 120.734 113.847 121.495C113.239 122.256 112.123 122.357 111.362 121.748Z" fill="#C8006E"/>
<path d="M116.992 127.683C116.282 127.125 116.18 126.11 116.789 125.4C117.347 124.69 118.361 124.589 119.071 125.197C119.781 125.755 119.882 126.77 119.274 127.48C118.665 128.19 117.702 128.241 116.992 127.683Z" fill="#C8006E"/>
</svg>
